<?xml version="1.0" encoding="utf-8"?>
<!-- Generator: Adobe Illustrator 26.0.1, SVG Export Plug-In . SVG Version: 6.00 Build 0)  -->
<svg version="1.1" id="Layer_1" xmlns="http://www.w3.org/2000/svg" xmlns:xlink="http://www.w3.org/1999/xlink" x="0px" y="0px"
	 viewBox="0 0 1190.6 841.9" style="enable-background:new 0 0 1190.6 841.9;" xml:space="preserve">
<style type="text/css">
	.st0{fill:#F1F0F0;}
	.st1{fill:#235BAA;}
	.st2{fill:#D0D1D1;}
	.st3{fill:#A2D9D2;}
	.st4{fill:#DCDBDB;}
	.st5{fill:#FFFFFF;}
	.st6{fill:#C7C6C5;}
	.st7{fill:#ECE2D3;}
	.st8{fill:#E76524;}
	.st9{fill:#E98924;}
	.st10{fill:#98B63C;}
	.st11{fill:#6FAA43;}
	.st12{fill:#CD2027;}
	.st13{fill:#B62025;}
	.st14{fill:#E12826;}
	.st15{fill:#682722;}
	.st16{fill:#4C1918;}
	.st17{fill:#FED94F;}
	.st18{fill:#EF9325;}
	.st19{fill:#F4A855;}
	.st20{fill:#FEE021;}
	.st21{fill:#FCB117;}
</style>
<g>
	<path class="st0" d="M693.1,420.9c0,54.2-44,98.2-98.2,98.2c-54.2,0-98.2-44-98.2-98.2c0-54.2,44-98.2,98.2-98.2
		C649.1,322.7,693.1,366.6,693.1,420.9z"/>
	<path class="st1" d="M594.9,329.3c12.4,0,24.3,2.4,35.6,7.2c10.9,4.6,20.7,11.2,29.1,19.6c8.4,8.4,15,18.2,19.6,29.1
		c4.8,11.3,7.2,23.3,7.2,35.6c0,12.4-2.4,24.4-7.2,35.6c-4.6,10.9-11.2,20.7-19.6,29.1c-8.4,8.4-18.2,15-29.1,19.6
		c-11.3,4.8-23.3,7.2-35.6,7.2c-12.4,0-24.3-2.4-35.6-7.2c-10.9-4.6-20.7-11.2-29.1-19.6c-8.4-8.4-15-18.2-19.6-29.1
		c-4.8-11.3-7.2-23.3-7.2-35.6c0-12.4,2.4-24.3,7.2-35.6c4.6-10.9,11.2-20.7,19.6-29.1c8.4-8.4,18.2-15,29.1-19.6
		C570.5,331.8,582.5,329.3,594.9,329.3L594.9,329.3z M594.9,327.1c-51.8,0-93.8,42-93.8,93.8c0,51.8,42,93.8,93.8,93.8
		c51.8,0,93.8-42,93.8-93.8C688.7,369.1,646.7,327.1,594.9,327.1L594.9,327.1z"/>
	<path class="st1" d="M594.9,332.5c11.9,0,23.5,2.3,34.4,6.9c10.5,4.5,20,10.8,28.1,18.9c8.1,8.1,14.5,17.6,18.9,28.1
		c4.6,10.9,6.9,22.5,6.9,34.4c0,11.9-2.3,23.5-6.9,34.4c-4.5,10.5-10.8,20-18.9,28.1c-8.1,8.1-17.6,14.5-28.1,18.9
		c-10.9,4.6-22.5,6.9-34.4,6.9c-11.9,0-23.5-2.3-34.4-6.9c-10.5-4.4-20-10.8-28.1-18.9c-8.1-8.1-14.5-17.6-18.9-28.1
		c-4.6-10.9-6.9-22.5-6.9-34.4c0-11.9,2.3-23.5,6.9-34.4c4.5-10.5,10.8-20,18.9-28.1c8.1-8.1,17.6-14.5,28.1-18.9
		C571.4,334.9,582.9,332.5,594.9,332.5L594.9,332.5z M594.9,331.6c-49.3,0-89.3,40-89.3,89.3c0,49.3,40,89.3,89.3,89.3
		c49.3,0,89.3-40,89.3-89.3C684.1,371.6,644.2,331.6,594.9,331.6L594.9,331.6z"/>
	<path class="st2" d="M662.3,420.9c0,37.3-30.2,67.5-67.5,67.5c-37.3,0-67.5-30.2-67.5-67.5c0-37.3,30.2-67.5,67.5-67.5
		C632.1,353.4,662.3,383.6,662.3,420.9z"/>
	<path class="st0" d="M660.9,420.9c0,36.5-29.6,66-66,66c-36.5,0-66-29.6-66-66c0-36.5,29.6-66,66-66
		C631.3,354.9,660.9,384.4,660.9,420.9z"/>
</g>
<g>
	<g>
		<g>
			
				<ellipse transform="matrix(0.7071 -0.7071 0.7071 0.7071 -128.4243 545.9909)" class="st3" cx="594.9" cy="428" rx="95.4" ry="95.4"/>
			<circle class="st4" cx="594.9" cy="413.8" r="95.4"/>
			<path class="st5" d="M594.9,322.2c52,0,94.3,41.7,95.3,93.5c0-0.6,0-1.3,0-1.9c0-52.7-42.7-95.4-95.4-95.4
				c-52.7,0-95.4,42.7-95.4,95.4c0,0.6,0,1.3,0,1.9C500.6,363.9,542.8,322.2,594.9,322.2z"/>
			<path class="st6" d="M594.9,502.4c-51.5,0-93.5-40.9-95.3-92c0,1.1-0.1,2.3-0.1,3.4c0,52.7,42.7,95.4,95.4,95.4
				c52.7,0,95.4-42.7,95.4-95.4c0-1.1,0-2.3-0.1-3.4C688.4,461.5,646.4,502.4,594.9,502.4z"/>
			
				<ellipse transform="matrix(0.7071 -0.7071 0.7071 0.7071 -118.3561 541.8204)" class="st5" cx="594.9" cy="413.8" rx="88.6" ry="88.6"/>
			<path class="st4" d="M594.9,339.8c-40.9,0-74,33.1-74,74c0,40.9,33.1,74,74,74c40.9,0,74-33.1,74-74
				C668.9,372.9,635.7,339.8,594.9,339.8z M594.9,485.2c-39.4,0-71.4-32-71.4-71.4s32-71.4,71.4-71.4c39.4,0,71.4,32,71.4,71.4
				S634.3,485.2,594.9,485.2z"/>
		</g>
	</g>
	<g>
		<path class="st7" d="M664,390.5c0-0.7-0.1-1.5-0.5-2c-0.3-0.5-0.9-0.7-1.4-1c-0.8-0.4-1.8-1-2.8-1.6c-1.1-0.6-2.2-1.2-3.3-1.3
			c0.1,2.1,0.4,4.2,0.7,6.4l-2.4-0.3l0,0l-2.3-0.3c0,0-5,20.9-3,33.3h1.9h0.4c0.5,5.6,0.5,10.1,0.2,13.7c-0.5-0.7-0.9-1.6-1.4-2.4
			c-0.6-1.1-1.4-2.1-2.2-2.7c-2.7,5.6-4.3,11.8-7,17.4c-0.4,0.7-2.7,4.8-4.9,8.7c-5.9,1.5-11.5,4.1-17.4,5.6
			c-1.6,0.4-18.3,3.2-18.3,3.4c-0.1,0.5-0.1,1.1,0,1.6c0.1,0.6,0.2,1.2,0.4,1.8c-0.1,0-0.1-0.1-0.1-0.1l1.1,3
			c-2.3-1.8-5.1-3.4-8.1-4.7c-0.9-0.4-1.7-0.7-2.6-1.1c-9.3-3.6-19.1-5-19.1-5l0,0l0,0l0.2,0.7l0.5,1.7h0l0.2,0.6
			c-4.1-1.6-10.1-5.3-18.3-13.5l0.2-0.8v0l1.2-4.3c-20.8-16.5-18.5-24.6-18.5-24.6l-3.2,3.2l0,0l-1,1c0.1,0.4,0.2,0.8,0.3,1.2
			c0.5,1.6,1.2,3.2,2,4.8c0.4,0.8,0.9,1.6,1.4,2.4c0.5,0.8,1,1.6,1.6,2.3c0.3,0.4,0.6,0.8,0.8,1.2c0.6,0.8,1.1,1.5,1.7,2.2
			c0.6,0.7,1.2,1.4,1.8,2.1c1.5,1.7,3,3.3,4.4,4.8c0,0,0,0,0,0c0.6,0.6,1.1,1.1,1.6,1.6c0.5,0.5,1,0.9,1.4,1.4
			c0.3,0.3,0.7,0.6,1,0.9l-2.5,1l0,0l-2,0.8c-3.2-4.7-5.4-8.6-6.8-11.8c-1.6,0.5-3.2,1-4.8,1.5c1.2,3.3,2.7,6.5,4.3,9.3
			c1.2,2.3,2.5,4.4,3.6,6.1c0.5,0.9,1,1.6,1.5,2.3c1.1,1.7,1.8,2.6,1.8,2.6l1.3-2.2l0,0l2.3-3.9c-0.8-1-1.5-2-2.1-2.9
			c2.2,2,7.2,6.5,13.1,10.4c4.7,3.1,10,5.7,14.8,6.4l0.9-1.1l0,0l0.3-0.3c23.3,3.6,25.4,11.1,25.4,11.1l1.1-4.8c1,0.2,1.9,0.3,3,0.3
			c1.7,0.1,3.6,0,5.4-0.3c0.5-0.1,0.9-0.1,1.4-0.2c4.6-0.7,9.4-2.1,13.3-3.4c1.2-0.4,2.3-0.8,3.3-1.2c0.7-0.3,1.3-0.5,1.9-0.7
			c1.5-0.6,2.7-1.1,3.4-1.4l2.8,1.6l0,0l1.2,0.7c11.4-6.1,20.9-27,20.9-27l-4.7-0.1c0-0.2,0.1-0.3,0.1-0.5c0.4-1.3,0.7-2.7,0.9-4.1
			c0.4-2.3,0.7-4.7,0.9-7c0-0.5,0.1-0.9,0.1-1.4c0.1-1.4,0.1-2.7,0.2-3.9c0-0.4,0-0.8,0-1.2c0-0.4,0-0.8,0-1.2c0-0.8,0-1.5,0-2.2
			c0-0.3,0-0.7,0-1c-0.1-2.8-0.3-4.7-0.3-4.7l-2.2,1.2l0,0l-0.5,0.3c-0.6-5.2-0.8-14.2,2.8-24c0.4,2.7,0.8,5.4,1,8.1
			c0.1,1.6-0.3,18.5-0.1,18.6c0.5,0.2,1.1,0.3,1.6,0.3c0.7,0.1,1.4,0,2.1-0.1C663.8,411.7,664.5,401,664,390.5z M650.6,444.1
			c-1.5,6-3.9,7.3-3.9,7.3h3.3c-6.7,12.8-12.1,16.2-14.5,17.1l-0.9-0.8c0.2,0.1,0.3,0.2,0.5,0.2C641,460.5,646.2,452.6,650.6,444.1z
			 M618.2,469.7c-11.1,3.6-15.8,2-17.1,1.2C606.8,470.9,612.5,470.4,618.2,469.7z"/>
		<path class="st7" d="M590.1,479.8l-0.9-2.3l0,0l-1.6-4.2c-26.5-1.1-29.4-9-29.4-9l-0.9,5.9c2.8,2.4,6.6,4.2,10.6,5.5
			c0.9,0.3,1.8,0.6,2.7,0.8c0.5,0.1,0.9,0.3,1.4,0.4c1.3,0.3,2.5,0.6,3.8,0.9c0.2,0,0.3,0.1,0.5,0.1c5.2,1.1,9.8,1.6,12.2,1.8
			c0.2,0,0.4,0,0.6,0.1C589.8,479.8,590.1,479.8,590.1,479.8z"/>
		<path class="st7" d="M560.5,362.1c4-2,6.6-3.6,6.6-3.6l0,0h0l-2-1.4l0,0l-3.7-2.6c-6.9,4.4-12.4,7-16.6,8.4
			c0.4,1.6,0.8,3.3,1.1,4.9C551.2,366.5,556.5,364.1,560.5,362.1z"/>
		<path class="st7" d="M628.5,357.2l0.6-2.1l0.4,1.9h0l1,4.4c8.1,1.4,13.9,3.1,18,4.9c0.8-1.5,1.6-2.9,2.5-4.4
			c-3.1-1.6-6.4-2.8-9.5-3.9c-2.2-0.7-4.2-1.3-6-1.8c-0.5-0.1-1-0.3-1.5-0.4c-2.4-0.6-4.2-1-4.8-1.1l0.6-2h0l0.6-2.2l0,0v0
			c0,0-0.9-0.4-2.3-0.9c-0.2-0.1-0.3-0.1-0.5-0.2c-1.8-0.7-4.2-1.6-7.1-2.5c-0.3-0.1-0.5-0.2-0.8-0.2c-1-0.3-1.9-0.6-3-0.9
			c-0.2-0.1-0.4-0.1-0.7-0.2c-1.1-0.3-2.2-0.6-3.4-0.9c-0.2-0.1-0.4-0.1-0.6-0.2c-0.7-0.2-1.4-0.3-2.1-0.5c-0.2,0-0.4-0.1-0.6-0.1
			c-0.8-0.2-1.6-0.4-2.4-0.5c-0.9-0.2-1.8-0.3-2.7-0.5c-0.9-0.1-1.8-0.2-2.6-0.3c-1.3-0.1-2.5-0.2-3.7-0.2l-0.3,1.9l0,0l-0.7,4.3
			C597,348.6,613.1,346.9,628.5,357.2z"/>
		<path class="st7" d="M570.8,366.6l-2.9-3.6l0,0l-1-1.3c6-1.3,11.9-3.8,17.9-5.2c1.6-0.4,18.4-2.6,18.4-2.9c0.1-0.5,0.1-1.1,0-1.6
			c0-0.7-0.2-1.4-0.4-2c-10.5-0.2-21.1,0.7-31.5,3c-0.7,0.1-1.4,0.3-1.9,0.8c-0.4,0.4-0.6,1-0.8,1.5c-0.3,0.9-0.7,1.9-1.1,3
			c-0.4,1.1-0.8,2.3-0.8,3.3l-0.3-0.3c0,0-9.4,5.9-17.4,13c-0.7,0.6-1.4,1.2-2,1.9c-1.7,1.6-3.2,3.2-4.6,4.8c-0.5,0.6-1,1.3-1.5,1.9
			l4.5,4.4C545.5,387.2,553.5,373.2,570.8,366.6z"/>
		<path class="st7" d="M538.7,419.1c0.1,1.8,0.2,3.4,0.4,5h1.9h4.4c0,0-4.2-15.6,3.6-32.5l-4.6-0.6v0l-2.3-0.3
			c0,0-3.1,12.8-3.5,24.2c0,0.5,0,0.9,0,1.4c0,0.5,0,0.9,0,1.4C538.7,418.2,538.7,418.6,538.7,419.1z"/>
		<path class="st7" d="M641.8,372.6c1,1.1,2.2,2.3,3.4,3.8c0.4,0.5,0.8,1,1.2,1.5c0.8,1,1.6,2.1,2.4,3.2c0.4,0.6,0.8,1.1,1.2,1.7
			c0.8,1.1,1.5,2.3,2.1,3.5c0.3,0.6,0.6,1.2,0.9,1.8l2.9-1.1c0,0-2.9-8.9-13.8-22l-1.9,2.1h0l-1.9,2.1
			C638.3,369.1,639.7,370.4,641.8,372.6z"/>
		<path class="st7" d="M534.8,412.5c0,0,3.5-8.7,3.9-25.7l-2.9,0.4l0,0l-2.8,0.4c0,0,0.3,2.3,0.5,5.7c0.1,1.8,0.1,4,0.1,6.2
			c0,0.3,0,0.7,0,1c0,1-0.1,2-0.2,3c-0.2,1.8-0.4,3.6-0.8,5.3c-0.1,0.5-0.2,1-0.3,1.5c-0.1,0.4-0.2,0.8-0.3,1.2l0,0v0L534.8,412.5z"
			/>
		<path class="st7" d="M634.1,368.4c-0.2-0.2-0.4-0.3-0.7-0.5c-0.7-0.5-1.4-1-2.1-1.6c-2.4-1.9-5.1-4.1-7.4-6.6
			c-0.7-0.7-1.4-1.5-2-2.3c-0.4-0.5-0.8-1.1-1.2-1.6l-2.6,1.6c0,0,4.6,8.1,17.8,19l1.5-2.5h0l0.9-1.5l0.6-1l0,0l0,0
			C638.9,371.5,636.9,370.4,634.1,368.4z"/>
	</g>
	<g>
		<path class="st8" d="M654.3,418.1c-0.3-0.2-0.4-0.6-0.2-1c0.2-0.3,0.6-0.4,1-0.2c0.3,0.2,0.4,0.6,0.2,1
			C655.1,418.2,654.6,418.3,654.3,418.1z"/>
		<path class="st8" d="M628.8,363.2c-0.3-0.2-0.4-0.6-0.2-1c0.2-0.3,0.6-0.4,1-0.2c0.3,0.2,0.4,0.6,0.2,1
			C629.6,363.3,629.2,363.4,628.8,363.2z"/>
		<path class="st8" d="M553.6,454.1c-0.3-0.2-0.4-0.6-0.2-1c0.2-0.3,0.6-0.4,1-0.2c0.3,0.2,0.4,0.6,0.2,1
			C554.3,454.2,553.9,454.3,553.6,454.1z"/>
		<path class="st8" d="M558.3,373.9c-0.3-0.2-0.4-0.6-0.2-1c0.2-0.3,0.6-0.4,1-0.2c0.3,0.2,0.4,0.6,0.2,1
			C559,374.1,558.6,374.2,558.3,373.9z"/>
		<path class="st8" d="M631.8,453.4c-0.3-0.2-0.4-0.6-0.2-1c0.2-0.3,0.6-0.4,1-0.2c0.3,0.2,0.4,0.6,0.2,1
			C632.5,453.5,632.1,453.6,631.8,453.4z"/>
		<path class="st8" d="M654.3,384.2c-0.3-0.2-0.4-0.6-0.2-1c0.2-0.3,0.6-0.4,1-0.2c0.3,0.2,0.4,0.6,0.2,1
			C655.1,384.4,654.6,384.5,654.3,384.2z"/>
		<path class="st8" d="M641.8,379.1c-0.3-0.2-0.4-0.6-0.2-1c0.2-0.3,0.6-0.4,1-0.2c0.3,0.2,0.4,0.6,0.2,1
			C642.6,379.2,642.2,379.3,641.8,379.1z"/>
		<path class="st8" d="M583.9,470.3c-0.3-0.2-0.4-0.6-0.2-1c0.2-0.3,0.6-0.4,1-0.2c0.3,0.2,0.4,0.6,0.2,1
			C584.7,470.4,584.3,470.5,583.9,470.3z"/>
		<path class="st8" d="M547.9,415c-0.3-0.2-0.4-0.6-0.2-1c0.2-0.3,0.6-0.4,1-0.2c0.3,0.2,0.4,0.6,0.2,1
			C548.7,415.1,548.3,415.2,547.9,415z"/>
		<path class="st8" d="M642.5,450.1c-0.3-0.2-0.4-0.6-0.2-1c0.2-0.3,0.6-0.4,1-0.2c0.3,0.2,0.4,0.6,0.2,1
			C643.3,450.2,642.9,450.3,642.5,450.1z"/>
		<path class="st8" d="M600.2,465.8c-0.3-0.2-0.4-0.6-0.2-1c0.2-0.3,0.6-0.4,1-0.2c0.3,0.2,0.4,0.6,0.2,1
			C601,466,600.5,466.1,600.2,465.8z"/>
		<path class="st8" d="M543.5,437.4c-0.3-0.2-0.4-0.6-0.2-1c0.2-0.3,0.6-0.4,1-0.2c0.3,0.2,0.4,0.6,0.2,1
			C544.3,437.5,543.8,437.6,543.5,437.4z"/>
		<path class="st8" d="M603.4,350.9c0.1-0.4,0.4-0.6,0.8-0.6c0.4,0.1,0.6,0.4,0.6,0.8c-0.1,0.4-0.4,0.6-0.8,0.6
			C603.6,351.6,603.4,351.3,603.4,350.9z"/>
		<path class="st8" d="M617.9,465.8c-0.3-0.2-0.4-0.6-0.2-1c0.2-0.3,0.6-0.4,1-0.2c0.3,0.2,0.4,0.6,0.2,1
			C618.7,466,618.3,466.1,617.9,465.8z"/>
		<path class="st8" d="M573.1,369.4c0.1-0.4,0.4-0.6,0.8-0.6c0.4,0.1,0.6,0.4,0.6,0.8c-0.1,0.4-0.4,0.6-0.8,0.6
			C573.2,370.1,573,369.7,573.1,369.4z"/>
		<path class="st8" d="M650.1,434.7c-0.3-0.2-0.4-0.6-0.2-1c0.2-0.3,0.6-0.4,1-0.2c0.3,0.2,0.4,0.6,0.2,1
			C650.9,434.8,650.4,434.9,650.1,434.7z"/>
		<path class="st8" d="M578,357.1c0.1-0.4,0.4-0.6,0.8-0.6c0.4,0.1,0.6,0.4,0.6,0.8c-0.1,0.4-0.4,0.6-0.8,0.6
			C578.2,357.8,577.9,357.5,578,357.1z"/>
		<path class="st8" d="M547.9,390.1c-0.3-0.2-0.4-0.6-0.2-1c0.2-0.3,0.6-0.4,1-0.2c0.3,0.2,0.4,0.6,0.2,1
			C548.7,390.3,548.3,390.3,547.9,390.1z"/>
		<path class="st8" d="M572,464.4c-0.3-0.2-0.4-0.6-0.2-1c0.2-0.3,0.6-0.4,1-0.2c0.3,0.2,0.4,0.6,0.2,1
			C572.8,464.6,572.3,464.7,572,464.4z"/>
		<path class="st8" d="M587.5,348.1c0.1-0.4,0.4-0.6,0.8-0.6c0.4,0.1,0.6,0.4,0.6,0.8c-0.1,0.4-0.4,0.6-0.8,0.6
			C587.7,348.9,587.4,348.5,587.5,348.1z"/>
		<path class="st8" d="M649.4,399.4c-0.3-0.2-0.4-0.6-0.2-1c0.2-0.3,0.6-0.4,1-0.2c0.3,0.2,0.4,0.6,0.2,1
			C650.2,399.6,649.7,399.7,649.4,399.4z"/>
	</g>
	<path class="st7" d="M646.2,422.8c-0.1-0.6-0.2-1.3-0.3-1.9c0-0.1,0-0.2-0.1-0.2c-0.1-0.5-0.3-1.1-0.4-1.6
		c-0.1-0.2-0.1-0.4-0.2-0.6c-0.2-0.5-0.4-1.1-0.6-1.6c-0.1-0.2-0.1-0.3-0.2-0.5c-0.2-0.4-0.3-0.7-0.5-1.1c0,0,0,0,0,0
		c0-0.1-0.1-0.1-0.1-0.2c-0.1-0.2-0.2-0.4-0.3-0.5c0-0.1-0.1-0.1-0.1-0.2c0,0,0,0,0,0.1c-0.2-0.3-0.4-0.6-0.6-0.9
		c-0.1-0.2-0.3-0.4-0.4-0.6c-0.1-0.1-0.2-0.3-0.3-0.4c0-0.4,0-0.8,0-1.3c0-0.1,0-0.3,0-0.4l3.9-5.8c0.7-1.1,0.7-2.5,0-3.6
		l-10.5-13.8c-5-9.5-13.4-16.8-23.7-20.5l-12.2-7.7c-1.3-0.8-3-0.8-4.3,0l-12.2,7.7c-9.9,3.5-18.1,10.5-23.2,19.4l-13.3,14.8
		c-0.9,1.1-0.9,2.5,0,3.6l6,7.5c-0.1,0.2-0.3,0.4-0.4,0.5c-0.1,0.2-0.3,0.4-0.4,0.6c-0.2,0.3-0.4,0.6-0.6,0.9c0,0,0,0,0-0.1
		c0,0.1-0.1,0.1-0.1,0.2c-0.1,0.2-0.2,0.4-0.3,0.5c0,0.1-0.1,0.1-0.1,0.2c0,0,0,0,0,0c-0.2,0.4-0.3,0.7-0.5,1.1
		c-0.1,0.2-0.2,0.3-0.2,0.5c-0.2,0.5-0.4,1.1-0.6,1.6c-0.1,0.2-0.1,0.4-0.2,0.6c-0.2,0.5-0.3,1-0.4,1.6c0,0.1,0,0.2-0.1,0.2
		c-0.1,0.6-0.2,1.2-0.3,1.9c0,0.2,0,0.3-0.1,0.5c-0.1,0.6-0.1,1.3-0.1,2c0,6,2.4,11.4,6.4,15.3c1,1,2.1,1.9,3.2,2.6
		c0.6,0.4,1.2,0.8,1.8,1.1c1.2,0.6,2.4,1.2,3.7,1.6c7.9,10.1,20.2,16.6,33.9,16.6c13.8,0,26.1-6.5,34-16.6
		c8.6-2.9,14.8-11,14.8-20.6c0-0.7,0-1.3-0.1-2C646.2,423.2,646.2,423,646.2,422.8z"/>
	<g>
		<circle class="st9" cx="597.5" cy="415.7" r="43.1"/>
		<path class="st10" d="M562.8,437.9c0,0,1.9,6.6,5,7.5c3.1,0.9,6.4,2.2,7.9,4.2c1.4,2,4.3,3.8,8,2.6c3.6-1.2,3.4,1.8,5.6,2.7
			c2.2,0.9,7.5,2.2,10.3,0.3s2.8-1.4,6.5-0.6c3.6,0.8,7.5,0.3,8.9-2.3c1.4-2.6,4.3-4.1,6.7-3.8s6.9-2,6.3-5.3
			c-0.6-3.3,2.3-5.3,2.3-5.3h-1.3H562.8z"/>
		<g>
			<path class="st11" d="M628,443.2c-0.5,2.7-4.2,4.5-6.3,4.1c-2.4-0.4-5.3,1.2-6.7,3.8c-1.4,2.6-5.3,3.1-8.9,2.3
				c-3.6-0.8-3.7-1.3-6.5,0.6c-2.8,2-8.1,0.6-10.3-0.3s-1.9-3.8-5.6-2.7c-3.6,1.2-6.5-0.6-8-2.6c-1.4-2-4.8-3.4-7.9-4.2
				c-2.3-0.6-3.9-4.4-4.6-6.4h-0.4c0,0,1.9,6.6,5,7.5c3.1,0.9,6.4,2.2,7.9,4.2c1.4,2,4.3,3.8,8,2.6c3.6-1.2,3.4,1.8,5.6,2.7
				c2.2,0.9,7.5,2.2,10.3,0.3s2.8-1.4,6.5-0.6c3.6,0.8,7.5,0.3,8.9-2.3c1.4-2.6,4.3-4.1,6.7-3.8S628.6,446.5,628,443.2
				C628,443.2,628,443.2,628,443.2z"/>
			<path class="st11" d="M627.9,441.8c0.3-2.4,2.3-3.9,2.3-3.9h-1.1C628.4,438.8,627.8,440.1,627.9,441.8z"/>
		</g>
		<g>
			<circle class="st12" cx="570.2" cy="421.5" r="21.7"/>
			<path class="st13" d="M570.2,399.8c-8.4,0-15.7,4.8-19.3,11.8c0.9,12.7,7.1,23.8,16.4,31.4c1,0.1,1.9,0.2,2.9,0.2
				c12,0,21.7-9.7,21.7-21.7C591.9,409.6,582.2,399.8,570.2,399.8z"/>
			<path class="st14" d="M571.5,440.6c-12,0-21.7-9.7-21.7-21.7c0-2.9,0.6-5.7,1.6-8.2c-1.8,3.2-2.9,6.9-2.9,10.8
				c0,12,9.7,21.7,21.7,21.7c9.1,0,16.8-5.6,20.1-13.5C586.5,436.3,579.5,440.6,571.5,440.6z"/>
		</g>
		<g>
			<circle class="st12" cx="624.6" cy="421.5" r="21.7"/>
			<path class="st13" d="M624.6,399.8c8.4,0,15.7,4.8,19.3,11.8c-0.9,12.7-7.1,23.8-16.4,31.4c-1,0.1-1.9,0.2-2.9,0.2
				c-12,0-21.7-9.7-21.7-21.7C602.9,409.6,612.6,399.8,624.6,399.8z"/>
			<path class="st14" d="M623.3,440.6c12,0,21.7-9.7,21.7-21.7c0-2.9-0.6-5.7-1.6-8.2c1.8,3.2,2.9,6.9,2.9,10.8
				c0,12-9.7,21.7-21.7,21.7c-9.1,0-16.8-5.6-20.1-13.5C608.3,436.3,615.3,440.6,623.3,440.6z"/>
		</g>
		
			<ellipse transform="matrix(0.2335 -0.9724 0.9724 0.2335 61.7123 893.3516)" class="st15" cx="597.5" cy="407.5" rx="44.7" ry="44.7"/>
		<path class="st16" d="M606.2,363.7c-2.8-0.6-5.7-0.9-8.7-0.9s-5.9,0.3-8.7,0.9c-19.6,4-34.4,21.4-34.4,42.2
			c0,23.8,19.3,43.1,43.1,43.1c23.8,0,43.1-19.3,43.1-43.1C640.6,385.1,625.8,367.7,606.2,363.7z"/>
		<path class="st17" d="M595.4,355.7L572.8,370h49.4l-22.5-14.2C598.4,354.9,596.7,354.9,595.4,355.7z"/>
		<path class="st17" d="M599.5,455.2l22.6-16.1h-49.4l22.5,16.1C596.6,456.1,598.2,456.1,599.5,455.2z"/>
		<path class="st17" d="M546.7,401.2l15.1,18.7l1.6-40.9l-16.7,18.6C545.8,398.7,545.8,400.1,546.7,401.2z"/>
		<path class="st17" d="M646.1,397.8L631.8,379l1.6,40.9l12.6-18.6C646.8,400.2,646.8,398.9,646.1,397.8z"/>
		<circle class="st9" cx="597.5" cy="404.1" r="43.1"/>
		
			<ellipse transform="matrix(0.2329 -0.9725 0.9725 0.2329 70.9253 886.6654)" class="st18" cx="597.5" cy="398.4" rx="37.4" ry="37.4"/>
		<ellipse class="st19" cx="597.5" cy="372.7" rx="21.5" ry="9.8"/>
		<g>
			<path class="st7" d="M593.5,402.3c-0.4-0.2-0.5-0.7-0.2-1.1c0.2-0.4,0.7-0.5,1.1-0.2c0.4,0.2,0.5,0.7,0.2,1.1
				C594.4,402.4,593.9,402.5,593.5,402.3z"/>
			<path class="st7" d="M583.4,410.1c-0.4-0.2-0.5-0.7-0.2-1.1c0.2-0.4,0.7-0.5,1.1-0.2c0.4,0.2,0.5,0.7,0.2,1.1
				C584.2,410.2,583.7,410.3,583.4,410.1z"/>
			<path class="st7" d="M610.9,392.7c-0.4-0.2-0.5-0.7-0.2-1.1c0.2-0.4,0.7-0.5,1.1-0.2c0.4,0.2,0.5,0.7,0.2,1.1
				C611.8,392.8,611.3,392.9,610.9,392.7z"/>
			<path class="st7" d="M595.8,411.4c-0.4-0.2-0.5-0.7-0.2-1.1c0.2-0.4,0.7-0.5,1.1-0.2c0.4,0.2,0.5,0.7,0.2,1.1
				C596.7,411.6,596.2,411.7,595.8,411.4z"/>
			<path class="st7" d="M607.5,417.5c-0.4-0.2-0.5-0.7-0.2-1.1c0.2-0.4,0.7-0.5,1.1-0.2c0.4,0.2,0.5,0.7,0.2,1.1
				C608.4,417.7,607.9,417.8,607.5,417.5z"/>
			<path class="st7" d="M579.1,402.5c-0.4-0.2-0.5-0.7-0.2-1.1c0.2-0.4,0.7-0.5,1.1-0.2c0.4,0.2,0.5,0.7,0.2,1.1
				C580,402.6,579.5,402.7,579.1,402.5z"/>
			<path class="st7" d="M610.1,408.6c-0.4-0.2-0.5-0.7-0.2-1.1c0.2-0.4,0.7-0.5,1.1-0.2c0.4,0.2,0.5,0.7,0.2,1.1
				C611,408.7,610.5,408.8,610.1,408.6z"/>
			<path class="st7" d="M588.1,391.1c-0.4-0.2-0.5-0.7-0.2-1.1c0.2-0.4,0.7-0.5,1.1-0.2c0.4,0.2,0.5,0.7,0.2,1.1
				C589,391.3,588.5,391.4,588.1,391.1z"/>
			<path class="st7" d="M604.4,398c-0.4-0.2-0.5-0.7-0.2-1.1c0.2-0.4,0.7-0.5,1.1-0.2c0.4,0.2,0.5,0.7,0.2,1.1
				C605.3,398.1,604.8,398.2,604.4,398z"/>
			<path class="st7" d="M595,422.8c-0.4-0.2-0.5-0.7-0.2-1.1c0.2-0.4,0.7-0.5,1.1-0.2c0.4,0.2,0.5,0.7,0.2,1.1
				C595.9,422.9,595.4,423,595,422.8z"/>
			<path class="st7" d="M599.4,384.2c-0.4-0.2-0.5-0.7-0.2-1.1c0.2-0.4,0.7-0.5,1.1-0.2c0.4,0.2,0.5,0.7,0.2,1.1
				C600.3,384.3,599.8,384.4,599.4,384.2z"/>
		</g>
	</g>
	<g>
		<g>
			<path class="st20" d="M652,439.7c-4.6,9.5-10.4,18.5-17,26.6c-0.7-0.2-1.3-0.5-1.9-0.9c-0.5-0.3-0.9-0.6-1.3-1
				c-0.2-0.2,8.4-14.8,9.1-16.2c2.7-5.7,4.3-11.8,7-17.4c0.8,0.6,1.6,1.6,2.2,2.7c0.6,1,1.1,1.9,1.6,2.7c0.3,0.5,0.6,1,0.7,1.5
				C652.7,438.4,652.3,439.1,652,439.7z"/>
			<path class="st21" d="M652,439.7c-4.6,9.5-10.4,18.5-17,26.6c-0.7-0.2-1.3-0.5-1.9-0.9c0.3-0.4,0.6-0.9,1-1.4
				c5-7.6,9.7-15.4,13.4-23.8c1-2.2,1.9-4.5,2.7-6.8c0.6,1,1.1,1.9,1.6,2.7c0.3,0.5,0.6,1,0.7,1.5
				C652.7,438.4,652.3,439.1,652,439.7z"/>
		</g>
		<g>
			<path class="st20" d="M664,389c0.5,10.5-0.2,21.2-2.1,31.5c-0.7,0.1-1.4,0.2-2.1,0.1c-0.5,0-1.1-0.1-1.6-0.3
				c-0.2-0.1,0.2-17,0.1-18.6c-0.4-6.3-1.9-12.5-2.3-18.7c1,0.1,2.2,0.7,3.3,1.3c1,0.6,1.9,1.2,2.8,1.6c0.5,0.3,1,0.5,1.4,1
				C663.9,387.5,664,388.3,664,389z"/>
			<path class="st21" d="M664,389c0.5,10.5-0.2,21.2-2.1,31.5c-0.7,0.1-1.4,0.2-2.1,0.1c0.1-0.5,0.1-1.1,0.2-1.7
				c0.7-9.1,1.1-18.2,0.3-27.3c-0.2-2.4-0.5-4.9-0.9-7.2c1,0.6,1.9,1.2,2.8,1.6c0.5,0.3,1,0.5,1.4,1C663.9,387.5,664,388.3,664,389z
				"/>
		</g>
		<g>
			<path class="st20" d="M651.2,419.5l6.1-3.4c0,0,2.1,22.9-4.7,33.8h-6C646.6,449.9,654.1,445.9,651.2,419.5z"/>
			<path class="st21" d="M657.3,416.1l-2.2,1.2c0.3,7.3,0.3,22.3-4,32.6h1.4C659.4,439,657.3,416.1,657.3,416.1z"/>
		</g>
		<g>
			<path class="st20" d="M653.2,443.1l7,0.1c0,0-9.6,20.9-20.9,27l-5.2-3C634,467.3,642.5,467.5,653.2,443.1z"/>
			<path class="st21" d="M660.1,443.3l-2.5,0c-3.4,6.4-10.8,19.5-19.7,26.3l1.2,0.7C650.6,464.2,660.1,443.3,660.1,443.3z"/>
		</g>
		<g>
			<path class="st20" d="M573.7,468.1l-1.9-6.7c0,0,22.7,3.2,31.8,12.4l-1.4,5.8C602.3,479.6,600.1,471.4,573.7,468.1z"/>
			<path class="st21" d="M571.9,461.4l0.7,2.4c7.1,1.4,21.8,4.9,30.8,11.4l0.3-1.4C594.6,464.6,571.9,461.4,571.9,461.4z"/>
		</g>
		<g>
			<path class="st20" d="M587.7,471.7l2.4,6.5c0,0-22.9-1.3-32.7-9.6l0.9-5.9C558.3,462.7,561.1,470.7,587.7,471.7z"/>
			<path class="st21" d="M590.1,478.3l-0.9-2.3c-7.2-0.8-22.1-3-31.7-8.7l-0.2,1.4C567.2,477,590.1,478.3,590.1,478.3z"/>
		</g>
		<g>
			<path class="st20" d="M555.9,445.8l-1.9,6.7c0,0-17.8-14.5-20.7-27.1l4.2-4.2C537.5,421.1,535.1,429.3,555.9,445.8z"/>
			<path class="st21" d="M554,452.5l0.7-2.4c-5.4-4.9-16.1-15.4-20.4-25.7l-1,1C536.2,437.9,554,452.5,554,452.5z"/>
		</g>
		<g>
			<path class="st20" d="M535.3,441.8c3.8,10.4,11.1,20.4,11.1,20.4l3.5-6c-5-6.6-8-11.8-9.8-15.9
				C538.5,440.8,536.9,441.3,535.3,441.8z"/>
			<path class="st21" d="M535.3,441.8c3.8,10.4,11.1,20.4,11.1,20.4l1.3-2.2c-2.7-4.1-7.1-11.3-10.2-18.9
				C536.8,441.3,536,441.6,535.3,441.8z"/>
		</g>
		<g>
			<path class="st20" d="M651.1,360.3c-9.9-5-22.1-7.2-22.1-7.2l1.6,6.8c8.1,1.4,13.9,3.1,18,4.9
				C649.4,363.2,650.2,361.8,651.1,360.3z"/>
			<path class="st21" d="M651.1,360.3c-9.9-5-22.1-7.2-22.1-7.2l0.6,2.4c4.8,1.1,12.9,3.4,20.4,6.8
				C650.3,361.6,650.7,361,651.1,360.3z"/>
		</g>
		<g>
			<path class="st20" d="M545.8,366.4c10.7-2.9,21.2-9.4,21.2-9.4l-5.7-4c-6.9,4.4-12.4,7-16.6,8.4
				C545.1,363.1,545.5,364.7,545.8,366.4z"/>
			<path class="st21" d="M545.8,366.4c10.7-2.9,21.2-9.4,21.2-9.4l-2-1.4c-4.3,2.3-11.8,6.1-19.7,8.6
				C545.5,364.9,545.7,365.6,545.8,366.4z"/>
		</g>
		<g>
			<path class="st20" d="M630.8,462.9l5.3,4.6c0,0-20.7,9.9-33.4,7.2l-2-5.6C600.6,469.1,607,474.7,630.8,462.9z"/>
			<path class="st21" d="M636,467.5l-1.9-1.6c-6.7,2.8-20.8,8-32,7.5l0.5,1.4C615.3,477.4,636,467.5,636,467.5z"/>
		</g>
		<g>
			<path class="st20" d="M659,389.7l-6.9-0.8c0,0-5,20.9-3,33.3h6.3C655.4,422.1,651.2,406.5,659,389.7z"/>
			<path class="st21" d="M654.4,389.1l-2.3-0.3c0,0-5,20.9-3,33.3h1.9C649.8,410.2,653.5,392.9,654.4,389.1z"/>
		</g>
		<g>
			<path class="st20" d="M628.5,355.7l1.9-6.7c0,0-19.9-8.2-32.4-8.1l-1,6.2C597,347.1,613.1,345.4,628.5,355.7z"/>
			<path class="st21" d="M629.8,351.2l0.6-2.2c0,0-19.9-8.2-32.4-8.1l-0.3,1.9C609.7,343.4,626.2,349.7,629.8,351.2z"/>
		</g>
		<g>
			<path class="st20" d="M570.8,365.1l-4.3-5.4c0,0-18.2,11.4-25.5,21.6l4.5,4.4C545.5,385.7,553.5,371.7,570.8,365.1z"/>
			<path class="st21" d="M567.9,361.5l-1.4-1.8c0,0-18.2,11.4-25.5,21.6l1.4,1.4C549.9,373.3,564.6,363.6,567.9,361.5z"/>
		</g>
		<g>
			<path class="st20" d="M549.1,390.1l-6.9-0.8c0,0-5,20.9-3,33.3h6.3C545.5,422.5,541.3,406.9,549.1,390.1z"/>
			<path class="st21" d="M544.5,389.5l-2.3-0.3c0,0-5,20.9-3,33.3h1.9C539.9,410.6,543.6,393.4,544.5,389.5z"/>
		</g>
		<g>
			<path class="st20" d="M638.3,367.6c0,0,10.5,9.3,14.7,18.8l2.9-1.1c0,0-2.9-8.9-13.8-22L638.3,367.6z"/>
			<path class="st21" d="M654.8,385.8c-4.9-10.5-14.7-20.3-14.7-20.3h0l-1.9,2.1c0,0,10.5,9.3,14.7,18.8L654.8,385.8z"/>
		</g>
		<g>
			<path class="st20" d="M533,386c0,0,1.9,13.9-1.1,23.9l2.9,1.1c0,0,3.5-8.7,3.9-25.7L533,386z"/>
			<path class="st21" d="M533.8,410.6c3.1-11.1,2.1-24.9,2.1-24.9l0,0L533,386c0,0,1.9,13.9-1.1,23.9L533.8,410.6z"/>
		</g>
		<g>
			<path class="st20" d="M638.9,370c0,0-12.1-7.1-18.1-15.7l-2.6,1.6c0,0,4.6,8.1,17.8,19L638.9,370z"/>
			<path class="st21" d="M619.1,355.4c6.8,9.3,18.3,17.1,18.3,17.1h0l1.5-2.4c0,0-12.1-7.1-18.1-15.7L619.1,355.4z"/>
		</g>
		<g>
			<path class="st20" d="M632.2,465.6c-10.3,2.5-20.8,3.8-31.4,3.8c-0.3-0.6-0.4-1.3-0.5-2c-0.1-0.5-0.1-1.1,0-1.6
				c0-0.2,16.7-3,18.3-3.4c6.1-1.5,11.9-4.2,17.9-5.7c0.1,1-0.3,2.3-0.7,3.5c-0.4,1.1-0.8,2.1-1,3c-0.2,0.5-0.3,1.1-0.7,1.5
				C633.6,465.2,632.9,465.4,632.2,465.6z"/>
			<path class="st21" d="M632.2,465.6c-10.3,2.5-20.8,3.8-31.4,3.8c-0.3-0.6-0.4-1.3-0.5-2c0.5,0,1.1-0.1,1.7-0.2
				c9-1,18.1-2.3,26.9-4.8c2.3-0.7,4.7-1.4,6.9-2.3c-0.4,1.1-0.8,2.1-1,3c-0.2,0.5-0.3,1.1-0.7,1.5
				C633.6,465.2,632.9,465.4,632.2,465.6z"/>
		</g>
		<g>
			<path class="st20" d="M571.4,351.5c10.3-2.2,20.9-3.2,31.5-3c0.2,0.7,0.4,1.3,0.4,2c0.1,0.5,0,1.1,0,1.6c0,0.2-16.8,2.5-18.4,2.9
				c-6.1,1.4-12,3.9-18.1,5.2c0-1,0.3-2.3,0.8-3.4c0.4-1.1,0.8-2.1,1.1-3c0.2-0.5,0.4-1.1,0.8-1.5
				C569.9,351.8,570.7,351.6,571.4,351.5z"/>
			<path class="st21" d="M571.4,351.5c10.3-2.2,20.9-3.2,31.5-3c0.2,0.7,0.4,1.3,0.4,2c-0.5,0-1.1,0.1-1.7,0.1
				c-9.1,0.8-18.2,1.8-27,4c-2.4,0.6-4.7,1.3-7,2.1c0.4-1.1,0.8-2.1,1.1-3c0.2-0.5,0.4-1.1,0.8-1.5
				C569.9,351.8,570.7,351.6,571.4,351.5z"/>
		</g>
		<g>
			<path class="st20" d="M553.1,449.6l-6.5,2.6c0,0,16.3,16.2,29.1,17.8l3.8-4.6C579.5,465.4,571.7,468.6,553.1,449.6z"/>
			<path class="st21" d="M546.7,452.2l2.3-0.9c5.4,4.8,17,14.4,27.7,17.6l-0.9,1.1C563,468.3,546.7,452.2,546.7,452.2z"/>
		</g>
	</g>
</g>
</svg>
