<?xml version="1.0" encoding="utf-8"?>
<!-- Generator: Adobe Illustrator 26.0.1, SVG Export Plug-In . SVG Version: 6.00 Build 0)  -->
<svg version="1.1" id="Layer_1" xmlns="http://www.w3.org/2000/svg" xmlns:xlink="http://www.w3.org/1999/xlink" x="0px" y="0px"
	 viewBox="0 0 1190.6 841.9" style="enable-background:new 0 0 1190.6 841.9;" xml:space="preserve">
<style type="text/css">
	.st0{fill:#DAE9F1;}
	.st1{opacity:0.5;fill:#FFFFFF;}
	.st2{fill:#F79421;}
	.st3{fill:#CCDFE7;}
	.st4{opacity:0.4;fill:#E6E7E7;}
	.st5{fill:#38B34A;}
	.st6{fill:none;stroke:#333333;stroke-width:0.4393;stroke-linecap:round;stroke-linejoin:round;stroke-miterlimit:10;}
	.st7{fill:#80C242;}
	.st8{fill:#DD1F26;}
	.st9{fill:#683816;}
	.st10{fill:#9D5C25;}
	.st11{fill:#EB2127;}
	.st12{fill:#015D36;}
	.st13{fill:#005A38;}
	.st14{fill:#027848;}
	.st15{fill:#016C45;}
</style>
<g>
	<g>
		<path class="st0" d="M667.9,359.6c33.9,40.4,28.6,100.5-11.8,134.4c-40.4,33.9-100.5,28.6-134.4-11.8
			c-33.9-40.4-28.6-100.5,11.8-134.4C573.9,314,634.1,319.2,667.9,359.6z"/>
		<path class="st1" d="M533.6,351.6C574,317.8,634.1,323,668,363.4c14.2,16.9,21.5,37.3,22.3,57.7c0.1-21.7-7.3-43.6-22.3-61.5
			c-33.9-40.4-94-45.6-134.4-11.8c-23.5,19.7-35.1,48.3-34,76.7C499.6,397.4,511.2,370.4,533.6,351.6z"/>
		<path class="st2" d="M669.5,378.6c-0.7,0.4-1.6,0.5-2.4,0.3c-0.8-0.2-1.4-0.7-1.8-1.3c-0.9-1.3-0.4-3.2,1-4.2c1.4-1,3.3-0.6,4.3,1
			c0.5,0.8,0.6,1.6,0.4,2.4C670.8,377.5,670.3,378.2,669.5,378.6z"/>
		<path class="st2" d="M676.4,394c-0.8,0.3-1.7,0.2-2.4-0.2c-0.7-0.3-1.2-0.9-1.5-1.7c-0.3-0.7-0.2-1.6,0.1-2.3
			c0.3-0.7,0.9-1.3,1.7-1.7c0.8-0.3,1.7-0.3,2.4,0c0.7,0.3,1.3,0.9,1.7,1.8c0.3,0.8,0.2,1.7-0.1,2.4
			C677.8,393.2,677.2,393.7,676.4,394z"/>
		<path class="st2" d="M680,410.4c-1.7,0.2-3.2-1-3.5-2.6c-0.3-1.6,0.9-3.1,2.5-3.5c1.7-0.4,3.3,0.8,3.6,2.5
			c0.1,0.9-0.1,1.7-0.6,2.4C681.6,409.9,680.9,410.3,680,410.4z"/>
		<path class="st2" d="M680.4,427.2c-1.7-0.2-3-1.6-2.9-3.2c0-1.6,1.4-2.9,3.1-3c1.7,0,3.1,1.4,3.1,3.2
			C683.6,426.1,682.1,427.4,680.4,427.2z"/>
		<path class="st2" d="M677.5,443.8c-1.6-0.5-2.6-2.1-2.2-3.7c0.3-1.6,2-2.6,3.7-2.3c1.7,0.3,2.8,2,2.4,3.7
			C680.9,443.3,679.2,444.3,677.5,443.8z"/>
		<path class="st2" d="M671.5,459.5c-0.8-0.4-1.3-1-1.5-1.8c-0.3-0.7-0.3-1.5,0.1-2.3c0.3-0.7,0.9-1.3,1.7-1.5
			c0.7-0.3,1.6-0.3,2.4,0c0.8,0.3,1.4,0.9,1.7,1.7c0.3,0.7,0.3,1.6-0.1,2.4c-0.4,0.8-1,1.4-1.8,1.6
			C673.1,460,672.3,459.9,671.5,459.5z"/>
		<path class="st2" d="M662.5,473.7c-1.3-1.1-1.6-3-0.6-4.3c0.5-0.6,1.2-1.1,1.9-1.2c0.8-0.1,1.6,0,2.3,0.5c0.7,0.5,1.2,1.2,1.3,2
			c0.1,0.8,0,1.7-0.5,2.4C665.8,474.5,663.8,474.8,662.5,473.7z"/>
		<path class="st2" d="M650.9,485.9c-1.1-1.3-1-3.2,0.2-4.3c1.2-1.1,3.1-1.1,4.3,0.1c1.2,1.2,1.2,3.2-0.1,4.4
			C653.9,487.3,652,487.2,650.9,485.9z"/>
		<path class="st2" d="M637.1,495.6c-0.4-0.7-0.5-1.6-0.3-2.4c0.2-0.8,0.7-1.4,1.3-1.8c1.3-0.9,3.2-0.4,4.2,1c1,1.4,0.6,3.3-1,4.3
			c-0.8,0.5-1.6,0.6-2.4,0.4C638.2,496.8,637.5,496.3,637.1,495.6z"/>
		<path class="st2" d="M621.8,502.4c-0.3-0.8-0.2-1.7,0.2-2.4c0.3-0.7,0.9-1.2,1.7-1.5c0.7-0.3,1.6-0.2,2.3,0.1
			c0.7,0.3,1.3,0.9,1.7,1.7c0.3,0.8,0.3,1.7,0,2.4c-0.3,0.7-0.9,1.3-1.8,1.7c-0.8,0.3-1.7,0.2-2.4-0.1
			C622.6,503.8,622,503.2,621.8,502.4z"/>
		<path class="st2" d="M605.3,506.1c-0.2-1.7,1-3.2,2.6-3.5c1.6-0.3,3.1,0.9,3.5,2.5c0.4,1.7-0.8,3.3-2.5,3.6
			c-0.9,0.1-1.7-0.1-2.4-0.6C605.9,507.6,605.4,506.9,605.3,506.1z"/>
		<path class="st2" d="M588.5,506.5c0.2-1.7,1.6-3,3.2-2.9c1.6,0,2.9,1.4,3,3.1c0,1.7-1.4,3.1-3.2,3.1
			C589.7,509.6,588.4,508.2,588.5,506.5z"/>
		<path class="st2" d="M571.9,503.6c0.5-1.6,2.1-2.6,3.7-2.2c1.6,0.3,2.6,2,2.3,3.7c-0.3,1.7-2,2.8-3.7,2.4
			C572.5,506.9,571.4,505.2,571.9,503.6z"/>
		<path class="st2" d="M556.2,497.5c0.4-0.8,1-1.3,1.8-1.5c0.7-0.3,1.5-0.3,2.3,0.1c0.7,0.3,1.3,0.9,1.5,1.7c0.3,0.7,0.3,1.6,0,2.4
			c-0.3,0.8-0.9,1.4-1.7,1.7c-0.7,0.3-1.6,0.3-2.4-0.1c-0.8-0.4-1.4-1-1.6-1.8C555.8,499.2,555.8,498.3,556.2,497.5z"/>
		<path class="st2" d="M542,488.5c1.1-1.3,3-1.6,4.3-0.6c0.6,0.5,1.1,1.2,1.2,1.9c0.1,0.8,0,1.6-0.5,2.3c-0.5,0.7-1.2,1.2-2,1.3
			c-0.8,0.1-1.7,0-2.4-0.5C541.2,491.8,540.9,489.9,542,488.5z"/>
		<path class="st2" d="M529.9,476.9c1.3-1.1,3.2-1,4.3,0.2c1.1,1.2,1.1,3.1-0.1,4.3c-1.2,1.2-3.2,1.2-4.4-0.1
			C528.4,480,528.5,478,529.9,476.9z"/>
		<path class="st2" d="M520.2,463.2c0.7-0.4,1.6-0.5,2.4-0.3c0.8,0.2,1.4,0.7,1.8,1.3c0.9,1.3,0.4,3.2-1,4.2c-1.4,1-3.3,0.6-4.3-1
			c-0.5-0.8-0.6-1.6-0.4-2.4C518.9,464.3,519.4,463.6,520.2,463.2z"/>
		<path class="st2" d="M513.4,447.8c0.8-0.3,1.7-0.2,2.4,0.2c0.7,0.3,1.2,0.9,1.5,1.7c0.3,0.7,0.2,1.6-0.1,2.3
			c-0.3,0.7-0.9,1.3-1.7,1.7c-0.8,0.3-1.7,0.3-2.4,0c-0.7-0.3-1.3-0.9-1.7-1.8c-0.3-0.8-0.2-1.7,0.1-2.4
			C511.9,448.6,512.5,448.1,513.4,447.8z"/>
		<path class="st2" d="M509.7,431.4c1.7-0.2,3.2,1,3.5,2.6c0.3,1.6-0.9,3.1-2.5,3.5c-1.7,0.4-3.3-0.8-3.6-2.5
			c-0.1-0.9,0.1-1.7,0.6-2.4C508.1,431.9,508.8,431.5,509.7,431.4z"/>
		<path class="st2" d="M509.3,414.6c1.7,0.2,3,1.6,2.9,3.2c0,1.6-1.4,2.9-3.1,3c-1.7,0-3.1-1.4-3.1-3.2
			C506.1,415.7,507.6,414.4,509.3,414.6z"/>
		<path class="st2" d="M512.2,398c1.6,0.5,2.6,2.1,2.2,3.7c-0.3,1.6-2,2.6-3.7,2.3c-1.7-0.3-2.8-2-2.4-3.7
			C508.8,398.5,510.5,397.5,512.2,398z"/>
		<path class="st2" d="M518.2,382.3c0.8,0.4,1.3,1,1.5,1.8c0.3,0.7,0.3,1.5-0.1,2.3c-0.3,0.7-0.9,1.3-1.7,1.5
			c-0.7,0.3-1.6,0.3-2.4,0c-0.8-0.3-1.4-0.9-1.7-1.7c-0.3-0.7-0.3-1.6,0.1-2.4c0.4-0.8,1-1.4,1.8-1.6
			C516.6,381.8,517.5,381.9,518.2,382.3z"/>
		<path class="st2" d="M527.2,368.1c1.3,1.1,1.6,3,0.6,4.3c-0.5,0.6-1.2,1.1-1.9,1.2c-0.8,0.1-1.6,0-2.3-0.5c-0.7-0.5-1.2-1.2-1.3-2
			c-0.1-0.8,0-1.7,0.5-2.4C523.9,367.3,525.9,367,527.2,368.1z"/>
		<path class="st2" d="M538.8,355.9c1.1,1.3,1,3.2-0.2,4.3c-1.2,1.1-3.1,1.1-4.3-0.1c-1.2-1.2-1.2-3.2,0.1-4.4
			C535.8,354.5,537.7,354.6,538.8,355.9z"/>
		<path class="st2" d="M552.6,346.2c0.4,0.7,0.5,1.6,0.3,2.4c-0.2,0.8-0.7,1.4-1.3,1.8c-1.3,0.9-3.2,0.4-4.2-1c-1-1.4-0.6-3.3,1-4.3
			c0.8-0.5,1.6-0.6,2.4-0.4C551.5,345,552.2,345.5,552.6,346.2z"/>
		<path class="st2" d="M568,339.4c0.3,0.8,0.2,1.7-0.2,2.4c-0.3,0.7-0.9,1.2-1.7,1.5c-0.7,0.3-1.6,0.2-2.3-0.1
			c-0.7-0.3-1.3-0.9-1.7-1.7c-0.3-0.8-0.3-1.7,0-2.4c0.3-0.7,0.9-1.3,1.8-1.7c0.8-0.3,1.7-0.2,2.4,0.1
			C567.1,338,567.7,338.6,568,339.4z"/>
		<path class="st2" d="M584.4,335.7c0.2,1.7-1,3.2-2.6,3.5c-1.6,0.3-3.1-0.9-3.5-2.5c-0.4-1.7,0.8-3.3,2.5-3.6
			c0.9-0.1,1.7,0.1,2.4,0.6C583.9,334.2,584.3,334.9,584.4,335.7z"/>
		<path class="st2" d="M601.2,335.3c-0.2,1.7-1.6,3-3.2,2.9c-1.6,0-2.9-1.4-3-3.1c0-1.7,1.4-3.1,3.2-3.1
			C600,332.1,601.4,333.6,601.2,335.3z"/>
		<path class="st2" d="M617.8,338.2c-0.5,1.6-2.1,2.6-3.7,2.2c-1.6-0.3-2.6-2-2.3-3.7c0.3-1.7,2-2.8,3.7-2.4
			C617.3,334.9,618.3,336.6,617.8,338.2z"/>
		<path class="st2" d="M633.5,344.3c-0.4,0.8-1,1.3-1.8,1.5c-0.7,0.3-1.5,0.3-2.3-0.1c-0.7-0.3-1.3-0.9-1.5-1.7
			c-0.3-0.7-0.3-1.6,0-2.4c0.3-0.8,0.9-1.4,1.7-1.7c0.7-0.3,1.6-0.3,2.4,0.1c0.8,0.4,1.4,1,1.6,1.8
			C633.9,342.6,633.9,343.5,633.5,344.3z"/>
		<path class="st2" d="M647.7,353.3c-1.1,1.3-3,1.6-4.3,0.6c-0.6-0.5-1.1-1.2-1.2-1.9c-0.1-0.8,0-1.6,0.5-2.3s1.2-1.2,2-1.3
			c0.8-0.1,1.7,0,2.4,0.5C648.5,350,648.8,351.9,647.7,353.3z"/>
		<path class="st2" d="M659.9,364.9c-1.3,1.1-3.2,1-4.3-0.2c-1.1-1.2-1.1-3.1,0.1-4.3c1.2-1.2,3.2-1.2,4.4,0.1
			C661.3,361.8,661.2,363.8,659.9,364.9z"/>
		<path class="st3" d="M645.6,378.3c23.5,28,19.9,69.8-8.2,93.3c-28,23.5-69.8,19.8-93.3-8.2c-23.5-28-19.9-69.8,8.2-93.3
			C580.3,346.7,622.1,350.3,645.6,378.3z"/>
		<path class="st4" d="M639,464.7c-28,23.5-69.8,19.8-93.3-8.2c-13.1-15.6-17.8-35.5-14.5-54.2c-6,20.5-1.9,43.5,12.8,61.1
			c23.5,28,65.3,31.7,93.3,8.2c12.4-10.4,20-24.3,22.6-39.1C656.5,444.7,649.5,455.9,639,464.7z"/>
	</g>
	<g>
		<g>
			<path class="st5" d="M574.8,471.8c2.4,8.6-3.7,15.8-5.5,9.8c-1.7-6-4.2,1.9-7.7,0c-3.5-1.9-9.8,12.2-12,4.4
				c-2.2-7.8-3.3-5.9-7-4.8c-3.7,1.1-4.6,6.5-6.8-1.4c-2.3-7.9-3.2-8.5-6.7-7.5c-3.5,1-3.4,1.3-4.9-3.9c-1.5-5.1-10.1,0.5-6.2-6.4
				c3.9-6.9-7.9-4.6-5.1-9.6c2.7-4.9-10.4-12.1-5.2-13.6c5.3-1.5,0.7-15.9,9.3-11.1c8.7,4.8,15.2-2.7,18.1,7.5
				c2.9,10.2,15.8-1,18,6.8c2.2,7.8,15,4.9,12.2,10c-2.9,5.1,12,5.5,10.4,8.3C574.1,463.2,585.8,472.5,574.8,471.8z"/>
			<path class="st6" d="M571.2,474.2c0,0-52.1-21.2-57.1-38.8"/>
			<path class="st6" d="M552.3,485.2c0,0,2.8-12.8-3-16"/>
			<path class="st6" d="M540.2,478.5c0-1.3,0.1-4.6,2.1-7.9c1.7-2.8,3.9-4.3,5-4.9"/>
			<path class="st6" d="M530.6,469.5c1-1.7,5.1-7.6,10.5-7.4"/>
			<path class="st6" d="M525.5,463.1c0,0,4.9-4.1,8.3-5"/>
			<path class="st6" d="M520.1,456.5c0,0,4.7-5.2,7.5-3.7"/>
			<path class="st6" d="M547.6,458.6c-1.4-0.8,0.2-17.4,2.3-18"/>
			<path class="st6" d="M541.5,455.2c0,0-7.1-8.1-4.8-12.3"/>
			<path class="st6" d="M530.7,447.3c0,0-4.5-10.7-3-13.5"/>
			<path class="st6" d="M553.4,461.8c0,0,6.3-5.4,8.4-9.1"/>
			<path class="st6" d="M560.5,465.7c0,0,10.8,4,8.9-2.9"/>
		</g>
		<g>
			<path class="st7" d="M545,439.6c-3.4-8.2,1.9-16.1,4.3-10.4c2.4,5.8,4-2.4,7.7-0.9c3.7,1.5,8.3-13.3,11.4-5.8
				c3.1,7.5,3.9,5.4,7.5,3.9c3.6-1.5,3.8-7,7,0.6c3.2,7.6,4.2,8.1,7.6,6.7c3.4-1.4,3.3-1.7,5.3,3.3c2.1,4.9,9.9-1.7,6.9,5.6
				c-3,7.3,8.4,3.7,6.2,8.9c-2.1,5.2,11.8,10.8,6.7,12.9c-5.1,2.1,1.2,15.9-8,12.1c-9.2-3.8-14.8,4.4-18.8-5.3
				c-4.1-9.8-15.6,2.9-18.7-4.6c-3.1-7.5-15.5-3.1-13.2-8.5c2.2-5.4-12.5-4-11.3-7C546.7,448,534,440.2,545,439.6z"/>
			<path class="st6" d="M548.3,436.8c0,0,54.2,14.9,61.2,31.8"/>
			<path class="st6" d="M565.7,423.6c0,0-1.3,13,4.9,15.6"/>
			<path class="st6" d="M578.6,428.9c0.2,1.3,0.4,4.6-1.2,8.1c-1.3,2.9-3.3,4.7-4.4,5.5"/>
			<path class="st6" d="M589.1,436.7c-0.8,1.8-4.2,8.1-9.5,8.5"/>
			<path class="st6" d="M594.9,442.4c0,0-4.4,4.6-7.6,6"/>
			<path class="st6" d="M601.1,448.4c0,0-4.1,5.8-7,4.6"/>
			<path class="st6" d="M573.5,449.6c1.5,0.6,1.8,17.3-0.1,18.1"/>
			<path class="st6" d="M580,452.2c0,0,8,7.2,6.2,11.6"/>
			<path class="st6" d="M591.6,458.8c0,0,5.7,10.1,4.5,13"/>
			<path class="st6" d="M567.4,447c0,0-5.6,6.1-7.2,10"/>
			<path class="st6" d="M559.9,444c0,0-11.2-2.7-8.5,3.9"/>
		</g>
		<g>
			
				<ellipse transform="matrix(0.2774 -0.9608 0.9608 0.2774 62.5861 910.7316)" class="st8" cx="636.7" cy="413.8" rx="25.3" ry="25.3"/>
			
				<ellipse transform="matrix(0.4508 -0.8926 0.8926 0.4508 -19.6201 795.629)" class="st6" cx="636.7" cy="413.8" rx="22.8" ry="22.8"/>
			<path class="st6" d="M633.3,419.1c-1.7,1.4-2,8-6,4.9c-5.6-4.2,6.3-4.6,2.6-9.1c-3.7-4.5-19.7-0.5-6.1,12
				c13.7,12.5,14.4,5.2,14.9,0.2C639.2,422,636.2,416.7,633.3,419.1z"/>
			<path class="st6" d="M635.3,407c-0.2-2.2-5.3-6.2-0.5-7.8c6.6-2.1,0.1,7.8,5.9,7.4c5.8-0.4,11.9-15.8-6.2-11.9
				c-18.1,3.9-12.6,8.7-8.8,12C629.6,410.2,635.6,410.8,635.3,407z"/>
			<path class="st6" d="M644.2,414.7c2.1,0.9,7.9-2,7.2,3c-1,6.9-7-3.4-9.3,2c-2.2,5.4,8.9,17.6,13.4-0.3c4.5-18-2.2-15.2-6.9-13.2
				C644,408.1,640.7,413.2,644.2,414.7z"/>
		</g>
		<path class="st9" d="M539.1,401.3c0,0,2.9-7.3,11.6-14.3c10-8.1,27.7-16,57.4-12c9.4-9,15.7,4.5,15.7,4.5l-2.9,17.8
			c0,0,7.7-2.9,8.3,3.2c0.6,6.1-48.1,20.6-48.1,20.6s13.1-1.5,9.6,4.3c-3.5,5.8-27.5,15.3-38.5,5.5
			C541,421.1,539.1,401.3,539.1,401.3z"/>
		<line class="st6" x1="555.5" y1="394" x2="549.4" y2="388.1"/>
		<line class="st6" x1="561.2" y1="389.9" x2="556.6" y2="383.5"/>
		<line class="st6" x1="566.1" y1="386.7" x2="562.2" y2="379.9"/>
		<line class="st6" x1="571.4" y1="384.9" x2="568.9" y2="377.8"/>
		<line class="st6" x1="576.6" y1="382.9" x2="574.7" y2="375.9"/>
		<line class="st6" x1="567.4" y1="428.9" x2="571" y2="434.7"/>
		<line class="st6" x1="571.4" y1="427.7" x2="576.6" y2="433.1"/>
		<line class="st6" x1="576.6" y1="425.5" x2="583.2" y2="430.4"/>
		<line class="st6" x1="578.2" y1="423.6" x2="589.2" y2="425.5"/>
		<polyline class="st6" points="611.8,373.6 612.5,376.7 616.6,377.8 617.9,373.1 		"/>
		<path class="st10" d="M517.8,432.5c16.2,4.3,61.9,9.7,115.3-43.4c5.7-3.7,23.9-1.2,25.7-2.4c1.5-14.4-9.8-29-9.8-29l-17.5,19.8
			c0,0-80.3-12.4-116.8,47.2c-1.6,2.6-0.6,6,1.9,7.4C516.9,432.2,517.3,432.4,517.8,432.5z"/>
		<path class="st6" d="M517.5,431.4c0,0,4.7-3.2,8.1-3.8"/>
		<circle class="st6" cx="528.6" cy="420.5" r="4.4"/>
		<path class="st6" d="M528.4,407.2c0,0,18.7,6.5,11.5,27.8"/>
		<path class="st6" d="M541.5,425.5c0,0,70.7-18.8,90.3-38.4"/>
		<path class="st6" d="M631.9,378.8c0,0,4.4,4.6,1.9,8.3"/>
		<path class="st6" d="M639.2,369.6c0,0,9.7,3.7,7.9,16.1"/>
		<line class="st6" x1="642.8" y1="371.9" x2="652.4" y2="362.9"/>
		<line class="st6" x1="646.6" y1="377.8" x2="657.3" y2="374.1"/>
		<line class="st6" x1="647.3" y1="381.9" x2="658.9" y2="381.7"/>
		<line class="st6" x1="644.9" y1="374" x2="654.4" y2="368.8"/>
		<path class="st6" d="M554,417.9c0,0-1-17.4,8.2-29.4"/>
		<path class="st6" d="M564.8,414.2c0,0-1-17.4,8.2-29.4"/>
		<path class="st6" d="M575.7,410.5c0,0-1-17.4,8.2-29.4"/>
		<path class="st6" d="M586.6,406.9c0,0-1-17.4,8.2-29.4"/>
		<g>
			
				<ellipse transform="matrix(0.7202 -0.6937 0.6937 0.7202 -140.2315 552.5123)" class="st11" cx="614.9" cy="450.1" rx="26" ry="26"/>
			
				<ellipse transform="matrix(0.992 -0.1259 0.1259 0.992 -51.7674 80.9822)" class="st6" cx="614.9" cy="450.1" rx="23.5" ry="23.5"/>
			<path class="st6" d="M619.7,454.6c1.1,2,7.7,3.4,3.9,7c-5.2,4.9-3.5-7.2-8.8-4.2c-5.2,3-4,19.9,11,8.3
				c15.1-11.6,7.9-13.6,2.8-15.1C623.7,449.1,617.8,451.2,619.7,454.6z"/>
			<path class="st6" d="M607.9,450.3c-2.3-0.2-7.2,4.3-8-0.8c-1-7.1,7.9,1.3,8.5-4.7c0.6-6-13.9-14.8-13.1,4.2
				c0.7,19,6.6,14.3,10.6,11C610,456.7,611.7,450.8,607.9,450.3z"/>
			<path class="st6" d="M617.2,442.7c1.2-1.9-0.7-8.4,4.3-6.8c6.8,2.2-4.7,6.5,0.4,9.7c5.1,3.2,19.4-5.9,2-13.6
				c-17.4-7.8-15.7-0.4-14.6,4.7C610.5,441.8,615.1,446,617.2,442.7z"/>
		</g>
		<g>
			<path class="st12" d="M622.3,353.7c0,0-22.2,6.5-23,7s-11,2.2-13.4,3c-2.4,0.8-12.6,3-12.6,3s-6.1,0.2-7.7-1.2
				c-1.6-1.3,0.3-5.5,3.2-5.3c2.9,0.2,22.2-3.2,23-3.2c0.8,0,23.5-4.8,25.6-5.7C619.6,350.5,624.7,351.3,622.3,353.7z"/>
			<path class="st12" d="M564.7,367.9c0,0,17.3,2.8,22.1,2.8c4.8,0,21.5,0.6,21.5,0.6h9.1h4.8l2.7-1.7c0,0-13.1-1.6-16.6-1.7
				c-3.5-0.1-20-2.2-21.1-2c-1.1,0.2-10.9-1.5-10.9-1.5S565.2,364.8,564.7,367.9z"/>
			<path class="st13" d="M553,352.8l64.3,0.8v2.7c0,0-26.9-0.3-29.6,0c-2.7,0.3-16.3,2.3-16.3,2.3l-16.6,1
				C554.9,359.7,546.3,356.2,553,352.8z"/>
			<path class="st13" d="M558,364.8c0,0,0.4,0,1.2,0c5.7-0.1,29.6-0.6,30.5-0.9c1.1-0.3,19.7,0.1,21.8-0.6c2.1-0.7,7.7-0.8,7.7-0.8
				v0.8c0,0-11.3,2.5-12.4,2.7c-1.1,0.2-19.8,2.5-21.2,2.5c-1.3,0-19.6,0.8-20.7,0.8c-1,0-9.3,0.9-6.6-4.5"/>
			<path class="st6" d="M555.7,357.6c0,0,15.2-1,18.8-1.3c3.6-0.3,9.4-1.5,9.4-1.5"/>
			<path class="st6" d="M569.9,362.5c0,0,17.3-3.6,18.6-3.7c1.3,0,5-1.1,6.3-1.3"/>
			<path class="st6" d="M584,361.9c0,0,10.8-2.6,13.2-3.1c2.4-0.5,8.8-2,8.8-2"/>
			<path class="st6" d="M562,366.7c0,0,17.6-0.7,19-0.7c1.4,0,8.8-0.7,8.8-0.7"/>
			<path class="st6" d="M575.9,367.9c0,0,7.5-0.3,9.1-0.5c1.6-0.2,8.4-1.4,8.4-1.4"/>
			<path class="st6" d="M594,369.4c0,0,7.7-0.2,8.3,0"/>
			<path class="st6" d="M604.6,368.6c0,0,6.4,0.2,7.6,0.8"/>
		</g>
		<g>
			<path class="st14" d="M537.1,389c0,0,17.6-14.9,18.2-15.7c0.5-0.8,9.1-6.4,11-8.2c1.9-1.7,10.3-7.8,10.3-7.8s5.6-2.6,7.6-2.1
				c2,0.6,2,5.1-0.8,6.2c-2.8,1-19,11.9-19.7,12.2c-0.7,0.3-19.5,13.9-21.2,15.6C540.8,390.8,535.9,392.1,537.1,389z"/>
			<path class="st14" d="M583.9,352.7c0,0-17,4.5-21.4,6.4c-4.4,1.9-19.9,8.1-19.9,8.1l-8.3,3.7l-4.4,1.9l-1.8,2.6
				c0,0,12.6-3.8,15.8-5.1c3.2-1.3,19.2-6.1,20.1-6.7c0.9-0.6,10.6-3,10.6-3S584.8,355.7,583.9,352.7z"/>
			<path class="st15" d="M600.8,361.7L541.7,387l-1.1-2.4c0,0,24.7-10.6,27-12c2.3-1.4,13.9-8.7,13.9-8.7l14.8-7.6
				C596.3,356.2,605.5,356,600.8,361.7z"/>
			<path class="st15" d="M591.3,352.8c0,0-0.4,0.2-1.1,0.5c-5.1,2.4-26.8,12.5-27.6,13.2c-0.8,0.7-18,7.9-19.7,9.4
				c-1.7,1.5-6.7,3.8-6.7,3.8l-0.3-0.8c0,0,9.3-6.9,10.3-7.5c0.9-0.6,17.1-10.3,18.3-10.9c1.2-0.5,17.6-8.7,18.5-9.1
				c0.9-0.4,8.1-4.6,7.9,1.5"/>
			<path class="st6" d="M596.3,358.5c0,0-13.5,7.1-16.7,8.8c-3.2,1.7-8,5.2-8,5.2"/>
			<polyline class="st6" points="597.9,360.8 590.9,363.9 584.5,366.7 580.5,368.5 			"/>
			<line class="st6" x1="567.7" y1="374.2" x2="558.6" y2="378.2"/>
			<path class="st6" d="M581.4,359.7c0,0-14.3,10.3-15.5,10.9c-1.2,0.5-4.1,3-5.3,3.7"/>
			<path class="st6" d="M568.7,365.9c0,0-8.8,6.8-10.8,8.2c-2,1.4-7.2,5.4-7.2,5.4"/>
			<path class="st6" d="M587,352.7c0,0-15.8,7.8-17.1,8.4c-1.3,0.6-7.8,4.2-7.8,4.2"/>
			<path class="st6" d="M573.8,357.3c0,0-6.8,3.3-8.1,4.2c-1.4,0.9-7.1,4.7-7.1,4.7"/>
			<path class="st6" d="M556.6,363.2c0,0-6.9,3.3-7.6,3.3"/>
			<path class="st6" d="M547.2,368.3c0,0-6,2.4-7.3,2.3"/>
		</g>
	</g>
</g>
</svg>
