<?xml version="1.0" encoding="utf-8"?>
<!-- Generator: Adobe Illustrator 26.0.1, SVG Export Plug-In . SVG Version: 6.00 Build 0)  -->
<svg version="1.1" id="Layer_1" xmlns="http://www.w3.org/2000/svg" xmlns:xlink="http://www.w3.org/1999/xlink" x="0px" y="0px"
	 viewBox="0 0 1190.6 841.9" style="enable-background:new 0 0 1190.6 841.9;" xml:space="preserve">
<style type="text/css">
	.st0{fill:#F1F0F0;}
	.st1{fill:#235BAA;}
	.st2{fill:#D0D1D1;}
	.st3{fill:#DCDBDB;}
	.st4{fill:#DDA45F;}
	.st5{fill:#D29654;}
	.st6{fill:#EAC07D;}
	.st7{fill:#E9BA6E;}
	.st8{fill:#F3CC84;}
	.st9{fill:#FFDC92;}
	.st10{opacity:0.4;fill:#D29654;}
	.st11{fill:#F5CD86;}
	.st12{fill:#E7B265;}
	.st13{opacity:0.5;}
	.st14{fill:#F2C483;}
	.st15{fill:#E4AD6D;}
	.st16{fill:#FAD58C;}
	.st17{fill:#DDAC64;}
	.st18{opacity:0.5;fill:#D29654;}
	.st19{opacity:0.5;fill:#E9BA6E;}
	.st20{fill:#FFE6A9;}
	.st21{fill:#FFD794;}
	.st22{fill:#EDBE71;}
	.st23{opacity:0.6;}
	.st24{opacity:0.9;}
	.st25{fill:#BA3126;}
	.st26{fill:#9D2320;}
	.st27{opacity:0.5;fill:#BA3126;}
	.st28{opacity:0.4;}
	.st29{opacity:0.7;fill:#BA3126;}
	.st30{fill:#6AB445;}
	.st31{fill:#409F47;}
	.st32{fill:#8A9036;}
	.st33{fill:#FDFBE1;}
	.st34{opacity:0.7;fill:#A0BD3B;}
	.st35{opacity:0.7;fill:none;stroke:#A0BD3B;stroke-width:0.5201;stroke-miterlimit:10;}
</style>
<g>
	<path class="st0" d="M693.1,420.9c0,54.2-44,98.2-98.2,98.2c-54.2,0-98.2-44-98.2-98.2c0-54.2,44-98.2,98.2-98.2
		C649.1,322.7,693.1,366.6,693.1,420.9z"/>
	<path class="st1" d="M594.9,329.3c12.4,0,24.3,2.4,35.6,7.2c10.9,4.6,20.7,11.2,29.1,19.6c8.4,8.4,15,18.2,19.6,29.1
		c4.8,11.3,7.2,23.3,7.2,35.6c0,12.4-2.4,24.4-7.2,35.6c-4.6,10.9-11.2,20.7-19.6,29.1c-8.4,8.4-18.2,15-29.1,19.6
		c-11.3,4.8-23.3,7.2-35.6,7.2c-12.4,0-24.3-2.4-35.6-7.2c-10.9-4.6-20.7-11.2-29.1-19.6c-8.4-8.4-15-18.2-19.6-29.1
		c-4.8-11.3-7.2-23.3-7.2-35.6c0-12.4,2.4-24.3,7.2-35.6c4.6-10.9,11.2-20.7,19.6-29.1c8.4-8.4,18.2-15,29.1-19.6
		C570.5,331.8,582.5,329.3,594.9,329.3L594.9,329.3z M594.9,327.1c-51.8,0-93.8,42-93.8,93.8c0,51.8,42,93.8,93.8,93.8
		c51.8,0,93.8-42,93.8-93.8C688.7,369.1,646.7,327.1,594.9,327.1L594.9,327.1z"/>
	<path class="st1" d="M594.9,332.5c11.9,0,23.5,2.3,34.4,6.9c10.5,4.5,20,10.8,28.1,18.9c8.1,8.1,14.5,17.6,18.9,28.1
		c4.6,10.9,6.9,22.5,6.9,34.4c0,11.9-2.3,23.5-6.9,34.4c-4.5,10.5-10.8,20-18.9,28.1c-8.1,8.1-17.6,14.5-28.1,18.9
		c-10.9,4.6-22.5,6.9-34.4,6.9c-11.9,0-23.5-2.3-34.4-6.9c-10.5-4.4-20-10.8-28.1-18.9c-8.1-8.1-14.5-17.6-18.9-28.1
		c-4.6-10.9-6.9-22.5-6.9-34.4c0-11.9,2.3-23.5,6.9-34.4c4.5-10.5,10.8-20,18.9-28.1c8.1-8.1,17.6-14.5,28.1-18.9
		C571.4,334.9,582.9,332.5,594.9,332.5L594.9,332.5z M594.9,331.6c-49.3,0-89.3,40-89.3,89.3c0,49.3,40,89.3,89.3,89.3
		c49.3,0,89.3-40,89.3-89.3C684.1,371.6,644.2,331.6,594.9,331.6L594.9,331.6z"/>
	<path class="st2" d="M662.3,420.9c0,37.3-30.2,67.5-67.5,67.5c-37.3,0-67.5-30.2-67.5-67.5c0-37.3,30.2-67.5,67.5-67.5
		C632.1,353.4,662.3,383.6,662.3,420.9z"/>
	<path class="st0" d="M660.9,420.9c0,36.5-29.6,66-66,66c-36.5,0-66-29.6-66-66c0-36.5,29.6-66,66-66
		C631.3,354.9,660.9,384.4,660.9,420.9z"/>
</g>
<g>
	<path class="st3" d="M668.2,416.9c-0.1-0.7-0.3-1.4-0.5-2.2c-0.4-2-1.1-5-1.8-8.2c0.7-9.2,1.9-24.6,1.9-27.1
		c0-5.4-7.2-7.5-10.6-3.9c-0.4,0.4-1,2.8-1.6,5.9c-1.3-6.2-2.5-11.6-2.7-12.3c-0.7-2.1-2.4-5.2-7.2-4.2c-2.3,0.5-3.8,1.4-4.7,2.4
		c-0.2-0.2-0.5-0.3-0.7-0.4c-2.3-0.8-33.3-10-37.4-10.8c-3-0.6-6.3,0.4-8.8,2.1c-0.4-0.9-1.1-1.6-2.2-2c-2.2-0.8-28.8,7.2-33.8,9.3
		c-0.4,0.2-0.8,0.4-1.1,0.6c-1,0.7-1.8,1.6-2.4,2.7c-1.1-3.6-6-5.6-9.4-3.5c-1.9,1.2-10.7,24.2-12.1,29.2c-0.1,0.4-0.2,0.8-0.2,1.2
		c0,0,0,0.1,0,0.1c-0.6-1.7-1.9-3.3-4.6-3.3c-5.2,0-5.6,4-6.1,5.9c-0.5,1.9-0.1,21.9-0.1,28.8c0,0.8,0,1.6,0,2.4
		c0.2,6.1,1.4,11.7,6.3,11.5c0.2,0,0.4,0,0.6-0.1c-0.1,0.3-0.1,0.7-0.1,1c-0.1,2.8,1.6,5.4,4,7.6c2.8,2.5,5.2,2.4,6.6,1.4
		c0.6-0.4,1-0.9,1.1-1.4c0,0,0-0.1,0-0.1c0.1,0.2,0.1,0.3,0.2,0.5c-1.5,1.3-3.5,3.8-4,8.6c-0.7,5.8,1.9,8.2,3.4,7.6
		c2.4-1.1,4.7-2.2,6.8-3.3c3.6,7.2,7.2,14.4,7.7,15.1c1.2,1.8,3.6,4.5,7.9,2.5c2.8-1.3,3.9-3,4.2-4.6c2,4.8,4.8,8.3,8.8,6.9
		c2-0.7,2.9-2.3,3.2-4.2c2.6,2.9,5.1,2.9,5.7,1.8c0.7-1.4,1.4-2.8,2-4.2c2.6,1.1,6,2.5,9.5,4c0.2,0.5,0.3,0.9,0.3,1
		c0.8,2,2.7,5.1,7.2,4c1.1-0.3,1.9-0.6,2.6-1c1.1,0.4,2.1,0.8,2.8,1.2c0.8,0.3,1.5,0.6,2.3,0.9c5.7,2.1,11.5,2.9,13.6-2.8
		c1.4-3.6-0.5-6.2-2.6-8c9.3,0.4,24.7,0.9,26.2,0.8c0.6,0,1.2-0.3,1.8-0.7c1.4-1.2,2.2-3.7,0.6-7.6c-0.5-1.2-1-2.3-1.7-3.2
		c1.2-1.3,2.1-2.8,2.7-3.9c0.3-0.6,0.6-1.1,0.7-1.4c2.5-5.1,12.7-30.2,13.2-31.8c0.3-0.9,0.5-2.1,0.5-3.3
		C668.6,422.6,668.5,419.1,668.2,416.9z"/>
	<g>
		<g>
			<g>
				<path class="st4" d="M631.5,443.1c-3.2-6.9-5.3-4.7-5.4-4.7c-1.7,2.5-1.6,5.8-0.5,9.2c1.2,3.9,3.4,5.1,5.2,5
					C632.5,452.1,634.5,449.4,631.5,443.1z"/>
				<path class="st5" d="M630.8,443.8c-2.2-5.7-4-4.3-4-4.3c-1.4,1.6-1.5,4.1-0.9,6.8c0.7,3.1,2.5,4.3,3.9,4.5
					C631.2,450.7,632.9,449,630.8,443.8z"/>
				<path class="st6" d="M632.7,451.9c1.6-1.4,22.3-20.8,24.8-23.5c3.9-4.3,2.8-13.5-2.5-13.1c-2.3,0.2-24.1,18.2-28,22.1
					c-0.3,0.3-0.6,0.7-0.8,1c0,0,2.1-2.2,5.4,4.7c3,6.3,1,9-0.7,9.5C631.6,452.5,632.2,452.3,632.7,451.9z"/>
			</g>
			<g>
				<g>
					<path class="st7" d="M649,423.2c0,0-0.2,0.2-0.6,0.7c-0.4,0.4-1,1-1.7,1.7c-0.7,0.7-1.5,1.5-2.4,2.4c-0.9,0.9-1.8,1.8-2.8,2.7
						c-1,0.9-1.9,1.8-2.8,2.6c-0.9,0.8-1.8,1.6-2.5,2.3c-0.7,0.7-1.4,1.2-1.8,1.6c-0.4,0.4-0.7,0.6-0.7,0.6s0.2-0.2,0.6-0.7
						c0.4-0.4,1-1,1.7-1.7c0.7-0.7,1.5-1.5,2.4-2.4c0.9-0.9,1.8-1.8,2.8-2.7c1-0.9,1.9-1.8,2.8-2.6c0.9-0.8,1.8-1.6,2.5-2.3
						c0.7-0.7,1.4-1.2,1.8-1.6C648.8,423.4,649,423.2,649,423.2z"/>
				</g>
				<g>
					<path class="st7" d="M647.3,431.3c0,0-0.2,0.2-0.5,0.6c-0.3,0.3-0.8,0.8-1.4,1.4c-0.6,0.6-1.3,1.3-2,2
						c-0.8,0.7-1.6,1.5-2.4,2.2c-0.8,0.7-1.6,1.5-2.4,2.2c-0.8,0.7-1.5,1.3-2.2,1.9c-0.6,0.5-1.2,1-1.6,1.3
						c-0.4,0.3-0.6,0.5-0.6,0.5s0.2-0.2,0.5-0.6c0.3-0.3,0.8-0.8,1.4-1.4c0.6-0.6,1.3-1.3,2-2c0.8-0.7,1.6-1.5,2.4-2.2
						c0.8-0.7,1.6-1.5,2.4-2.2c0.8-0.7,1.5-1.3,2.2-1.9c0.6-0.5,1.2-1,1.6-1.3C647.1,431.5,647.3,431.3,647.3,431.3z"/>
				</g>
			</g>
		</g>
		<g>
			<path class="st8" d="M623.9,457.1c0.8-5.3,6.2-6.2,10-5.9l0,0c-0.6-0.1-1.1-0.1-1.4-0.2c-5-0.5-29.2-1-30.7-0.9
				c-2,0.2-5.3,1.1-5.5,5.4c-0.2,5.7,3.5,6.4,5.2,7c1.7,0.6,20.4,1.2,26.9,1.5c0.8,0,1.5,0.1,2.3,0.1
				C630.6,464.1,623.1,462.4,623.9,457.1z"/>
			<path class="st4" d="M632.8,450.9c-3.8-0.3-9.2,0.6-10,5.9c-0.8,5.3,6.7,7,6.8,7.1c5.7,0.1,11-1,11-6.4
				C640.7,452.6,635.6,451.3,632.8,450.9L632.8,450.9z"/>
			<path class="st5" d="M633.2,452.3c-3.2-0.2-7.8,0.6-8.5,4.7c-0.7,4.1,5.6,5.4,5.6,5.4c4.8,0,9.3-0.9,9.4-5.1
				C639.8,453.6,635.6,452.6,633.2,452.3L633.2,452.3z"/>
			<g>
				<path class="st7" d="M601.2,460.4c0,0,0.3,0,0.9,0c0.6,0,1.4-0.1,2.3-0.1c1,0,2.1,0,3.3,0c0.6,0,1.2,0,1.9,0c0.6,0,1.3,0,1.9,0
					c1.3,0,2.6,0.1,3.8,0.1c1.2,0,2.3,0.2,3.3,0.2c1,0.1,1.8,0.2,2.3,0.2c0.6,0.1,0.9,0.1,0.9,0.1s-0.3,0-0.9,0c-0.6,0-1.4,0-2.3,0
					c-1.9,0-4.5-0.1-7.1-0.1c-1.3,0-2.6-0.1-3.8-0.1c-1.2,0-2.3-0.1-3.3-0.1c-1,0-1.8-0.1-2.3-0.1
					C601.5,460.4,601.2,460.4,601.2,460.4z"/>
			</g>
			<g>
				<path class="st7" d="M604.6,456.9c0,0,0.2,0,0.6,0c0.4,0,0.9-0.1,1.6-0.1c0.7,0,1.4,0,2.3,0c0.8,0,1.7,0,2.6,0
					c0.9,0,1.8,0,2.6,0c0.8,0,1.6,0,2.3,0.1c0.7,0,1.2,0.1,1.6,0.1c0.4,0,0.6,0,0.6,0s-0.2,0-0.6,0.1c-0.4,0-0.9,0.1-1.6,0.1
					c-0.7,0-1.4,0.1-2.3,0.1c-0.8,0-1.7,0-2.6,0c-0.9,0-1.8,0-2.6,0c-0.8,0-1.6-0.1-2.3-0.1c-0.7,0-1.2-0.1-1.6-0.1
					C604.8,456.9,604.6,456.9,604.6,456.9z"/>
			</g>
			<g>
				<path class="st7" d="M601.6,453.7c0,0,0.3,0,0.8-0.1c0.5,0,1.3-0.1,2.1-0.1c0.9,0,1.9-0.1,3-0.1c1.1,0,2.3-0.1,3.5-0.1
					c1.2,0,2.4,0,3.5,0c1.1,0,2.2,0.1,3,0.1c0.9,0,1.6,0.1,2.1,0.1c0.5,0,0.8,0.1,0.8,0.1s-0.3,0-0.8,0c-0.5,0-1.3,0-2.1,0.1
					c-0.4,0-0.9,0-1.4,0c-0.5,0-1,0-1.6,0c-1.1,0-2.3,0-3.5,0.1c-1.2,0-2.4,0-3.5,0c-1.1,0-2.2,0-3,0c-0.9,0-1.6,0-2.2,0
					C601.9,453.8,601.6,453.7,601.6,453.7z"/>
			</g>
		</g>
		<g>
			<g>
				<path class="st4" d="M565.4,459.1c-0.3-8-3.1-6.7-3.1-6.7c-2.5,1.7-3.7,5-4.1,8.6c-0.4,4.2,1.2,6.3,2.9,6.9
					C562.8,468.2,565.6,466.4,565.4,459.1z"/>
				<path class="st5" d="M564.4,459.5c0.2-6.3-2-5.8-2-5.8c-1.9,1-3,3.4-3.4,6.2c-0.5,3.3,0.6,5.2,1.8,5.9
					C562.1,466.3,564.3,465.4,564.4,459.5z"/>
				<path class="st6" d="M563,468.1c2-0.7,28.6-10.9,32-12.6c5.3-2.5,7.8-11.8,2.8-13.7c-2.2-0.8-29.3,7.7-34.4,9.9
					c-0.4,0.2-0.8,0.4-1.2,0.7c0,0,2.8-1.3,3.1,6.7c0.3,7.3-2.6,9.1-4.3,8.9C561.7,468.2,562.4,468.3,563,468.1z"/>
			</g>
			<g>
				<g>
					<path class="st7" d="M589.2,447.1c0,0-0.3,0.1-0.8,0.4c-0.5,0.2-1.3,0.6-2.2,1c-0.9,0.4-2,0.9-3.1,1.3c-1.1,0.5-2.4,1-3.6,1.5
						c-1.2,0.5-2.5,1-3.6,1.4c-1.2,0.4-2.3,0.8-3.2,1.2c-0.9,0.3-1.7,0.6-2.3,0.8c-0.6,0.2-0.9,0.3-0.9,0.3s0.3-0.1,0.8-0.4
						c0.5-0.2,1.3-0.6,2.2-1c0.9-0.4,2-0.9,3.1-1.3c1.1-0.5,2.4-1,3.6-1.5c1.2-0.5,2.5-1,3.6-1.4c1.2-0.4,2.3-0.8,3.2-1.2
						c0.9-0.3,1.7-0.6,2.3-0.8C588.9,447.2,589.2,447.1,589.2,447.1z"/>
				</g>
				<g>
					<path class="st7" d="M584.4,454.2c0,0-0.3,0.1-0.7,0.3c-0.5,0.2-1.1,0.5-1.9,0.8c-0.8,0.3-1.7,0.7-2.7,1.1
						c-1,0.4-2,0.8-3.1,1.2c-1,0.4-2.1,0.8-3.1,1.1c-1,0.3-1.9,0.6-2.7,0.9c-0.8,0.3-1.5,0.5-1.9,0.6c-0.5,0.1-0.7,0.2-0.7,0.2
						s0.3-0.1,0.7-0.3c0.4-0.2,1.1-0.5,1.9-0.8c0.8-0.3,1.7-0.7,2.7-1.1c1-0.4,2-0.8,3.1-1.2c1-0.4,2.1-0.8,3.1-1.1
						c1-0.3,1.9-0.6,2.7-0.9c0.8-0.3,1.5-0.5,1.9-0.6C584.2,454.3,584.4,454.2,584.4,454.2z"/>
				</g>
			</g>
		</g>
		<g>
			<g>
				<path class="st4" d="M656.3,408.5c-6.3-2.7-6.4,0.1-6.4,0.1c0.4,2.7,2.5,4.8,5.2,6.5c3.1,1.9,5.4,1.3,6.5,0.2
					C662.5,413.9,662.2,410.9,656.3,408.5z"/>
				<path class="st5" d="M656.3,409.4c-4.9-2.4-5.3-0.5-5.3-0.5c0,1.9,1.5,3.7,3.5,5.1c2.3,1.6,4.3,1.4,5.3,0.7
					C660.7,413.8,660.8,411.6,656.3,409.4z"/>
				<path class="st9" d="M662.4,413.7c0.3-1.9,2.4-29.2,2.4-32.5c0-5.2-6.9-7.2-10.2-3.7c-1.5,1.5-4.6,25-4.8,30
					c0,0.4,0,0.8,0.1,1.2c0,0,0.1-2.8,6.4-0.1c5.8,2.4,6.1,5.4,5.3,6.7C662.1,414.8,662.4,414.2,662.4,413.7z"/>
			</g>
			<g>
				<g>
					<path class="st7" d="M656.8,379.4c0,0,0,0.4,0,1c0,0.7-0.1,1.6-0.2,2.7c-0.1,1.1-0.2,2.5-0.3,3.9c-0.1,1.4-0.2,2.9-0.4,4.4
						c-0.1,1.5-0.3,3-0.4,4.4c-0.1,1.4-0.3,2.7-0.4,3.9c-0.1,1.1-0.3,2.1-0.3,2.7c-0.1,0.7-0.1,1-0.1,1s0-0.4,0-1
						c0-0.7,0.1-1.6,0.2-2.7c0.1-1.1,0.2-2.5,0.3-3.9c0.1-1.4,0.2-2.9,0.4-4.4c0.1-1.5,0.3-3,0.4-4.4c0.1-1.4,0.3-2.7,0.4-3.9
						c0.1-1.1,0.3-2.1,0.3-2.7C656.8,379.8,656.8,379.4,656.8,379.4z"/>
				</g>
				<g>
					<path class="st7" d="M659.5,379.4c0,0,0,0.4,0,1c0,0.7-0.1,1.6-0.2,2.7c-0.1,1.1-0.2,2.5-0.3,3.9c-0.1,1.4-0.2,2.9-0.4,4.4
						c-0.1,1.5-0.3,3-0.4,4.4c-0.1,1.4-0.3,2.7-0.4,3.9c-0.1,1.1-0.3,2.1-0.3,2.7c-0.1,0.7-0.1,1-0.1,1s0-0.4,0-1
						c0-0.7,0.1-1.6,0.2-2.7c0.1-1.1,0.2-2.5,0.3-3.9c0.1-1.4,0.2-2.9,0.4-4.4c0.1-1.5,0.3-3,0.4-4.4c0.1-1.4,0.3-2.7,0.4-3.9
						c0.1-1.1,0.3-2.1,0.3-2.7C659.5,379.7,659.5,379.4,659.5,379.4z"/>
				</g>
				<g>
					<path class="st7" d="M662.6,381.5c0,0,0,0.2,0,0.6c0,0.4,0,1-0.1,1.7c0,0.7-0.1,1.5-0.2,2.3c-0.1,0.9-0.1,1.8-0.2,2.7
						c-0.1,0.9-0.2,1.8-0.3,2.7c-0.1,0.9-0.2,1.6-0.3,2.3c-0.1,0.7-0.2,1.2-0.3,1.6c-0.1,0.4-0.1,0.6-0.1,0.6s0-0.2,0-0.6
						c0-0.4,0-1,0.1-1.7c0-0.7,0.1-1.5,0.2-2.3c0.1-0.9,0.2-1.8,0.2-2.7c0.1-0.9,0.2-1.8,0.3-2.7c0.1-0.9,0.2-1.6,0.3-2.3
						c0.1-0.7,0.2-1.2,0.3-1.6C662.6,381.8,662.6,381.5,662.6,381.5z"/>
				</g>
			</g>
		</g>
		<g>
			<g>
				<path class="st4" d="M541.5,398.3c-5.5-4-6.3-1.4-6.3-1.4c-0.2,2.7,1.3,5.3,3.5,7.5c2.6,2.5,4.9,2.5,6.3,1.7
					C546.2,405.1,546.6,402.1,541.5,398.3z"/>
				<path class="st5" d="M541.3,399.2c-4.2-3.5-5-1.7-5-1.7c-0.4,1.9,0.6,3.9,2.2,5.8c1.9,2.1,3.8,2.4,5,1.9
					C544.5,404.6,545.1,402.5,541.3,399.2z"/>
				<path class="st9" d="M546.3,404.8c0.7-1.8,9.1-27.8,9.9-31.1c1.2-5.1-5-8.6-9.1-6c-1.8,1.1-10.2,23.3-11.6,28.1
					c-0.1,0.4-0.2,0.8-0.2,1.2c0,0,0.7-2.7,6.3,1.4c5.1,3.7,4.7,6.7,3.6,7.8C545.7,405.8,546.1,405.3,546.3,404.8z"/>
			</g>
			<g>
				<g>
					<path class="st7" d="M548.7,370.2c0,0-0.1,0.4-0.3,1c-0.2,0.6-0.4,1.5-0.8,2.6c-0.3,1.1-0.7,2.4-1.2,3.7
						c-0.4,1.3-0.9,2.8-1.4,4.2c-0.5,1.4-1,2.9-1.4,4.2c-0.5,1.3-0.9,2.6-1.3,3.7c-0.4,1.1-0.7,2-1,2.6c-0.2,0.6-0.4,1-0.4,1
						s0.1-0.4,0.3-1c0.2-0.6,0.4-1.5,0.8-2.6c0.3-1.1,0.7-2.4,1.2-3.7c0.4-1.3,0.9-2.8,1.4-4.2c0.5-1.4,1-2.9,1.4-4.2
						c0.5-1.3,0.9-2.6,1.3-3.7c0.4-1.1,0.7-2,1-2.6C548.6,370.6,548.7,370.2,548.7,370.2z"/>
				</g>
				<g>
					<path class="st7" d="M551.4,370.8c0,0-0.1,0.4-0.3,1c-0.2,0.6-0.4,1.5-0.8,2.6c-0.3,1.1-0.7,2.4-1.2,3.7
						c-0.4,1.3-0.9,2.8-1.4,4.2c-0.5,1.4-1,2.9-1.4,4.2c-0.5,1.3-0.9,2.6-1.3,3.7c-0.4,1.1-0.7,2-1,2.6c-0.2,0.6-0.4,1-0.4,1
						s0.1-0.4,0.3-1c0.2-0.6,0.4-1.5,0.8-2.6c0.3-1.1,0.7-2.4,1.2-3.7c0.4-1.3,0.9-2.8,1.4-4.2c0.5-1.4,1-2.9,1.4-4.2
						c0.5-1.3,0.9-2.6,1.3-3.7c0.4-1.1,0.7-2,1-2.6C551.2,371.1,551.4,370.8,551.4,370.8z"/>
				</g>
				<g>
					<path class="st7" d="M553.9,373.6c0,0-0.1,0.2-0.2,0.6c-0.1,0.4-0.2,0.9-0.5,1.6c-0.2,0.7-0.4,1.4-0.7,2.2
						c-0.3,0.8-0.6,1.7-0.8,2.5c-0.3,0.9-0.6,1.7-0.9,2.5c-0.3,0.8-0.6,1.5-0.8,2.2c-0.2,0.6-0.5,1.2-0.6,1.5
						c-0.2,0.4-0.3,0.6-0.3,0.6s0.1-0.2,0.2-0.6c0.1-0.4,0.2-0.9,0.5-1.6c0.2-0.7,0.4-1.4,0.7-2.2c0.3-0.8,0.6-1.7,0.8-2.5
						c0.3-0.9,0.6-1.7,0.9-2.5c0.3-0.8,0.6-1.5,0.8-2.2c0.2-0.6,0.5-1.2,0.6-1.5C553.8,373.8,553.9,373.6,553.9,373.6z"/>
				</g>
			</g>
		</g>
		<g>
			<path class="st8" d="M657.4,410.5c5.1-0.6,7.3,4.2,7.9,7.7l0,0c-0.1-0.6-0.1-1-0.2-1.3c-0.8-4.8-6.3-27.2-6.8-28.5
				c-0.7-1.8-2.3-4.6-6.4-3.7c-5.3,1.2-5,4.8-5.1,6.5c-0.1,1.7,3.9,19.1,5.3,25.2c0.2,0.7,0.3,1.4,0.5,2.1
				C652.6,418.4,652.4,411.1,657.4,410.5z"/>
			<path class="st4" d="M665.3,417.1c-0.6-3.5-2.8-8.3-7.9-7.7c-5,0.6-4.8,7.9-4.8,8c1.4,5.2,3.6,9.9,8.6,8.6
				C665.7,424.8,665.6,419.8,665.3,417.1L665.3,417.1z"/>
			<path class="st5" d="M664.1,417.9c-0.6-3-2.5-7-6.5-6.6c-4,0.4-3.6,6.5-3.6,6.5c1.2,4.4,3.1,8.3,7,7.4
				C664.6,424.3,664.4,420.1,664.1,417.9L664.1,417.9z"/>
			<g>
				<path class="st10" d="M660.1,420.7c2.8-0.7,3.2-3.3,3.2-5.6c-1-2.2-2.8-4.2-5.6-3.9c-2.8,0.3-3.4,3.4-3.6,5.2
					C655.3,419.4,657.1,421.5,660.1,420.7z"/>
			</g>
			<g>
				<path class="st7" d="M648.7,390.4c0,0,0.1,0.3,0.3,0.8c0.2,0.5,0.4,1.2,0.6,2.1c0.2,0.9,0.6,1.9,0.9,3c0.1,0.6,0.3,1.1,0.5,1.7
					c0.1,0.6,0.3,1.2,0.4,1.8c0.3,1.2,0.6,2.4,0.8,3.5c0.3,1.1,0.4,2.2,0.6,3.1c0.2,0.9,0.3,1.7,0.4,2.2c0.1,0.5,0.1,0.8,0.1,0.8
					s-0.1-0.3-0.2-0.8c-0.1-0.5-0.4-1.3-0.6-2.2c-0.5-1.8-1.1-4.2-1.7-6.5c-0.3-1.2-0.6-2.4-0.8-3.5c-0.3-1.1-0.5-2.2-0.7-3.1
					c-0.2-0.9-0.4-1.7-0.5-2.2C648.8,390.7,648.7,390.4,648.7,390.4z"/>
			</g>
			<g>
				<path class="st7" d="M652.8,392.7c0,0,0.1,0.2,0.2,0.5c0.1,0.4,0.3,0.8,0.5,1.5c0.2,0.6,0.4,1.3,0.6,2.1
					c0.2,0.8,0.5,1.6,0.7,2.4c0.2,0.8,0.4,1.6,0.6,2.4c0.2,0.8,0.3,1.5,0.5,2.1c0.1,0.6,0.2,1.1,0.3,1.5c0.1,0.4,0.1,0.6,0.1,0.6
					s-0.1-0.2-0.2-0.5c-0.1-0.3-0.3-0.8-0.5-1.4c-0.2-0.6-0.4-1.3-0.7-2.1c-0.2-0.8-0.5-1.6-0.7-2.4c-0.2-0.8-0.4-1.6-0.6-2.4
					c-0.2-0.8-0.3-1.5-0.5-2.1c-0.1-0.6-0.2-1.1-0.3-1.5C652.8,392.9,652.8,392.7,652.8,392.7z"/>
			</g>
			<g>
				<path class="st7" d="M654.9,389.2c0,0,0.1,0.3,0.3,0.7c0.2,0.5,0.4,1.1,0.7,1.9c0.3,0.8,0.6,1.7,0.9,2.8c0.3,1,0.6,2.1,0.9,3.2
					c0.3,1.1,0.6,2.2,0.9,3.2c0.3,1,0.5,2,0.7,2.8c0.2,0.8,0.3,1.5,0.4,2c0.1,0.5,0.1,0.8,0.1,0.8s-0.1-0.3-0.2-0.7
					c-0.1-0.5-0.4-1.1-0.6-2c-0.1-0.4-0.2-0.8-0.4-1.3c-0.1-0.5-0.3-1-0.4-1.5c-0.3-1-0.6-2.1-0.9-3.2c-0.3-1.1-0.6-2.2-0.9-3.2
					c-0.3-1-0.5-2-0.7-2.8c-0.2-0.8-0.4-1.5-0.5-2C655,389.4,654.9,389.2,654.9,389.2z"/>
			</g>
		</g>
		<g>
			<path class="st9" d="M648.5,395.4c5.7-0.6,7.9,4.6,8.5,8.4l0,0c0-0.6-0.1-1.1-0.2-1.5c-0.6-5.2-5.8-29.6-6.3-31
				c-0.7-2-2.3-5-6.9-4.1c-6,1.3-5.8,5.2-6,7.1c-0.2,1.9,3.6,20.8,4.8,27.4c0.1,0.8,0.3,1.5,0.5,2.3
				C642.7,404,642.8,396,648.5,395.4z"/>
			<path class="st11" d="M656.9,403.8c-0.5-3.8-2.8-9.1-8.5-8.4c-5.7,0.6-5.7,8.6-5.7,8.6c1.3,5.7,3.6,10.7,9.2,9.4
				C657,412.1,657.2,406.7,656.9,403.8L656.9,403.8z"/>
			<path class="st12" d="M655.5,404.8c-0.5-3.2-2.4-7.6-6.9-7.2c-4.5,0.4-4.3,7-4.3,7.1c1.2,4.8,3.1,9.1,7.5,8
				C655.8,411.7,655.8,407.2,655.5,404.8L655.5,404.8z"/>
			<g>
				<g>
					<path class="st7" d="M640.8,372.5c0,0,0.1,0.3,0.2,0.9c0.1,0.6,0.4,1.4,0.6,2.4c0.2,1,0.5,2.1,0.8,3.3c0.3,1.2,0.5,2.5,0.8,3.8
						c0.3,1.3,0.5,2.6,0.8,3.9c0.2,1.2,0.4,2.4,0.6,3.4c0.2,1,0.3,1.8,0.4,2.4c0.1,0.6,0.1,0.9,0.1,0.9s-0.1-0.3-0.2-0.9
						c-0.1-0.6-0.4-1.4-0.6-2.4c-0.2-1-0.5-2.1-0.8-3.3c-0.3-1.2-0.5-2.5-0.8-3.8c-0.3-1.3-0.5-2.6-0.8-3.9
						c-0.2-1.2-0.4-2.4-0.6-3.4c-0.2-1-0.3-1.8-0.4-2.4C640.8,372.9,640.8,372.5,640.8,372.5z"/>
				</g>
				<g>
					<path class="st7" d="M644.1,376.5c0,0,0.1,0.2,0.2,0.6c0.1,0.4,0.3,0.9,0.5,1.6c0.2,0.7,0.4,1.4,0.6,2.2
						c0.2,0.8,0.4,1.7,0.7,2.6c0.2,0.9,0.4,1.8,0.6,2.6c0.2,0.8,0.3,1.6,0.5,2.3c0.1,0.7,0.2,1.2,0.3,1.6c0.1,0.4,0.1,0.6,0.1,0.6
						s-0.1-0.2-0.2-0.6c-0.1-0.4-0.3-0.9-0.5-1.6c-0.2-0.7-0.4-1.4-0.6-2.2c-0.2-0.8-0.5-1.7-0.7-2.6c-0.2-0.9-0.4-1.8-0.6-2.6
						c-0.2-0.8-0.3-1.6-0.4-2.3c-0.1-0.7-0.2-1.2-0.3-1.6C644.1,376.7,644.1,376.5,644.1,376.5z"/>
				</g>
				<g>
					<path class="st7" d="M648.6,380.6c0,0,0.1,0.2,0.2,0.5c0.1,0.3,0.2,0.7,0.4,1.3c0.2,0.5,0.3,1.1,0.5,1.8c0.2,0.7,0.4,1.3,0.6,2
						c0.2,0.7,0.4,1.4,0.5,2.1c0.2,0.7,0.3,1.3,0.5,1.8c0.1,0.5,0.2,1,0.3,1.3c0.1,0.3,0.1,0.5,0.1,0.5s-0.1-0.2-0.2-0.5
						c-0.1-0.3-0.3-0.7-0.5-1.2c-0.2-0.5-0.4-1.1-0.6-1.8c-0.2-0.7-0.4-1.3-0.6-2c-0.2-0.7-0.4-1.4-0.5-2.1
						c-0.1-0.7-0.3-1.3-0.4-1.8C648.7,381.4,648.6,380.6,648.6,380.6z"/>
				</g>
			</g>
		</g>
		<g>
			<g>
				<path class="st4" d="M642,467.1c-2-7.4,0.8-7.2,0.9-7.2c2.7,0.8,4.6,3.4,6,6.6c1.5,3.7,0.7,6.2-0.6,7.3
					C646.8,474.7,643.8,473.9,642,467.1z"/>
				<path class="st5" d="M642.9,467.2c-1.9-5.8,0.1-6,0.1-6c2,0.3,3.6,2.1,4.8,4.6c1.4,2.8,0.9,5,0.1,6.1
					C646.9,472.7,644.7,472.5,642.9,467.2z"/>
				<path class="st8" d="M646.6,474.6c-2,0.1-28.2-0.8-31.6-1.2c-5.3-0.6-10.2-8.4-6.3-11.7c1.7-1.5,27.9-2.4,33-2
					c0.4,0,0.8,0.1,1.2,0.2c0,0-2.8-0.3-0.9,7.2c1.8,6.8,4.8,7.6,6.3,6.8C647.7,474.3,647.1,474.6,646.6,474.6z"/>
			</g>
			<g>
				<g>
					<path class="st7" d="M617.7,463.8c0,0,0.3,0,0.8,0c0.5,0,1.3,0,2.2,0c0.9,0,2,0,3.1,0c1.1,0,2.4,0.1,3.6,0.1
						c1.2,0.1,2.4,0.1,3.6,0.2c1.1,0.1,2.2,0.1,3.1,0.2c0.9,0.1,1.7,0.1,2.2,0.2c0.5,0.1,0.8,0.1,0.8,0.1s-0.3,0-0.8,0
						c-0.5,0-1.3,0-2.2,0c-0.9,0-2,0-3.1,0c-1.1,0-2.4-0.1-3.6-0.1c-1.2-0.1-2.4-0.1-3.6-0.2c-1.1-0.1-2.2-0.1-3.1-0.2
						c-0.9-0.1-1.7-0.1-2.2-0.2C618,463.8,617.7,463.8,617.7,463.8z"/>
				</g>
				<g>
					<path class="st7" d="M623.9,468.8c0,0,0.3,0,0.7,0c0.4,0,1.1-0.1,1.9-0.1c0.8,0,1.7,0,2.6,0c1,0,2,0,3,0c1,0,2.1,0,3,0.1
						c1,0,1.9,0.1,2.6,0.1c0.8,0,1.4,0.1,1.9,0.1c0.4,0,0.7,0.1,0.7,0.1s-0.3,0-0.7,0c-0.4,0-1.1,0.1-1.9,0.1c-0.8,0-1.7,0-2.6,0
						c-1,0-2,0-3,0c-1,0-2.1,0-3-0.1c-1,0-1.9-0.1-2.6-0.1c-0.8,0-1.4-0.1-1.9-0.1C624.1,468.8,623.9,468.8,623.9,468.8z"/>
				</g>
			</g>
		</g>
		<g>
			<g>
				<path class="st4" d="M561.4,374.5c-0.3-7.2-2.9-6-2.9-6c-2.3,1.6-3.5,4.5-3.8,7.8c-0.4,3.8,1.1,5.7,2.7,6.2
					C558.9,382.7,561.6,381.1,561.4,374.5z"/>
				<path class="st5" d="M560.5,374.9c0.2-5.7-1.9-5.2-1.9-5.2c-1.8,0.9-2.8,3-3.2,5.6c-0.5,2.9,0.5,4.7,1.7,5.3
					C558.2,381,560.3,380.1,560.5,374.9z"/>
				<g class="st13">
					<path class="st5" d="M560.5,374.9c0-1.6-0.1-2.7-0.3-3.5c-0.3-0.1-0.5-0.1-0.5,0c-1.8,0.9-2.8,3-3.2,5.6
						c-0.2,1.4-0.1,2.6,0.2,3.4c0.1,0.1,0.2,0.2,0.4,0.3C558.2,381,560.3,380.1,560.5,374.9z"/>
				</g>
				<path class="st8" d="M559.2,382.6c1.9-0.6,27-9.9,30.1-11.3c5-2.3,7.4-10.7,2.6-12.3c-2.1-0.7-27.6,6.9-32.4,9
					c-0.4,0.2-0.8,0.4-1.1,0.6c0,0,2.6-1.2,2.9,6c0.3,6.6-2.4,8.2-4,8C557.9,382.7,558.6,382.7,559.2,382.6z"/>
			</g>
			<g>
				<g>
					<path class="st7" d="M583.8,363.7c0,0-0.3,0.1-0.8,0.3c-0.5,0.2-1.2,0.5-2.1,0.9c-0.9,0.4-1.9,0.8-3,1.2
						c-1.1,0.4-2.2,0.9-3.4,1.3c-1.2,0.4-2.3,0.9-3.4,1.3c-1.1,0.4-2.1,0.7-3,1c-0.9,0.3-1.6,0.5-2.1,0.7c-0.5,0.2-0.8,0.3-0.8,0.3
						s0.3-0.1,0.8-0.3c0.5-0.2,1.2-0.5,2.1-0.9c0.9-0.4,1.9-0.8,3-1.2c1.1-0.4,2.2-0.9,3.4-1.3c1.2-0.4,2.3-0.9,3.4-1.3
						c1.1-0.4,2.1-0.7,3-1c0.9-0.3,1.6-0.5,2.1-0.7C583.5,363.8,583.8,363.7,583.8,363.7z"/>
				</g>
				<g>
					<path class="st7" d="M579.4,370.1c0,0-0.2,0.1-0.7,0.3c-0.4,0.2-1,0.4-1.8,0.7c-0.7,0.3-1.6,0.6-2.5,1c-0.9,0.3-1.9,0.7-2.9,1
						c-1,0.3-2,0.7-2.9,1c-0.9,0.3-1.8,0.6-2.6,0.8c-0.7,0.2-1.4,0.4-1.8,0.5c-0.4,0.1-0.7,0.2-0.7,0.2s0.2-0.1,0.7-0.3
						c0.4-0.2,1-0.4,1.8-0.7c0.7-0.3,1.6-0.6,2.5-1c0.9-0.3,1.9-0.7,2.9-1c1-0.3,2-0.7,2.9-1c0.9-0.3,1.8-0.6,2.6-0.8
						c0.7-0.2,1.4-0.4,1.8-0.5C579.1,370.1,579.4,370.1,579.4,370.1z"/>
				</g>
			</g>
		</g>
		<g>
			<g>
				<path class="st14" d="M630.7,375.2c-4.7,6.9-1.5,7.6-1.4,7.6c3.3,0.2,6.3-1.7,8.9-4.6c3-3.2,2.9-6.1,1.8-7.7
					C638.7,369.2,635,368.8,630.7,375.2z"/>
				<path class="st15" d="M631.8,375.4c-4.1,5.2-1.9,6.1-1.9,6.1c2.3,0.5,4.7-0.8,6.9-2.9c2.5-2.4,2.7-4.7,2.1-6.2
					C638.1,371.3,635.6,370.6,631.8,375.4z"/>
				<g>
					<path class="st5" d="M636,376.2c1.6-1.5,2.2-3,2.4-4.2c-1.2-0.7-3.5-0.5-6.6,3.5c-1.3,1.6-2,2.8-2.3,3.7
						C631.7,379.4,634,378.1,636,376.2z"/>
				</g>
				<path class="st16" d="M638.4,369.2c-2.2-0.8-31.9-9.6-35.9-10.4c-6.2-1.3-14.2,4.8-11,9.6c1.4,2.1,30.5,12.7,36.4,14.2
					c0.5,0.1,1,0.2,1.4,0.2c0,0-3.3-0.8,1.4-7.6c4.3-6.3,8-5.9,9.3-4.6C639.6,369.9,639,369.4,638.4,369.2z"/>
			</g>
			<g>
				<g>
					<path class="st7" d="M602.3,369.6c0,0,0.4,0.1,1,0.2c0.6,0.2,1.5,0.4,2.5,0.6c1,0.3,2.3,0.6,3.6,0.9c1.3,0.4,2.7,0.7,4.1,1.1
						c1.4,0.4,2.8,0.8,4.1,1.2c1.3,0.4,2.5,0.8,3.5,1.1c1,0.3,1.9,0.6,2.5,0.8c0.6,0.2,0.9,0.3,0.9,0.3s-0.4-0.1-1-0.2
						c-0.6-0.2-1.5-0.4-2.5-0.6c-1-0.3-2.3-0.6-3.6-0.9c-1.3-0.4-2.7-0.7-4.1-1.1c-1.4-0.4-2.8-0.8-4.1-1.2
						c-1.3-0.4-2.5-0.8-3.5-1.1c-1-0.3-1.9-0.6-2.5-0.8C602.6,369.7,602.3,369.6,602.3,369.6z"/>
				</g>
				<g>
					<path class="st7" d="M610.9,366.8c0,0,0.3,0.1,0.8,0.2c0.5,0.1,1.3,0.3,2.1,0.6c0.9,0.2,1.9,0.5,3,0.9c1.1,0.3,2.3,0.7,3.4,1
						c1.2,0.4,2.3,0.7,3.4,1.1c1.1,0.4,2.1,0.7,2.9,1c0.9,0.3,1.6,0.6,2.1,0.7c0.5,0.2,0.8,0.3,0.8,0.3s-0.3-0.1-0.8-0.2
						c-0.5-0.1-1.3-0.3-2.1-0.6c-0.9-0.2-1.9-0.5-3-0.9c-1.1-0.3-2.3-0.7-3.4-1c-1.2-0.4-2.3-0.7-3.4-1.1c-1.1-0.4-2.1-0.7-2.9-1
						c-0.9-0.3-1.6-0.6-2.1-0.7C611.2,366.9,610.9,366.8,610.9,366.8z"/>
				</g>
				<g>
					<path class="st7" d="M604.9,360.8c0,0,0.3,0.1,0.8,0.2c0.5,0.1,1.3,0.3,2.1,0.6c0.9,0.3,1.9,0.5,3,0.9c1.1,0.3,2.3,0.7,3.4,1
						c1.2,0.4,2.3,0.7,3.4,1.1c1.1,0.4,2.1,0.7,2.9,1c0.9,0.3,1.6,0.6,2.1,0.7c0.5,0.2,0.8,0.3,0.8,0.3s-0.3-0.1-0.8-0.2
						c-0.5-0.1-1.3-0.3-2.1-0.6c-0.9-0.3-1.9-0.5-3-0.9c-1.1-0.3-2.3-0.7-3.4-1c-1.2-0.4-2.3-0.7-3.4-1.1c-1.1-0.4-2.1-0.7-2.9-1
						c-0.9-0.3-1.6-0.6-2.1-0.7C605.2,360.9,604.9,360.8,604.9,360.8z"/>
				</g>
			</g>
		</g>
		<g>
			<path class="st16" d="M588,460c-2-0.5-5.5-0.7-7.4,3.6c-2.4,5.7,1,7.7,2.4,8.9c1.5,1.2,19.4,8.2,25.5,10.8
				c0.7,0.3,1.5,0.6,2.2,0.8c0,0-6.6-4.4-3.9-9.5c2.7-5.1,8.4-4.2,11.9-2.6c-0.5-0.3-1-0.5-1.3-0.7C612.8,469.2,589.5,460.4,588,460
				z"/>
			<path class="st14" d="M618.8,472.1c-3.5-1.6-9.1-2.5-11.9,2.6c-2.7,5.1,3.9,9.5,3.9,9.5c5.5,2,11,2.8,13.1-2.7
				C625.8,476.5,621.4,473.5,618.8,472.1L618.8,472.1z"/>
			<path class="st15" d="M618.8,473.8c-3-1.3-7.8-2.1-10,1.9c-2.2,4,3.4,7.4,3.4,7.5c4.7,1.6,9.3,2.3,11-2
				C624.8,477.3,621,474.9,618.8,473.8L618.8,473.8z"/>
			<path class="st10" d="M617.7,479.5c1.3-3.3-1.9-5.4-3.9-6.4c-0.2-0.1-0.5-0.2-0.7-0.3c-1.7,0.2-3.3,1-4.3,2.9
				c-1.4,2.6,0.4,4.9,1.9,6.2C613.8,482.7,616.5,482.4,617.7,479.5z"/>
			<g>
				<g>
					<path class="st7" d="M583.4,469.2c0,0,0.3,0.1,0.9,0.3c0.6,0.2,1.3,0.4,2.3,0.7c0.9,0.3,2,0.7,3.2,1.1c1.2,0.4,2.4,0.8,3.7,1.2
						c1.3,0.4,2.5,0.8,3.7,1.2c1.2,0.4,2.3,0.7,3.2,1.1c0.5,0.2,0.9,0.3,1.3,0.4c0.4,0.1,0.7,0.2,1,0.3c0.6,0.2,0.9,0.3,0.9,0.3
						s-0.3-0.1-0.9-0.2c-0.3-0.1-0.6-0.1-1-0.2c-0.4-0.1-0.8-0.2-1.3-0.3c-0.5-0.1-1-0.3-1.6-0.4c-0.6-0.2-1.1-0.3-1.7-0.5
						c-1.2-0.4-2.5-0.8-3.7-1.2c-1.3-0.4-2.5-0.9-3.7-1.3c-1.2-0.4-2.2-0.9-3.2-1.2c-0.9-0.4-1.7-0.7-2.2-0.9
						C583.7,469.3,583.4,469.2,583.4,469.2z"/>
				</g>
				<g>
					<path class="st7" d="M587.2,466.9c0,0,0.2,0.1,0.6,0.2c0.4,0.1,0.9,0.3,1.6,0.5c0.6,0.2,1.4,0.4,2.2,0.7
						c0.8,0.3,1.7,0.5,2.5,0.8c0.9,0.3,1.7,0.6,2.5,0.9c0.8,0.3,1.5,0.6,2.2,0.8c0.6,0.2,1.2,0.5,1.5,0.6c0.4,0.2,0.6,0.2,0.6,0.2
						s-0.2-0.1-0.6-0.2c-0.4-0.1-0.9-0.2-1.6-0.4c-0.7-0.2-1.4-0.4-2.2-0.7c-0.8-0.3-1.7-0.5-2.5-0.8c-0.9-0.3-1.7-0.6-2.5-0.9
						c-0.8-0.3-1.5-0.6-2.2-0.9c-0.6-0.3-1.1-0.5-1.5-0.6C587.4,467,587.2,466.9,587.2,466.9z"/>
				</g>
				<g>
					<path class="st7" d="M593.2,466.1c0,0,0.2,0,0.6,0.1c0.4,0.1,0.9,0.2,1.5,0.3c0.6,0.2,1.3,0.3,2.1,0.5c0.8,0.2,1.5,0.4,2.3,0.7
						c0.8,0.3,1.6,0.5,2.3,0.8c0.4,0.1,0.7,0.3,1,0.4c0.3,0.1,0.6,0.3,0.9,0.4c0.6,0.2,1,0.4,1.4,0.6c0.3,0.1,0.5,0.2,0.5,0.2
						s-0.2,0-0.6-0.1c-0.3-0.1-0.8-0.2-1.4-0.4c-0.6-0.2-1.3-0.4-2-0.6c-0.7-0.2-1.5-0.5-2.3-0.7c-0.8-0.3-1.6-0.5-2.3-0.7
						c-0.7-0.2-1.4-0.5-2-0.7c-0.6-0.2-1.1-0.4-1.4-0.5C593.4,466.1,593.2,466.1,593.2,466.1z"/>
				</g>
			</g>
		</g>
		<g>
			<path class="st8" d="M552.1,452.7c-5.2,1.9-8.6-2.7-10.1-6.2l0,0c0.2,0.6,0.4,1,0.5,1.4c1.9,4.8,13.1,27.1,13.9,28.3
				c1.1,1.8,3.5,4.3,7.6,2.4c5.3-2.5,4.1-6.2,3.8-8.1c-0.3-1.9-8.7-19.2-11.5-25.2c-0.3-0.7-0.7-1.4-1-2.1
				C555.3,443.2,557.3,450.8,552.1,452.7z"/>
			<path class="st4" d="M542,446.5c1.5,3.6,5,8.1,10.1,6.2c5.2-1.9,3.2-9.5,3.2-9.5c-2.7-5.2-6.2-9.5-11.1-7
				C539.7,438.5,541,443.7,542,446.5L542,446.5z"/>
			<path class="st5" d="M543,445.2c1.3,3,4.3,6.8,8.4,5.4c4.1-1.4,2.2-7.7,2.2-7.7c-2.3-4.3-5.3-8-9.2-6.1
				C541,438.6,542.2,442.9,543,445.2L543,445.2z"/>
			<g>
				<g>
					<path class="st17" d="M565.2,472.9c0,0-0.2-0.3-0.5-0.8c-0.3-0.5-0.7-1.2-1.2-2.1c-0.5-0.9-1-1.9-1.6-3
						c-0.6-1.1-1.2-2.3-1.8-3.5c-0.6-1.2-1.2-2.4-1.7-3.5c-0.5-1.1-1-2.2-1.4-3.1c-0.4-0.9-0.7-1.7-1-2.2c-0.2-0.5-0.4-0.8-0.4-0.8
						s0.2,0.3,0.5,0.8c0.3,0.5,0.7,1.2,1.2,2.1c0.5,0.9,1,1.9,1.6,3c0.6,1.1,1.2,2.3,1.8,3.5c0.6,1.2,1.2,2.4,1.7,3.5
						c0.5,1.1,1,2.2,1.4,3.1c0.4,0.9,0.7,1.7,1,2.2C565.1,472.6,565.2,472.9,565.2,472.9z"/>
				</g>
				<g>
					<path class="st17" d="M561,471.2c0,0-0.1-0.2-0.3-0.5c-0.2-0.3-0.5-0.8-0.8-1.4c-0.3-0.6-0.7-1.3-1.1-2
						c-0.4-0.7-0.9-1.5-1.3-2.3c-0.4-0.8-0.9-1.6-1.2-2.3c-0.4-0.8-0.7-1.5-1-2.1c-0.3-0.6-0.5-1.1-0.7-1.5
						c-0.2-0.4-0.3-0.6-0.3-0.6s0.1,0.2,0.3,0.5c0.2,0.3,0.5,0.8,0.9,1.4c0.3,0.6,0.8,1.3,1.2,2c0.4,0.7,0.9,1.5,1.3,2.3
						c0.4,0.8,0.9,1.6,1.2,2.4c0.4,0.8,0.7,1.5,1,2.1c0.3,0.6,0.5,1.1,0.7,1.5C560.9,471,561,471.2,561,471.2z"/>
				</g>
				<g>
					<path class="st17" d="M559.4,475c0,0-0.2-0.3-0.5-0.7c-0.3-0.5-0.7-1.2-1.2-2c-0.5-0.8-1-1.8-1.6-2.8c-0.6-1-1.2-2.2-1.8-3.3
						c-0.6-1.1-1.2-2.3-1.7-3.3c-0.3-0.5-0.5-1.1-0.7-1.6c-0.2-0.5-0.4-1-0.6-1.4c-0.4-0.9-0.7-1.6-0.9-2.1
						c-0.2-0.5-0.3-0.8-0.3-0.8s0.2,0.3,0.4,0.8c0.3,0.5,0.7,1.2,1.1,2c0.4,0.9,1,1.8,1.5,2.9c0.6,1.1,1.2,2.2,1.8,3.3
						c0.6,1.1,1.2,2.3,1.7,3.3c0.6,1.1,1,2.1,1.5,2.9c0.4,0.9,0.8,1.6,1,2.1C559.3,474.7,559.4,475,559.4,475z"/>
				</g>
			</g>
		</g>
		<g>
			<path class="st16" d="M535.8,399.3c-0.2-2.1-1.2-5.4-5-5.4c-4.9,0-5.4,3.8-5.8,5.7c-0.4,1.8-0.1,21-0.1,27.7c0,0.8,0,1.6,0,2.3
				c0,0,1.2-7.8,5.8-7.2c4.6,0.6,5.7,6.1,5.6,10c0-0.6,0.1-1.1,0.1-1.4C536.7,425.7,536,400.8,535.8,399.3z"/>
			<path class="st14" d="M536.4,432.3c0.1-3.9-0.9-9.4-5.6-10c-4.6-0.6-5.8,7.2-5.8,7.2c0.2,5.8,1.3,11.2,6,11.1
				C535.2,440.5,536.1,435.3,536.4,432.3L536.4,432.3z"/>
			<path class="st15" d="M535.1,433c0-3.3-0.9-8-4.5-8.5c-3.6-0.5-4.4,6-4.4,6c0.2,4.9,1.2,9.5,4.9,9.4
				C534.3,439.8,535,435.4,535.1,433L535.1,433z"/>
			<path class="st18" d="M530.8,435.6c3-0.1,3.7-4,3.9-6.3c-0.5-2.3-1.7-4.4-4.1-4.8c-2.6-0.4-3.8,2.8-4.2,4.7
				C526.9,432.8,528,435.7,530.8,435.6z"/>
			<g>
				<g>
					<path class="st7" d="M527.6,398.6c0,0,0,0.3,0.1,0.9c0,0.6,0.1,1.4,0.2,2.4c0.1,1,0.2,2.1,0.2,3.4c0.1,1.2,0.2,2.6,0.2,3.9
						c0.1,1.3,0.1,2.6,0.2,3.9c0,0.6,0.1,1.2,0.1,1.8c0,0.6,0.1,1.1,0.1,1.6c0.1,1,0.1,1.8,0.1,2.4c0,0.6,0,0.9,0,0.9
						s-0.1-0.3-0.1-0.9c-0.1-0.6-0.2-1.4-0.3-2.4c-0.1-0.5-0.1-1-0.2-1.6c-0.1-0.6-0.2-1.2-0.2-1.8c-0.1-1.2-0.2-2.6-0.3-3.9
						c0-0.7-0.1-1.3-0.1-2c0-0.7-0.1-1.3-0.1-1.9c0-1.2,0-2.4-0.1-3.4c0-1,0-1.8,0-2.4C527.6,398.9,527.6,398.6,527.6,398.6z"/>
				</g>
				<g>
					<path class="st7" d="M530.5,401.2c0,0,0,0.2,0.1,0.6c0,0.4,0.1,1,0.2,1.6c0,0.7,0.1,1.5,0.2,2.3c0.1,0.8,0.1,1.7,0.2,2.7
						c0,0.9,0.1,1.8,0.1,2.7c0,0.8,0,1.6,0,2.3c0,0.7,0,1.2,0,1.6c0,0.4,0,0.6,0,0.6s0-0.2-0.1-0.6c0-0.4-0.1-1-0.2-1.6
						c-0.1-0.7-0.2-1.5-0.2-2.3c-0.1-0.8-0.1-1.8-0.2-2.7c0-0.9-0.1-1.8-0.1-2.7c0-0.8,0-1.6,0-2.3c0-0.7,0-1.2,0-1.6
						C530.4,401.4,530.5,401.2,530.5,401.2z"/>
				</g>
				<g>
					<path class="st7" d="M532.9,406.4c0,0,0,0.2,0.1,0.6c0.1,0.4,0.2,0.9,0.2,1.5c0.1,0.6,0.2,1.3,0.3,2.1c0.1,0.8,0.2,1.6,0.2,2.4
						c0.1,0.8,0.1,1.6,0.1,2.4c0,0.4,0,0.8,0,1.1c0,0.4,0,0.7,0,1c0,0.6,0,1.1,0,1.5c0,0.4,0,0.6,0,0.6s0-0.2-0.1-0.6
						c0-0.4-0.1-0.9-0.2-1.5c-0.1-1.2-0.2-2.9-0.4-4.5c-0.1-0.8-0.1-1.6-0.2-2.4c-0.1-0.8-0.1-1.5-0.1-2.1c0-0.6,0-1.1,0-1.5
						C532.9,406.6,532.9,406.4,532.9,406.4z"/>
				</g>
			</g>
		</g>
		<g>
			<g>
				<path class="st4" d="M537.8,442.7c-5.7-3.8-6.3-1.1-6.3-1.1c-0.1,2.7,1.5,5.2,3.9,7.3c2.7,2.4,5,2.3,6.4,1.4
					C542.8,449.1,543.1,446.1,537.8,442.7z"/>
				<path class="st5" d="M537.6,443.5c-4.4-3.3-5.1-1.5-5.1-1.4c-0.3,1.9,0.8,3.9,2.5,5.6c2,2,3.9,2.2,5.1,1.7
					C541.1,448.7,541.6,446.6,537.6,443.5z"/>
				<g>
					<path class="st10" d="M539.6,447.4c0.3-0.2,0.6-0.6,0.7-1.2c-0.5-0.8-1.3-1.7-2.7-2.7c-4.4-3.3-5.1-1.5-5.1-1.4
						c-0.1,0.3-0.1,0.6-0.1,0.9c0.5,0.9,1.2,1.9,2,2.7C536.5,447.8,538.4,447.9,539.6,447.4z"/>
				</g>
				<path class="st8" d="M542.8,448.9c0.6-1.8,7.4-26.4,8.1-29.7c1-5.1-4.2-11.7-8.1-8.9c-1.7,1.2-10.1,25.3-11.2,30.2
					c-0.1,0.4-0.1,0.8-0.2,1.2c0,0,0.6-2.7,6.3,1.1c5.3,3.5,5,6.5,3.9,7.6C542.3,449.9,542.7,449.4,542.8,448.9z"/>
			</g>
			<g>
				<g>
					<path class="st7" d="M542,419.2c0,0-0.1,0.3-0.2,0.8c-0.1,0.5-0.3,1.2-0.5,2.1c-0.2,0.9-0.4,1.9-0.7,3
						c-0.3,1.1-0.6,2.2-0.9,3.4c-0.3,1.1-0.6,2.3-0.9,3.4c-0.3,1.1-0.6,2.1-0.9,2.9c-0.3,0.9-0.5,1.6-0.7,2.1
						c-0.2,0.5-0.3,0.8-0.3,0.8s0.1-0.3,0.2-0.8c0.1-0.5,0.3-1.2,0.5-2.1c0.2-0.9,0.4-1.9,0.7-3c0.3-1.1,0.6-2.2,0.9-3.4
						c0.3-1.1,0.6-2.3,0.9-3.4c0.3-1.1,0.6-2.1,0.9-2.9c0.3-0.9,0.5-1.6,0.7-2.1C541.9,419.4,542,419.2,542,419.2z"/>
				</g>
				<g>
					<path class="st7" d="M544.4,426.2c0,0-0.1,0.2-0.1,0.7c-0.1,0.4-0.2,1-0.4,1.8c-0.2,0.7-0.4,1.6-0.6,2.5
						c-0.2,0.9-0.5,1.9-0.8,2.8c-0.3,1-0.6,1.9-0.9,2.8c-0.3,0.9-0.6,1.7-0.8,2.4c-0.2,0.7-0.5,1.3-0.6,1.7
						c-0.2,0.4-0.2,0.6-0.2,0.6s0.1-0.2,0.1-0.7c0.1-0.4,0.2-1,0.4-1.8c0.2-0.7,0.4-1.6,0.6-2.5c0.2-0.9,0.5-1.9,0.8-2.8
						c0.3-1,0.6-1.9,0.9-2.8c0.3-0.9,0.6-1.7,0.8-2.4c0.2-0.7,0.5-1.3,0.6-1.7C544.3,426.5,544.4,426.2,544.4,426.2z"/>
				</g>
			</g>
		</g>
		<g>
			<path class="st16" d="M663.2,427.8c0.6-2.1,1.2-5.7-2.5-7.3c-4.7-2.1-6.8,1.4-8,3c-1.2,1.5-9,20.1-11.8,26.5
				c-0.3,0.8-0.6,1.5-0.9,2.3c0,0,4.4-7,8.6-4.5c4.2,2.5,2.9,8.3,1.1,11.9c0.3-0.6,0.5-1,0.7-1.4
				C652.9,453.5,662.7,429.3,663.2,427.8z"/>
			<path class="st14" d="M649.8,459.7c1.7-3.7,3.1-9.4-1.1-11.9c-4.2-2.5-8.6,4.5-8.6,4.5c-2.3,5.7-3.4,11.3,1.1,13.1
				C645.3,467.1,648.4,462.4,649.8,459.7L649.8,459.7z"/>
			<path class="st15" d="M648.3,459.8c1.4-3.1,2.5-8-0.7-10c-3.2-2.1-6.8,3.8-6.8,3.9c-1.8,4.8-2.8,9.6,0.7,11.1
				C644.7,466,647.2,462.1,648.3,459.8L648.3,459.8z"/>
			<g>
				<path class="st10" d="M643,460.4c2.7,1.1,4.7-2.2,5.7-4.1c0.4-0.8,0.7-1.8,0.9-2.8c-0.1-1.5-0.7-2.9-2.1-3.8c-2-1.2-4,0.4-5.4,2
					C640.8,455.5,640.2,459.2,643,460.4z"/>
			</g>
			<g>
				<g>
					<path class="st7" d="M655.7,423.6c0,0-0.1,0.3-0.3,0.9c-0.2,0.6-0.5,1.4-0.8,2.4c-0.4,1-0.8,2.1-1.2,3.3
						c-0.5,1.2-0.9,2.5-1.4,3.8c-0.5,1.3-1,2.6-1.4,3.8c-0.2,0.6-0.4,1.2-0.6,1.8c-0.2,0.6-0.4,1.1-0.6,1.6c-0.3,1-0.7,1.8-0.9,2.4
						c-0.2,0.6-0.3,0.9-0.3,0.9s0.1-0.3,0.2-0.9c0.2-0.6,0.4-1.4,0.7-2.4c0.1-0.5,0.3-1,0.5-1.6c0.2-0.6,0.3-1.2,0.6-1.8
						c0.4-1.2,0.9-2.5,1.4-3.8c0.2-0.6,0.5-1.3,0.7-1.9c0.2-0.6,0.5-1.3,0.7-1.9c0.5-1.2,1-2.3,1.4-3.3c0.4-1,0.8-1.7,1-2.3
						C655.5,423.9,655.7,423.6,655.7,423.6z"/>
				</g>
				<g>
					<path class="st7" d="M657.3,427.3c0,0-0.1,0.2-0.2,0.6c-0.1,0.4-0.3,1-0.5,1.6c-0.2,0.7-0.5,1.5-0.8,2.3
						c-0.3,0.8-0.6,1.7-1,2.6c-0.3,0.9-0.7,1.8-1,2.6c-0.3,0.8-0.7,1.6-0.9,2.2c-0.3,0.7-0.5,1.2-0.7,1.6c-0.2,0.4-0.3,0.6-0.3,0.6
						s0.1-0.2,0.2-0.6c0.1-0.4,0.3-1,0.5-1.6c0.2-0.7,0.5-1.5,0.8-2.3c0.3-0.8,0.6-1.7,0.9-2.6c0.3-0.9,0.7-1.8,1-2.6
						c0.3-0.8,0.7-1.6,1-2.2c0.3-0.7,0.5-1.2,0.7-1.6C657.2,427.6,657.3,427.3,657.3,427.3z"/>
				</g>
				<g>
					<path class="st7" d="M657.5,433.4c0,0,0,0.2-0.1,0.6c-0.1,0.4-0.2,0.9-0.4,1.5c-0.2,0.6-0.4,1.3-0.6,2.1
						c-0.2,0.8-0.5,1.6-0.8,2.4c-0.3,0.8-0.6,1.6-0.9,2.4c-0.1,0.4-0.3,0.7-0.5,1.1c-0.1,0.3-0.3,0.7-0.4,1
						c-0.3,0.6-0.5,1.1-0.7,1.4c-0.2,0.3-0.3,0.5-0.3,0.5s0.1-0.2,0.2-0.6c0.1-0.4,0.3-0.9,0.5-1.5c0.4-1.2,1-2.8,1.5-4.5
						c0.3-0.8,0.6-1.6,0.9-2.4c0.3-0.8,0.6-1.5,0.8-2.1c0.2-0.6,0.4-1.1,0.6-1.5C657.4,433.6,657.5,433.4,657.5,433.4z"/>
				</g>
			</g>
		</g>
		<g>
			<path class="st9" d="M643.8,427.4c5.2,1.8,5.1,7.5,4,11.2l0,0c0.2-0.6,0.3-1.1,0.4-1.4c1.5-5,6.7-29.3,6.8-30.8
				c0.2-2.1,0-5.5-4.4-6.6c-5.7-1.3-7.1,2.3-8.1,3.9c-0.9,1.6-5.2,20.4-6.7,26.9c-0.2,0.8-0.4,1.5-0.5,2.3
				C635.4,432.8,638.6,425.6,643.8,427.4z"/>
			<path class="st11" d="M647.8,438.6c1-3.7,1.2-9.4-4-11.2c-5.2-1.8-8.4,5.4-8.4,5.5c-1.1,5.7-1.1,11.3,4.3,12.4
				C644.6,446.2,646.9,441.3,647.8,438.6L647.8,438.6z"/>
			<path class="st12" d="M646.2,438.9c0.8-3.2,0.9-8-3.2-9.5c-4-1.5-6.6,4.6-6.6,4.6c-0.9,4.8-0.9,9.5,3.4,10.4
				C643.7,445.3,645.5,441.2,646.2,438.9L646.2,438.9z"/>
			<g>
				<path class="st19" d="M640.6,441c3.2,0.7,4.7-2.8,5.4-4.8c0.2-1,0.4-2.1,0.4-3.2c-0.5-1.6-1.4-2.9-3.3-3.6
					c-2-0.7-3.6,0.4-4.8,1.7c-0.3,0.6-0.5,1.1-0.5,1.1C637,436.3,637,440.2,640.6,441z"/>
			</g>
			<g>
				<g>
					<path class="st7" d="M646.2,403.4c0,0-0.1,0.3-0.1,0.9c-0.1,0.6-0.2,1.4-0.4,2.4c-0.2,1-0.4,2.1-0.7,3.4
						c-0.2,1.2-0.5,2.5-0.8,3.8c-0.3,1.3-0.6,2.6-0.9,3.8c-0.3,1.2-0.6,2.4-0.8,3.3c-0.2,1-0.5,1.8-0.6,2.3
						c-0.2,0.6-0.2,0.9-0.2,0.9s0.1-0.3,0.1-0.9c0.1-0.6,0.2-1.4,0.4-2.4c0.2-1,0.4-2.1,0.7-3.4c0.2-1.2,0.5-2.5,0.8-3.8
						c0.3-1.3,0.6-2.6,0.9-3.8c0.3-1.2,0.6-2.4,0.8-3.3c0.2-1,0.5-1.8,0.6-2.3C646.1,403.7,646.2,403.4,646.2,403.4z"/>
				</g>
				<g>
					<path class="st7" d="M647.5,408.4c0,0,0,0.2-0.1,0.6c-0.1,0.4-0.1,1-0.2,1.6c-0.1,0.7-0.2,1.5-0.4,2.3
						c-0.1,0.8-0.3,1.7-0.4,2.6c-0.2,0.9-0.3,1.8-0.5,2.6c-0.2,0.8-0.3,1.6-0.5,2.3c-0.1,0.7-0.3,1.2-0.4,1.6
						c-0.1,0.4-0.2,0.6-0.2,0.6s0-0.2,0.1-0.6c0-0.4,0.1-1,0.2-1.6c0.1-0.7,0.2-1.5,0.3-2.3c0.1-0.8,0.3-1.7,0.4-2.6
						c0.2-0.9,0.3-1.8,0.5-2.6c0.2-0.8,0.4-1.6,0.5-2.3c0.2-0.7,0.3-1.2,0.4-1.6C647.4,408.6,647.5,408.4,647.5,408.4z"/>
				</g>
				<g>
					<path class="st7" d="M649.8,414c0,0,0,0.2,0,0.5c0,0.3-0.1,0.8-0.1,1.3c-0.1,1.1-0.3,2.5-0.5,3.9c-0.1,0.7-0.2,1.4-0.4,2.1
						c-0.1,0.7-0.2,1.3-0.3,1.8c-0.1,0.5-0.2,1-0.3,1.3c-0.1,0.3-0.1,0.5-0.1,0.5s0-0.2,0-0.5c0-0.3,0-0.8,0.1-1.3
						c0-0.5,0.1-1.2,0.1-1.9c0.1-0.7,0.2-1.4,0.3-2.1c0.1-0.7,0.2-1.4,0.4-2.1c0.1-0.7,0.3-1.3,0.4-1.8
						C649.6,414.7,649.8,414,649.8,414z"/>
				</g>
			</g>
		</g>
		<g>
			<path class="st9" d="M597.1,455.4c-5.4,0.8-7.9-4.4-8.7-8.2l0,0c0.1,0.6,0.2,1.1,0.2,1.4c0.9,5.1,7.3,29.2,7.9,30.6
				c0.7,2,2.5,4.9,6.9,3.9c5.7-1.4,5.3-5.3,5.4-7.2c0.1-1.9-4.6-20.5-6.2-27c-0.2-0.8-0.4-1.5-0.6-2.3
				C602.1,446.8,602.5,454.6,597.1,455.4z"/>
			<path class="st11" d="M588.4,447.3c0.8,3.8,3.2,8.9,8.7,8.2c5.4-0.8,5-8.7,5-8.7c-1.6-5.6-4.1-10.6-9.4-9.1
				C587.8,439,588,444.3,588.4,447.3L588.4,447.3z"/>
			<path class="st12" d="M589.7,446.3c0.7,3.2,2.8,7.5,7.1,7c4.3-0.5,3.8-7.1,3.8-7.1c-1.4-4.7-3.5-8.9-7.7-7.8
				C589,439.4,589.3,443.8,589.7,446.3L589.7,446.3z"/>
			<g>
				<path class="st5" d="M600.6,446.2c-1-3.3-2.3-6.3-4.5-7.5c-1.5,1.8-1.3,4.8-1,6.6c0.5,2.4,1.8,5.3,4.2,6.5
					C600.8,449.7,600.6,446.2,600.6,446.2z"/>
			</g>
			<g>
				<g>
					<path class="st7" d="M605.8,477.9c0,0-0.1-0.3-0.3-0.9c-0.2-0.6-0.4-1.4-0.7-2.3c-0.3-1-0.6-2.1-0.9-3.3
						c-0.3-1.2-0.7-2.5-1-3.8c-0.3-1.3-0.7-2.6-1-3.8c-0.3-1.2-0.5-2.4-0.8-3.3c-0.2-1-0.4-1.8-0.5-2.4c-0.1-0.6-0.2-0.9-0.2-0.9
						s0.1,0.3,0.3,0.9c0.2,0.6,0.4,1.4,0.7,2.3c0.3,1,0.6,2.1,0.9,3.3c0.3,1.2,0.7,2.5,1,3.8c0.3,1.3,0.7,2.6,1,3.8
						c0.3,1.2,0.5,2.4,0.8,3.3c0.2,1,0.4,1.8,0.5,2.4C605.7,477.5,605.8,477.9,605.8,477.9z"/>
				</g>
				<g>
					<path class="st7" d="M602.4,474c0,0-0.1-0.2-0.2-0.6c-0.1-0.4-0.3-0.9-0.5-1.6c-0.2-0.6-0.5-1.4-0.7-2.2
						c-0.3-0.8-0.5-1.7-0.8-2.5c-0.3-0.9-0.5-1.7-0.7-2.5c-0.2-0.8-0.4-1.6-0.6-2.2c-0.2-0.7-0.3-1.2-0.4-1.6
						c-0.1-0.4-0.1-0.6-0.1-0.6s0.1,0.2,0.2,0.6c0.1,0.4,0.3,0.9,0.6,1.5c0.2,0.6,0.5,1.4,0.8,2.2c0.3,0.8,0.5,1.7,0.8,2.5
						c0.3,0.9,0.5,1.7,0.7,2.6c0.2,0.8,0.4,1.6,0.5,2.3c0.2,0.7,0.3,1.2,0.4,1.6C602.3,473.8,602.4,474,602.4,474z"/>
				</g>
				<g>
					<path class="st7" d="M597.8,470c0,0-0.1-0.2-0.2-0.5c-0.1-0.3-0.3-0.7-0.5-1.2c-0.4-1-0.8-2.4-1.3-3.8c-0.2-0.7-0.4-1.4-0.6-2
						c-0.2-0.6-0.4-1.2-0.6-1.8c-0.2-0.5-0.3-1-0.4-1.3c-0.1-0.3-0.1-0.5-0.1-0.5s0.1,0.2,0.2,0.4c0.1,0.3,0.3,0.7,0.5,1.2
						c0.2,0.5,0.5,1.1,0.7,1.7c0.2,0.6,0.5,1.3,0.7,2c0.2,0.7,0.4,1.4,0.6,2c0.2,0.7,0.3,1.3,0.5,1.8
						C597.6,469.3,597.8,470,597.8,470z"/>
				</g>
			</g>
		</g>
		<g>
			<g>
				<path class="st20" d="M648.6,440.9c-1.1-5-5.2-5-5.2-5c-8.2,3.4-32.7,20.2-32.7,20.2s1-0.5,2.1,0.6c1.2,1.1,3.1,7.1-0.3,13.5
					c-1.8,3.4-2.6,3.5-3.1,3.9c23.6-12.2,37.6-23.9,37.6-23.9S649.7,445.8,648.6,440.9z"/>
				<path class="st21" d="M612.5,470.3c3.4-6.4,1.5-12.4,0.3-13.5c-1.2-1.1-2.1-0.6-2.1-0.6c-1.3,0.8-4.7,3.4-5.2,10.3
					c-0.4,6.1,2.4,8.5,3.9,7.7C609.9,473.8,610.7,473.6,612.5,470.3z"/>
				<path class="st22" d="M611.6,469.8c2.7-5.1,1.2-9.8,0.3-10.7c-0.9-0.9-1.7-0.5-1.7-0.5c-1,0.6-3.7,2.7-4.1,8.1
					c-0.3,4.8,1.9,6.7,3.1,6.1C609.6,472.6,610.2,472.5,611.6,469.8z"/>
				<g>
					<path class="st5" d="M611.9,459.1c-0.6-0.6-1.1-0.6-1.4-0.6c-0.9,1.3-1.8,3.2-2,6.1c-0.3,4.1,1.3,6.1,2.5,6.2
						c0.2-0.3,0.4-0.7,0.6-1.1C614.3,464.7,612.8,460,611.9,459.1z"/>
				</g>
			</g>
			<g>
				<g>
					<path class="st7" d="M620.4,462.6c0,0,0.3-0.2,0.8-0.6c0.5-0.4,1.2-0.9,2.1-1.5c0.9-0.6,1.9-1.3,3-2c0.6-0.4,1.1-0.8,1.7-1.1
						c0.6-0.4,1.2-0.7,1.8-1.1c1.2-0.7,2.4-1.5,3.5-2.2c0.6-0.3,1.1-0.6,1.7-0.9c0.5-0.3,1-0.6,1.5-0.8c0.9-0.5,1.7-0.9,2.3-1.2
						c0.6-0.3,0.9-0.4,0.9-0.4s-0.3,0.2-0.8,0.5c-0.5,0.3-1.3,0.8-2.2,1.4c-0.9,0.6-2,1.2-3.1,1.9c-1.1,0.7-2.3,1.5-3.5,2.2
						c-1.2,0.7-2.4,1.5-3.5,2.2c-1.1,0.7-2.2,1.3-3.1,1.9c-0.9,0.5-1.7,1-2.2,1.3C620.7,462.4,620.4,462.6,620.4,462.6z"/>
				</g>
				<g>
					<path class="st7" d="M640.7,445.1c0,0-0.4,0.2-1.1,0.6c-0.7,0.4-1.7,0.9-2.9,1.5c-1.2,0.6-2.6,1.3-4.1,2.1
						c-0.7,0.4-1.5,0.8-2.3,1.2c-0.8,0.4-1.5,0.9-2.3,1.3c-0.8,0.4-1.5,0.9-2.3,1.3c-0.7,0.5-1.5,0.9-2.2,1.4
						c-0.7,0.5-1.4,0.9-2,1.3c-0.6,0.4-1.2,0.8-1.8,1.2c-0.5,0.4-1,0.8-1.5,1.1c-0.5,0.3-0.8,0.6-1.1,0.9c-0.6,0.5-1,0.8-1,0.8
						s0.3-0.3,0.9-0.8c0.3-0.3,0.6-0.6,1.1-0.9c0.4-0.3,0.9-0.7,1.4-1.2c0.5-0.4,1.1-0.8,1.8-1.3c0.6-0.5,1.3-0.9,2-1.4
						c0.7-0.5,1.4-0.9,2.2-1.4c0.8-0.5,1.5-0.9,2.3-1.4c0.8-0.4,1.6-0.9,2.3-1.3c0.8-0.4,1.5-0.8,2.3-1.2c1.5-0.8,2.9-1.4,4.1-2
						C639,445.7,640.7,445.1,640.7,445.1z"/>
				</g>
			</g>
		</g>
		<g>
			<g>
				<path class="st20" d="M607.9,371.6c0-5-3.8-5.9-3.8-5.9c-8.5,1.4-30.9,10.7-30.9,10.7s1-0.3,1.9,1.1c0.8,1.3,1.3,7.4-3.4,12.8
					c-2.5,2.8-3.2,2.8-3.8,3c25.1-6.2,36.4-13.1,36.4-13.1S607.9,376.5,607.9,371.6z"/>
				<path class="st21" d="M571.7,390.2c4.7-5.3,4.2-11.4,3.4-12.8c-0.8-1.3-1.9-1.1-1.9-1.1c-1.4,0.4-5.2,2.2-7.2,8.6
					c-1.8,5.6,0.4,8.6,1.9,8.2C568.5,393,569.3,393,571.7,390.2z"/>
				<path class="st22" d="M571,389.6c3.7-4.2,3.3-9,2.7-10.1c-0.7-1-1.5-0.8-1.5-0.8c-1.1,0.3-4.1,1.7-5.7,6.8
					c-1.4,4.5,0.3,6.8,1.5,6.5C568.5,391.8,569.1,391.8,571,389.6z"/>
				<g>
					<path class="st5" d="M571,389.6c2.9-3.3,3.3-6.9,3-8.9c-0.1,0-0.1,0-0.1,0c-1.1,0.3-4.1,1.7-5.7,6.8c-0.6,1.9-0.6,3.4-0.4,4.5
						c0.1,0,0.1,0,0.2,0C568.5,391.8,569.1,391.8,571,389.6z"/>
				</g>
			</g>
			<g>
				<g>
					<path class="st7" d="M581,384.7c0,0,1-0.5,2.4-1.2c0.7-0.3,1.6-0.7,2.5-1.1c0.9-0.4,1.9-0.8,3-1.2c1-0.4,2-0.7,3-1
						c0.5-0.2,1-0.3,1.4-0.4c0.4-0.1,0.9-0.3,1.3-0.4c0.8-0.2,1.5-0.3,1.9-0.4c0.5-0.1,0.7-0.2,0.7-0.2s-0.3,0.1-0.7,0.3
						c-0.4,0.1-1.1,0.4-1.9,0.6c-0.4,0.1-0.8,0.3-1.2,0.4c-0.4,0.2-0.9,0.3-1.4,0.5c-0.5,0.2-1,0.4-1.5,0.5c-0.5,0.2-1,0.4-1.5,0.5
						c-2,0.8-4,1.5-5.6,2.1c-0.8,0.3-1.4,0.5-1.8,0.7C581.3,384.6,581,384.7,581,384.7z"/>
				</g>
				<g>
					<path class="st7" d="M599.5,373.8c0,0-0.4,0.1-1,0.2c-0.3,0.1-0.7,0.2-1.1,0.3c-0.4,0.1-0.9,0.2-1.4,0.4
						c-1.1,0.2-2.3,0.6-3.6,1c-0.6,0.2-1.3,0.4-2,0.6c-0.7,0.2-1.4,0.4-2.1,0.6c-0.7,0.2-1.4,0.5-2,0.7c-0.3,0.1-0.7,0.2-1,0.3
						c-0.3,0.1-0.6,0.2-1,0.4c-0.6,0.2-1.2,0.5-1.8,0.7c-0.6,0.2-1.1,0.4-1.6,0.6c-1,0.4-1.8,0.8-2.4,1.1c-0.6,0.2-0.9,0.4-0.9,0.4
						s0.3-0.2,0.9-0.5c0.6-0.3,1.4-0.7,2.3-1.2c0.5-0.3,1-0.5,1.6-0.7c0.6-0.2,1.2-0.5,1.8-0.8c0.3-0.1,0.6-0.3,1-0.4
						c0.3-0.1,0.7-0.2,1-0.4c0.7-0.2,1.4-0.5,2.1-0.7c0.7-0.2,1.4-0.4,2.1-0.6c0.7-0.2,1.4-0.4,2-0.6c0.7-0.2,1.3-0.3,1.9-0.4
						c0.6-0.1,1.2-0.3,1.7-0.4c1.1-0.2,2-0.4,2.6-0.4c0.3,0,0.6-0.1,0.7-0.1C599.4,373.8,599.5,373.8,599.5,373.8z"/>
				</g>
			</g>
		</g>
		<g>
			<g>
				<path class="st9" d="M605.6,375.9c-3,3.5-0.8,6.5-0.8,6.5c6.9,4.1,28.4,10.7,28.4,10.7s-0.9-0.4-0.7-1.9c0.2-1.4,3.5-6.1,10-7.1
					c3.4-0.5,4-0.1,4.5,0.1c-21.6-10.5-33.8-12.3-33.8-12.3S608.6,372.3,605.6,375.9z"/>
				<path class="st11" d="M642.5,384.1c-6.5,1-9.8,5.7-10,7.1c-0.2,1.4,0.7,1.9,0.7,1.9c1.3,0.5,5,1.5,10.2-1.8c4.6-3,4.8-6.4,3.5-7
					C646.5,384,645.9,383.6,642.5,384.1z"/>
				<path class="st12" d="M642.7,384.9c-5.2,0.8-7.8,4.5-7.9,5.6c-0.1,1.1,0.6,1.5,0.6,1.5c1,0.4,4,1.2,8.1-1.4
					c3.7-2.3,3.8-5,2.8-5.5C645.8,384.9,645.4,384.5,642.7,384.9z"/>
				<g>
					<path class="st5" d="M635.4,389.9c1,0.4,4,1.2,8.1-1.4c1.6-1,2.6-2.2,3-3.1c-0.1-0.1-0.2-0.2-0.3-0.3c-0.4-0.2-0.8-0.5-3.5-0.1
						c-4.2,0.6-6.7,3.2-7.5,4.7C635.2,389.8,635.4,389.9,635.4,389.9z"/>
				</g>
			</g>
			<g>
				<g>
					<path class="st7" d="M634.7,380.8c0,0-0.3-0.1-0.8-0.3c-0.5-0.2-1.2-0.4-2.1-0.7c-1.7-0.6-4-1.4-6.2-2.2
						c-0.6-0.2-1.1-0.4-1.7-0.6c-0.6-0.2-1.1-0.4-1.6-0.6c-1.1-0.4-2-0.7-2.9-1c-0.8-0.3-1.5-0.6-2-0.8c-0.5-0.2-0.8-0.3-0.8-0.3
						s0.3,0.1,0.8,0.2c0.5,0.1,1.2,0.3,2.1,0.6c0.9,0.3,1.9,0.5,3,0.9c1.1,0.3,2.2,0.7,3.3,1.1c1.1,0.4,2.3,0.8,3.3,1.2
						c1,0.4,2,0.8,2.8,1.2c0.8,0.3,1.5,0.7,2,0.9C634.5,380.7,634.7,380.8,634.7,380.8z"/>
				</g>
				<g>
					<path class="st7" d="M611.1,377.1c0,0,1.4,0.5,3.6,1.3c1.1,0.4,2.3,0.8,3.7,1.3c0.7,0.2,1.4,0.5,2.1,0.7
						c0.7,0.2,1.4,0.5,2.2,0.7c1.5,0.5,2.9,1,4.3,1.3c0.7,0.2,1.3,0.4,2,0.6c0.6,0.2,1.2,0.4,1.8,0.5c1.1,0.3,2,0.5,2.7,0.7
						c0.6,0.2,1,0.3,1,0.3s-0.4-0.1-1-0.2c-0.7-0.1-1.6-0.3-2.7-0.5c-0.6-0.1-1.2-0.3-1.8-0.4c-0.6-0.2-1.3-0.3-2-0.5
						c-0.7-0.2-1.4-0.4-2.1-0.6c-0.7-0.2-1.4-0.4-2.2-0.7c-0.7-0.2-1.4-0.5-2.2-0.7c-0.7-0.2-1.4-0.5-2.1-0.7
						c-0.7-0.2-1.3-0.5-1.9-0.7c-0.6-0.2-1.2-0.5-1.7-0.7c-1.1-0.4-1.9-0.8-2.5-1.1C611.5,377.2,611.1,377.1,611.1,377.1z"/>
				</g>
				<g>
					<path class="st7" d="M608.5,379.8c0,0,1.5,0.5,3.7,1.3c0.6,0.2,1.2,0.4,1.8,0.6c0.6,0.2,1.3,0.4,2,0.7c0.7,0.2,1.4,0.5,2.2,0.7
						c0.7,0.2,1.5,0.5,2.2,0.7c1.5,0.5,3,1,4.4,1.4c0.7,0.2,1.4,0.4,2,0.6c0.6,0.2,1.3,0.4,1.8,0.5c1.1,0.3,2.1,0.6,2.7,0.7
						c0.7,0.2,1,0.3,1,0.3s-0.4-0.1-1.1-0.2c-0.7-0.1-1.6-0.3-2.8-0.6c-0.6-0.1-1.2-0.3-1.9-0.4c-0.7-0.2-1.3-0.3-2.1-0.5
						c-0.7-0.2-1.4-0.4-2.2-0.6c-0.7-0.2-1.5-0.5-2.2-0.7c-0.8-0.2-1.5-0.5-2.2-0.8c-0.7-0.3-1.5-0.5-2.1-0.8
						c-0.7-0.3-1.4-0.5-2-0.8c-0.6-0.2-1.2-0.5-1.8-0.7c-1.1-0.4-2-0.8-2.6-1.1C608.8,379.9,608.5,379.8,608.5,379.8z"/>
				</g>
			</g>
		</g>
		<g>
			<g>
				<path class="st20" d="M558.9,380.1c-2.9-4.1-6.6-2.6-6.6-2.6c-6.2,6.1-22.2,30.5-22.2,30.5s0.7-0.8,2.2-0.2
					c1.5,0.6,5.5,5.3,4.7,12.4c-0.4,3.7-1,4.2-1.4,4.6c16.9-19.8,25.3-35.7,25.3-35.7S561.8,384.2,558.9,380.1z"/>
				<path class="st21" d="M536.9,420.2c0.8-7.1-3.2-11.9-4.7-12.4c-1.5-0.6-2.2,0.2-2.2,0.2c-0.9,1.2-3,4.8-0.9,11.3
					c1.8,5.7,5.4,6.8,6.4,5.6C535.9,424.3,536.6,423.9,536.9,420.2z"/>
				<path class="st22" d="M536,420.1c0.6-5.6-2.6-9.4-3.7-9.8c-1.2-0.5-1.7,0.2-1.7,0.2c-0.7,0.9-2.4,3.8-0.7,8.9
					c1.5,4.5,4.2,5.4,5.1,4.4C535.2,423.4,535.7,423,536,420.1z"/>
				<g class="st23">
					<path class="st5" d="M534.1,420.1c0.2-0.3,0.7-0.7,1-3.3c0.1-1.2,0.1-2.2-0.1-3.2c-0.9-1.9-2.1-3.1-2.7-3.3
						c-1.2-0.5-1.7,0.2-1.7,0.2c-0.5,0.6-1.3,2.1-1.4,4.5c0.1,0.4,0.2,0.8,0.3,1.2C530.8,420.1,533.3,421,534.1,420.1z"/>
				</g>
			</g>
			<g>
				<g>
					<path class="st7" d="M541.3,410.2c0,0,0.2-0.3,0.5-0.8c0.3-0.5,0.8-1.3,1.3-2.1c0.6-0.9,1.2-1.9,2-3c0.4-0.5,0.7-1.1,1.1-1.7
						c0.4-0.6,0.8-1.1,1.2-1.7c0.8-1.1,1.6-2.2,2.4-3.3c0.4-0.5,0.8-1,1.2-1.5c0.4-0.5,0.7-0.9,1.1-1.3c0.7-0.8,1.2-1.5,1.6-1.9
						c0.4-0.5,0.6-0.7,0.6-0.7s-0.2,0.3-0.5,0.8c-0.4,0.5-0.9,1.2-1.5,2c-0.6,0.8-1.3,1.8-2.1,2.9c-0.7,1.1-1.6,2.2-2.4,3.3
						c-0.8,1.1-1.6,2.2-2.4,3.3c-0.8,1.1-1.5,2-2.1,2.9c-0.6,0.8-1.1,1.5-1.5,2C541.6,410,541.3,410.2,541.3,410.2z"/>
				</g>
				<g>
					<path class="st7" d="M553.3,386.8c0,0-0.3,0.3-0.8,0.9c-0.5,0.6-1.2,1.4-2.1,2.4c-0.9,1-1.8,2.2-2.9,3.5
						c-0.5,0.6-1.1,1.3-1.6,2c-0.5,0.7-1.1,1.4-1.6,2.1c-0.5,0.7-1.1,1.4-1.6,2.1c-0.5,0.7-1,1.4-1.5,2c-0.5,0.7-0.9,1.3-1.4,1.9
						c-0.4,0.6-0.8,1.2-1.2,1.8c-0.3,0.6-0.7,1.1-1,1.5c-0.3,0.4-0.5,0.9-0.7,1.2c-0.4,0.7-0.6,1-0.6,1s0.2-0.4,0.5-1.1
						c0.2-0.3,0.4-0.8,0.6-1.2c0.3-0.5,0.5-1,0.9-1.6c0.3-0.6,0.7-1.2,1.1-1.8c0.4-0.6,0.9-1.3,1.3-2c0.5-0.7,1-1.4,1.5-2.1
						c0.5-0.7,1.1-1.4,1.6-2.1c0.6-0.7,1.1-1.4,1.7-2c0.6-0.7,1.1-1.3,1.6-1.9c1.1-1.3,2.1-2.4,3-3.4
						C552,388,553.3,386.8,553.3,386.8z"/>
				</g>
			</g>
		</g>
		<g>
			<path class="st16" d="M568.3,438c-0.9-2-2.8-5-6.6-3.9c-4.9,1.5-4.2,5.5-4,7.5c0.1,1.9,6.5,21.1,8.6,27.7
				c0.2,0.8,0.5,1.6,0.8,2.3c0,0-1.3-8.2,3.5-9c4.8-0.9,7.6,4.3,8.7,8.2c-0.1-0.6-0.3-1.1-0.4-1.5C577.5,464.1,569,439.4,568.3,438z
				"/>
			<path class="st14" d="M579.2,470.8c-1.1-3.9-3.9-9.1-8.7-8.2c-4.8,0.9-3.5,9-3.5,9c2,5.8,4.9,10.8,9.5,9.2
				C580.7,479.3,579.9,473.8,579.2,470.8L579.2,470.8z"/>
			<path class="st15" d="M578.2,471.8c-1-3.3-3.3-7.7-7.1-7.1c-3.8,0.6-2.6,7.3-2.6,7.4c1.8,4.8,4.2,9.1,7.8,7.9
				C579.6,478.9,578.8,474.3,578.2,471.8L578.2,471.8z"/>
			<g>
				<path class="st10" d="M574.1,478.1c3.3-1.1,2.5-5.7,1.9-8.2c-0.5-1.5-1.2-3.2-2.2-4.6c-0.8-0.5-1.7-0.7-2.8-0.5
					c-3.8,0.6-2.6,7.3-2.6,7.4c0.8,2.2,1.7,4.2,2.8,5.7C572.1,478.3,573.1,478.4,574.1,478.1z"/>
			</g>
			<g>
				<g>
					<path class="st7" d="M560.7,439.7c0,0,0.1,0.3,0.3,0.9c0.2,0.6,0.5,1.4,0.8,2.4c0.7,2,1.5,4.6,2.4,7.2c0.4,1.3,0.9,2.6,1.3,3.8
						c0.4,1.2,0.8,2.3,1.2,3.3c0.2,0.5,0.4,0.9,0.5,1.3c0.1,0.4,0.3,0.7,0.4,1c0.2,0.6,0.3,0.9,0.3,0.9s-0.2-0.3-0.4-0.8
						c-0.1-0.3-0.3-0.6-0.5-1c-0.2-0.4-0.4-0.8-0.6-1.3c-0.2-0.5-0.4-1-0.6-1.5c-0.2-0.5-0.5-1.1-0.7-1.7c-0.4-1.2-0.9-2.5-1.4-3.8
						c-0.4-1.3-0.9-2.6-1.2-3.9c-0.4-1.2-0.7-2.4-1-3.4c-0.3-1-0.5-1.8-0.6-2.4C560.7,440.1,560.7,439.7,560.7,439.7z"/>
				</g>
				<g>
					<path class="st7" d="M564.2,440.9c0,0,0.1,0.2,0.2,0.6c0.1,0.4,0.3,1,0.5,1.7c0.4,1.4,1,3.3,1.6,5.1c0.1,0.5,0.3,0.9,0.4,1.4
						c0.1,0.5,0.2,0.9,0.4,1.3c0.3,0.9,0.5,1.7,0.8,2.4c0.2,0.7,0.4,1.3,0.5,1.7c0.1,0.4,0.2,0.6,0.2,0.6s-0.1-0.2-0.3-0.6
						c-0.2-0.4-0.4-1-0.7-1.6c-0.3-0.7-0.6-1.5-0.9-2.3c-0.2-0.4-0.3-0.9-0.4-1.3c-0.1-0.5-0.3-0.9-0.4-1.4
						c-0.3-0.9-0.6-1.9-0.8-2.8c-0.2-0.9-0.4-1.7-0.6-2.4c-0.2-0.7-0.3-1.3-0.4-1.7C564.3,441.1,564.2,440.9,564.2,440.9z"/>
				</g>
				<g>
					<path class="st7" d="M567.9,444.8c0,0,0.1,0.2,0.3,0.6c0.2,0.4,0.4,0.9,0.6,1.6c0.2,0.7,0.6,1.4,0.9,2.2
						c0.3,0.8,0.6,1.7,0.9,2.6c0.3,0.9,0.6,1.8,0.9,2.6c0.3,0.8,0.5,1.6,0.7,2.3c0.2,0.7,0.3,1.2,0.5,1.6c0.1,0.4,0.2,0.6,0.2,0.6
						s-0.1-0.2-0.3-0.6c-0.2-0.4-0.4-0.9-0.6-1.6c-0.3-0.7-0.6-1.4-0.9-2.2c-0.3-0.8-0.6-1.7-0.9-2.6c-0.3-0.9-0.6-1.8-0.9-2.6
						c-0.3-0.8-0.5-1.6-0.7-2.3c-0.2-0.7-0.3-1.2-0.5-1.6C567.9,445,567.9,444.8,567.9,444.8z"/>
				</g>
			</g>
		</g>
		<g>
			<g>
				<path class="st20" d="M595.7,434.4c-3.4-2.9-6.3-0.8-6.3-0.8c-4.1,6.7-12.8,31.4-12.8,31.4s0.4-0.9,1.8-0.7
					c1.4,0.2,5.9,3.5,6.8,9.8c0.5,3.3,0,3.9-0.2,4.3c10.5-20.9,14.3-36.6,14.3-36.6S599.1,437.3,595.7,434.4z"/>
				<path class="st21" d="M585.3,474.1c-0.9-6.4-5.4-9.6-6.8-9.8c-1.4-0.2-1.8,0.7-1.8,0.7c-0.5,1.2-1.6,4.9,1.7,10
					c2.8,4.5,6.2,4.8,6.8,3.5C585.3,478,585.7,477.5,585.3,474.1z"/>
				<path class="st22" d="M584.4,474.2c-0.7-5-4.3-7.6-5.4-7.8c-1.1-0.2-1.4,0.5-1.4,0.5c-0.4,1-1.2,3.8,1.3,7.9
					c2.2,3.6,4.9,3.8,5.4,2.8C584.4,477.3,584.8,476.9,584.4,474.2z"/>
				<g>
					<path class="st5" d="M584.4,474.2c-0.6-4.3-3.3-6.8-4.8-7.6c-0.4,1.3-0.6,3.9,1.5,7.3c1.1,1.8,2.3,2.7,3.3,3.1
						C584.6,476.6,584.7,475.9,584.4,474.2z"/>
				</g>
			</g>
			<g>
				<g>
					<path class="st7" d="M586.9,464.5c0,0,0.1-0.3,0.2-0.8c0.2-0.5,0.4-1.3,0.7-2.2c0.3-0.9,0.7-1.9,1.1-3c0.2-0.5,0.4-1.1,0.6-1.7
						c0.2-0.6,0.5-1.2,0.7-1.7c0.5-1.2,0.9-2.3,1.4-3.4c0.2-0.5,0.5-1,0.7-1.5c0.2-0.5,0.5-0.9,0.7-1.4c0.4-0.8,0.8-1.5,1-2
						c0.3-0.5,0.4-0.8,0.4-0.8s-0.1,0.3-0.3,0.8c-0.2,0.5-0.5,1.2-0.8,2.1c-0.4,0.9-0.8,1.9-1.2,3c-0.4,1.1-0.9,2.3-1.3,3.4
						c-0.5,1.2-0.9,2.3-1.4,3.4c-0.4,1.1-0.9,2.1-1.2,3c-0.4,0.9-0.7,1.6-0.9,2.1C587.1,464.2,586.9,464.5,586.9,464.5z"/>
				</g>
				<g>
					<path class="st7" d="M592.2,441.5c0,0-0.7,1.4-1.8,3.5c-0.5,1.1-1.1,2.3-1.8,3.6c-0.3,0.7-0.6,1.4-1,2.1
						c-0.3,0.7-0.6,1.4-1,2.1c-0.3,0.7-0.6,1.4-1,2.2c-0.3,0.7-0.6,1.4-0.9,2.1c-0.3,0.7-0.5,1.4-0.8,2c-0.2,0.6-0.5,1.2-0.7,1.8
						c-0.2,0.6-0.4,1.1-0.5,1.5c-0.2,0.5-0.3,0.9-0.4,1.2c-0.2,0.7-0.3,1-0.3,1s0.1-0.4,0.2-1.1c0.1-0.3,0.1-0.8,0.3-1.2
						c0.1-0.5,0.3-1,0.4-1.6c0.4-1.1,0.8-2.5,1.3-3.9c0.3-0.7,0.6-1.4,0.8-2.1c0.3-0.7,0.6-1.5,0.9-2.2c0.3-0.7,0.7-1.4,1-2.1
						c0.3-0.7,0.7-1.4,1-2.1c0.7-1.3,1.3-2.5,1.9-3.6C591.4,442.8,592.2,441.5,592.2,441.5z"/>
				</g>
			</g>
		</g>
		<g>
			<g>
				<path class="st20" d="M579.8,435.9c-0.8-4.6-4.6-4.8-4.6-4.8c-7.6,2.8-30.8,17.2-30.8,17.2s0.9-0.4,1.9,0.6
					c1,1.1,2.5,6.7-0.9,12.4c-1.8,3-2.5,3.1-3,3.4c22.1-10.2,35.5-20.4,35.5-20.4S580.6,440.5,579.8,435.9z"/>
				<path class="st21" d="M545.4,461.4c3.4-5.8,1.9-11.3,0.9-12.4c-1-1.1-1.9-0.6-1.9-0.6c-1.2,0.6-4.4,2.9-5.2,9.2
					c-0.7,5.5,1.9,7.9,3.2,7.3C542.9,464.5,543.6,464.4,545.4,461.4z"/>
				<path class="st22" d="M544.7,460.9c2.7-4.5,1.5-9,0.7-9.8c-0.8-0.8-1.5-0.5-1.5-0.5c-1,0.5-3.5,2.3-4.1,7.3
					c-0.5,4.4,1.5,6.2,2.6,5.7C542.7,463.4,543.3,463.3,544.7,460.9z"/>
				<g>
					<path class="st5" d="M544.7,460.9c2.7-4.5,1.5-9,0.7-9.8c-0.1-0.1-0.1-0.1-0.2-0.2c-1.2,0.8-3.1,2.7-3.6,6.9
						c-0.3,2.9,0.4,4.7,1.3,5.4C543.3,463,543.8,462.4,544.7,460.9z"/>
				</g>
			</g>
			<g>
				<g>
					<path class="st7" d="M553.1,454.7c0,0,0.3-0.2,0.7-0.5c0.5-0.3,1.1-0.8,2-1.3c0.8-0.5,1.8-1.1,2.8-1.8c0.5-0.3,1.1-0.6,1.6-1
						c0.6-0.3,1.1-0.6,1.7-1c1.1-0.6,2.3-1.3,3.3-1.8c0.5-0.3,1.1-0.5,1.6-0.8c0.5-0.2,1-0.5,1.4-0.7c0.9-0.4,1.6-0.8,2.1-1
						c0.5-0.2,0.8-0.4,0.8-0.4s-0.3,0.2-0.8,0.5c-0.5,0.3-1.2,0.7-2,1.2c-0.9,0.5-1.8,1-2.9,1.6c-1,0.6-2.2,1.3-3.3,1.9
						c-1.1,0.6-2.3,1.3-3.3,1.9c-1.1,0.6-2.1,1.1-2.9,1.6c-0.9,0.5-1.6,0.8-2.1,1.1C553.4,454.5,553.1,454.7,553.1,454.7z"/>
				</g>
				<g>
					<path class="st7" d="M572.4,439.5c0,0-0.4,0.2-1,0.5c-0.7,0.3-1.6,0.7-2.7,1.2c-1.1,0.5-2.4,1.1-3.8,1.8
						c-0.7,0.3-1.4,0.7-2.1,1c-0.7,0.4-1.5,0.7-2.2,1.1c-0.7,0.4-1.5,0.8-2.2,1.1c-0.7,0.4-1.4,0.8-2.1,1.1
						c-0.7,0.4-1.3,0.8-1.9,1.1c-0.6,0.4-1.2,0.7-1.7,1c-0.5,0.3-1,0.6-1.4,0.9c-0.4,0.3-0.8,0.5-1.1,0.7c-0.6,0.4-0.9,0.6-0.9,0.6
						s0.3-0.3,0.9-0.7c0.3-0.2,0.6-0.5,1-0.8c0.4-0.3,0.9-0.6,1.4-1c0.5-0.3,1.1-0.7,1.7-1.1c0.6-0.4,1.2-0.8,1.9-1.2
						c0.7-0.4,1.4-0.8,2.1-1.2c0.7-0.4,1.4-0.8,2.2-1.2c0.7-0.4,1.5-0.7,2.2-1.1c0.7-0.3,1.5-0.7,2.2-1c1.4-0.6,2.7-1.2,3.9-1.7
						C570.8,440,572.4,439.5,572.4,439.5z"/>
				</g>
			</g>
		</g>
		<g>
			<path class="st9" d="M561.3,395.7c4.8,1.6,4.7,6.9,3.7,10.4l0,0c0.2-0.5,0.3-1,0.4-1.3c1.4-4.6,5.2-23.7,5.4-25.1
				c0.2-1.9,0-5.1-4.1-6.1c-5.3-1.2-6.6,2.1-7.5,3.6c-0.9,1.5-3.8,15.4-5.3,21.4c-0.2,0.7-0.3,1.4-0.5,2.1
				C553.5,400.7,556.5,394.1,561.3,395.7z"/>
			<path class="st11" d="M565,406.1c1-3.5,1.1-8.7-3.7-10.4c-4.8-1.6-7.8,5-7.8,5.1c-1.1,5.3-1,10.4,4,11.4
				C562.1,413.1,564.2,408.6,565,406.1L565,406.1z"/>
			<path class="st12" d="M563.6,406.3c0.8-2.9,0.8-7.4-2.9-8.8c-3.7-1.4-6.1,4.3-6.1,4.3c-0.8,4.5-0.8,8.8,3.1,9.7
				C561.2,412.3,562.9,408.5,563.6,406.3L563.6,406.3z"/>
			<g>
				<path class="st5" d="M560.6,397.6c-2.2-0.8-3.9,0.8-5,2.3c-0.5,3.8,0,7.1,3.4,7.8c2.3,0.5,3.8-0.9,4.7-2.5
					C564.3,402.3,563.9,398.8,560.6,397.6z"/>
			</g>
			<g>
				<g>
					<path class="st7" d="M562.7,376.1c0,0,0,0.3-0.1,0.8c-0.1,0.5-0.2,1.3-0.3,2.2c-0.2,0.9-0.3,2-0.6,3.1
						c-0.1,0.6-0.2,1.2-0.3,1.7c-0.1,0.6-0.3,1.2-0.4,1.8c-0.3,1.2-0.5,2.4-0.8,3.5c-0.3,1.1-0.6,2.2-0.8,3
						c-0.2,0.9-0.5,1.6-0.6,2.1c-0.2,0.5-0.2,0.8-0.2,0.8s0.1-0.3,0.1-0.8c0.1-0.5,0.2-1.3,0.4-2.2c0.4-1.8,0.9-4.2,1.4-6.6
						c0.3-1.2,0.5-2.4,0.8-3.5c0.2-1.1,0.5-2.2,0.7-3.1c0.2-0.9,0.4-1.6,0.5-2.2C562.6,376.4,562.7,376.1,562.7,376.1z"/>
				</g>
				<g>
					<path class="st7" d="M565.5,378.7c0,0,0,0.2-0.1,0.6c-0.1,0.4-0.1,0.9-0.3,1.5c-0.1,0.6-0.3,1.3-0.4,2.1
						c-0.2,0.8-0.3,1.6-0.5,2.4c-0.2,0.8-0.4,1.6-0.6,2.4c-0.2,0.8-0.4,1.5-0.6,2.1c-0.2,0.6-0.3,1.1-0.4,1.5
						c-0.1,0.4-0.2,0.6-0.2,0.6s0-0.2,0.1-0.6c0.1-0.4,0.1-0.9,0.2-1.5c0.1-0.6,0.2-1.3,0.4-2.1c0.2-0.8,0.3-1.6,0.5-2.4
						c0.2-0.8,0.4-1.6,0.6-2.4c0.2-0.8,0.4-1.5,0.6-2.1c0.2-0.6,0.4-1.1,0.5-1.4C565.5,378.8,565.5,378.7,565.5,378.7z"/>
				</g>
				<g>
					<path class="st7" d="M566.4,385.3c0,0,0,0.2-0.1,0.5c0,0.3-0.1,0.7-0.2,1.2c-0.2,1-0.4,2.3-0.7,3.6c-0.1,0.7-0.3,1.3-0.4,1.9
						c-0.1,0.6-0.3,1.2-0.4,1.7c-0.1,0.5-0.2,0.9-0.3,1.2c-0.1,0.3-0.1,0.4-0.1,0.4s0-0.2,0-0.5c0-0.3,0.1-0.7,0.1-1.2
						c0.1-0.5,0.1-1.1,0.2-1.7c0.1-0.6,0.2-1.3,0.4-1.9c0.1-0.7,0.3-1.3,0.4-1.9c0.2-0.6,0.3-1.2,0.5-1.7
						C566.2,385.9,566.4,385.3,566.4,385.3z"/>
				</g>
			</g>
		</g>
		<g>
			<path class="st16" d="M546.5,438.6c0.6,1.8,2.1,4.7,6.5,4.1c5.7-0.8,5.6-4.4,5.9-6.1c0.2-1.7-2.9-19.2-3.8-25.2
				c-0.1-0.7-0.2-1.4-0.4-2.1c0,0-0.3,7.3-5.6,7.6c-5.4,0.3-7.4-4.6-7.8-8.1c0,0.6,0.1,1,0.1,1.3C541.7,414.7,546,437.2,546.5,438.6
				z"/>
			<path class="st14" d="M541.1,408.6c0.4,3.5,2.4,8.4,7.8,8.1c5.4-0.3,5.6-7.5,5.6-7.6c-1.1-5.3-3.1-10-8.5-9
				C541.2,401,541,405.9,541.1,408.6L541.1,408.6z"/>
			<path class="st15" d="M542.5,407.8c0.4,3,2.1,7.1,6.4,7c4.2-0.1,4.3-6.2,4.3-6.2c-1-4.4-2.7-8.4-6.9-7.7
				C542.4,401.4,542.3,405.5,542.5,407.8L542.5,407.8z"/>
			<path class="st5" d="M548.9,414.8c3.1-0.1,4-3.4,4.2-5.2c-1.1-2.9-2.8-5-5.7-4.6c-3.5,0.5-3.5,4.6-3.2,6.8c0,0.2,0.1,0.4,0.1,0.5
				C545.2,413.8,546.7,414.8,548.9,414.8z"/>
			<g>
				<g>
					<path class="st7" d="M556,437.9c0,0-0.1-0.3-0.2-0.8c-0.1-0.5-0.3-1.3-0.5-2.2c-0.2-0.9-0.5-1.9-0.7-3
						c-0.3-1.1-0.5-2.3-0.8-3.5c-0.3-1.2-0.5-2.4-0.8-3.5c-0.3-1.1-0.5-2.2-0.7-3c-0.1-0.4-0.2-0.8-0.3-1.2
						c-0.1-0.4-0.2-0.7-0.2-0.9c-0.1-0.5-0.2-0.8-0.2-0.8s0.1,0.3,0.3,0.8c0.1,0.3,0.2,0.6,0.3,0.9c0.1,0.4,0.3,0.7,0.4,1.2
						c0.1,0.4,0.3,0.9,0.4,1.4c0.1,0.5,0.3,1,0.5,1.6c0.3,1.1,0.6,2.3,0.9,3.5c0.3,1.2,0.5,2.4,0.8,3.5c0.2,1.1,0.4,2.2,0.6,3.1
						c0.2,0.9,0.3,1.7,0.3,2.2C556,437.6,556,437.9,556,437.9z"/>
				</g>
				<g>
					<path class="st7" d="M552.3,435.9c0,0-0.1-0.2-0.2-0.6c-0.1-0.4-0.2-0.9-0.4-1.5c-0.1-0.6-0.3-1.3-0.5-2.1
						c-0.2-0.8-0.4-1.6-0.6-2.4c-0.2-0.8-0.4-1.6-0.5-2.4c-0.2-0.8-0.3-1.5-0.4-2.1c-0.1-0.6-0.2-1.1-0.2-1.5
						c-0.1-0.4-0.1-0.6-0.1-0.6s0.1,0.2,0.2,0.5c0.1,0.3,0.3,0.8,0.4,1.5c0.2,0.6,0.4,1.3,0.6,2.1c0.2,0.8,0.4,1.6,0.6,2.4
						c0.2,0.8,0.4,1.6,0.5,2.4c0.1,0.8,0.2,1.5,0.4,2.1c0.1,0.6,0.2,1.1,0.2,1.5C552.3,435.7,552.3,435.9,552.3,435.9z"/>
				</g>
				<g>
					<path class="st7" d="M548.7,431.6c0,0-0.3-0.7-0.7-1.8c-0.2-0.5-0.4-1.2-0.6-1.9c-0.2-0.7-0.4-1.4-0.6-2.2
						c-0.2-0.7-0.4-1.5-0.5-2.2c-0.1-0.3-0.1-0.7-0.2-1c-0.1-0.3-0.1-0.6-0.1-0.9c-0.1-0.6-0.1-1-0.2-1.4c0-0.3-0.1-0.5-0.1-0.5
						s0.1,0.2,0.2,0.5c0.1,0.3,0.2,0.8,0.4,1.3c0.2,0.5,0.3,1.2,0.5,1.9c0.2,0.7,0.4,1.4,0.6,2.2c0.4,1.5,0.7,2.9,1,4.1
						c0.1,0.6,0.2,1,0.3,1.4C548.7,431.4,548.7,431.6,548.7,431.6z"/>
				</g>
			</g>
		</g>
	</g>
	<g class="st13">
		<path class="st7" d="M665.3,417.1c-0.1-0.7-0.3-1.4-0.5-2.1c-0.4-1.9-1-4.8-1.8-7.9c0.7-8.8,1.8-23.6,1.8-26
			c0-5.2-6.9-7.2-10.2-3.7c-0.4,0.4-1,2.6-1.5,5.7c-1.3-6-2.4-11.1-2.6-11.8c-0.7-2-2.3-5-6.9-4.1c-2.2,0.5-3.6,1.3-4.5,2.3
			c-0.2-0.1-0.4-0.3-0.7-0.4c-2.2-0.8-31.9-9.6-35.9-10.4c-2.8-0.6-6.1,0.4-8.4,2c-0.4-0.9-1.1-1.5-2.1-1.9
			c-2.1-0.7-27.6,6.9-32.4,9c-0.4,0.2-0.8,0.4-1.1,0.6c-1,0.6-1.7,1.5-2.3,2.6c-1-3.5-5.7-5.4-9-3.3c-1.8,1.1-10.2,23.3-11.6,28.1
			c-0.1,0.4-0.2,0.8-0.2,1.2c0,0,0,0.1,0,0.1c-0.6-1.6-1.9-3.1-4.4-3.2c-4.9,0-5.4,3.8-5.8,5.7c-0.4,1.8-0.1,21-0.1,27.7
			c0,0.8,0,1.6,0,2.3c0.2,5.8,1.3,11.2,6,11.1c0.2,0,0.4,0,0.6-0.1c-0.1,0.3-0.1,0.7-0.1,1c-0.1,2.7,1.5,5.2,3.9,7.3
			c2.7,2.4,5,2.3,6.4,1.4c0.5-0.4,0.9-0.9,1.1-1.4c0,0,0-0.1,0-0.1c0.1,0.2,0.1,0.3,0.2,0.5c-1.4,1.2-3.3,3.7-3.9,8.3
			c-0.7,5.5,1.9,7.9,3.2,7.3c2.3-1,4.5-2.1,6.6-3.1c3.4,6.9,6.9,13.8,7.4,14.5c1.1,1.8,3.5,4.3,7.6,2.4c2.7-1.3,3.7-2.9,4-4.4
			c2,4.6,4.6,8,8.5,6.6c1.9-0.7,2.8-2.2,3.1-4c2.5,2.8,4.9,2.8,5.5,1.7c0.7-1.4,1.3-2.7,2-4c2.5,1.1,5.8,2.4,9.2,3.8
			c0.2,0.5,0.3,0.9,0.3,1c0.7,2,2.5,4.9,6.9,3.9c1-0.2,1.8-0.6,2.5-0.9c1.1,0.4,2,0.8,2.7,1.1c0.7,0.3,1.5,0.6,2.2,0.8
			c5.5,2,11,2.8,13.1-2.7c1.3-3.5-0.5-6-2.5-7.7c8.9,0.4,23.7,0.8,25.2,0.8c0.6,0,1.2-0.3,1.7-0.7c1.3-1.1,2.1-3.6,0.6-7.3
			c-0.5-1.1-1-2.2-1.6-3.1c1.1-1.2,2-2.7,2.6-3.8c0.3-0.6,0.5-1,0.7-1.4c2.4-4.9,12.2-29,12.7-30.5c0.3-0.9,0.5-2,0.4-3.2
			C665.6,422.6,665.5,419.2,665.3,417.1z M642.9,369c2.1-0.9,6.3-1.3,7.7,5.2c1.4,6.5,3.3,15.7,3.9,19.6c0.5,3.9-1.3,0.2-5.7,0.8
			c-4.3,0.6-3.9-2.8-1.3-5.8c2.6-3,1.6-5.6-2.6-7.3c-4.2-1.7-3.8-2.9-2.1-5.6C644.7,373.4,640.7,369.9,642.9,369z M643.7,414.4
			c-0.3-1.5-0.4-3,0.3-4.4c1.2-2.3,3.3-4.6,1.6-7.1c-0.3-0.5-0.2-0.9,0-1.3c0.2-0.6,0.8-1.1,1.8-1.3c6.8-1.2,5.4,8.1,4.5,11.8
			c-0.9,3.7-0.7,8.4-2.7,11.7c-1,1.6-4,3.8-4.9,0.7c-0.3-1.3,0.5-2.9,0.7-4.1C645.6,418.3,644.1,416.3,643.7,414.4z M636.8,384.6
			c-5.2,2.5-12.2,2.5-17.5,0.3c-2.2-0.9-5.4-2.8-6.6-4.9c-0.8-1.3-1.4-2.3-2.5-3.4c-0.3-0.3-0.5-0.7-0.5-1.1c-0.4-0.6-0.4-1.5,0.3-2
			c2.6-1.7,5.5-1,8.3-0.1c3.6,1.2,7.3,2.4,11,3.6c2.6,0.9,6.5,1.8,8.6,3.8C639.2,382.2,638.2,383.9,636.8,384.6z M638,378.5
			c0.1,0.5,0.2,1.1,0.3,1.7c-0.5-0.2-1-0.4-1.4-0.6C637.2,379.3,637.6,378.9,638,378.5z M591.8,363.6
			C591.8,363.6,591.8,363.6,591.8,363.6c1.3-2.9,4.5-3.7,7.6-3.8c1.2-0.2,2.4-0.2,3.6,0c5.2,0.7,10.5,2.7,15.6,4
			c2.9,0.7,5.8,1.4,8.6,2.3c1.6,0.5,4.9,1.5,6.5,2.4c2.3,1.2-1.8,4.4-3.8,5.2c-3.9,1.6-8.2-0.4-11.8-1.8c-2.2-0.9-4.6-1.2-6.7-2.2
			c-1.8-0.8-2.5-2.2-3.6-3.8c-3.3-4.8-9.1,0.3-12.8,1.4C592.3,368.1,589.9,366.1,591.8,363.6z M594.6,368.9c1.7-0.6,3.4-1.3,5.1-1.8
			c1-0.3,2-0.5,3.1-0.5c0.8,0,1.9,0.1,2.3,1c1,2.5-1.9,3.6-3.8,4c-0.8,0.2-1.7,0.3-2.4,0.5c-2.2,0.8-2.4,3.3-4,4.7
			c-1.1,1-2,1.8-3.5,2c-1.6,0.2-3.1,0.3-4.7,0c-1.9-0.3-3.8-0.8-4.6,1.6c-0.5,1.5-0.9,2.6-2.3,3.4c-0.9,0.5-2.3,0.3-2.9-0.6
			c-1.2-1.7-1.2-5.6,0.2-7.2c1.2-1.5,3.1-1.8,4.8-2.4c2.4-0.9,4.8-1.8,7.2-2.7C590.8,370.1,592.7,369.6,594.6,368.9z M591.9,369.2
			c0.1-0.1,0.1-0.2,0.2-0.3c0.1,0,0.1,0.1,0.2,0.1C592.2,369.1,592.1,369.2,591.9,369.2z M561.6,367.6c3.2-1.7,7.2-2.2,10.8-3.4
			c3.6-1.2,7.4-1.8,11-3.1c1.7-0.6,4.4-1.9,6.1-0.6c1.3,1,1.1,2.6,0.3,3.8c-2.2,3.2-7.3,5.6-10.9,7c-3.6,1.3-7.6,1.7-11.4,1.6
			c-1.9-0.1-4.6-0.3-5.6-2.2c-0.4-0.3-0.6-0.7-0.6-1.1c0,0,0,0,0,0c-0.1-0.1-0.1-0.3-0.1-0.4C560.8,368.6,560.9,367.9,561.6,367.6z
			 M557.8,385.6c0.6-2.1,1.1-4.1,1.6-6.3c0.6-2.6,1.7-5,4.6-5.4c2.2-0.3,5.2,0.9,4.9,3.6c-0.2,2.8-1.4,5.6-1.9,8.4
			c-0.7,3.3-0.8,6-4.2,7.4c-1.9,0.8-3.3,3-5.6,2.3c-2.1-0.6-1.6-3.3-0.7-5.8C556.8,388.5,557.3,387,557.8,385.6z M544.3,374.9
			c2.3-5.1,3.3-7.9,6.3-7.6c2.7,0.3,3.7,2.3,1.9,7.1c-1,2.9-3.8,4.3-8.2,10.2C538.7,392.1,532.7,400.8,544.3,374.9z M527.2,414.8
			c0,5.8-1.8,10.1-1.8,4.4c0-5.7,0-10.2,0-15.2c0.1-5.4,1.3-8.5,4.4-9.1c3.1-0.6,4.6,2.7,2.2,7.8C529.6,407.8,527.2,409,527.2,414.8
			z M532.2,406.9c-0.8-1.8,1.8-3.8,2.7-5.2c1.4-2,2.5-4.1,4-6c1.1-1.5,2.3-2.9,3.5-4.3c2.5-4.4,5.9-8.2,8.9-12.3
			c0,0,0.1-0.1,0.1-0.1c0.3-0.4,0.7-0.6,1-0.6c1.8-0.7,4.1,0.6,4.1,3c0,1.6-0.6,2.8-1.2,4.3c-0.5,1.1-0.8,2.3-1.2,3.4
			c-0.5,1.8-0.6,3.8-1.6,5.4c-1.1,1.7-2.9,2.7-4.7,3.4c-1.5,0.7-3.3,1.1-4.6,2.2c-0.5,0.5-1.1,1-1.5,1.7c-1.6,2.1-2.5,5-1.9,7.4
			c0.4,1.7,0.8,3.4,0.8,5.2c0,1-0.7,1.7-1.7,1.7c-1.2,0-1.8-1.5-2.2-2.4c-0.8-1.8-1.4-3.9-3-5.2C533.2,408,532.5,407.6,532.2,406.9z
			 M553.4,401.3c-0.2,1-0.3,1.9-0.4,2.8c-0.2-0.4-0.4-0.9-0.7-1.2C552.7,402.4,553.1,401.8,553.4,401.3z M537.5,422.5
			c-0.4,1-0.7,2-1.1,3c0-0.5,0-1.1,0-1.7C536.8,423.3,537.2,422.9,537.5,422.5z M542.2,438.5c-1.8,1.9-4.9,3.4-7.5,2
			c-2.1-1.1-1.8-3.3-1.3-5.2c0.7-2.4,1.7-4.8,2.7-7.1c0.9-2.3,1.5-4.8,2.8-6.9c0.4-0.6,1.3-1,1.9-0.5c2.5,1.8,2.6,6,3.1,8.8
			C544.5,432.7,544.6,436,542.2,438.5z M544.4,426.6c-0.7-2.1-0.9-4.6-1.2-6.4c0,0,0-0.1,0-0.1c0-0.1-0.1-0.2-0.1-0.4
			c-0.1-0.6-0.2-1.2-0.3-1.8c-0.2-0.9,0.6-1.9,1.5-1.5c0.8,0.3,1.8,0.6,2.5,1.2c0.8,0.8,0.6,2.3,0.8,3.2c0.3,2.1,0.8,4,1.3,6
			c0.2,0.3,0.3,0.6,0.4,0.8c0.2,0.3,0.4,0.7,0.6,1c0.8,0.9,1.7,2.4,2.3,4c0.7,1.1,1.6,1.7,2.7,2.6c0.8,0.7,1.3,1.6,1.2,2.6
			c-0.2,2.4-3.1,3.1-5.1,2.8c-0.7-0.1-1.5-0.4-2.2-0.8c-1.8-0.6-2.4-3-2.6-4.9C545.6,432.2,544.7,429.4,544.4,426.6z M548.5,456.4
			c-0.7-0.8-0.2-2.7-0.4-3.7c-0.5-3.6-1.3-3.6-1.4-4.7c-0.1-1.1,0.8-1.6,1.8-2c2-1.6,4.4-2.5,6.6-3.7c0.1-0.1,0.2-0.2,0.4-0.2
			c0.2-0.1,0.4-0.2,0.6-0.3c0.4-0.2,0.8-0.5,1.2-0.7c0.1-0.1,0.2-0.1,0.3-0.1c1.3-1.3,3.2-0.9,3.9,0.9c0.5,1.4,0.6,3.3,0.6,4.8
			c0.1,2.6-1.5,4.4-3.8,5.6c-1.8,1-3.5,2-5.2,3.1C551.8,456.1,549.9,457.9,548.5,456.4z M561.8,478.3c-3.9,1.1-7-5.5-9.9-11.8
			c-1.6-3.4-2.3-4.9,2.4-6.8c4.7-1.8,7.3,5.2,9.3,8.9C565.4,472.3,565.7,477.2,561.8,478.3z M573.3,461.6c-2-0.1-4.9,0-5.8,2.5
			c-1,2.5-1.8-0.6-2.7-3.3c-1.3-4-0.5-7.6,2.9-8.4c3.5-0.8,5.3,1.6,6.9,5.8C576.1,462.3,575.3,461.7,573.3,461.6z M577.1,463.6
			c-0.1-0.3-0.2-0.5-0.3-0.8c0.2-0.1,0.4-0.2,0.6-0.2C577.3,462.9,577.2,463.3,577.1,463.6z M591.3,453.8c-0.9,4-2.7,7.6-4,11.4
			c-0.8,2.1-3.1,2.8-4.8,1.3c-1-0.9-2.4-1.9-3.2-3.1c-0.2-0.3-0.4-0.6-0.5-1c-0.6-2.7,1.5-5.1,2.3-7.5c0.6-1.8,0.6-4.5,2-5.9
			c0.7-0.7,1.6-1,2.5-0.8c1.1,0.2,1.4,1.1,2.2,1.5c0.5,0.2,1,0.4,1.5,0.6C590.8,450.8,591.6,452.1,591.3,453.8z M602.7,482
			c-5.2,1.4-6.3-8.2-8-16.3c-1.5-7.5,0.4-5.1,5.1-10.2c2.1-2.2,2.6,3.7,4.7,11.5C606.7,474.8,607.6,480.7,602.7,482z M636.4,473.2
			c-7,0.1-9.8,0.2-12.8-0.3c-3.6-0.6-7.9-1-2.5-3.7c7.3-3.6,7.3-5.5,12-5.4c4.6,0.1,5.6,1.5,7.6,5.1
			C642.7,472.4,643.3,473,636.4,473.2z M643.8,446.8c-3.1,2.9-7.1,5-10.6,7.3c-3.2,2.1-6.3,4.3-9.4,6.6c-2,1.5-5.4,5.2-8.2,3.7
			c-1.4-0.8-0.8-2.2-0.9-3.5c-0.1-1.5-0.2-3.3,1.2-4.2c1.8-1,4.1-0.8,6-1.8c1.8-1,3.7-2.1,4.7-3.9c0.7-1.3,0.9-2.9,1.7-4.2
			c0.9-1.4,2.6-1.8,4-2.5c3.2-1.7,9.3-8.7,12.8-4.6C647.2,442,645.9,444.9,643.8,446.8z M659.9,429c-1.2,3-2.3,6-3.7,8.8
			c-1,1.9-2,6.1-4.2,6.7c-1.7,0.5-2.5-0.8-2.8-2.4c-0.5-2.7-1.2-4.7-0.1-7.3c0.7-1.8,1.1-3.9,1.8-5.8c0-0.2,0-0.5,0.2-0.8
			c1.3-2.1,2.1-5.4,4.5-6.6c1.7-0.9,3.5-0.9,4.8,0.8C661.6,424.2,660.7,427.1,659.9,429z M661.6,409.2c-2.3-2-3.3-2.3-3.6-4.6
			c-0.4-2.3-1.7-9.4-2.6-13.7c-1.2-5.7,2-4.7,3.8,2.8C660.9,401.1,663.9,411.2,661.6,409.2z M660,391.4c-1.5-5.7-2.8-7.5-4.3-7.9
			c-1.5-0.3-1.8-0.9-1.1-4.2c0.6-2.5,2.9-3.9,5.4-3.1c4.3,1.4,4.2,5,3.1,17.8C662.8,397.5,661.5,397.1,660,391.4z"/>
	</g>
	<g>
		<g>
			<g class="st24">
				<path class="st7" d="M553,410.6c5.8-4.2,7.7-3.2,7.2-10.7c-0.5-7.5,5.6-9.7,12.6-9.9c7-0.3,8.1-1.3,9.4-6.2
					c1.3-4.8,4.5-4.1,9.1-3.6c5.6,0.6,2-8.4,11-7.7c8.9,0.7,9.9,6.7,10.4,10.2c0.5,3.5,3.9,4.2,14.6,3.8c10.7-0.4,15.3,5,18.7,13.2
					c3.4,8.2-5.1,9.7-1.5,16.8c3.6,7.1-0.7,14.8-7.1,18.1c-6.4,3.4-7.4,4.8-7.8,9.5c-0.4,4.7-3,11.7-11.1,12.5
					c-8.2,0.8-11.3-2.7-14.8-5.8c-3.5-3.1-7.3-0.4-8.9,0.4c-1.6,0.8-5.3,1.9-8.9-2.5c-3.7-4.4-6.9-0.3-11,2.8
					c-4,3-11.3,1.2-12.9-5.6c-1.6-6.8-2.5-10.6-8.3-12.4C547.8,431.4,542.5,418.2,553,410.6z"/>
			</g>
			<path class="st25" d="M554.3,410.7c5.6-4.1,7.5-3.1,6.9-10.4c-0.5-7.3,5.5-9.4,12.2-9.6c6.8-0.3,7.8-1.3,9.1-6
				c1.3-4.7,4.3-4,8.8-3.5c5.4,0.6,2-8.2,10.6-7.5c8.7,0.7,9.6,6.5,10.1,9.8c0.5,3.4,3.8,4,14.2,3.6c10.4-0.4,14.8,4.8,18.1,12.7
				c3.3,7.9-4.9,9.4-1.4,16.3c3.5,6.9-0.7,14.3-6.9,17.6c-6.2,3.3-7.2,4.7-7.5,9.2c-0.4,4.6-2.9,11.3-10.8,12.1
				c-7.9,0.8-10.9-2.6-14.3-5.6c-3.4-3-7.1-0.4-8.7,0.3c-1.6,0.8-5.1,1.8-8.7-2.4c-3.6-4.2-6.7-0.3-10.7,2.7
				c-3.9,2.9-10.9,1.1-12.5-5.5c-1.6-6.6-2.4-10.3-8-12C549.3,430.8,544.2,418.1,554.3,410.7z"/>
			<g>
				<g>
					<g>
						<path class="st26" d="M605.8,431.6c0,0,0.1-0.2,0.2-0.4c0.2-0.2,0.4-0.6,0.7-1c0.2-0.2,0.4-0.4,0.6-0.6
							c0.2-0.2,0.5-0.4,0.7-0.5c0.1-0.1,0.3-0.2,0.4-0.2c0.1-0.1,0.3-0.1,0.5-0.2c0.3-0.1,0.6-0.2,1-0.3c0.3,0,0.7-0.1,1-0.1
							c0.3,0,0.7,0,1,0.1c0.3,0.1,0.6,0.1,0.9,0.2c0.3,0.1,0.5,0.2,0.8,0.3c0.1,0,0.2,0.1,0.3,0.1c0.1,0.1,0.2,0.1,0.3,0.1
							c0.2,0.1,0.3,0.2,0.5,0.2c0.3,0.1,0.4,0.2,0.4,0.2s-0.2,0-0.4-0.1c-0.1,0-0.3-0.1-0.5-0.2c-0.2-0.1-0.4-0.1-0.6-0.2
							c-0.2-0.1-0.5-0.1-0.8-0.2c-0.3,0-0.6-0.1-0.9-0.1c-0.3,0-0.6,0-0.9,0c-0.3,0-0.6,0.1-0.9,0.1c-0.3,0.1-0.6,0.1-0.9,0.2
							c-0.1,0.1-0.3,0.1-0.4,0.2c-0.1,0.1-0.3,0.1-0.4,0.2c-0.3,0.1-0.5,0.3-0.7,0.4c-0.2,0.2-0.4,0.3-0.6,0.5
							c-0.4,0.3-0.7,0.6-0.8,0.8C605.9,431.5,605.8,431.6,605.8,431.6z"/>
					</g>
					<g>
						<path class="st26" d="M627.8,409.9c0,0,0.1,0,0.3-0.1c0.2,0,0.4-0.1,0.7-0.1c0.2,0,0.3,0,0.5,0.1c0.2,0,0.4,0.1,0.5,0.2
							c0.2,0.1,0.4,0.2,0.5,0.3c0.2,0.1,0.3,0.2,0.5,0.4c0.2,0.1,0.3,0.3,0.4,0.5c0.1,0.2,0.2,0.4,0.3,0.5c0.1,0.2,0.1,0.4,0.2,0.5
							c0,0.2,0.1,0.3,0.1,0.5c0.1,0.3,0,0.6,0,0.7c0,0.2,0,0.3,0,0.3s0-0.1-0.1-0.3c-0.1-0.2-0.1-0.4-0.2-0.7c0-0.1-0.1-0.3-0.2-0.4
							c-0.1-0.1-0.1-0.3-0.2-0.5c-0.1-0.1-0.2-0.3-0.3-0.4c-0.1-0.1-0.2-0.3-0.4-0.4c-0.1-0.1-0.3-0.2-0.4-0.3
							c-0.1-0.1-0.3-0.2-0.4-0.3c-0.2-0.1-0.3-0.1-0.5-0.2c-0.1-0.1-0.3-0.1-0.4-0.1c-0.3-0.1-0.5-0.1-0.7-0.1
							C627.9,409.9,627.8,409.9,627.8,409.9z"/>
					</g>
					<g>
						<g>
							<path class="st26" d="M631,394c0,0,0.4-0.2,1.2-0.2c0.2,0,0.4,0,0.6,0c0.2,0,0.4,0,0.6,0.1c0.2,0,0.5,0.1,0.7,0.2
								c0.2,0.1,0.5,0.2,0.6,0.4c0.1,0.1,0.2,0.1,0.3,0.2l0.3,0.3c0.2,0.2,0.3,0.4,0.4,0.6c0.1,0.2,0.2,0.4,0.3,0.6
								c0.1,0.2,0.1,0.4,0.1,0.6c0,0.2,0.1,0.3,0.1,0.5c0,0.1,0,0.3,0,0.4c0,0.2,0,0.3,0,0.3s0-0.1-0.1-0.3c0-0.1-0.1-0.2-0.1-0.4
								c0-0.1-0.1-0.3-0.2-0.4c-0.1-0.2-0.1-0.3-0.2-0.5c-0.1-0.2-0.2-0.3-0.3-0.5c-0.1-0.2-0.2-0.3-0.4-0.5l-0.2-0.2
								c-0.1-0.1-0.2-0.1-0.3-0.2c-0.2-0.1-0.4-0.2-0.6-0.3c-0.2-0.1-0.4-0.2-0.6-0.2c-0.2-0.1-0.4-0.1-0.6-0.1
								c-0.2,0-0.4-0.1-0.5-0.1C631.5,394,631,394,631,394z"/>
						</g>
					</g>
					<g>
						<path class="st26" d="M586.7,388.7c0,0,0.1-0.5,0.4-1.3c0.1-0.2,0.2-0.4,0.3-0.6c0.1-0.2,0.3-0.4,0.4-0.6
							c0.2-0.2,0.4-0.4,0.6-0.6c0.2-0.2,0.5-0.3,0.7-0.4c0.3-0.1,0.5-0.2,0.8-0.3c0.3-0.1,0.5,0,0.8-0.1c0.3,0,0.5,0.1,0.7,0.1
							c0.2,0,0.4,0.1,0.6,0.2c0.2,0.1,0.4,0.1,0.5,0.2c0.1,0.1,0.3,0.2,0.4,0.2c0.2,0.1,0.3,0.2,0.3,0.2s-0.1,0-0.4-0.1
							c-0.1,0-0.2-0.1-0.4-0.1c-0.1-0.1-0.3-0.1-0.5-0.1c-0.2,0-0.4-0.1-0.6-0.1c-0.2,0-0.4,0-0.7,0c-0.2,0-0.5,0-0.7,0.1
							c-0.2,0.1-0.5,0.1-0.7,0.2c-0.2,0.1-0.4,0.2-0.6,0.4c-0.2,0.1-0.4,0.3-0.5,0.5c-0.2,0.2-0.3,0.3-0.5,0.5
							c-0.1,0.2-0.3,0.3-0.4,0.5c-0.2,0.3-0.4,0.6-0.5,0.8C586.8,388.6,586.7,388.7,586.7,388.7z"/>
					</g>
					<g>
						<path class="st26" d="M568,421.5c0,0,0.5-0.1,1.2,0.1c0.2,0,0.4,0.1,0.5,0.2c0.2,0.1,0.4,0.2,0.6,0.3c0.2,0.1,0.4,0.3,0.6,0.4
							c0.2,0.2,0.3,0.4,0.5,0.5c0.1,0.2,0.3,0.4,0.4,0.6c0.1,0.2,0.2,0.4,0.3,0.6c0.1,0.2,0.1,0.4,0.2,0.6c0,0.2,0.1,0.4,0.1,0.6
							c0.1,0.3,0,0.6,0.1,0.8c0,0.2,0,0.3,0,0.3s0-0.1-0.1-0.3c-0.1-0.2-0.1-0.5-0.2-0.8c-0.1-0.2-0.1-0.3-0.2-0.5
							c-0.1-0.2-0.2-0.4-0.2-0.6c-0.1-0.2-0.2-0.4-0.3-0.6c-0.1-0.2-0.2-0.4-0.4-0.5c-0.1-0.2-0.3-0.3-0.4-0.5
							c-0.2-0.1-0.3-0.3-0.5-0.4c-0.2-0.1-0.3-0.2-0.5-0.3c-0.2-0.1-0.3-0.2-0.5-0.3C568.5,421.5,568,421.5,568,421.5z"/>
					</g>
					<g>
						<path class="st26" d="M566.6,398.2c0,0,0-0.1,0.1-0.3c0.1-0.2,0.2-0.4,0.5-0.7c0.1-0.1,0.2-0.3,0.4-0.4
							c0.2-0.1,0.3-0.3,0.5-0.4c0.2-0.1,0.4-0.2,0.6-0.3c0.2-0.1,0.4-0.1,0.7-0.2c0.2,0,0.5,0,0.7-0.1c0.2,0,0.5,0,0.7,0.1
							c0.2,0,0.4,0.1,0.6,0.1c0.2,0.1,0.4,0.1,0.5,0.2c0.3,0.1,0.5,0.3,0.7,0.4c0.2,0.1,0.3,0.2,0.3,0.2s-0.1,0-0.3-0.1
							c-0.2,0-0.4-0.2-0.8-0.2c-0.2,0-0.3-0.1-0.5-0.1c-0.2,0-0.4,0-0.6-0.1c-0.2,0-0.4,0-0.6,0c-0.2,0-0.4,0-0.6,0.1
							c-0.2,0-0.4,0.1-0.6,0.1c-0.1,0-0.2,0.1-0.3,0.1c-0.1,0-0.2,0.1-0.3,0.1c-0.4,0.2-0.7,0.4-0.9,0.6
							C566.9,397.8,566.6,398.2,566.6,398.2z"/>
					</g>
				</g>
				<g>
					<path class="st26" d="M583.2,433.7c0,0.5-0.3,0.8-0.8,0.8c-0.4,0-0.8-0.4-0.8-0.8c0-0.5,0.3-0.8,0.8-0.8
						C582.8,432.9,583.2,433.2,583.2,433.7z"/>
					<path class="st26" d="M626.7,396c0,0.5-0.3,0.8-0.8,0.8c-0.4,0-0.8-0.4-0.8-0.8s0.3-0.8,0.8-0.8
						C626.3,395.2,626.7,395.6,626.7,396z"/>
					<path class="st26" d="M639.7,420.5c0,0.5-0.3,0.8-0.8,0.8c-0.4,0-0.8-0.4-0.8-0.8s0.3-0.8,0.8-0.8
						C639.3,419.7,639.7,420.1,639.7,420.5z"/>
					<path class="st26" d="M608.7,394.9c0,0.5-0.3,0.8-0.8,0.8c-0.4,0-0.8-0.4-0.8-0.8c0-0.5,0.3-0.8,0.8-0.8
						C608.4,394,608.7,394.4,608.7,394.9z"/>
					<path class="st26" d="M615.7,418.1c0,0.5-0.3,0.8-0.8,0.8c-0.4,0-0.8-0.4-0.8-0.8s0.3-0.8,0.8-0.8
						C615.4,417.3,615.7,417.7,615.7,418.1z"/>
					<path class="st26" d="M578.1,394.1c0,0.5-0.3,0.8-0.8,0.8c-0.4,0-0.8-0.4-0.8-0.8s0.3-0.8,0.8-0.8
						C577.7,393.2,578.1,393.6,578.1,394.1z"/>
					<path class="st26" d="M607.1,384c0,0.5-0.3,0.8-0.8,0.8c-0.4,0-0.8-0.4-0.8-0.8s0.3-0.8,0.8-0.8
						C606.7,383.2,607.1,383.5,607.1,384z"/>
					<path class="st26" d="M568,401.2c0,0.5-0.3,0.8-0.8,0.8c-0.4,0-0.8-0.4-0.8-0.8s0.3-0.8,0.8-0.8
						C567.6,400.4,568,400.8,568,401.2z"/>
					<path class="st26" d="M573.4,428.6c0,0.7-0.5,1.2-1.1,1.2c-0.6,0-1.1-0.5-1.1-1.2c0-0.7,0.5-1.2,1.1-1.2
						C572.9,427.4,573.4,427.9,573.4,428.6z"/>
					<path class="st26" d="M554.1,420.5c0,0.7-0.5,1.2-1.1,1.2c-0.6,0-1.1-0.5-1.1-1.2c0-0.7,0.5-1.2,1.1-1.2
						C553.6,419.4,554.1,419.9,554.1,420.5z"/>
					<path class="st26" d="M585.1,399.5c0,0.7-0.5,1.2-1.1,1.2s-1.1-0.5-1.1-1.2c0-0.7,0.5-1.2,1.1-1.2S585.1,398.9,585.1,399.5z"/>
					<path class="st26" d="M574.3,445.5c0,0.5-0.4,0.9-0.8,0.9c-0.5,0-0.8-0.4-0.8-0.9c0-0.5,0.4-0.9,0.8-0.9
						C573.9,444.6,574.3,445,574.3,445.5z"/>
					<path class="st26" d="M567.3,420.5c0,0.5-0.4,0.9-0.8,0.9c-0.5,0-0.8-0.4-0.8-0.9c0-0.5,0.4-0.9,0.8-0.9
						C566.9,419.6,567.3,420,567.3,420.5z"/>
					<path class="st26" d="M602,440.4c0,0.7-0.5,1.2-1.1,1.2c-0.6,0-1.1-0.5-1.1-1.2c0-0.7,0.5-1.2,1.1-1.2
						C601.5,439.2,602,439.7,602,440.4z"/>
					<path class="st26" d="M564.4,431.1c0,0.5-0.4,0.9-0.8,0.9c-0.5,0-0.8-0.4-0.8-0.9c0-0.5,0.4-0.9,0.8-0.9
						C564.1,430.2,564.4,430.6,564.4,431.1z"/>
					<path class="st26" d="M625.1,409.2c0,0.5-0.4,0.9-0.9,0.9s-0.9-0.4-0.9-0.9c0-0.5,0.4-0.9,0.9-0.9S625.1,408.7,625.1,409.2z"/>
					<path class="st26" d="M618.2,432.6c0,0.5-0.4,0.9-0.9,0.9c-0.5,0-0.9-0.4-0.9-0.9c0-0.5,0.4-0.9,0.9-0.9
						C617.9,431.6,618.2,432,618.2,432.6z"/>
					<path class="st26" d="M599.4,426.4c0,0.5-0.4,0.9-0.9,0.9c-0.5,0-0.9-0.4-0.9-0.9c0-0.5,0.4-0.9,0.9-0.9
						C599,425.5,599.4,425.9,599.4,426.4z"/>
					<path class="st26" d="M627.9,421.7c0,0.4-0.3,0.7-0.7,0.7c-0.4,0-0.7-0.3-0.7-0.7c0-0.4,0.3-0.7,0.7-0.7
						C627.6,421,627.9,421.3,627.9,421.7z"/>
					<path class="st26" d="M633.6,427.1c0,0.5-0.4,0.9-0.9,0.9s-0.9-0.4-0.9-0.9c0-0.5,0.4-0.9,0.9-0.9S633.6,426.6,633.6,427.1z"/>
					<path class="st26" d="M619.1,443.6c0,0.5-0.4,0.9-0.9,0.9c-0.5,0-0.9-0.4-0.9-0.9c0-0.5,0.4-0.9,0.9-0.9
						C618.7,442.7,619.1,443.1,619.1,443.6z"/>
					<path class="st26" d="M592.6,403c0,0.5-0.4,0.9-0.9,0.9s-0.9-0.4-0.9-0.9c0-0.5,0.4-0.9,0.9-0.9S592.6,402.5,592.6,403z"/>
					<path class="st26" d="M599.6,381.5c0,0.5-0.4,0.9-0.9,0.9s-0.9-0.4-0.9-0.9c0-0.5,0.4-0.9,0.9-0.9S599.6,381,599.6,381.5z"/>
				</g>
			</g>
			<g>
				<path class="st27" d="M644.4,400c-3.2-7.9-7.7-13.1-18.1-12.7c-10.4,0.4-13.7-0.3-14.2-3.6c-0.5-3.4-1.4-9.1-10.1-9.8
					c-8.7-0.7-5.2,8.1-10.6,7.5c-4.5-0.5-7.5-1.1-8.8,3.5c-1.3,4.7-2.3,5.7-9.1,6c-6.8,0.3-12.7,2.3-12.2,9.6
					c0.5,7.3-1.3,6.3-6.9,10.4c-10.1,7.3-5,20.1,0.6,21.8c5.6,1.8,6.5,5.5,8,12c1.6,6.6,8.6,8.4,12.5,5.5c4-3,7.1-6.9,10.7-2.7
					c3.6,4.2,7.1,3.2,8.7,2.4c1.6-0.8,5.3-3.3,8.7-0.3c3.4,3,6.4,6.4,14.3,5.6c7.9-0.8,10.4-7.5,10.8-12.1c0.4-4.5,1.3-6,7.5-9.2
					c6.2-3.2,10.4-10.7,6.9-17.6C639.4,409.3,647.6,407.9,644.4,400z M582.6,436.4c-1.8,1.4-2,3.6-4.2,4.9c-2,1.3-5.2,2.3-7.5,1.7
					c-5.3-1.3-2.3-8.5-5.2-12c-3.5-4.2-10.9-2.6-13.1-8.3c-1.3-3.4-0.3-6.6,2.7-8.5c3.1-2,7.5-1.5,10.3-3.7
					c4.6-3.6-3.3-12.5,2.2-15.5c1.2-0.7,2.8-0.4,4.1,0c1.8,0.5,3,1.7,5.1,1.8c2.3,0.1,4.7-0.9,7-0.3c2.3,0.7,3.1,2.3,3.1,4.6
					c-0.1,3.1-2,3.5-4.6,4.4c-3.4,1.2-3,2.3-5.1,4.7c-1.6,1.6-3.8,1.6-5.9,2.5c-1.7,0.8-3.4,2.1-3.6,4c-0.4,2.7,1.2,3.6,2.9,5.2
					c3.1,3.1,1.2,7.3,7.3,7c3.2-0.3,12.4-4.9,13.3,0.9C592.1,434.2,585,434.4,582.6,436.4z M632.2,421.9c-1.2,2.1-3.7,3.3-5.5,4.8
					c-1.6,1.4-2.8,3.1-3.3,5.2c-0.8,2.6-0.4,5.5-1.7,8c-2.1,3.8-7.4,4.5-10.9,2.3c-2.1-1.2-3.4-3.4-5.8-3.9c-3.8-0.9-6.7,2-10.4,2
					c-2,0-5-0.6-5.6-2.9c-0.7-2.7,2.1-4.8,4.4-5.4c1.3-0.3,3.2-0.4,4.5,0.1c1.5,0.6,2.9,1.7,4.6,1.7c1.8,0,1.5-2.2,2.6-3.2
					c0.6-0.6,1.4-1,2.2-1.3c1.7-0.6,3.5-0.7,5.2-0.7c3.1,0,4.9-1,5.3-4.2c0.2-1.6,0.3-3.2,1.4-4.5c1.2-1.5,2.9-2.3,3.9-4.1
					c1.3-2.6-1.4-6.5,2.6-7.1c4.2-0.7,7.3,2.4,7.7,6.2C633.5,417.3,633.4,420,632.2,421.9z M637.1,404.2c-2.7,2.9-9.9,1.7-10.5-2.5
					c-0.3-1.6,1-3.8,0.1-5.1c-1-1.6-4.4-1.3-5.9-1c-4.6,0.5-7.4-0.3-11.3-2.6c-2.2-1.2-4.6-1.2-6.6,0.5c-2.3,2.1-2.1,5.9-4.7,7.8
					c-2.7,2.1-7.2,2-9.2-0.9c-2.2-2.9,0.1-3.9,0.3-6.4c0.1-2.5-3-3.1-3.5-5.3c-0.3-1.8,1-3.4,2.6-4.1c2.3-1.1,3.6,0,5.8,0.3
					c2.2,0.3,1.9-1.6,2.4-3.3c0.6-2.2,2.3-4,4.7-4.4c2.2-0.3,5.1,1,6,3.1c1,2.2-0.5,4.8,0.4,7c0.8,2.1,3.6,3.4,5.6,4
					c5.7,2.1,12.4-0.4,18.3,1.2C636.2,393.8,641.8,399.6,637.1,404.2z"/>
				<g class="st28">
					<path class="st26" d="M631.7,399.5c-0.2,1.1-1.7,1.9-1.7,2.9c-0.3,3.1,5.6,1.7,6.7,0.6c2.1-2.2,1.3-5.2-0.7-7.2
						c-1-1-2.3-1.7-3.8-2c-1-0.1-3.4-0.1-2.9,1.5C629.9,397.1,632,397.1,631.7,399.5z"/>
				</g>
				<g class="st23">
					<path class="st26" d="M611,429.2c1.5-0.1,4.5,0.5,4.9,2.3c0.3,1.8-2.7,1.1-3.8,1c-1-0.1-2.3,0-3.2,0.5
						c-0.5,0.3-0.9,0.6-1.1,1.1c-0.2,0.5-0.3,1.1-0.9,1.3c-0.8,0.2-1.1-0.4-1.2-1c-0.2-0.9,0.2-1.6,0.7-2.4
						C607.3,430.3,609,429.2,611,429.2z"/>
				</g>
				<g class="st28">
					<path class="st26" d="M592.1,438.3c-1.4,0-2.3-0.8-2.1-2.3c0.3-2.1,2.5-2.9,4.2-3.4c0.6-0.2,1.3-0.4,1.8-0.1
						c1.2,0.7-0.5,1.7-1,2c-1,0.6-1,1.3-1.1,2.4C593.8,437.7,593,438.3,592.1,438.3z"/>
				</g>
				<g class="st23">
					<path class="st26" d="M628.3,413.8c0.3,1.2-0.4,2.1-0.4,3.3c0,2.5,3.1,0.8,3.6-0.5c0.8-2,0.3-4.5-1.3-5.8
						c-1-0.9-2.9-1.5-4.3-1.4c-1.1,0.1-1.8,1.3-0.8,2.1c0.5,0.4,1.2,0.3,1.8,0.6C627.6,412.5,628.1,413,628.3,413.8z"/>
				</g>
				<g class="st23">
					<path class="st26" d="M558.3,421c0.4,0.5,0.8,1,1.4,1.5c0.9,0.8,2.2,2.1,0.6,2.9c-2.4,1.2-5.7-0.8-6.8-2.9
						c-1.1-2.3-0.2-4.8,1.6-6.4c0.7-0.7,1.6-1.2,2.6-1.5c0.3-0.1,1.9-0.4,1.8,0.4c-0.1,0.5-0.8,1-1.2,1.4c-0.4,0.5-0.7,1.1-0.8,1.8
						C557.4,419.3,557.7,420.2,558.3,421z"/>
				</g>
				<g class="st28">
					<path class="st26" d="M570.4,429.5c-2.1-0.4-1.2-3.8-2.6-4.9c-0.8-0.6-2-0.5-2.8-1c-2-1,1.4-1.8,2.2-1.8c2,0,3.3,1.2,4,2.9
						c0.4,1,1.5,4.6-0.4,4.8C570.6,429.6,570.5,429.6,570.4,429.5z"/>
				</g>
				<g class="st28">
					<path class="st26" d="M574.9,438.4c1.2-0.5,1.3-1.6,2.1-2.3c0.8-0.8,1.4-0.6,1.6,0.4c0.3,1.3-0.1,2.9-0.8,3.8
						c-1.5,1.7-4.5,2.2-6.6,1.4c-1-0.4-1.8-1.1-2-2.2c-0.1-0.4-0.2-1.4,0.2-1.7c0.9-0.7,1.7,0.6,2.3,0.9
						C572.6,439.2,574,438.8,574.9,438.4z"/>
				</g>
				<g class="st23">
					<path class="st26" d="M570.2,397.5c1-0.1,2.5,0.2,3.2,0.9c0.9,1.1,0.1,1.7-1,1.7c-1.2,0-2.7-0.1-3.3,1.1
						c-0.3,0.6,0,1.7-0.5,2.2c-0.6,0.5-1.1-0.1-1.4-0.6c-0.4-0.5-0.5-1-0.5-1.6c0-0.8,0.2-2,0.8-2.6
						C568.1,397.9,569.2,397.6,570.2,397.5z"/>
				</g>
				<g class="st28">
					<path class="st26" d="M583.4,402.5c0,0.6-0.4,1.4,0.3,1.8c0.7,0.4,1.5-0.1,2-0.6c1.3-1.5,0.5-4-0.6-5.3
						c-0.7-0.7-1.5-1.1-2.4-1.2c-0.6-0.1-2.1,0-2.3,0.8c-0.1,0.5,0.4,0.7,0.8,0.7c0.6,0.1,0.8,0.1,1.3,0.5
						C583.3,400.1,583.5,401.3,583.4,402.5z"/>
				</g>
				<g class="st23">
					<path class="st26" d="M588.3,386.9c-0.2,0.3-0.5,0.6-0.6,0.9c-0.4,1-0.4,2.8,0.5,3.6c1.6,1.3,2-1.2,2.6-2.3
						c0.3-0.6,0.8-1,1.4-1c0.6,0,1.3,0.3,1.8-0.1c0.5-0.3,0.3-1,0-1.4C592.7,385.1,589.6,385.6,588.3,386.9z"/>
				</g>
				<g class="st28">
					<path class="st26" d="M595.8,397.4c0.4-0.2,0.7-0.4,1-0.7c0.5-0.5,0.7-1.2,1.1-1.8c1-1.2,1.3,1.2,1.2,1.8
						c-0.1,1.2-0.6,2.6-1.7,3.3c-0.6,0.3-1.3,0.5-2,0.6c-1.1,0.1-2.5-0.3-3.3-1c-0.7-0.6-0.3-1.6,0.6-1.7c0.5-0.1,0.9,0.1,1.4,0
						C594.7,397.8,595.2,397.6,595.8,397.4z"/>
				</g>
				<g class="st28">
					<path class="st26" d="M603.3,381.4c0.6,0.8,0.6,1.8,0.9,2.7c0.6,1.7,2,0.9,2.5-0.3c1.6-3.5-2.9-7.5-6.2-5.9
						c-0.5,0.3-1.5,0.9-0.8,1.5c0.6,0.5,1.4,0.4,2,0.7C602.4,380.3,602.9,380.8,603.3,381.4z"/>
				</g>
				<g class="st23">
					<path class="st26" d="M618.9,435.4c1.2-1.1,1.9,0.6,2.1,1.5c0.6,3.2-2.5,5.6-5.5,5.6c-0.7,0-1.6-0.1-2.3-0.5
						c-0.6-0.3-1.4-1-1.6-1.6c-0.2-0.5-0.3-1.2,0-1.7c0.7-1,2.5,0,3.4-0.1c1.8-0.3,2.7-2,3.8-3.2
						C618.8,435.5,618.8,435.5,618.9,435.4z"/>
				</g>
				<path class="st27" d="M644.4,400c-3.2-7.9-7.7-13.1-18.1-12.7c-10.4,0.4-13.7-0.3-14.2-3.6c-0.5-3.4-1.4-9.1-10.1-9.8
					c-8.7-0.7-5.2,8.1-10.6,7.5c-4.5-0.5-7.5-1.1-8.8,3.5c-1.3,4.7-2.3,5.7-9.1,6c-6.8,0.3-12.7,2.3-12.2,9.6
					c0.5,7.3-1.3,6.3-6.9,10.4c-10.1,7.3-5,20.1,0.6,21.8c5.6,1.8,6.5,5.5,8,12c1.6,6.6,8.6,8.4,12.5,5.5c4-3,7.1-6.9,10.7-2.7
					c3.6,4.2,7.1,3.2,8.7,2.4c1.6-0.8,5.3-3.3,8.7-0.3c3.4,3,6.4,6.4,14.3,5.6c7.9-0.8,10.4-7.5,10.8-12.1c0.4-4.5,1.3-6,7.5-9.2
					c6.2-3.2,10.4-10.7,6.9-17.6C639.4,409.3,647.6,407.9,644.4,400z M638.8,414.9c6.7,9.6,3.9,15.6-5.3,17.1
					c-6.3,1-8.6,3.9-8.6,7.9c0,9.2-5.3,17.4-14.1,13.2c-6.7-3.2-6-7.5-10.5-8.3c-4.4-0.8-6.2,5.7-10.2,4.6c-3.7-1.1-2.4-5.7-6-6.1
					c-6.2-0.8-9.1,8.5-14.4,6.9c-5.4-1.6-4.3-7.4-5.6-14.7c-1.3-7.3-9.5-2.4-12.5-8.8c-1.9-4-3.2-11.9,5.2-15
					c10.4-3.9,4.3-9.5,5.8-14.3c1.5-4.8,6.2-4.5,11.5-4.8c5.3-0.3,8-1,9-5.6c1-4.6,4.1-4.9,6.2-4.4c2.1,0.5,4.9,1,6-1.3
					c1.1-2.3,3.3-7.3,9.8-5.5c6.5,1.8,3,9.5,8,12.4c4.9,2.9,17.7-0.1,23.5,3.4c6.2,3.7,8.5,9.7,4.6,15.7
					C639.6,409.4,637.5,413.1,638.8,414.9z"/>
			</g>
			<path class="st29" d="M616.1,398.1c0,0-8.8,1-13.7,8c-3.2,4.6-3.6,8.9-3.6,11.2c-1.9-2-5.7-5-12.1-4.8
				c-9.4,0.3-14.2,3.8-14.2,3.8s4.6,8.4,13.8,8.8c8.7,0.4,12.6-4.4,13.6-5.8c2.6,0.3,10,0.4,14.3-5.5
				C620.6,405.3,616.1,398.1,616.1,398.1z"/>
			<g>
				<g>
					<path class="st30" d="M616.2,396.5c0,0-9.4,0.5-14.3,7.5c-4.9,7-2.8,13.7-2.8,13.7C603.8,404.1,616.2,396.5,616.2,396.5z"/>
					<path class="st31" d="M616.2,396.5c0,0-12.5,7.6-17.1,21.2c0,0,9.9,1.9,15.3-5.4C620.7,403.7,616.2,396.5,616.2,396.5z"/>
				</g>
				<g>
					<path class="st31" d="M571.5,415c0,0,4.6,8.4,13.8,8.8c10.1,0.4,13.8-6.2,13.8-6.2C585.8,410.4,571.5,415,571.5,415z"/>
					<path class="st30" d="M585.9,410.4c-9.4,0.3-14.3,4.5-14.3,4.5s14.3-4.5,27.7,2.7C599.2,417.6,595.3,410.2,585.9,410.4z"/>
				</g>
			</g>
		</g>
		<g>
			<g>
				<g>
					<g>
						<polygon class="st32" points="551.6,378.7 550.1,380.2 551.3,380.9 552.5,379.3 						"/>
						<polygon class="st32" points="532.9,387.4 531.1,387.9 531.3,388.9 532.9,388.4 						"/>
						<polygon class="st32" points="547.7,399.2 547.8,397.3 546.8,397.2 546.8,398.9 						"/>
					</g>
					<g>
						<polygon class="st32" points="613.8,392.7 612.4,394.2 613.6,394.9 614.8,393.3 						"/>
						<polygon class="st32" points="595.1,401.4 593.3,401.9 593.5,402.9 595.1,402.4 						"/>
						<polygon class="st32" points="610,413.2 610,411.3 609,411.2 609,412.9 						"/>
					</g>
					<g>
						<polygon class="st32" points="580.5,407.1 579.1,408.7 580.3,409.4 581.5,407.7 						"/>
						<polygon class="st32" points="561.9,415.8 560.1,416.3 560.2,417.4 561.8,416.8 						"/>
						<polygon class="st32" points="576.7,427.6 576.8,425.8 575.7,425.6 575.7,427.3 						"/>
					</g>
					<g>
						<polygon class="st32" points="551.2,407.7 549.8,409.3 551,409.9 552.2,408.3 						"/>
						<polygon class="st32" points="532.6,416.4 530.8,416.9 530.9,418 532.5,417.4 						"/>
						<polygon class="st32" points="547.4,428.2 547.5,426.4 546.4,426.2 546.4,427.9 						"/>
					</g>
					<g>
						<polygon class="st32" points="631.6,414.6 630.1,416.1 631.3,416.8 632.5,415.2 						"/>
						<polygon class="st32" points="612.9,423.2 611.1,423.7 611.3,424.8 612.9,424.2 						"/>
						<polygon class="st32" points="627.7,435.1 627.8,433.2 626.7,433.1 626.7,434.7 						"/>
					</g>
					<g>
						<polygon class="st32" points="668.1,403.5 666.7,405 667.8,405.7 669,404.1 						"/>
						<polygon class="st32" points="649.4,412.2 647.6,412.7 647.8,413.7 649.4,413.2 						"/>
						<polygon class="st32" points="664.2,424 664.3,422.1 663.3,422 663.3,423.7 						"/>
					</g>
					<g>
						<polygon class="st32" points="648.5,375.2 647.1,376.6 648.2,377.3 649.3,375.8 						"/>
						<polygon class="st32" points="631.4,383.2 629.8,383.6 629.9,384.6 631.4,384.1 						"/>
						<polygon class="st32" points="644.9,394 645,392.3 644,392.1 644.1,393.7 						"/>
					</g>
					<g>
						<polygon class="st32" points="593.9,369.6 592.6,370.9 593.7,371.6 594.8,370.1 						"/>
						<polygon class="st32" points="576.9,377.5 575.2,377.9 575.4,378.9 576.9,378.4 						"/>
						<polygon class="st32" points="590.4,388.3 590.5,386.6 589.5,386.4 589.5,388 						"/>
					</g>
					<g>
						<polygon class="st32" points="614.2,352.7 612.8,354.3 614,354.9 615.2,353.3 						"/>
						<polygon class="st32" points="595.5,361.4 593.7,361.9 593.9,363 595.5,362.4 						"/>
						<polygon class="st32" points="610.4,373.2 610.4,371.4 609.4,371.2 609.4,372.9 						"/>
					</g>
					<g>
						<polygon class="st32" points="569.9,349.7 568.5,351.2 569.7,351.9 570.8,350.3 						"/>
						<polygon class="st32" points="551.2,358.4 549.4,358.9 549.6,359.9 551.2,359.4 						"/>
						<polygon class="st32" points="566,370.2 566.1,368.3 565.1,368.2 565.1,369.9 						"/>
					</g>
				</g>
			</g>
			<g>
				<g>
					<g>
						<polygon class="st32" points="552.1,462.4 550.6,464 551.8,464.7 553,463 						"/>
						<polygon class="st32" points="532.9,471.3 531.1,471.8 531.3,472.9 532.9,472.3 						"/>
						<polygon class="st32" points="548.1,483.4 548.2,481.5 547.1,481.3 547.1,483.1 						"/>
					</g>
					<g>
						<polygon class="st32" points="615.7,476.7 614.2,478.3 615.5,479 616.7,477.4 						"/>
						<polygon class="st32" points="596.6,485.6 594.8,486.1 595,487.2 596.6,486.6 						"/>
					</g>
					<g>
						<polygon class="st32" points="581.7,491.5 580.2,493.1 581.4,493.8 582.6,492.1 						"/>
					</g>
					<g>
						<polygon class="st32" points="651.1,458.9 649.8,460.3 650.9,460.9 652,459.4 						"/>
						<polygon class="st32" points="633.7,467 632,467.4 632.2,468.4 633.7,467.9 						"/>
						<polygon class="st32" points="647.5,478 647.6,476.3 646.6,476.2 646.6,477.7 						"/>
					</g>
					<g>
						<polygon class="st32" points="595.4,453.1 594,454.5 595.1,455.1 596.3,453.6 						"/>
						<polygon class="st32" points="633.7,443 632.4,444.4 633.5,445.1 634.6,443.6 						"/>
						<polygon class="st32" points="679.5,422.9 678.2,424.3 679.3,425 680.4,423.5 						"/>
						<polygon class="st32" points="663,375.3 661.6,376.7 662.7,377.4 663.8,375.8 						"/>
						<polygon class="st32" points="582.6,350.9 581.3,352.3 582.4,352.9 583.5,351.4 						"/>
						<polygon class="st32" points="577.9,461.2 576.2,461.6 576.4,462.6 577.9,462.1 						"/>
						<polygon class="st32" points="591.8,472.2 591.8,470.5 590.9,470.3 590.9,471.9 						"/>
					</g>
					<g>
						<polygon class="st32" points="616.1,435.9 614.7,437.4 615.9,438.1 617.1,436.5 						"/>
						<polygon class="st32" points="597,444.7 595.2,445.2 595.4,446.3 597,445.8 						"/>
						<polygon class="st32" points="612.2,456.8 612.3,454.9 611.2,454.8 611.2,456.5 						"/>
					</g>
					<g>
						<polygon class="st32" points="570.8,432.7 569.3,434.3 570.5,435 571.7,433.3 						"/>
						<polygon class="st32" points="551.7,441.6 549.8,442.1 550,443.2 551.7,442.6 						"/>
						<polygon class="st32" points="566.8,453.7 566.9,451.8 565.8,451.7 565.9,453.4 						"/>
					</g>
				</g>
			</g>
			<g>
				<path class="st33" d="M567.9,374.5c-1.1,0-2,0.5-2.7,1.2c-0.1,0.1-0.1,0.1,0,0.2c0,0.1-0.1,0.2,0,0.4c0.1,0.4,0.6,0.4,0.8,0.3
					c0.2-0.1,0.4-0.2,0.6-0.4c0.3-0.2,0.6-0.2,0.9-0.3c0.5-0.1,0.9-0.1,1.1-0.7C568.8,374.7,568.3,374.5,567.9,374.5z"/>
				<path class="st33" d="M574.9,380.8c1.1-0.1,1.9-0.8,2.5-1.6c0-0.1,0-0.2,0-0.2c0-0.1,0-0.2,0-0.4c-0.1-0.4-0.6-0.3-0.9-0.2
					c-0.2,0.1-0.4,0.3-0.5,0.4c-0.2,0.2-0.6,0.3-0.9,0.4c-0.4,0.2-0.9,0.3-1,0.8C574,380.7,574.5,380.8,574.9,380.8z"/>
				<path class="st33" d="M575.2,372.7c-0.1,0.8,0.3,1.5,0.8,2.1c0,0,0.1,0.1,0.1,0c0.1,0,0.2,0.1,0.3,0c0.3,0,0.3-0.4,0.3-0.6
					c-0.1-0.2-0.1-0.3-0.2-0.5c-0.1-0.2-0.1-0.5-0.2-0.7c0-0.4,0-0.7-0.4-0.9C575.4,372,575.2,372.4,575.2,372.7z"/>
				<path class="st33" d="M569,384.2c0.8-0.1,1.4-0.6,1.9-1.3c0,0,0-0.1,0-0.2c0-0.1,0-0.2,0-0.3c-0.1-0.3-0.5-0.2-0.7-0.1
					c-0.2,0.1-0.3,0.2-0.4,0.3c-0.2,0.2-0.4,0.2-0.7,0.3c-0.3,0.1-0.7,0.2-0.8,0.6C568.3,384.1,568.7,384.3,569,384.2z"/>
			</g>
			<g>
				<path class="st33" d="M536,422.3c-1.1,0-2,0.5-2.7,1.2c-0.1,0.1-0.1,0.1,0,0.2c0,0.1-0.1,0.2,0,0.4c0.1,0.4,0.6,0.4,0.8,0.3
					c0.2-0.1,0.4-0.2,0.6-0.4c0.3-0.2,0.6-0.2,0.9-0.3c0.5-0.1,0.9-0.1,1.1-0.7C536.9,422.5,536.4,422.3,536,422.3z"/>
				<path class="st33" d="M543,428.6c1.1-0.1,1.9-0.8,2.5-1.6c0-0.1,0-0.2,0-0.2c0-0.1,0-0.2,0-0.4c-0.1-0.4-0.6-0.3-0.9-0.2
					c-0.2,0.1-0.4,0.3-0.5,0.4c-0.2,0.2-0.6,0.3-0.9,0.4c-0.4,0.2-0.9,0.3-1,0.8C542.1,428.5,542.6,428.6,543,428.6z"/>
				<path class="st33" d="M543.3,420.5c-0.1,0.8,0.3,1.5,0.8,2.1c0,0,0.1,0.1,0.1,0c0.1,0,0.2,0.1,0.3,0c0.3,0,0.3-0.4,0.3-0.6
					c-0.1-0.2-0.1-0.3-0.2-0.5c-0.1-0.2-0.1-0.5-0.2-0.7c0-0.4,0-0.7-0.4-0.9C543.6,419.8,543.4,420.2,543.3,420.5z"/>
				<path class="st33" d="M537.2,432c0.8-0.1,1.4-0.6,1.9-1.3c0-0.1,0-0.1,0-0.2c0-0.1,0-0.2,0-0.3c-0.1-0.3-0.5-0.2-0.7-0.1
					c-0.2,0.1-0.3,0.2-0.4,0.3c-0.2,0.2-0.4,0.2-0.7,0.3c-0.3,0.1-0.7,0.2-0.8,0.6C536.5,431.9,536.8,432.1,537.2,432z"/>
			</g>
			<g>
				<path class="st33" d="M529.8,456.6c-1.1,0-2,0.5-2.7,1.2c-0.1,0.1-0.1,0.1,0,0.2c0,0.1-0.1,0.2,0,0.4c0.1,0.4,0.6,0.4,0.8,0.3
					c0.2-0.1,0.4-0.2,0.6-0.4c0.3-0.2,0.6-0.2,0.9-0.3c0.5-0.1,0.9-0.1,1.1-0.7C530.8,456.8,530.3,456.6,529.8,456.6z"/>
				<path class="st33" d="M536.9,462.8c1.1-0.1,1.9-0.8,2.5-1.6c0-0.1,0-0.2,0-0.2c0-0.1,0-0.2,0-0.4c-0.1-0.4-0.6-0.3-0.9-0.2
					c-0.2,0.1-0.4,0.3-0.5,0.4c-0.2,0.2-0.6,0.3-0.9,0.4c-0.4,0.2-0.9,0.3-1,0.8C536,462.7,536.5,462.9,536.9,462.8z"/>
				<path class="st33" d="M537.2,454.8c-0.1,0.8,0.3,1.5,0.8,2.1c0,0,0.1,0.1,0.1,0c0.1,0,0.2,0.1,0.3,0c0.3,0,0.3-0.4,0.3-0.6
					c-0.1-0.2-0.1-0.3-0.2-0.5c-0.1-0.2-0.1-0.5-0.2-0.7c0-0.4,0-0.7-0.4-0.9C537.4,454.1,537.2,454.5,537.2,454.8z"/>
				<path class="st33" d="M531,466.3c0.8-0.1,1.4-0.6,1.9-1.3c0,0,0-0.1,0-0.2c0-0.1,0-0.2,0-0.3c-0.1-0.3-0.5-0.2-0.7-0.1
					c-0.2,0.1-0.3,0.2-0.4,0.3c-0.2,0.2-0.4,0.2-0.7,0.3c-0.3,0.1-0.7,0.2-0.8,0.6C530.3,466.2,530.7,466.3,531,466.3z"/>
			</g>
			<g>
				<path class="st33" d="M653.3,394.6c1.1,0.2,2-0.2,2.8-0.9c0.1,0,0.1-0.1,0.1-0.2c0.1-0.1,0.1-0.2,0.1-0.4c0-0.4-0.5-0.5-0.8-0.4
					c-0.2,0.1-0.4,0.2-0.6,0.3c-0.3,0.2-0.6,0.1-1,0.2c-0.5,0-1,0-1.2,0.5C652.4,394.3,652.8,394.5,653.3,394.6z"/>
				<path class="st33" d="M647.1,387.4c-1.1,0-2,0.5-2.7,1.3c-0.1,0.1-0.1,0.1,0,0.2c0,0.1-0.1,0.2,0,0.4c0.1,0.4,0.6,0.4,0.8,0.3
					c0.2-0.1,0.4-0.2,0.6-0.4c0.3-0.2,0.6-0.2,0.9-0.3c0.5-0.1,0.9-0.1,1.1-0.7C648.1,387.7,647.6,387.5,647.1,387.4z"/>
				<path class="st33" d="M645.8,395.4c0.2-0.8,0-1.6-0.5-2.2c0-0.1-0.1-0.1-0.1-0.1c-0.1,0-0.2-0.1-0.3-0.1c-0.3,0-0.4,0.4-0.3,0.6
					c0,0.2,0.1,0.3,0.2,0.5c0.1,0.2,0.1,0.5,0.1,0.7c0,0.4-0.1,0.7,0.3,1C645.4,396,645.7,395.7,645.8,395.4z"/>
				<path class="st33" d="M653.4,384.8c-0.8,0-1.5,0.4-2.1,1c0,0-0.1,0.1,0,0.2c0,0.1,0,0.2,0,0.3c0,0.3,0.4,0.3,0.6,0.2
					c0.2-0.1,0.3-0.2,0.5-0.3c0.2-0.2,0.5-0.2,0.7-0.2c0.4-0.1,0.7-0.1,0.9-0.5C654.1,385,653.8,384.8,653.4,384.8z"/>
			</g>
			<g>
				<path class="st33" d="M656.8,434.8c1.1,0.2,2-0.2,2.8-0.9c0.1,0,0.1-0.1,0.1-0.2c0.1-0.1,0.1-0.2,0.1-0.4c0-0.4-0.5-0.5-0.8-0.4
					c-0.2,0.1-0.4,0.2-0.6,0.3c-0.3,0.2-0.6,0.1-1,0.2c-0.5,0-1,0-1.2,0.5C655.9,434.4,656.4,434.7,656.8,434.8z"/>
				<path class="st33" d="M650.7,427.6c-1.1,0-2,0.5-2.7,1.3c-0.1,0.1-0.1,0.1,0,0.2c0,0.1-0.1,0.2,0,0.4c0.1,0.4,0.6,0.4,0.8,0.3
					c0.2-0.1,0.4-0.2,0.6-0.4c0.3-0.2,0.6-0.2,0.9-0.3c0.5-0.1,0.9-0.1,1.1-0.7C651.6,427.8,651.2,427.6,650.7,427.6z"/>
				<path class="st33" d="M649.3,435.5c0.2-0.8,0-1.6-0.5-2.2c0-0.1-0.1-0.1-0.1-0.1c-0.1,0-0.2-0.1-0.3-0.1c-0.3,0-0.4,0.4-0.3,0.6
					c0,0.2,0.1,0.3,0.2,0.5c0.1,0.2,0.1,0.5,0.1,0.7c0,0.4-0.1,0.7,0.3,1C649,436.2,649.2,435.9,649.3,435.5z"/>
				<path class="st33" d="M657,425c-0.8,0-1.5,0.4-2.1,1c0,0,0,0.1,0,0.2c0,0.1,0,0.2,0,0.3c0,0.3,0.4,0.3,0.6,0.2
					c0.2-0.1,0.3-0.2,0.5-0.3c0.2-0.2,0.5-0.2,0.7-0.2c0.4-0.1,0.7-0.1,0.9-0.5C657.7,425.2,657.3,425,657,425z"/>
			</g>
			<g>
				<path class="st33" d="M542.2,383.5c1.1,0.2,2-0.2,2.8-0.9c0.1,0,0.1-0.1,0.1-0.2c0.1-0.1,0.1-0.2,0.1-0.4c0-0.4-0.5-0.5-0.8-0.4
					c-0.2,0.1-0.4,0.2-0.6,0.3c-0.3,0.2-0.6,0.1-1,0.2c-0.5,0-1,0-1.2,0.5C541.3,383.1,541.8,383.4,542.2,383.5z"/>
				<path class="st33" d="M536.1,376.3c-1.1,0-2,0.5-2.7,1.3c-0.1,0.1-0.1,0.1,0,0.2c0,0.1-0.1,0.2,0,0.4c0.1,0.4,0.6,0.4,0.8,0.3
					c0.2-0.1,0.4-0.2,0.6-0.4c0.3-0.2,0.6-0.2,0.9-0.3c0.5-0.1,0.9-0.1,1.1-0.7C537,376.6,536.5,376.3,536.1,376.3z"/>
				<path class="st33" d="M534.7,384.2c0.2-0.8,0-1.6-0.5-2.2c0-0.1-0.1-0.1-0.1-0.1c-0.1,0-0.2-0.1-0.3-0.1c-0.3,0-0.4,0.4-0.3,0.6
					c0,0.2,0.1,0.3,0.2,0.5c0.1,0.2,0.1,0.5,0.1,0.7c0,0.4-0.1,0.7,0.3,1C534.4,384.9,534.6,384.6,534.7,384.2z"/>
				<path class="st33" d="M542.4,373.7c-0.8,0-1.5,0.4-2.1,1c0,0,0,0.1,0,0.2c0,0.1,0,0.2,0,0.3c0,0.3,0.4,0.3,0.6,0.2
					c0.2-0.1,0.3-0.2,0.5-0.3c0.2-0.2,0.5-0.2,0.7-0.2c0.4-0.1,0.7-0.1,0.9-0.5C543.1,373.9,542.7,373.7,542.4,373.7z"/>
			</g>
			<g>
				<path class="st33" d="M523.8,410.1c1.1,0.2,2-0.2,2.8-0.9c0.1,0,0.1-0.1,0.1-0.2c0.1-0.1,0.1-0.2,0.1-0.4c0-0.4-0.5-0.5-0.8-0.4
					c-0.2,0.1-0.4,0.2-0.6,0.3c-0.3,0.2-0.6,0.1-1,0.2c-0.5,0-1,0-1.2,0.5C522.9,409.7,523.4,410,523.8,410.1z"/>
				<path class="st33" d="M517.7,402.9c-1.1,0-2,0.5-2.7,1.3c-0.1,0.1-0.1,0.1,0,0.2c0,0.1-0.1,0.2,0,0.4c0.1,0.4,0.6,0.4,0.8,0.3
					c0.2-0.1,0.4-0.2,0.6-0.4c0.3-0.2,0.6-0.2,0.9-0.3c0.5-0.1,0.9-0.1,1.1-0.7C518.6,403.2,518.1,402.9,517.7,402.9z"/>
				<path class="st33" d="M516.3,410.8c0.2-0.8,0-1.6-0.5-2.2c0-0.1-0.1-0.1-0.1-0.1c-0.1,0-0.2-0.1-0.3-0.1c-0.3,0-0.4,0.4-0.3,0.6
					c0,0.2,0.1,0.3,0.2,0.5c0.1,0.2,0.1,0.5,0.1,0.7c0,0.4-0.1,0.7,0.3,1C516,411.5,516.2,411.2,516.3,410.8z"/>
				<path class="st33" d="M524,400.3c-0.8,0-1.5,0.4-2.1,1c0,0,0,0.1,0,0.2c0,0.1,0,0.2,0,0.3c0,0.3,0.4,0.3,0.6,0.2
					c0.2-0.1,0.3-0.2,0.5-0.3c0.2-0.2,0.5-0.2,0.7-0.2c0.4-0.1,0.7-0.1,0.9-0.5C524.7,400.5,524.3,400.3,524,400.3z"/>
			</g>
			<g>
				<path class="st33" d="M627.5,372.4c1-0.3,1.8-1,2.2-1.9c0-0.1,0-0.2,0-0.2c0-0.1,0-0.2-0.1-0.4c-0.2-0.3-0.6-0.2-0.9,0
					c-0.2,0.1-0.3,0.3-0.5,0.5c-0.2,0.3-0.5,0.4-0.8,0.5c-0.4,0.2-0.9,0.4-0.9,0.9C626.6,372.4,627.1,372.5,627.5,372.4z"/>
				<path class="st33" d="M619,368.3c-1,0.4-1.6,1.3-1.9,2.2c0,0.1,0,0.2,0.1,0.2c0,0.1,0,0.2,0.1,0.3c0.2,0.3,0.7,0.1,0.9-0.1
					c0.2-0.2,0.3-0.4,0.4-0.6c0.2-0.3,0.5-0.5,0.7-0.6c0.4-0.3,0.8-0.5,0.8-1.1C620,368.1,619.5,368.1,619,368.3z"/>
				<path class="st33" d="M621,376.1c-0.1-0.8-0.7-1.4-1.3-1.8c-0.1,0-0.1,0-0.2,0c-0.1,0-0.2,0-0.3,0c-0.3,0.1-0.2,0.5-0.1,0.7
					c0.1,0.2,0.2,0.3,0.4,0.4c0.2,0.2,0.3,0.4,0.4,0.7c0.1,0.3,0.2,0.7,0.7,0.8C620.9,376.8,621,376.5,621,376.1z"/>
				<path class="st33" d="M623.7,363.4c-0.8,0.3-1.2,1-1.5,1.7c0,0.1,0,0.1,0,0.1c0,0.1,0,0.2,0.1,0.3c0.2,0.2,0.5,0.1,0.7-0.1
					c0.1-0.1,0.2-0.3,0.3-0.4c0.1-0.2,0.4-0.4,0.6-0.5c0.3-0.2,0.6-0.4,0.6-0.8C624.5,363.2,624.1,363.2,623.7,363.4z"/>
			</g>
			<g>
				<path class="st33" d="M562.1,471.3c1-0.3,1.8-1,2.2-1.9c0-0.1,0-0.2,0-0.2c0-0.1,0-0.2-0.1-0.4c-0.1-0.3-0.6-0.2-0.9,0
					c-0.2,0.1-0.3,0.3-0.5,0.5c-0.2,0.3-0.5,0.4-0.8,0.5c-0.4,0.2-0.9,0.4-0.9,0.9C561.1,471.3,561.6,471.4,562.1,471.3z"/>
				<path class="st33" d="M553.6,467.2c-1,0.4-1.6,1.3-1.9,2.2c0,0.1,0,0.2,0.1,0.2c0,0.1,0,0.2,0.1,0.3c0.2,0.3,0.7,0.1,0.9-0.1
					c0.2-0.2,0.3-0.4,0.4-0.6c0.2-0.3,0.5-0.5,0.7-0.6c0.4-0.3,0.8-0.5,0.8-1.1C554.5,467.1,554,467.1,553.6,467.2z"/>
				<path class="st33" d="M555.5,475c-0.1-0.8-0.7-1.4-1.3-1.8c-0.1,0-0.1,0-0.2,0c-0.1,0-0.2,0-0.3,0c-0.3,0.1-0.2,0.5-0.1,0.7
					c0.1,0.2,0.2,0.3,0.4,0.4c0.2,0.2,0.3,0.4,0.4,0.7c0.1,0.3,0.2,0.7,0.7,0.8C555.4,475.8,555.5,475.4,555.5,475z"/>
				<path class="st33" d="M558.3,462.3c-0.8,0.3-1.2,1-1.5,1.7c0,0.1,0,0.1,0,0.1c0,0.1,0,0.2,0.1,0.3c0.2,0.2,0.5,0.1,0.7-0.1
					c0.1-0.1,0.2-0.3,0.3-0.4c0.1-0.2,0.4-0.4,0.6-0.5c0.3-0.2,0.6-0.4,0.6-0.8C559,462.2,558.6,462.2,558.3,462.3z"/>
			</g>
			<g>
				<path class="st33" d="M659.2,463.7c1-0.3,1.8-1,2.2-1.9c0-0.1,0-0.2,0-0.2c0-0.1,0-0.2-0.1-0.4c-0.2-0.3-0.6-0.2-0.9,0
					c-0.2,0.1-0.3,0.3-0.5,0.5c-0.2,0.3-0.5,0.4-0.8,0.5c-0.4,0.2-0.9,0.4-0.9,0.9C658.2,463.8,658.8,463.8,659.2,463.7z"/>
				<path class="st33" d="M650.7,459.6c-1,0.4-1.6,1.3-1.9,2.2c0,0.1,0,0.2,0.1,0.2c0,0.1,0,0.2,0.1,0.3c0.2,0.3,0.7,0.1,0.9-0.1
					c0.2-0.2,0.3-0.4,0.4-0.6c0.2-0.3,0.5-0.5,0.7-0.6c0.4-0.3,0.8-0.5,0.8-1.1C651.6,459.5,651.1,459.5,650.7,459.6z"/>
				<path class="st33" d="M652.6,467.4c-0.1-0.8-0.7-1.4-1.3-1.8c-0.1,0-0.1,0-0.2,0c-0.1,0-0.2,0-0.3,0c-0.3,0.1-0.2,0.5-0.1,0.7
					c0.1,0.2,0.2,0.3,0.4,0.4c0.2,0.2,0.3,0.4,0.4,0.7c0.1,0.3,0.2,0.7,0.7,0.8C652.6,468.2,652.7,467.8,652.6,467.4z"/>
				<path class="st33" d="M655.4,454.7c-0.8,0.3-1.2,1-1.5,1.7c0,0.1,0,0.1,0,0.1c0,0.1,0,0.2,0.1,0.3c0.2,0.2,0.5,0.1,0.7-0.1
					c0.1-0.1,0.2-0.3,0.3-0.4c0.1-0.2,0.4-0.4,0.6-0.5c0.3-0.2,0.6-0.4,0.6-0.8C656.1,454.6,655.7,454.6,655.4,454.7z"/>
			</g>
			<g>
				<path class="st33" d="M613.2,469.1c1-0.3,1.8-1,2.2-1.9c0-0.1,0-0.2,0-0.2c0-0.1,0-0.2-0.1-0.4c-0.1-0.3-0.6-0.2-0.9,0
					c-0.2,0.1-0.3,0.3-0.5,0.5c-0.2,0.3-0.5,0.4-0.8,0.5c-0.4,0.2-0.9,0.4-0.9,0.9C612.2,469.1,612.7,469.2,613.2,469.1z"/>
				<path class="st33" d="M604.7,465c-1,0.4-1.6,1.3-1.9,2.2c0,0.1,0,0.2,0.1,0.2c0,0.1,0,0.2,0.1,0.3c0.2,0.3,0.7,0.1,0.9-0.1
					c0.2-0.2,0.3-0.4,0.4-0.6c0.2-0.3,0.5-0.5,0.7-0.6c0.4-0.3,0.8-0.5,0.8-1.1C605.6,464.8,605.1,464.8,604.7,465z"/>
				<path class="st33" d="M606.6,472.8c-0.1-0.8-0.7-1.4-1.3-1.8c-0.1,0-0.1,0-0.2,0c-0.1,0-0.2,0-0.3,0c-0.3,0.1-0.2,0.5-0.1,0.7
					c0.1,0.2,0.2,0.3,0.4,0.4c0.2,0.2,0.3,0.4,0.4,0.7c0.1,0.3,0.2,0.7,0.7,0.8C606.6,473.5,606.7,473.1,606.6,472.8z"/>
				<path class="st33" d="M609.4,460.1c-0.8,0.3-1.2,1-1.5,1.7c0,0.1,0,0.1,0,0.1c0,0.1,0,0.2,0.1,0.3c0.2,0.2,0.5,0.1,0.7-0.1
					c0.1-0.1,0.2-0.3,0.3-0.4c0.1-0.2,0.4-0.4,0.6-0.5c0.3-0.2,0.6-0.4,0.6-0.8C610.1,459.9,609.7,459.9,609.4,460.1z"/>
			</g>
		</g>
	</g>
	<path class="st34" d="M598.8,413.8c0,0,1.3-13.5,14.2-16.4C612.9,397.4,602.3,402.7,598.8,413.8z"/>
	<path class="st35" d="M575.6,413.3c0,0,11.7-6.8,21.5,2C597.2,415.3,586.8,409.7,575.6,413.3z"/>
</g>
</svg>
