<?xml version="1.0" encoding="utf-8"?>
<!-- Generator: Adobe Illustrator 26.0.1, SVG Export Plug-In . SVG Version: 6.00 Build 0)  -->
<svg version="1.1" id="Layer_1" xmlns="http://www.w3.org/2000/svg" xmlns:xlink="http://www.w3.org/1999/xlink" x="0px" y="0px"
	 viewBox="0 0 1190.6 841.9" style="enable-background:new 0 0 1190.6 841.9;" xml:space="preserve">
<style type="text/css">
	.st0{fill:#079247;}
	.st1{fill:#F2F2F2;}
	.st2{opacity:0.5;fill:#FFFFFF;}
	.st3{fill:#E6E7E7;}
	.st4{opacity:0.4;fill:#E6E7E7;}
	.st5{fill:#C88B2B;}
	.st6{fill:#FFE6B8;}
	.st7{fill:#EF4137;}
	.st8{fill:#2E9746;}
	.st9{fill:none;stroke:#333333;stroke-width:0.4393;stroke-linecap:round;stroke-linejoin:round;stroke-miterlimit:10;}
	.st10{fill:#016C45;}
</style>
<g>
	<g>
		
			<ellipse transform="matrix(0.7071 -0.7071 0.7071 0.7071 -123.3902 543.9057)" class="st0" cx="594.9" cy="420.9" rx="95.4" ry="95.4"/>
		
			<ellipse transform="matrix(0.7071 -0.7071 0.7071 0.7071 -123.3902 543.9057)" class="st1" cx="594.9" cy="420.9" rx="91.2" ry="91.2"/>
		<path class="st2" d="M592.5,328.5c52.7,0,95.4,42.7,95.4,95.4c0,22.1-7.5,42.4-20.1,58.5c14-16.6,22.5-38.1,22.5-61.5
			c0-52.7-42.7-95.4-95.4-95.4c-30.6,0-57.9,14.4-75.3,36.9C537,341.6,563.2,328.5,592.5,328.5z"/>
		
			<ellipse transform="matrix(0.7071 -0.7071 0.7071 0.7071 -123.3901 543.9057)" class="st3" cx="594.9" cy="420.9" rx="66.2" ry="66.2"/>
		<path class="st4" d="M600.6,482.8c-36.6,0-66.2-29.6-66.2-66.2c0-20.4,9.2-38.6,23.7-50.8c-17.7,11.9-29.4,32.1-29.4,55.1
			c0,36.6,29.6,66.2,66.2,66.2c16.2,0,31-5.8,42.5-15.4C626.8,478.7,614.2,482.8,600.6,482.8z"/>
	</g>
	<g>
		<g>
			<path class="st5" d="M679.6,442c0,0,2.2,11.1-8.4,13.7c-10.7,2.6-19.3,0-19.3,0s-45.9-0.6-62.3,0c-16.4,0.6-47.3,6.3-47.3,6.3
				L601,390l18.9-2.3L679.6,442z"/>
			<path class="st5" d="M585.2,372.9c-2.2,3.5-5.8,5.4-8.2,8c-2,4.5-3.4,10.9-6.6,14.6c-5.1,8.2-10.4,15.5-16.4,24
				c-7,8.7-10.7,18.6-16.5,28.1c-3.2,7.8-4.2,16.1-7.4,23.9c11.2-3.7,21.2-8.1,30.6-15.3c7.7-5.8,19.7-1.7,28.5-2.8
				c19.3-3.6,38.4,0.9,57-1.5c22.5-23,24.8-14.9,33.3-9.9c-0.6-4-1.4-8-2.3-12c-9.9-41.7-36.7-75-71.4-94.3
				c-5-2.8-11.2-0.5-13.2,4.8c-1.9,5.1,5.1,8.7,3.6,14.2C594.4,360.1,587,367.4,585.2,372.9z"/>
			<path class="st5" d="M585.2,372.9c-2.2,3.5-5.8,5.4-8.2,8c-2,4.5-3.4,10.9-6.6,14.6c-5.1,8.2-10.4,15.5-16.4,24
				c-7,8.7-10.7,18.6-16.5,28.1c-3.2,7.8-4.2,16.1-7.4,23.9c11.2-3.7,21.2-8.1,30.6-15.3c7.7-5.8,19.7-1.7,28.5-2.8
				c19.3-3.6,38.4,0.9,57-1.5c7.2-0.8,14.3-2.4,21.1-4.8c-0.6-4.7-1.5-9.4-2.6-14.2c-9.8-41.2-31.6-67.3-67.1-84.1
				c-1.6,4.4-9.1,2.7-10.4,7.4C585.6,361.7,587,367.4,585.2,372.9z"/>
			<path class="st6" d="M585.2,372.9c-2.2,3.5-7.6,4.3-10,6.9c-2,4.5-10,10.8-13.2,14.6c-5.1,8.2-2,16.7-8,25.2
				c-7,8.7-10.7,18.6-16.5,28.1c-3.2,7.8-4.2,16.1-7.4,23.9c11.2-3.7,21.2-8.1,30.6-15.3c7.7-5.8,19.7-1.7,28.5-2.8
				c19.3-3.6,38.4,0.9,57-1.5c3.3-0.4,6.6-0.9,9.8-1.6c-0.8-4.1-0.3-8.8-2.7-12.5c-14.7-21.5-21.7-49.5-34.2-70.1
				c-4.9-8.1-11.4-11.6-19.6-16.4c-3.5-2.1-11,1-12.2,4.9c-0.6,1.8,0.5-1.8,0,0C585.6,361.7,587,367.4,585.2,372.9z"/>
			<g>
				<path class="st7" d="M603,397.4c10.5,1.5,17.9,11.2,16.4,21.8c-1.5,10.5-11.2,17.9-21.8,16.4c-10.5-1.5-17.9-11.2-16.4-21.8
					C582.8,403.2,592.5,395.9,603,397.4z"/>
				<path class="st1" d="M587.6,420.1c0.4,0.1,0.7,0.4,0.7,0.9c-0.1,0.4-0.4,0.7-0.9,0.7c-0.4-0.1-0.7-0.4-0.7-0.9
					C586.8,420.3,587.2,420,587.6,420.1z"/>
				<path class="st1" d="M592.7,407c1.6,0.2,2.7,1.7,2.5,3.3c-0.2,1.6-1.7,2.7-3.3,2.5c-1.6-0.2-2.7-1.7-2.5-3.3
					C589.7,407.9,591.1,406.8,592.7,407z"/>
				<path class="st1" d="M599.1,407.9c1.4,0.2,2.4,1.5,2.2,2.9c-0.2,1.4-1.5,2.4-2.9,2.2c-1.4-0.2-2.4-1.5-2.2-2.9
					C596.4,408.7,597.7,407.7,599.1,407.9z"/>
				<path class="st1" d="M599.7,421.4c0.8,0.1,1.3,0.8,1.2,1.6c-0.1,0.8-0.8,1.3-1.6,1.2c-0.8-0.1-1.3-0.8-1.2-1.6
					C598.2,421.8,598.9,421.3,599.7,421.4z"/>
				<path class="st1" d="M594.2,425.9c1.1,0.2,1.9,1.2,1.7,2.3c-0.2,1.1-1.2,1.9-2.3,1.7c-1.1-0.2-1.9-1.2-1.7-2.3
					C592.1,426.5,593.1,425.7,594.2,425.9z"/>
				<path class="st1" d="M594.1,419.4c0.6,0.1,1.1,0.7,1,1.3c-0.1,0.6-0.7,1.1-1.3,1c-0.6-0.1-1.1-0.7-1-1.3
					C592.9,419.8,593.5,419.3,594.1,419.4z"/>
				<path class="st1" d="M608,421.4c1.6,0.2,2.7,1.7,2.5,3.3c-0.2,1.6-1.7,2.7-3.3,2.5c-1.6-0.2-2.7-1.7-2.5-3.3
					C605,422.3,606.4,421.2,608,421.4z"/>
				<path class="st1" d="M608,411.9c1.2,0.2,2,1.2,1.8,2.4c-0.2,1.2-1.2,2-2.4,1.8c-1.2-0.2-2-1.2-1.8-2.4
					C605.8,412.5,606.8,411.7,608,411.9z"/>
				<path class="st1" d="M615.1,414.4c1,0.1,1.7,1.1,1.6,2.1c-0.1,1-1.1,1.7-2.1,1.6c-1-0.1-1.7-1.1-1.6-2.1
					C613.2,415,614.1,414.3,615.1,414.4z"/>
				<path class="st1" d="M607.6,406c0.9,0.1,1.6,1,1.5,2c-0.1,0.9-1,1.6-2,1.5c-0.9-0.1-1.6-1-1.5-2
					C605.8,406.5,606.7,405.8,607.6,406z"/>
				<path class="st1" d="M602.5,401.6c0.9,0.1,1.5,1,1.4,1.8c-0.1,0.9-1,1.5-1.8,1.4c-0.9-0.1-1.5-1-1.4-1.8
					C600.8,402.1,601.6,401.4,602.5,401.6z"/>
				<path class="st1" d="M596.5,400.1c0.8,0.1,1.3,0.8,1.2,1.6c-0.1,0.8-0.8,1.3-1.6,1.2c-0.8-0.1-1.3-0.8-1.2-1.6
					C595,400.6,595.7,400,596.5,400.1z"/>
				<path class="st1" d="M587.3,412.6c1.2,0.2,2,1.2,1.8,2.4c-0.2,1.2-1.2,2-2.4,1.8c-1.2-0.2-2-1.2-1.8-2.4
					C585,413.3,586.1,412.5,587.3,412.6z"/>
				<path class="st8" d="M627.4,413.6c3-1.6,7.4,0.8,9.9,5.5c2.5,4.6,2.2,9.7-0.8,11.3c-3,1.6-7.4-0.8-9.9-5.5
					C624.1,420.3,624.4,415.2,627.4,413.6z"/>
				<path class="st8" d="M574,422.2c2.4,2.4,1.2,7.4-2.5,11.1c-3.8,3.7-8.7,4.8-11.1,2.4c-2.4-2.4-1.2-7.4,2.5-11.1
					C566.7,420.9,571.7,419.8,574,422.2z"/>
			</g>
		</g>
		<path class="st9" d="M677.8,436.7c-6.8-4.8-20.4-3.1-20.7,12.6"/>
		<path class="st9" d="M546.4,456.3c0,0,5.2-10.2,20.8-7.7s22-4.1,31.6-1.8c9.6,2.3,20.9-3.9,22.9-3.1"/>
		<path class="st9" d="M598.8,361.5c15.7,7.9,16,2.8,20.8,16.5c4.8,13.7,8.4,12.4,8.8,20.4"/>
		<path class="st9" d="M583,422.9c0,0,13,21.1,31.9,3.6"/>
		<path class="st9" d="M612.7,437.1c0,0,1.9,3.9,5.1,3.5c3.2-0.5,4.4,3.3,4.4,5.4c0,2.1,6.5,5.9,5.8,0c-0.8-5.9,6.1,0.8,7-5.4
			c0.9-6.2,8.2-0.2,6.7-7.1"/>
		<path class="st9" d="M581.2,381.8c0,0,2.1,4.4,5.6,3.8c3.5-0.5,4.9,3.6,4.9,6s7.2,6.5,6.4,0c-0.9-6.5,6.8,0.9,7.8-6
			c1-6.9,9.1-0.3,7.4-7.9"/>
		<path class="st9" d="M633.2,428.9c0,0,2.8-1.8,4.1-1.5"/>
		<path class="st9" d="M560.7,431.1c0,0,3.4,1.2,2.8,3.5"/>
		<polygon class="st10" points="571.5,399.5 570,398.4 566.9,399.8 569.3,401.3 		"/>
		<polygon class="st10" points="579.7,441.8 581.2,441.9 583,439.8 580.7,439.6 		"/>
		<polygon class="st10" points="584.4,397.7 585.4,396.6 584.6,393.9 583.1,395.7 		"/>
		<polygon class="st10" points="627,406.1 626.4,407.6 628.1,410.1 629,407.7 		"/>
		<polygon class="st10" points="598.9,377.1 597.2,377.2 595.7,379.8 598.2,379.7 		"/>
		<polygon class="st10" points="618.2,395.9 617.6,394.4 614.7,393.8 615.7,396.1 		"/>
		<polygon class="st10" points="639.5,443.2 640.4,444.4 643.1,444.3 641.8,442.5 		"/>
		<polygon class="st10" points="573.6,414.3 575.3,414.3 577.1,411.7 574.4,411.7 		"/>
		<polygon class="st10" points="623,434.6 623.3,436.2 625.9,437.3 625.5,435 		"/>
		<polygon class="st10" points="551.8,440.6 551.3,439 548.5,438.2 549.2,440.6 		"/>
		<polygon class="st10" points="565.5,418.3 564.6,417 561.6,417.1 563.1,419 		"/>
	</g>
</g>
</svg>
