<?xml version="1.0" encoding="utf-8"?>
<!-- Generator: Adobe Illustrator 26.0.1, SVG Export Plug-In . SVG Version: 6.00 Build 0)  -->
<svg version="1.1" id="Layer_1" xmlns="http://www.w3.org/2000/svg" xmlns:xlink="http://www.w3.org/1999/xlink" x="0px" y="0px"
	 viewBox="0 0 1190.6 841.9" style="enable-background:new 0 0 1190.6 841.9;" xml:space="preserve">
<style type="text/css">
	.st0{fill:#F4F4F4;}
	.st1{fill:#216EB7;}
	.st2{fill:#DBDADA;}
	.st3{fill:#EBEAEA;}
	.st4{opacity:0.6;fill:#AA6B29;}
	.st5{opacity:0.4;fill:#AA6B29;}
	.st6{opacity:0.4;fill:#FFFFFF;}
	.st7{opacity:0.4;}
	.st8{fill:#FFFFFF;}
	.st9{opacity:0.4;fill:#7B5020;}
	.st10{fill:#8E785B;}
	.st11{fill:#B7A68B;}
	.st12{fill:#9E8D71;}
	.st13{fill:#A78D6A;}
	.st14{fill:#D6C3A2;}
	.st15{fill:#6E2314;}
	.st16{opacity:0.5;fill:#5F2010;}
	.st17{fill:#4A1810;}
	.st18{opacity:0.5;}
	.st19{fill:#954721;}
	.st20{fill:#6F2A13;}
	.st21{opacity:0.5;fill:#6F2B13;}
	.st22{fill:#6F2B13;}
	.st23{fill:#6C2912;}
	.st24{opacity:0.5;fill:#6C2912;}
	.st25{fill:#010101;}
	.st26{fill:#1F4922;}
	.st27{fill:#4C8C40;}
	.st28{fill:#69B445;}
	.st29{fill:#ADD691;}
	.st30{fill:#D2A778;}
	.st31{fill:#7FA95F;}
	.st32{fill:#478C40;}
</style>
<g>
	<g>
		<circle class="st0" cx="594.9" cy="420.9" r="97.9"/>
		<path class="st1" d="M594.9,329.6c12.3,0,24.3,2.4,35.5,7.2c10.9,4.6,20.6,11.2,29,19.6c8.4,8.4,15,18.1,19.6,29
			c4.8,11.3,7.2,23.2,7.2,35.5c0,12.3-2.4,24.3-7.2,35.5c-4.6,10.9-11.2,20.6-19.6,29c-8.4,8.4-18.1,15-29,19.6
			c-11.3,4.8-23.2,7.2-35.5,7.2c-12.3,0-24.3-2.4-35.5-7.2c-10.9-4.6-20.6-11.2-29-19.6c-8.4-8.4-15-18.1-19.6-29
			c-4.8-11.2-7.2-23.2-7.2-35.5c0-12.3,2.4-24.3,7.2-35.5c4.6-10.9,11.2-20.6,19.6-29c8.4-8.4,18.1-15,29-19.6
			C570.6,332,582.5,329.6,594.9,329.6L594.9,329.6z M594.9,327.4c-51.7,0-93.5,41.9-93.5,93.5s41.9,93.5,93.5,93.5
			s93.5-41.9,93.5-93.5S646.5,327.4,594.9,327.4L594.9,327.4z"/>
		<path class="st1" d="M594.9,332.8c11.9,0,23.4,2.3,34.3,6.9c10.5,4.4,19.9,10.8,28,18.9c8.1,8.1,14.4,17.5,18.9,28
			c4.6,10.9,6.9,22.4,6.9,34.3c0,11.9-2.3,23.4-6.9,34.3c-4.4,10.5-10.8,19.9-18.9,28c-8.1,8.1-17.5,14.4-28,18.9
			c-10.9,4.6-22.4,6.9-34.3,6.9c-11.9,0-23.4-2.3-34.3-6.9c-10.5-4.4-19.9-10.8-28-18.9c-8.1-8.1-14.4-17.5-18.9-28
			c-4.6-10.9-6.9-22.4-6.9-34.3c0-11.9,2.3-23.4,6.9-34.3c4.4-10.5,10.8-19.9,18.9-28c8.1-8.1,17.5-14.4,28-18.9
			C571.4,335.1,583,332.8,594.9,332.8L594.9,332.8z M594.9,331.9c-49.2,0-89,39.8-89,89c0,49.1,39.8,89,89,89c49.1,0,89-39.8,89-89
			C683.9,371.7,644,331.9,594.9,331.9L594.9,331.9z"/>
		
			<ellipse transform="matrix(1.952522e-02 -0.9998 0.9998 1.952522e-02 162.4245 1007.4233)" class="st2" cx="594.9" cy="420.9" rx="67.3" ry="67.3"/>
		<path class="st0" d="M661,421.2c0,36.4-29.5,65.8-65.8,65.8c-36.4,0-65.8-29.5-65.8-65.8c0-36.4,29.5-65.8,65.8-65.8
			C631.5,355.4,661,384.9,661,421.2z"/>
	</g>
	<g>
		<g>
			<path class="st3" d="M668,424.9c-2.6-0.9-5.5,0.8-7.5,2.2c-2.7,1.9-5,4.2-7.2,6.7c-2.2,2.4-4.8,4.3-7.1,6.5
				c-0.9,0.8-2.1,2.3-3.5,3.3c-0.4,0-0.8-0.2-1.1-0.4c-1-0.9-0.2-3.7,0-4.8c0.4-1.8,1.1-3.6,0.5-5.4c-1.3-4.3-7.2,0-9.2,1.5
				c-1.8,1.3-3.6,4.1-6,4.2c-2.3,0.2-3.1-2.6-3.2-4.5c-0.1-3.1,1.5-5.9,2.6-8.7c1.8-4.6,3.8-9.3,6.6-13.3c1.1-1.6,2.4-3.1,2.9-5.1
				c0.7-2.8-0.9-5.5-3.8-6c-2.6-0.5-5.5,1.7-7.2,3.4c-1.9,1.8-3.3,4.1-4.5,6.5c-1.3,2.4-2.2,4.9-3.2,7.4c-0.5,1.2-1,2.3-1.5,3.4
				c-0.6,1.3-0.8,2.5-1.2,3.9c-0.3,1.1-1.2,2.2-2.4,2.4c-1.9,0.5-2-2.7-1.9-3.7c0.2-2.9,1.1-5.6,1.9-8.3c0.7-2.5,1.5-5,2.4-7.4
				c0.9-2.5,2.2-4.8,3.1-7.3c0.8-2,3.5-9.8-0.4-10.4c-4.1-0.6-7,4.9-9.1,7.5c-3.3,4.2-5.6,8.9-8,13.7c-0.6,1.1-1.1,2.2-1.8,3.2
				c-0.3,0.5-0.6,0.9-0.9,1.4c0-0.1-0.7,1-0.6,0.9c-0.6,0.8-1.3,1.6-2,2.4c-0.4,0.4-0.8,0.8-1.2,1.2c0.4-0.3,0-0.1-0.4,0.2
				c-0.2-0.1-0.3-0.1-0.3-0.1c0,0-0.1-0.1-0.2-0.3c-0.3-0.3-0.5-1.1-0.6-1.5c-0.6-2.4-0.2-4.8,0.5-7.2c0.7-2.3,1.6-4.3,1.8-6.7
				c0.1-1.3,0.8-3.3,0.1-4.6c-1-1.9-8,9.9-8.6,11c-3.4,6.2-6.5,12.6-11.6,17.6c-0.8,0.8-2.3,2.4-3.5,2.4c-2.3,0.2-2.9-3.2-3-4.8
				c-0.2-2.3,0.3-4.9,0.9-7.1c1.3-5.2,3.9-9.9,6-14.7c1.8-4.2,4.7-8,6.8-12.1c1.1-2.1,2.4-6.8-0.7-7.9c-1.7-0.6-3.7,0.6-5.1,1.5
				c-1.9,1.2-3.5,2.8-4.9,4.5c-3,3.6-5.2,8-7.2,12.3c-2.7,5.7-5,11.8-6.6,17.9c-0.6,2.2-0.5,4.6-1.1,6.8c-0.3,0.9-1.8,4-3,3.6
				c-1.6-0.5-0.4-4.6-0.2-5.7c0.4-2.2,1.2-4.3,2.2-6.3c0.6-1.1,4.9-6.8,3.6-8c-1.6-1.5-5.8,1.4-6.7,2.3c-3.1,3.1-5.7,8.7-8.2,12.2
				c-1.5,2.1-4.1,5.1-6.9,3.4c-2.8-1.8-3-6.4-2.2-9.2c1.5-4.7,6.1-7.5,9.9-10c2.7-1.8,9.6-5.3,9.9-9.2c0.3-3.9-5.9-1-7.5-0.2
				c-4.8,2.7-8.9,7.1-12,11.6c-2.9,4.1-5.5,9.2-5.1,14.4c0.3,3.7,2.7,8.2,7,7.4c5-0.9,8-7.3,10.4-11.1c1.5-2.5,3-5,4.9-7.3
				c0.8-1,2.6-3.6,4-3.7c2.9-0.3-1.6,6.2-2.2,7.2c-2.2,3.7-6.7,9.8-5.5,14.4c1,3.8,5.2,2.3,7.3,0.4c3.2-2.9,4.2-7.3,5.1-11.4
				c2.2-10.3,3.9-21,10.8-29.4c1.1-1.3,4.4-6,6.5-5c2.3,1.1-1,4.4-1.8,5.4c-2,2.7-3.6,5.7-5.1,8.7c-2.8,5.3-5.4,10.9-6.5,16.8
				c-0.8,4.3-2,12.3,2.8,14.9c4.3,2.3,8.3-2.9,10.6-5.8c3.2-3.9,5-8.8,7.4-13.2c0,0,0,0,0,0c-1.5,4.3-1.8,9.5,1.1,13.2
				c1.8,2.4,5.4,1.8,7.8,0.8c2.6-1,5-3.5,6.7-5.6c3.4-4.1,4.9-9.3,6.3-14.3c0.7-2.4,1.3-4.7,2.1-7.1c0.9-2.6,2-4.7,3.5-6.9
				c0.6-0.9,1.3-1.8,2.2-2.4c1.8-1.4,2.3,0.8,2.4,2.1c0.2,2.6-1.2,5.6-2.1,7.9c-2,4.9-3.6,9.8-5,15c-0.6,2.2-0.9,4.4-1.2,6.7
				c-0.2,1.7,0.3,3.4,1.8,4.3c2.8,1.7,6.1-1.6,7.8-3.5c2.6-2.8,4.7-6,6.4-9.3c0.5-1,0.7-2,1.2-2.9c0.6-1,1.9-1.8,2.1,0.1
				c0.1,1.2-0.5,2.4-0.8,3.6c-0.4,2-0.9,3.9-1.7,5.8c-1,2.5-1.7,5-2.4,7.5c-0.9,3.4-3.1,9.5,1.8,11.1c2.3,0.7,4.7-0.8,6.6-1.9
				c1.2-0.7,2.4-1.4,3.5-2.2c0.5-0.3,1.2-0.8,1.8-1.1c-0.1,0.3-0.2,0.6-0.2,0.9c-0.2,1-0.4,2-0.4,3c-0.1,1.8-0.1,3.6,0.9,5.1
				c2.1,3.2,6.2,1.5,8.8,0c6.6-3.9,10.8-11.3,17.6-15.2c0,0,0,0,0,0c1-0.5,0.7,2.2,1.2,2.6C668.5,435.9,673.5,426.7,668,424.9z"/>
			<path class="st3" d="M661.8,437.3c-1,0.8-1.8,1.9-2.1,3.2c-0.1,0.5,0.1,1.3,0.5,1.7c0.1,0.1,0.2,0.1,0.2,0.2
				c0.2,0.2,0.5,0.4,0.9,0.3c1.2-0.1,2.3-0.4,3.2-1.1l0.5-0.4c-0.4,0.3-0.3,0.3,0.3-0.2c0.4-0.4,0.7-0.8,0.9-1.4
				c0.3-1,0.2-1.9-0.5-2.6C664.4,435.9,662.9,436.4,661.8,437.3z"/>
			<path class="st3" d="M658.2,444.7c-0.1,0-0.2-0.1-0.4-0.1c-0.4,0-0.8,0.1-1.1,0.4c-0.2,0.2-0.4,0.4-0.6,0.6
				c-0.2,0.3-0.2,0.4-0.3,0.8c0,0.1,0,0.3,0,0.4c0,0.1,0.1,0.2,0.1,0.3c0.1,0.2,0.2,0.2,0.3,0.3c0.1,0.1,0.2,0.1,0.3,0.2
				c0.6,0.2,1.4,0,1.8-0.5c0.4-0.4,0.5-0.9,0.5-1.4c0-0.3-0.2-0.5-0.3-0.7C658.5,444.8,658.3,444.7,658.2,444.7z"/>
		</g>
		<g>
			<g>
				<path class="st4" d="M667.1,424.5c-2.6-0.9-5.5,0.8-7.5,2.2c-2.7,1.9-5,4.2-7.2,6.7c-2.2,2.4-4.8,4.3-7.1,6.5
					c-0.9,0.8-2.1,2.3-3.5,3.3c-0.4,0-0.8-0.2-1.1-0.4c-1-0.9-0.2-3.7,0-4.7c0.4-1.8,1.1-3.6,0.5-5.4c-1.3-4.3-7.2,0-9.2,1.5
					c-1.8,1.3-3.6,4.1-6,4.2c-2.3,0.2-3.1-2.6-3.2-4.5c-0.1-3.1,1.5-5.9,2.6-8.7c1.8-4.6,3.8-9.3,6.6-13.3c1.1-1.6,2.4-3.1,2.9-5.1
					c0.7-2.8-0.9-5.5-3.8-6c-2.6-0.5-5.5,1.7-7.2,3.4c-1.9,1.8-3.3,4.1-4.5,6.5c-1.3,2.4-2.2,4.9-3.2,7.4c-0.5,1.2-1,2.3-1.5,3.4
					c-0.6,1.3-0.8,2.5-1.2,3.9c-0.3,1.1-1.2,2.1-2.4,2.4c-1.9,0.5-2-2.7-1.9-3.7c0.2-2.9,1.1-5.6,1.9-8.3c0.7-2.5,1.5-5,2.4-7.4
					c0.9-2.5,2.2-4.8,3.1-7.3c0.8-2,3.5-9.8-0.4-10.4c-4.1-0.6-7,4.9-9.1,7.5c-3.3,4.2-5.6,8.9-8,13.7c-0.6,1.1-1.1,2.2-1.8,3.2
					c-0.3,0.5-0.6,0.9-0.9,1.4c0-0.1-0.7,1-0.6,0.9c-0.6,0.8-1.3,1.6-2,2.4c-0.4,0.4-0.8,0.8-1.2,1.2c0.4-0.3,0-0.1-0.4,0.2
					c-0.2-0.1-0.3-0.1-0.3-0.1c0,0-0.1-0.1-0.2-0.3c-0.3-0.3-0.5-1.1-0.6-1.5c-0.6-2.4-0.2-4.8,0.5-7.2c0.7-2.3,1.6-4.3,1.8-6.7
					c0.1-1.3,0.8-3.3,0.1-4.6c-1-1.9-8,9.9-8.6,11c-3.4,6.2-6.5,12.6-11.6,17.6c-0.8,0.8-2.3,2.3-3.5,2.4c-2.2,0.2-2.9-3.2-3-4.8
					c-0.2-2.3,0.3-4.9,0.9-7.1c1.3-5.2,3.9-9.9,6-14.7c1.8-4.2,4.7-8,6.8-12.1c1.1-2.1,2.4-6.8-0.7-7.9c-1.7-0.6-3.7,0.6-5.1,1.5
					c-1.9,1.2-3.5,2.8-4.9,4.5c-3,3.6-5.2,8-7.2,12.3c-2.7,5.7-5,11.8-6.6,17.9c-0.6,2.2-0.5,4.6-1.1,6.8c-0.3,0.9-1.8,4-3,3.6
					c-1.6-0.5-0.4-4.6-0.2-5.7c0.4-2.2,1.2-4.3,2.2-6.3c0.6-1.1,4.9-6.8,3.6-8c-1.6-1.5-6.5,3.3-7.4,4.1c-3.1,3.1-5,6.9-7.5,10.4
					c-1.5,2.1-4.1,5.1-6.9,3.4c-2.8-1.8-3-6.4-2.2-9.2c1.5-4.7,6.1-7.5,9.9-10c2.7-1.8,9.6-5.3,9.9-9.2c0.3-3.9-5.9-1-7.5-0.2
					c-4.8,2.7-8.9,7.1-12,11.6c-2.9,4.1-5.5,9.2-5.1,14.4c0.3,3.7,2.6,8.2,7,7.4c5-0.9,8-7.3,10.4-11.1c1.5-2.5,3-5,4.9-7.3
					c0.8-1,2.6-3.6,4-3.7c2.9-0.3-1.6,6.2-2.2,7.2c-2.2,3.7-6.7,9.8-5.5,14.4c1,3.8,5.2,2.3,7.3,0.4c3.2-2.9,4.2-7.3,5.1-11.4
					c2.2-10.3,3.9-21,10.8-29.4c1.1-1.3,4.4-6,6.5-5c2.3,1.1-1,4.4-1.8,5.4c-2,2.7-3.6,5.7-5.1,8.7c-2.8,5.3-5.4,10.9-6.5,16.8
					c-0.8,4.3-2,12.3,2.8,14.9c4.3,2.3,8.3-2.9,10.6-5.8c3.2-3.9,5-8.8,7.4-13.2c0,0,0,0,0,0c-1.5,4.3-1.8,9.5,1.1,13.2
					c1.8,2.4,5.4,1.8,7.8,0.8c2.6-1,5-3.5,6.7-5.6c3.4-4.1,4.9-9.3,6.3-14.3c0.7-2.4,1.3-4.7,2.1-7.1c0.9-2.6,2-4.7,3.5-6.9
					c0.6-0.9,1.3-1.8,2.2-2.4c1.8-1.4,2.3,0.8,2.4,2.1c0.2,2.6-1.2,5.6-2.1,7.9c-2,4.9-3.6,9.8-5,15c-0.6,2.2-0.9,4.4-1.2,6.7
					c-0.2,1.7,0.3,3.4,1.8,4.3c2.8,1.7,6.1-1.6,7.8-3.5c2.6-2.8,4.7-6,6.4-9.3c0.5-1,0.7-2,1.2-2.9c0.6-1,1.9-1.8,2.1,0.1
					c0.1,1.2-0.5,2.4-0.8,3.6c-0.4,2-0.9,3.9-1.7,5.8c-1,2.5-1.7,5-2.4,7.5c-0.9,3.4-3.1,9.5,1.8,11.1c2.3,0.7,4.7-0.8,6.6-1.9
					c1.2-0.7,2.4-1.4,3.5-2.2c0.5-0.3,1.2-0.8,1.8-1.1c-0.1,0.3-0.2,0.6-0.2,0.9c-0.2,1-0.4,2-0.4,3c-0.1,1.8-0.1,3.6,0.9,5.1
					c4.7,7.2,15.3-5.2,18.4-8.6c1.6-1.8,3.4-3.4,5.5-4.7c0.5-0.3,1.5-1.3,2.5-1.9c0,0,0,0,0,0c1-0.5,0.7,2.2,1.2,2.6
					C667.6,435.5,672.6,426.3,667.1,424.5z"/>
				<path class="st5" d="M664.6,436.6c-1.1-1.1-2.7-0.6-3.7,0.3c-1,0.8-1.8,1.9-2.1,3.2c-0.1,0.5,0.1,1.3,0.5,1.7
					c0.1,0.1,0.2,0.1,0.2,0.2c0.2,0.2,0.5,0.4,0.9,0.3c1.2-0.1,2.3-0.4,3.2-1.1l0.5-0.4c-0.4,0.3-0.3,0.3,0.3-0.2
					c0.4-0.4,0.7-0.8,0.9-1.4C665.5,438.2,665.3,437.3,664.6,436.6z"/>
				<path class="st5" d="M657.7,444.5c-0.1-0.1-0.2-0.2-0.4-0.2c-0.1,0-0.2-0.1-0.4-0.1c-0.4,0-0.8,0.1-1.1,0.4
					c-0.2,0.2-0.4,0.4-0.6,0.7c-0.2,0.3-0.2,0.4-0.3,0.8c0,0.1,0,0.3,0,0.4c0,0.1,0.1,0.2,0.1,0.3c0.1,0.2,0.2,0.2,0.3,0.3
					c0.1,0.1,0.2,0.1,0.3,0.2c0.7,0.2,1.4,0,1.8-0.5c0.4-0.4,0.5-0.9,0.5-1.4C658,444.9,657.8,444.7,657.7,444.5z"/>
			</g>
			<g>
				<path class="st6" d="M551.3,400.2c-3.4,1-6.5,1.9-9.3,4.3c-2.9,2.4-5.4,5.3-7.4,8.5c-0.2,0.3,0.1,0.4,0.3,0.2
					c1.1-1.1,2.1-2.4,3.2-3.6c1.2-1.3,2.6-2.5,4-3.7c2.8-2.4,6-3.8,9.2-5.5C551.4,400.3,551.4,400.1,551.3,400.2z"/>
				<path class="st6" d="M535,432.4c-1.8-0.2-2.7-0.8-3.8-2.1c-1.1-1.2-1.6-2.9-1.6-4.5c0-0.1-0.1,0-0.1,0c-0.3,3.3,1.6,7.5,5.4,7.1
					C535.1,432.9,535.3,432.5,535,432.4z"/>
				<path class="st6" d="M553.6,432.8c-1.1,0.8-3.2,1.7-4.5,0.7c-0.1,0-0.1,0-0.1,0.1c0.4,0.9,1.3,1.3,2.3,1.1
					c1.1-0.2,1.8-0.8,2.6-1.6C554.1,433,553.9,432.7,553.6,432.8z"/>
				<path class="st6" d="M591.7,421.7c-5.8-0.3,0.7-15.2,0.9-18.1c0-0.1-0.1,0-0.1,0c-0.5,2.3-1.8,4.4-2.6,6.6
					c-0.6,1.8-1.3,3.7-1.6,5.6c-0.3,2.1-0.1,7.2,3.4,6.3C591.7,422,591.9,421.7,591.7,421.7z"/>
				<path class="st6" d="M599.8,421.4c-1,1.8-2.8,2.8-4.3,4.1c-0.3,0.2-0.2,0.7,0.2,0.4c1.8-1.1,3.5-2.4,4.2-4.5
					C600,421.3,599.8,421.3,599.8,421.4z"/>
				<path class="st6" d="M632,401.8c-2.6-1-4.8,0.4-6.8,2c-0.1,0.1-0.1,0.3,0.1,0.2c1.4-0.8,3-1.5,4.6-1.4c1.8,0.1,3,2.7,2.8,4.3
					c0,0.2,0.3,0.2,0.3,0C633.9,405.5,633.9,402.6,632,401.8z"/>
				<path class="st6" d="M631.5,409.4c-0.2,0.3-0.4,0.5-0.6,0.8c-0.1,0.2-0.1,0.4,0.1,0.4c0.2,0,0.4-0.2,0.4-0.4
					c0-0.3,0.1-0.5,0.1-0.8C631.6,409.3,631.5,409.4,631.5,409.4z"/>
				<path class="st6" d="M643.4,444.2c-2,0.7-4.2,1.6-5.6-0.5c-1.1-1.6-0.8-4-0.9-5.8c0-0.1-0.1,0-0.1,0c-0.4,2.5-1.2,5,0.6,7.2
					c1.6,2,4.6,0.8,6.2-0.4C643.8,444.5,643.8,444,643.4,444.2z"/>
				<g class="st7">
					<path class="st8" d="M663.4,438.6C663.4,438.6,663.4,438.6,663.4,438.6C663.4,438.6,663.4,438.6,663.4,438.6z"/>
					<path class="st8" d="M663.6,437.3c-0.1-0.3-0.4-0.6-0.8-0.6c-0.7,0-1.2,0.5-1.7,1c-0.4,0.4-1.1,1.3-0.7,1.9c0,0,0,0,0,0
						c0,0.2,0.1,0.4,0.3,0.6c0.4,0.5,1.2,0.1,1.6-0.2c0.2-0.2,0.5-0.4,0.6-0.6c0.1-0.1,0.2-0.2,0.3-0.4c0,0,0-0.1,0.1-0.1
						c-0.2,0.3,0.2-0.2,0.2-0.2C663.6,438.2,663.8,437.7,663.6,437.3z"/>
				</g>
				<path class="st6" d="M656.4,444.6c-0.2,0-0.3,0.1-0.4,0.3c-0.1,0.1-0.1,0.4,0,0.5c0,0,0,0,0,0c0,0,0,0,0,0
					c0.2,0.2,0.5-0.1,0.6-0.3C656.9,444.9,656.8,444.5,656.4,444.6z"/>
				<path class="st6" d="M666.8,427.9c-0.3-0.4-0.9-0.3-1.3-0.1c-0.6,0.3-0.9,0.9-1.1,1.5c-0.1,0.3,0,0.7,0.2,0.8
					c0.1,0.1,0.2,0.2,0.3,0.2c0.2,0.2,0.5,0.2,0.8,0.1c0.5-0.2,0.8-0.6,1-1C667,429,667.2,428.3,666.8,427.9z"/>
			</g>
		</g>
		<g>
			<path class="st9" d="M543.4,407c-0.5,0-0.9,0.9-0.3,0.9C543.6,407.9,544,407,543.4,407z"/>
			<path class="st9" d="M547.3,404.5c-0.3,0-0.7,0.7-0.2,0.7C547.4,405.1,547.7,404.5,547.3,404.5z"/>
			<path class="st9" d="M534.8,413.9c-0.2,0-0.4,0.4-0.1,0.4C534.9,414.3,535,413.9,534.8,413.9z"/>
			<path class="st9" d="M532.3,419.9c-0.1-0.1-0.3,0-0.3,0.1c0,0,0,0.1-0.1,0.1c-0.1,0.2,0.1,0.3,0.2,0.2c0,0,0.1,0,0.1-0.1
				C532.3,420.2,532.4,420,532.3,419.9z"/>
			<path class="st9" d="M539.4,431.1c-0.3-0.3-0.7,0.2-0.8,0.4c0,0,0,0,0,0.1c0,0.2,0.1,0.3,0.3,0.3l0.1,0
				C539.3,431.8,539.7,431.4,539.4,431.1z"/>
			<path class="st9" d="M536.3,432.1c-0.1,0-0.3,0.3-0.1,0.3C536.3,432.4,536.4,432.1,536.3,432.1z"/>
			<path class="st9" d="M555.1,431.3c-0.2,0-0.4,0.4-0.2,0.4C555.2,431.8,555.4,431.3,555.1,431.3z"/>
			<path class="st9" d="M556.8,425c-0.1,0-0.3,0.2-0.3,0.3c-0.1,0.2,0.1,0.4,0.3,0.3c0.2-0.1,0.3-0.3,0.3-0.5
				C557.1,424.9,556.9,424.9,556.8,425z"/>
			<path class="st9" d="M579.8,391.2C579.8,391.2,579.8,391.2,579.8,391.2c0.1,0.1,0.3,0,0.3-0.1c0,0,0,0,0,0c0,0,0,0,0,0
				C580.6,390.6,579.3,390.9,579.8,391.2z"/>
			<path class="st9" d="M579.4,387.1c-0.1,0-0.2,0-0.3,0.1c0,0,0,0,0,0c-0.1,0-0.1,0.1-0.1,0.2c0,0,0,0,0,0c0.1,0.2,0.4,0,0.4-0.1
				C579.5,387.2,579.5,387.1,579.4,387.1z"/>
			<path class="st9" d="M570.2,432.3c-0.4,0-0.7,0.7-0.3,0.7C570.4,433.1,570.7,432.3,570.2,432.3z"/>
			<path class="st9" d="M566.3,432.3c-0.3,0-0.5,0.5-0.2,0.5C566.4,432.8,566.6,432.3,566.3,432.3z"/>
			<path class="st9" d="M599.7,418.8c-0.1-0.1-0.3,0-0.5,0.1c0,0-0.1,0.1-0.1,0.1c-0.1,0.1-0.2,0.3-0.1,0.5c0.1,0.1,0.3,0,0.5-0.1
				c0,0,0.1-0.1,0.1-0.1C599.7,419.2,599.8,418.9,599.7,418.8z"/>
			<path class="st9" d="M593,425.6c-0.3,0-0.7,0.7-0.2,0.7C593.1,426.3,593.4,425.6,593,425.6z"/>
			<path class="st9" d="M587.5,424.4c-0.2,0-0.5,0.5-0.2,0.5C587.6,424.9,587.9,424.4,587.5,424.4z"/>
			<path class="st9" d="M587.6,421.8c-0.2,0-0.4,0.4-0.2,0.4C587.7,422.2,587.9,421.8,587.6,421.8z"/>
			<path class="st9" d="M588.5,428.3C588.5,428.3,588.4,428.3,588.5,428.3c-0.1-0.1-0.2,0-0.2,0c0,0,0,0,0,0
				c-0.1,0.1-0.1,0.4,0.1,0.4C588.5,428.7,588.7,428.4,588.5,428.3z"/>
			<path class="st9" d="M609.3,396.9c-0.2,0-0.4,0.4-0.1,0.4C609.4,397.2,609.6,396.9,609.3,396.9z"/>
			<path class="st9" d="M607.4,400.5c-0.1-0.2-0.5,0-0.5,0.3c0,0.1,0.1,0.2,0.2,0.2C607.4,401.1,607.6,400.6,607.4,400.5z"/>
			<path class="st9" d="M619,421C619,420.9,619,420.9,619,421C619,420.9,619,420.9,619,421c0-0.1-0.1-0.1-0.1-0.2c0,0,0,0,0,0
				c-0.2-0.1-0.4-0.2-0.3,0.3l0,0c0,0,0,0,0,0c0,0,0,0,0,0c0,0.1,0.1,0.1,0.1,0.1c0,0,0,0,0,0c0,0,0,0,0,0
				C619.2,421.4,619.2,421.1,619,421z"/>
			<path class="st9" d="M616,420.8c-0.3,0-0.7,0.7-0.2,0.7C616.1,421.4,616.4,420.8,616,420.8z"/>
			<path class="st9" d="M626.5,408.2c-0.2,0-0.5,0.5-0.2,0.5C626.6,408.7,626.8,408.2,626.5,408.2z"/>
			<path class="st9" d="M629.8,405.6c-0.3,0-0.6,0.6-0.2,0.6C629.8,406.2,630.1,405.6,629.8,405.6z"/>
			<path class="st9" d="M628.8,413.8c-0.3,0-0.5,0.5-0.2,0.5C628.9,414.3,629.1,413.8,628.8,413.8z"/>
			<path class="st9" d="M630,438.3c-0.3,0-0.6,0.5-0.3,0.6c0.1,0.3,0.6,0,0.6-0.3C630.3,438.4,630.2,438.3,630,438.3z"/>
			<path class="st9" d="M626.4,439c-0.1-0.1-0.3,0-0.4,0.1c0,0-0.1,0.1-0.1,0.1c-0.1,0.1-0.2,0.3,0,0.4c0.1,0.1,0.3,0,0.4-0.1
				c0,0,0.1-0.1,0.1-0.1C626.4,439.3,626.5,439.1,626.4,439z"/>
			<path class="st9" d="M638.7,439c-0.3,0-0.6,0.6-0.2,0.6C638.8,439.6,639.1,439,638.7,439z"/>
			<path class="st9" d="M640.7,443.8c-0.1,0-0.3,0.3-0.1,0.3C640.7,444.1,640.9,443.8,640.7,443.8z"/>
			<path class="st9" d="M652.5,436c-0.3,0-0.5,0.5-0.2,0.5C652.6,436.5,652.8,436,652.5,436z"/>
			<path class="st9" d="M648.9,439.1c-0.2,0-0.4,0.4-0.2,0.4C649,439.5,649.2,439.1,648.9,439.1z"/>
			<path class="st9" d="M658.9,430.3c-0.3,0-0.6,0.6-0.2,0.6C658.9,430.9,659.3,430.3,658.9,430.3z"/>
			<path class="st9" d="M662.4,426.3L662.4,426.3c0,0.3,0.2,0.2,0.2,0v-0.1C662.6,426.1,662.4,426.1,662.4,426.3z"/>
			<path class="st9" d="M661.6,440.9C661.6,441,661.6,441,661.6,440.9c0.1,0.3,0.3,0.1,0.4,0l0-0.1
				C662.1,440.4,661.5,440.6,661.6,440.9z"/>
			<path class="st9" d="M664.3,438.9c-0.1,0-0.1,0.1-0.1,0.1C664.4,439,664.4,438.9,664.3,438.9z"/>
			<path class="st9" d="M656.8,445.2c-0.3,0-0.6,0.6-0.2,0.6C656.9,445.8,657.2,445.2,656.8,445.2z"/>
			<path class="st9" d="M559.3,416.8C559.3,416.7,559.3,416.7,559.3,416.8c-0.1-0.1-0.2,0-0.3,0c0,0,0,0.1-0.1,0.1
				c-0.1,0.1,0,0.3,0.1,0.3C559.3,417.1,559.4,416.9,559.3,416.8z"/>
			<path class="st9" d="M560.4,410.1c-0.3,0-0.5,0.5-0.2,0.5C560.5,410.6,560.7,410.1,560.4,410.1z"/>
			<path class="st9" d="M546.3,421.1L546.3,421.1c-0.1-0.3-0.4-0.1-0.4,0.1c0,0.1,0,0.2,0.1,0.2c0.1,0,0.2,0,0.3-0.1
				c0,0,0,0,0.1-0.1C546.3,421.2,546.4,421.1,546.3,421.1z"/>
			<path class="st9" d="M532.4,428.9c-0.3,0-0.5,0.5-0.2,0.5C532.5,429.4,532.7,428.9,532.4,428.9z"/>
			<path class="st9" d="M530.8,426.2c-0.4,0-0.7,0.7-0.3,0.7C530.9,427,531.3,426.2,530.8,426.2z"/>
		</g>
	</g>
	<g>
		<g>
			<path class="st10" d="M598.5,400.7c-1.8-1.7-3.6-7.5-3.8-21.3c-0.1-11.6,4.5-21.8,7.9-27.7c-9.8,14.4-9.9,28.8-9,35.2
				c1,7.5,1.7,12.4,2.6,15.2c0.9,2.8,1.4,2.3,4.4,5.5c1.3,1.5,1.8,2.7,2,3.7c0.8-0.7,1.4-1.4,1.8-2.3
				C602.1,404.4,600.4,402.4,598.5,400.7z"/>
			<path class="st11" d="M596.1,402.1c-0.9-2.8-1.6-7.7-2.6-15.2c-0.9-6.4-0.8-20.9,9-35.2c1.6-2.8,3-4.6,3.5-5.3
				c1.6-2-3.1-4.3-6.5-2.3c-3.4,2-9.5,9.1-15.5,29.7c-6,27.2,6.8,41.5,6.8,41.5c2.7-0.2,8.4-1.1,11.7-4c-0.2-1-0.7-2.2-2-3.7
				C597.5,404.4,597,405,596.1,402.1z"/>
		</g>
		<path class="st12" d="M594.7,377.3c-4.3,3-8.4,6.4-12.3,10c-0.1,7.2,1.2,13.1,2.8,17.6c1.6-4.9,2.4-7.3,5.5-12
			c1.2-1.8,2.8-3.5,4.4-4.8c-0.2-2.5-0.4-5.3-0.4-8.7C594.7,378.7,594.7,378,594.7,377.3z"/>
		<g>
			<g>
				<path class="st13" d="M572.4,409.1c-1.1-2.3-1.8-6.1,0.4-12.2c1.4-3.8,2.3-5.3,3-7.1c-5.7,8.5-7.8,17.2-6.4,24.6
					c0.4,0.5,1.1,1.1,2.1,1.6C572.2,413.9,573.1,410.6,572.4,409.1z"/>
				<path class="st14" d="M637,356.6c-0.9-2.1-1.5-1.8-4.7-1.1c-3.1,0.8-30,6.8-47.3,23.7c-3.7,3.4-6.8,6.9-9.2,10.5
					c-0.7,1.8-1.6,3.3-3,7.1c-2.3,6.1-1.6,10-0.4,12.2c0.8,1.5-0.2,4.8-0.9,6.9c3.5,1.9,10.1,3.7,15.8,4.5c-0.4-1.2-1.2-2.8-3-3.9
					c-3-1.8-1.8-1.8-1.6-3.7c0.3-1.8-1-2.8-2.1-6.1c-1.1-3.3,0.7-5.3,1.4-7.1c0.7-1.8,1.3-2.1,2-2.8c0.7-0.7,0.7-1.3,2.3-4.3
					c1.6-3,5.8-7.1,10.2-11.1c4.1-3.7,12.6-10.1,18-10c7.2-3.9,13.9-6.5,19.5-8.5C637.9,361.7,637.9,359.1,637,356.6z"/>
				<path class="st13" d="M596.5,381.4c-4.4,4-8.7,8.1-10.2,11.1c-1.6,3-1.6,3.6-2.3,4.3c-0.7,0.7-1.3,1-2,2.8
					c-0.7,1.8-2.6,3.8-1.4,7.1c1.1,3.3,2.4,4.3,2.1,6.1c-0.3,1.8-1.4,1.8,1.6,3.7c1.8,1.1,2.6,2.8,3,3.9c3.9,0.5,7.4,0.5,9.1-0.2
					c0,0-11.1-1.9-11.7-12.9c-0.3-5.4,3.7-18.4,22.6-31.6c2.5-1.6,4.9-3.1,7.3-4.4C609.1,371.3,600.7,377.6,596.5,381.4z"/>
			</g>
			<path class="st13" d="M581.7,391.4c-0.6,0.3-1.2,0.6-1.7,0.9c0-0.5,0-1.1,0-1.6c0.5-0.3,1-0.6,1.5-0.9c0.1,0,0.2-0.3,0-0.2
				c-0.5,0.2-1,0.5-1.5,0.8c0-0.7,0.1-1.4,0.1-2.1c0-0.1-0.2,0-0.2,0.1c-0.1,0.7-0.1,1.4-0.2,2.2c-0.2,0.2-0.5,0.3-0.7,0.5
				c0.1-0.8,0.2-1.5,0.3-2.3c0-0.1-0.2,0-0.2,0.1c-0.1,0.8-0.3,1.6-0.4,2.4c-0.4,0.3-0.7,0.6-1,0.9c-0.1,0.1,0,0.2,0.1,0.1
				c0.3-0.3,0.6-0.5,0.9-0.7c-0.1,0.6-0.1,1.2-0.1,1.7c-0.3,0.3-0.7,0.5-1,0.8c-0.1,0.1-0.1,0.3,0.1,0.2c0.3-0.2,0.6-0.5,0.9-0.7
				c0,0.8,0,1.6,0.2,2.4c0,0.1,0.2,0,0.2-0.1c-0.1-0.8-0.1-1.7-0.1-2.5c0.3-0.2,0.6-0.4,0.8-0.5c0,0.6,0,1.2,0.1,1.8
				c0,0.1,0.2,0,0.2-0.1c0-0.6,0-1.2-0.1-1.8c0.6-0.3,1.1-0.7,1.7-1C581.7,391.5,581.8,391.3,581.7,391.4z M578.9,393
				c0-0.6,0-1.1,0.1-1.7c0.2-0.2,0.5-0.3,0.7-0.5c0,0.5,0,1.1,0,1.6C579.4,392.6,579.1,392.8,578.9,393z"/>
			<path class="st14" d="M580.5,416.4c-2.2,0-4.5-1.5-6.5-2.2c-1.8-0.6-3-1.2-4.8-1.3c0.1,0.5,0.1,1,0.2,1.5
				c0.4,0.5,1.1,1.1,2.1,1.6c3.5,1.9,10.1,3.7,15.8,4.5c3.9,0.5,7.4,0.5,9.1-0.2c0,0-3.4-0.6-6.5-2.9
				C586.8,417.9,584.2,416.4,580.5,416.4z"/>
			<path class="st13" d="M600.1,375.3c-0.1,0.1-0.3,0.2-0.4,0.2c0-0.5,0-0.9,0-1.4c0.1-0.1,0.2-0.1,0.4-0.2c0.1,0,0.2-0.3,0-0.2
				c-0.1,0.1-0.3,0.1-0.4,0.2c0-0.3,0.1-0.6,0.1-0.9c0-0.2-0.2,0-0.2,0.1c-0.1,0.3-0.1,0.6-0.1,0.9c-0.1,0.1-0.2,0.1-0.4,0.2
				c0-0.5,0-0.9,0.1-1.4c0-0.1-0.2,0-0.2,0.1c0,0.5-0.1,0.9-0.1,1.4c-0.3,0.2-0.5,0.3-0.8,0.5c-0.1,0.1-0.1,0.3,0,0.2
				c0.2-0.1,0.5-0.3,0.8-0.4c0,0.6-0.1,1.1-0.1,1.7c-0.1,0.1-0.3,0.2-0.4,0.2c-0.1,0-0.2,0.2-0.1,0.2c0.2,0,0.4-0.1,0.5-0.2
				c0,0.6-0.1,1.2,0,1.8c0,0.2,0.3,0,0.3-0.2c0-0.6,0-1.2,0-1.8c0.1-0.1,0.3-0.2,0.4-0.3c0,0.3,0,0.6,0.1,0.9c0,0.1,0.2,0,0.2-0.1
				c0-0.3,0-0.6,0-1c0.1-0.1,0.3-0.2,0.4-0.3C600.2,375.4,600.2,375.2,600.1,375.3z M599.3,375.8c-0.1,0.1-0.2,0.1-0.2,0.2
				c0-0.5,0.1-1,0.1-1.6c0.1-0.1,0.2-0.1,0.3-0.2c0,0.5-0.1,1-0.1,1.5C599.4,375.7,599.3,375.8,599.3,375.8z"/>
			<path class="st14" d="M596.9,371.2c-3.1,1.8-6.2,4-8.9,6.4c-1.3,1.1-2.6,2.3-3.8,3.5c-1.4,1.4-2.6,3-4.2,4.3c0,0,0,0.1,0,0.1
				c2.7-1.8,5-4.4,7.4-6.5c2.9-2.6,6.2-4.8,9.4-7C597.2,371.7,597.5,370.9,596.9,371.2z"/>
			<path class="st14" d="M632.3,355.6c-2.6,0.5-5.1,1.5-7.7,2.2c-2.8,0.8-5.4,2-8.2,3.1c-2.7,1.1-5.3,2.2-7.9,3.5
				c-1.2,0.7-2.5,1.2-3.7,2c-0.6,0.4-1.2,0.7-1.8,1.1c-0.6,0.4-1.2,1-1.8,1.2c-0.1,0-0.4,0.4-0.1,0.4c0.7,0,1.4-0.4,2-0.7
				c1.5-0.7,2.9-1.4,4.4-2.2c2.7-1.3,5.3-2.5,8.1-3.5c2.7-1,5.3-2.2,8.1-2.9c2.8-0.8,5.7-1.2,8.2-2.7
				C632.3,356.9,633.2,355.5,632.3,355.6z"/>
		</g>
		<path class="st12" d="M599.7,410.4c-1.6,1-3.4,1.6-5.2,1.9c-1.7,0.3-3.5,0.3-4.8,1.5c0.7,1,1.2,1.5,1.2,1.5
			c2.7-0.2,8.4-1.1,11.7-4c0.8-0.7,1.4-1.4,1.8-2.3c-0.4-0.8-0.7-1.4-1.1-2.1C602.3,408.3,601.1,409.4,599.7,410.4z"/>
		<path class="st15" d="M625.1,460.7c1.6-1.8,4.5-3.5,7-3.9c2.5-0.4,4.4-0.4,5.7-2.5c0.4-0.8,1-1.7,1.5-2.6c0.5-2.4,0.8-5.2,1-8.5
			c0.6-8.2,1.7-10.8-2-14.1c-3.7-3-9.6-7.9-11.5-10.4c-1.9-2.6-4.4-9.8-5.6-11.3c-1.1-1.6-3.6-2.5-6.2-1.2c-2.6,1.3-6.7,1.3-8.7,1.5
			c-2.1,0.2-3.6,1-4.3,1.8c-0.7,0.8-1.3,1.9-2.7,2.3c-1.4,0.3-4.8,1.6-7.6,2c-2.8,0.3-2.9,6.2-2.9,6.2c11.5,0.3,14.2,20.3,19.7,27.8
			c3.7,5,5.9,14.1,6.9,19.7c0.9-0.8,2.3-1.8,4.1-2.4C622.7,463.9,623.5,462.5,625.1,460.7z"/>
		<path class="st16" d="M620.2,457.1c-0.6-3.1-2.9-5.6-4.8-8c-3.8-4.8-8.7-8.9-10.1-15.1c-1.1-4.8-0.4-11.4-5.6-13.8
			c-3.4-1.6-7.2-1.4-10.8-2.5c-0.2,1.2-0.3,2.3-0.3,2.3c11.5,0.3,14.2,20.3,19.7,27.8c3.7,5,5.9,14.1,6.9,19.7
			c0.9-0.8,2.3-1.8,4.1-2.4c0.1,0,0.1,0,0.2-0.1C620,462.4,620.8,459.7,620.2,457.1z"/>
		<path class="st17" d="M637.8,454.3c-1.3,2.1-3.2,2.1-5.7,2.5c-2.5,0.4-5.4,2.1-7,3.9s-2.4,3.2-5.7,4.3c-1.7,0.6-3.1,1.6-4.1,2.4
			c0.5,2.8,0.8,4.7,0.8,4.7s2.1-1.3,3.8-1.8c1.7-0.5,1.6-0.4,2.4-1.3c0.8-0.9,1.4-2.6,2.7-3.6c1.3-1.1,4.1-1.9,6.1-2.6
			c2-0.7,3.4-1.5,4.7-2.8c1.6-2.3,2.7-4.9,3.4-8.1C638.8,452.6,638.2,453.5,637.8,454.3z"/>
		<g class="st18">
			<path class="st17" d="M620.6,464.6c-0.2,1.7-0.4,3.8-0.4,5.6c1.4-0.4,1.4-0.4,2.1-1.2c0.4-0.5,0.8-1.2,1.3-2
				c0-1.6,0.1-3.3,0.1-4.7C622.9,463.1,622.1,463.9,620.6,464.6z"/>
			<path class="st17" d="M632.1,456.8c-0.6,0.1-1.2,0.3-1.8,0.5c-0.1,1.4-0.2,3.6-0.5,5.8c0.5-0.2,0.9-0.3,1.3-0.5
				c1.1-0.4,2-0.8,2.9-1.3c0.1-1.7,0.1-3.5,0.2-4.8C633.6,456.6,632.9,456.6,632.1,456.8z"/>
		</g>
		<path class="st19" d="M574.9,469c3.3,0.6,3.3,1.1,3.8,2.5c0.5,1.5,0.5,2.4,1.4,1.8c0.6-0.3,0.9,0.1,2.3,1
			c1.4,0.9,6.4,2.3,11.2-0.3c4.8-2.7,8.6-4.8,11.3-3.5c-0.1-2.1,0.5-2.3,1.9-2.5c1.5-0.2,4.6-2.1,4.5-3.2c-0.1-1.1,0.4-2.3,1.1-4.3
			c0.7-1.9,0.9-3.4,1.2-5.6c0.3-2.2-1.4-3.6-2.3-5.4c-0.9-1.8-2.8-4.9-4.9-7.7c-2.1-2.8-3.6-4.5-3.8-8.1c-0.1-2.4-0.1-3.9-0.2-5.7
			c-0.5-2.9-0.8-5.2-2-6.8c-1.7-2.3-3.8-1.2-6.3-1.6s-7.5-2.2-9.8-1.8c-2.4,0.4-7.6-0.9-13.2-4.1c0,0-2.9-1.2-3.4,0.9
			c-0.4,2.1-0.7,2.9-2.5,5.1c-1.8,2.2-1.3,2.3-0.3,5.2c0.1,0.9,0,1.6-0.3,2.8c-0.3,1.1-2,4.1-3.3,6.7c-1.3,2.6-1.3,4.4,0.9,6.6
			c2.2,2.2,2.8,2.9,3.6,5.2c0.8,2.3,2.2,8.8,3,13.7c0.1,0.9,0.2,1.7,0.4,2.4C569.6,463.4,571.5,468.1,574.9,469z"/>
		<path class="st20" d="M618.4,456.2c-2-2.7-4.7-8-8.1-11.2c-3.3-3.2-4.8-6.3-6.6-11.8c-0.6-1.9-1-3.6-1.3-5.2
			c0.1,1.8,0,3.3,0.2,5.7c0.2,3.6,1.6,5.3,3.8,8.1c2.1,2.8,4,5.9,4.9,7.7c0.9,1.8,2.7,3.2,2.3,5.4c-0.3,2.2-0.5,3.7-1.2,5.6
			c-0.7,1.9-1.3,3.2-1.1,4.3c0.1,1.1-3,3-4.5,3.2c-1.5,0.2-2.1,0.5-1.9,2.5c-2.7-1.3-6.5,0.8-11.3,3.5c-4.8,2.7-9.8,1.2-11.2,0.3
			c-1.4-0.9-1.7-1.3-2.3-1c-0.9,0.6-0.9-0.3-1.4-1.8c-0.5-1.5-0.5-1.9-3.8-2.5c-3.4-0.9-5.3-5.5-5.8-6.8c0.5,3.3,0.9,5.2,3.5,8.4
			c3.1,4,3.4,3.1,5.3,7c1.9,3.9,1.1,4.7,6.1,4.9c4.9,0.2,8.9-0.8,12.2-0.5c3.3,0.3,7.1,1.4,10.1-0.7c3-2.1,4.5-4.1,7.3-5.3
			c2.7-1.2,3.8-1.6,3.5-3.3c-0.3-1.8-0.7-5.7,0.3-8.9C618.5,460.7,620.4,459,618.4,456.2z"/>
		<path class="st21" d="M601.7,473.3c0,0-0.1,1.5,0.6,2.9c0.7,1.5,1.3,3.2,1.7,2.9c0.4-0.3,0.2-1.5-0.8-3.7
			C602.4,473.1,601.8,471.8,601.7,473.3z"/>
		<g class="st18">
			<path class="st22" d="M579.4,473.4c-0.3-0.2-0.4-1-0.7-1.9c-0.4-1.1-0.5-1.6-1.8-2.1c0.5,2.6,1.3,7,1.9,10.4
				c0.7,1.6,1.1,2.2,2.9,2.6l-2.4-8.8C579.4,473.6,579.4,473.5,579.4,473.4z"/>
			<path class="st22" d="M596.4,481.3c0.5,0.2-1.3-5-2.2-7.6c-0.2,0.1-0.3,0.2-0.5,0.3c0,0-0.1,0-0.1,0.1
				C594.3,476.4,595.9,481.1,596.4,481.3z"/>
			<path class="st22" d="M585,477.2c-0.3,0.2,0.7,3.7,1.2,5.3c0.3,0,0.6,0,0.8,0C586.3,480.2,585.4,477.1,585,477.2z"/>
			<path class="st22" d="M598.3,478.3c0.5,0.1-0.7-3.8-1.3-6.1c-0.3,0.2-0.7,0.3-1,0.5C596.5,474.5,597.7,478.1,598.3,478.3z"/>
			<path class="st22" d="M617.3,464.4c-1.2-2.7-1.2-3.8-2.3-7.7c-0.3-1.1-0.8-2.1-1.3-2.8c0,0.3,0,0.6,0,1c-0.2,1.2-0.3,2.2-0.5,3.1
				l3.7,8.6C616.9,465.9,617.1,465.1,617.3,464.4z"/>
			<path class="st22" d="M588.3,478.6c-0.3,0.2,0.7,2.5,1.3,3.8c0.2,0,0.5,0,0.7-0.1C589.8,481.1,588.6,478.3,588.3,478.6z"/>
			<path class="st22" d="M606.9,468c-1.3,0.2-1.9,0.4-2,2l3.1,10.1c1.5-1.2,2.7-2.3,4.1-3.2l-3-9.9
				C608.3,467.5,607.5,467.9,606.9,468z"/>
		</g>
		<path class="st23" d="M584.8,429.4c-0.8-1-2.6-1.9-3.9-2c-1.6-0.2-5.3,0.2-3.8-2.7c0.6-1.1,0.9-2.1,1-3.3c0.1-0.8-0.5-0.6-1-0.2
			c-0.8,0.7-1.5,1-1.7,2c-0.2,0.5,0,1.3,0,1.9c0,0.2,0.3,1.1-0.3,0.9c-0.3-0.1-0.8-0.5-1.1-0.7c-0.5-0.3-1.2-0.4-1.7-0.7
			c-0.6-0.4-1.3-0.5-2-0.8c-0.8-0.3-1.1-0.6-1.9-0.4c-0.7,0.2-1.3,0.4-1.9,0.8c-0.3,0.2-0.5,0.8,0,0.6c0.1-0.1,0.3-0.1,0.4-0.2
			c0.6,0.1,1,0.5,1.6,0.7c0.7,0.3,1.4,0.3,2.2,0.3c1.4,0.1,2.7,0.7,3.8,1.6c0.5,0.4-1.1,3.5-1.3,4.2c-0.3,1.2,0.4,2.4,0.8,3.5
			c0.1,0.3,0.6-0.2,0.6-0.5c-0.1-0.4-0.2-0.9-0.3-1.3c0-0.4,0.1-0.7,0.2-1.1c0.2-0.7,0.5-1.3,0.7-1.9c0.1-0.2-0.1-0.1-0.2-0.1
			c0.3-0.6,0.6-1.2,0.9-1.8c0.2-0.4,0.5-1,1-0.7c0.5,0.2,1,0.4,1.5,0.4c1.2,0.1,2-0.2,3.1,0.7c0.9,0.7,1.6,1,2.7,1.3
			C584.6,430.2,585,429.6,584.8,429.4z"/>
		<path class="st23" d="M593.3,449.2c-0.5,0-1,0.1-1.5,0.2c-0.8,0.1-1.4-0.2-2.1-0.5c-1.1-0.5-2.2-1-3.5-1.2c-1.1-0.2-2.4,0.1-3.1-1
			c-0.3-0.5,0.3-1.8,0.4-2.5c0.1-0.5,0-0.9-0.1-1.4c-0.1-0.7-0.8-2-1.7-1.2c-0.9,0.8-0.9,2.2-0.9,3.4c-0.2-0.2-0.5-0.5-0.8-0.5
			c-0.8-0.2-1.7-0.2-2.6-0.1c-2,0.1-4.7,0.2-6.4-1.1c-1.1-0.9-2.4-1.7-3.7-2.2c-1.1-0.5-2.5-1.1-3.8-1.2c-0.2,0-0.3,0.2-0.3,0.4
			c0,0,0,0,0,0.1c0,0.1,0.1,0.1,0.2,0c0,0,0,0,0,0c0,0,0,0,0,0c0.4,0.6,1,1,1.6,1.4c0.7,0.5,1.2,1.2,1.9,1.7
			c0.4,0.3,1.3,0.1,1.9,0.3c0.9,0.3,1.6,0.7,2.4,0.9c1,0.2,1.7,0.2,2.6,1c0.5,0.4,1,0.9,1.6,1.2c1.5,0.8,3.2,0.8,4.8,0.9
			c-0.2,0.4-0.4,0.9-0.5,1.3c-0.3,1.1-0.5,2.2-0.7,3.3c-0.3,1.8-0.3,3.4,0.8,4.8c0.2,0.3,0.7-0.4,0.7-0.5c0.2-0.6,0-1.1-0.1-1.7
			c-0.1-0.9-0.2-1.7-0.2-2.6c0-1.1,0.6-1.7,0.9-2.7c0.1-0.5,0.2-1,0.3-1.6c1,0.1,2.1,0.4,2.9,1.1c0.7,0.6,1.2,1.4,2.2,1.5
			c1,0.1,1.7-0.9,2.8-0.6c1.1,0.3,1.9,1,3.1,1.1c0.7,0.1,2.6,0.6,3-0.4C596.2,449.8,593.8,449.2,593.3,449.2z M579.9,453.2
			c0,0.4,0,0.8,0.1,1.1c0,0.1,0.1,0.3,0.1,0.5C579.9,454.3,579.9,453.8,579.9,453.2z"/>
		<path class="st23" d="M599.8,433.4c-0.2-0.8-1.4,0-1.3-1.4c0.1-0.9-0.3-1.2,0.2-2.3c0.2-0.4,0.1-1.5-0.5-1.5c-0.1,0-0.1,0-0.2,0.1
			c-1.3,0.9-0.5,2.6-1.2,4c-0.6-0.5-1.7-0.3-2.5-0.5c-0.7-0.3-1.6-1.1-2.4-0.8c0-0.1-0.1,0.1-0.1,0.1c-0.1,0.8,0.2,1.1,0.9,1.4
			c0.4,0.2,4.1,1.5,3.5,2.3c-0.4,0.6-0.5,1.2-0.2,1.8c0.2,0.4,0.6,0.7,0.8,1.1c0.2,0.4,0.3,0.8,0.7,1.1c0.1,0,0.1,0,0.2,0
			c0,0.1,0.1,0.2,0.1,0.3c0.1,0.1,0.2-0.1,0.2-0.1c-0.2-1.6-1.3-4.3,1.1-4.6C599.8,434.4,599.9,433.9,599.8,433.4z"/>
		<path class="st23" d="M611.3,455.8c-0.7-0.2-1.4-0.2-2.1-0.5c-0.9-0.4-1.7-0.9-2.5-1.4c-0.7-0.4-1.6-0.6-2.3-0.9
			c-1-0.4-1.9-0.1-2.9-0.3c-0.2,0-0.5,0.3-0.3,0.4c0,0,0.1,0,0.1,0c0,0,0,0,0,0c0,0,0,0,0,0c0.1,0.9,0.2,1.8,0.7,2.6
			c0.1,0.1,0.2,0.1,0.3,0.1c0.7-0.3,0.3-1.2,1.7-0.8c2.2,0.6,4.8,2,7.1,1.2C611.2,456.1,611.5,455.8,611.3,455.8z"/>
		<g>
			<path class="st23" d="M597.7,466.3c-1.5-1-2.5-1.4-2.5-3.5c0-1.7,0.4-3.3,0.9-4.9c0.3-0.8,0.6-2,0.1-2.7c-0.7-1-1.2,2-1.2,2.1
				c-0.1,1.7-0.3,3.3-0.5,5c-0.1,1-0.1,2-1.7,2.2c-1.1,0.2-2-0.1-3-0.7c-2-1.2-4.2-3.3-6.7-2.3c-0.8,0.3-1.6,0.8-2.5,0.3
				c-0.5-0.3-0.9-1-1.1-1.6c-0.1-0.4-0.5-0.5-0.8-0.3c-0.6,0.5,0,0.7-1.6,1c-1,0.2-2.1-0.5-2.9-0.9c-1.1-0.6-2-1.5-3.3-1.9
				c0,0,0,0-0.1,0c0,0-0.1,0-0.1,0c-0.2,0-0.5,0.4-0.3,0.5c0,0,0.1,0,0.1,0c-0.4,0.9,0.2,1.8,1,2.5c0.5,0.4,1.4-0.2,1.9-0.1
				c1.1,0.1,1.8,0.7,2.6,1.3c0.2,0.2,0.5,0.3,0.7,0.4c0.8,0.4,1.2,0.7,1.1,1.7c-0.1,0.7-0.1,1.4,0.2,2c0.3,0.7,1.5-0.3,1.7-0.6
				c0.6-0.5,0.3-1.4,0-2c-0.3-0.5,0.3-0.5,0.7-0.4c0.5,0.2,1.5,0.2,1.9,0.2c1,0.1,2,0.2,3.1,0.4c0.4,0.1,0.9,0.1,1.3,0.2
				c0.7,0.2,1.1,0.8,1.5,1.3c0.5,0.6,0.7,0.8,1.4,0.7c0.8-0.1,3.6-1.4,3.2,0.6c-0.2,1,0.4,1.7,0.1,2.8c-0.1,0.3,0.3,0.1,0.4,0
				c0.4-0.7,0.8-1.7,1.8-1.6c0.6,0,1.1,0.1,1.7,0.1c0.6,0,1.2-0.2,1.6-0.7C598.9,467,598.1,466.5,597.7,466.3z"/>
			<path class="st23" d="M596.7,466.4C596.7,466.3,596.7,466.3,596.7,466.4C596.7,466.3,596.7,466.3,596.7,466.4z"/>
		</g>
		<path class="st24" d="M576.7,427.3c-2-0.7-4-1.4-6-2c-1.3-0.3-2.6-1-4-1.1c0,0-0.1,0-0.1,0.1c-0.3,0.2-0.5,0.8,0,0.6
			c0.1-0.1,0.3-0.1,0.4-0.2c0.6,0.1,1,0.5,1.6,0.7c0.7,0.3,1.4,0.3,2.2,0.3c1.4,0.1,2.7,0.7,3.8,1.6c0.5,0.4-1.1,3.5-1.3,4.2
			c-0.3,1.2,0.4,2.4,0.8,3.5c0.1,0.3,0.6-0.2,0.6-0.5c-0.1-0.4-0.2-0.9-0.3-1.3c0-0.4,0.1-0.7,0.2-1.1c0.2-0.7,0.5-1.3,0.7-1.9
			c0.1-0.2-0.1-0.1-0.2-0.1c0.3-0.6,0.6-1.2,0.9-1.8c0.2-0.4,0.5-1,1-0.7c0.5,0.2,1,0.4,1.5,0.4c0.3,0,0.5,0,0.8,0
			C578.4,427.9,577.5,427.6,576.7,427.3z"/>
		<path class="st24" d="M584.7,429.7c-0.8-0.5-1.6-0.5-2.5-0.7c-0.2,0-0.3-0.1-0.5-0.1c0.9,0.7,1.6,0.9,2.7,1.3
			c0.2,0.1,0.4-0.1,0.5-0.3C584.8,429.7,584.7,429.7,584.7,429.7z"/>
		<path class="st24" d="M589.9,449.9c-1.7-0.3-3.4-0.7-5-1.1c-1.3-0.4-2.5-1-3.7-1.5c-3-1.2-6.1-1.7-9.1-2.8
			c-2.4-0.8-4.6-2.4-7.1-2.9c0.1,0.1,0.2,0.1,0.2,0.2c0.7,0.5,1.2,1.2,1.9,1.7c0.4,0.3,1.3,0.1,1.9,0.3c0.9,0.3,1.6,0.7,2.4,0.9
			c1,0.2,1.7,0.2,2.6,1c0.5,0.4,1,0.9,1.6,1.2c1.5,0.8,3.2,0.8,4.8,0.9c-0.2,0.4-0.4,0.9-0.5,1.3c-0.3,1.1-0.5,2.2-0.7,3.3
			c-0.3,1.8-0.3,3.4,0.8,4.8c0.2,0.3,0.7-0.4,0.7-0.5c0.2-0.6,0-1.1-0.1-1.7c-0.1-0.9-0.2-1.7-0.2-2.6c0-1.1,0.6-1.7,0.9-2.7
			c0.1-0.5,0.2-1,0.3-1.6c1,0.1,2.1,0.4,2.9,1.1c0.7,0.6,1.2,1.4,2.2,1.5c1,0.1,1.7-0.9,2.8-0.6c1.1,0.3,1.9,1,3.1,1.1
			c0.7,0.1,2.5,0.5,2.9-0.3C593.8,450.5,591.8,450.2,589.9,449.9z M579.9,453.2c0,0.4,0,0.8,0.1,1.1c0,0.1,0.1,0.3,0.1,0.5
			C579.9,454.3,579.9,453.8,579.9,453.2z"/>
		<path class="st24" d="M598.5,434.7c-0.8-0.3-1.7-0.7-2.5-1c-1.3-0.6-2.7-1-4-1.7c0.1,0.2,0.4,0.4,0.8,0.6c0.4,0.2,4.1,1.5,3.5,2.3
			c-0.4,0.6-0.5,1.2-0.2,1.8c0.2,0.4,0.6,0.7,0.8,1.1c0.2,0.4,0.3,0.8,0.7,1.1c0.1,0,0.1,0,0.2,0c0,0.1,0.1,0.2,0.1,0.3
			c0.1,0.1,0.2-0.1,0.2-0.1C597.9,437.7,597.1,435.4,598.5,434.7z"/>
		<path class="st24" d="M606.9,455.8c-1.1-0.4-2.3-0.6-3.4-1c-0.7-0.2-1.4-0.7-2.1-1c0.1,0.7,0.2,1.3,0.6,1.9
			c0.1,0.1,0.2,0.1,0.3,0.1c0.7-0.3,0.3-1.2,1.7-0.8c1.3,0.3,2.7,1,4.2,1.2C607.7,456.1,607.3,455.9,606.9,455.8z"/>
		<g>
			<path class="st23" d="M570.6,459.7c0.2,0.5,0.5,0.9,1,1.3c0.5,0.4,1.4-0.2,1.9-0.1c0.1,0,0.1,0,0.2,0
				C572.7,460.4,571.7,459.9,570.6,459.7z"/>
			<path class="st24" d="M594.1,466.3c-0.4-0.1-0.8-0.1-1.2-0.2c0.2,0.2,0.2,0.4,0.2,0.9c-0.2,1,0.4,1.7,0.1,2.8
				c-0.1,0.3,0.3,0.1,0.4,0c0.4-0.7,0.8-1.7,1.8-1.6c0.6,0,1.1,0.1,1.7,0.1c0.6,0,1.2-0.2,1.6-0.7c0.1-0.2,0.1-0.4,0-0.6
				C597,466.7,595.5,466.5,594.1,466.3z"/>
			<path class="st24" d="M590.4,465.7c-1.2-0.3-2.2-1.1-3.4-1.6c-3-1.1-6.1-1-9.2-1.8c-0.8-0.2-1.7-0.5-2.5-0.8
				c0.3,0.2,0.6,0.4,0.9,0.7c0.2,0.2,0.5,0.3,0.7,0.4c0.8,0.4,1.2,0.7,1.1,1.7c-0.1,0.7-0.1,1.4,0.2,2c0.3,0.7,1.5-0.3,1.7-0.6
				c0.6-0.5,0.3-1.4,0-2c-0.3-0.5,0.3-0.5,0.7-0.4c0.5,0.2,1.5,0.2,1.9,0.2c1,0.1,2,0.2,3.1,0.4c0.4,0.1,0.9,0.1,1.3,0.2
				c0.7,0.2,1.1,0.8,1.5,1.3c0.5,0.6,0.7,0.8,1.4,0.7c0.3,0,1.1-0.3,1.8-0.4C591.1,465.9,590.7,465.8,590.4,465.7z"/>
		</g>
		<path class="st16" d="M634.2,446.6c-1.5-0.5-2.8-1.1-4.3-0.4c-0.8,0.4-2.2,0.3-3.1,0.3c-1.3,0-2.9-0.1-3.6-1.3
			c-0.4-0.7-0.8-1.5-1.1-2.3c-0.1-0.3,0.1-1.5-0.5-1.7c-0.2-0.1-0.4-0.1-0.5,0c0,0-0.1,0-0.1,0.1c-0.6,0.6,0,1.5,0.3,2.1
			c0.3,0.5,2.1,3.2,0.2,2.7c-1-0.2-1.9-0.2-2.8,0.2c-1.5,0.6-2.5,1.1-4.2,0.7c-0.2-0.1-1.5,0-1.3,0.6c0.5,1.3,4.7,0,5.5-0.1
			c1.4-0.2,3.2-0.7,4.3,0.4c0.9,0.8,0.3,2.3,0.8,3.4c0.3,0.7,1.4,1.4,1.7,0.3c0.2-0.6,0-1.2-0.2-1.7c-0.2-0.4-0.4-0.9-0.5-1.3
			c-0.2-0.7,1-0.5,1.3-0.5c1.2,0,2.5-0.3,3.7-0.5c1.5-0.3,2.7-0.5,4.3-0.3C634.1,447.1,634.4,446.7,634.2,446.6z"/>
		<path class="st16" d="M632.4,431.4c-0.4-0.4-1.6-0.4-2.2-0.5c-1.2-0.2-2.4,0-3.5,0.3c-2.5,0.5-4.9-0.4-7.3,0.6
			c-1.7,0.7-3.2,0.7-5.1,0.5c-1.3-0.2-2.6-0.2-3.8-0.1c-1.6,0.1-2.6-0.1-3.3-1.7c-0.5-1.2-0.7-2.4-1.1-3.7c0,0,0,0-0.1,0
			c0,0,0-0.1,0-0.1c0-0.1-0.2,0-0.2,0.1c0,0,0,0.1,0,0.1c-0.1,0.1-0.1,0.2-0.1,0.2c0,0.1,0.1,0.2,0.1,0.3c0,0.5,0,1-0.1,1.5
			c-0.1,0.7-0.3,1.1-0.2,1.9c0.2,1.2-0.9,2.1-1.5,3c-0.1,0.1-0.1,0.3,0.1,0.2c0.6-0.2,1.2-0.4,1.8-0.5c0.9-0.2,1.1,1.3,1.3,1.8
			c0.2,0.9,0.3,1.9,0.8,2.7c0.1,0.2,0.4-0.1,0.4-0.3c-0.2-1-0.4-2-0.4-3c-0.1-1.9,2.8-1.2,3.7-1.2c2.3,0,4.6-0.4,7-0.5
			c2.4-0.1,4.7,0.2,7.1-0.3c1.1-0.3,2.2-0.6,3.3-0.8c1-0.1,1.9,0.1,2.9,0C632.2,432,632.6,431.6,632.4,431.4z"/>
		<path class="st16" d="M622.1,420.4c-0.2-1.3-1.6-1.6-2.8-1.3c-1.7,0.4-2.3-0.4-3.2-1.7c-0.6-0.8-1.2-1.7-1.8-2.5
			c-0.1-0.1-0.3,0.1-0.3,0.2c-0.3,0.7-0.3,1.2-0.1,2c0.1,0.4,1.8,2.1,0.2,2c-0.7,0-1.2,0-1.8,0.4c-1.6,0.9-2.4,0.2-3.8-0.4
			c-0.7-0.3-1.5-0.4-2.2-0.2c-0.7,0.3-1.5,0.8-2.2,0c-0.3-0.4-0.5-0.6-1-0.7c-1.6-0.6-2.9-0.5-4,0.6c-0.1,0.1,0,0.2,0.1,0.1
			c0.1-0.1,0.2-0.2,0.4-0.3c0,0.1,0,0.1,0.1,0.1c1.8-0.4,1.2,2.3,2.9,2.5c0.2,0,0.3,0,0.5-0.1c0.9-0.4,1.6-0.6,2.6-0.1
			c0.8,0.4,1.4,1,2.2,1.3c1.5,0.6,2.3-2.2,4-1.7c0.9,0.3,1.4,0.6,2.3,0.6c1.3,0,1.7,1.3,2.2,2.1c0.1,0.2,0.3-0.1,0.4-0.3
			c0.1-1.2,0-2.9,1.8-2.5c0.7,0.2,1.3,0.5,1.9,0.7C621.1,421.5,622.3,421.3,622.1,420.4z"/>
		<path class="st16" d="M624.6,446.7c-1-0.1-2.1-0.2-3.1-0.1c-1,0.1-2,0.2-3,0.4c-1.8,0.3-3.5,0.6-5.3,0.5c0.6,1.2,4.7-0.1,5.5-0.2
			c1.4-0.2,3.2-0.7,4.3,0.4c0.9,0.8,0.3,2.3,0.8,3.4c0.3,0.7,1.4,1.4,1.7,0.3c0.2-0.6,0-1.2-0.2-1.7c-0.2-0.4-0.4-0.9-0.5-1.3
			c-0.2-0.7,1-0.5,1.3-0.5c1.2,0,2.5-0.3,3.7-0.5c1.5-0.3,2.7-0.5,4.3-0.3c0,0,0.1,0,0.2-0.1C631,446.6,627.7,447,624.6,446.7z"/>
		<path class="st16" d="M632.4,431.4C632.3,431.4,632.3,431.4,632.4,431.4c-1.5,0.1-3,0.3-4.5,0.4c-3.1,0.2-6.2,0.2-9.3,0.4
			c-0.2,0-0.4,0-0.6,0c-0.6,0.1-1.2,0.2-1.8,0.2c-0.7,0.1-1.3,0.1-2,0.2c-1.2,0.1-2.4,0.1-3.6,0.2c-2,0.1-4.1,0.4-6,1.2
			c0.5-0.2,1-0.3,1.6-0.4c0.9-0.2,1.1,1.3,1.3,1.8c0.2,0.9,0.3,1.9,0.8,2.7c0.1,0.2,0.4-0.1,0.4-0.3c-0.2-1-0.4-2-0.4-3
			c-0.1-1.9,2.8-1.2,3.7-1.2c2.3,0,4.6-0.4,7-0.5c2.4-0.1,4.7,0.2,7.1-0.3c1.1-0.3,2.2-0.6,3.3-0.8c1-0.1,1.9,0.1,2.9,0
			C632.2,432,632.6,431.6,632.4,431.4C632.4,431.4,632.4,431.4,632.4,431.4z"/>
		<path class="st16" d="M622,419.8c-1-0.2-2-0.4-3.1-0.3c-2.7,0.1-5.3,0.7-7.9,0.9c-1.4,0.1-2.7-0.2-4.1-0.2c-1.1,0-2.1,0-3.1-0.5
			c-0.9-0.5-1.7-0.9-2.8-0.9c-0.1,0-0.2,0-0.3,0c0.8,0.5,0.7,2.3,2.1,2.5c0.2,0,0.3,0,0.5-0.1c0.9-0.4,1.6-0.6,2.6-0.1
			c0.8,0.4,1.4,1,2.2,1.3c1.5,0.6,2.3-2.2,4-1.7c0.9,0.3,1.4,0.6,2.3,0.6c1.3,0,1.7,1.3,2.2,2.1c0.1,0.2,0.3-0.1,0.4-0.3
			c0.1-1.2,0-2.9,1.8-2.5c0.7,0.2,1.3,0.5,1.9,0.7c0.6,0.2,1.8,0,1.6-0.9C622.1,420.2,622,420,622,419.8z"/>
		<g>
			<path class="st25" d="M577.9,437.1c0-0.2-0.2-0.8-0.5-0.6c-0.4,0.1-0.3,0.7-0.2,1c0,0,0,0,0,0c0,0.1,0.1,0.2,0.3,0.2
				c0.1,0,0.2-0.1,0.2-0.2C577.9,437.4,577.9,437.3,577.9,437.1z"/>
			<path class="st25" d="M574.9,439.1c0-0.1-0.2-0.2-0.3-0.2c-0.2-0.1-0.3,0-0.4,0.2c-0.1,0.2-0.1,0.3,0,0.5c0,0.2,0.1,0.3,0.3,0.4
				c0.2,0.1,0.4-0.1,0.5-0.4C575,439.4,575,439.2,574.9,439.1z"/>
			<path class="st25" d="M571.6,436.9c-0.1-0.2-0.3-0.3-0.5-0.4c-0.2-0.1-0.6,0.1-0.5,0.4c0.1,0.2,0.3,0.3,0.5,0.4
				c0.2,0.1,0.5,0,0.6-0.2C571.7,437,571.7,436.9,571.6,436.9z"/>
			<path class="st25" d="M568.7,431.7C568.7,431.7,568.7,431.7,568.7,431.7c0-0.1,0-0.1,0-0.1c0,0-0.1-0.1-0.1-0.1
				c-0.1-0.1-0.2,0-0.2,0c-0.2,0.1-0.3,0.4-0.2,0.6c0,0.1,0.1,0.1,0.2,0.2c0.1,0,0.2-0.1,0.3-0.1C568.7,432,568.7,431.8,568.7,431.7
				z"/>
			<path class="st25" d="M568.1,428.9c0-0.1-0.2-0.1-0.2-0.2c0,0-0.1-0.1-0.1-0.1c0,0-0.1-0.1-0.1-0.1c-0.1-0.1-0.2,0.1-0.2,0.1
				c0,0.1,0,0.1-0.1,0.2c0,0,0,0,0,0.1c0,0,0,0,0,0c0,0.1,0.1,0.3,0.2,0.4c0.1,0.2,0.3,0.3,0.5,0.1
				C568.2,429.2,568.2,429,568.1,428.9z"/>
			<path class="st25" d="M592.2,441.5c0-0.1-0.1-0.2-0.2-0.3c-0.1-0.1-0.3,0.1-0.3,0.2c-0.1,0.1-0.1,0.4-0.1,0.5
				c0,0.1,0.1,0.2,0.1,0.3c0.1,0.1,0.2,0.1,0.3,0c0.1,0,0.2-0.1,0.2-0.2C592.4,441.9,592.3,441.6,592.2,441.5z"/>
			<path class="st25" d="M597.1,443.2C597.1,443.2,597.1,443.2,597.1,443.2c0-0.1,0-0.2,0-0.2c0,0-0.1-0.1-0.2-0.1
				c0-0.1-0.1-0.1-0.1-0.1c-0.1-0.1-0.3,0.1-0.4,0.3c0,0,0,0,0,0.1c-0.2,0.2-0.1,0.6,0.2,0.7c0.2,0.1,0.3,0,0.5-0.1
				C597.1,443.5,597.1,443.4,597.1,443.2z"/>
			<path class="st25" d="M602.9,442.3c-0.1-0.1-0.2-0.2-0.3-0.3c-0.1-0.1-0.3,0.1-0.4,0.2c0,0.1-0.1,0.2-0.1,0.3c0,0,0,0,0,0.1
				c0,0.3,0.2,0.9,0.6,0.8c0.2,0,0.4-0.1,0.5-0.4C603.2,442.8,603.1,442.5,602.9,442.3z"/>
			<path class="st25" d="M604.1,447.8c0-0.1,0-0.2-0.1-0.2c0,0,0,0,0-0.1c0-0.1-0.1-0.2-0.2-0.2c0,0-0.1-0.1-0.2-0.1c0,0,0,0,0,0
				c0,0,0,0,0,0c-0.1,0-0.2,0.1-0.3,0.2c-0.2,0.3,0.2,0.8,0.5,0.7c0,0,0.2,0,0.2-0.1C604.1,447.9,604.1,447.9,604.1,447.8
				C604.1,447.8,604.1,447.8,604.1,447.8z"/>
			<path class="st25" d="M586.5,425.4c0-0.2-0.1-0.4-0.2-0.5c-0.1-0.2-0.3-0.1-0.4,0c0,0,0,0,0,0c-0.1,0.1-0.1,0.3-0.2,0.4
				c-0.1,0.2,0,0.5,0.1,0.7c0.1,0.2,0.3,0.2,0.4,0.1c0.2,0,0.3-0.2,0.3-0.3C586.6,425.6,586.5,425.5,586.5,425.4z"/>
			<path class="st25" d="M591.1,426.1c0-0.1-0.1-0.1-0.2-0.1c0,0-0.1-0.1-0.2-0.1c-0.1,0-0.2,0.2-0.3,0.3c-0.1,0.3,0.2,0.6,0.5,0.3
				C591,426.4,591.1,426.3,591.1,426.1z"/>
			<path class="st25" d="M591.8,424.1c-0.1,0-0.1,0-0.2,0.1c-0.2,0-0.3,0.2-0.4,0.4c-0.1,0.3,0.2,0.5,0.4,0.7c0.1,0.1,0.3,0,0.4-0.1
				c0.1-0.1,0.2-0.3,0.2-0.4C592.2,424.4,592,424.1,591.8,424.1z"/>
			<path class="st25" d="M586.3,428.6c0,0-0.1,0-0.2,0c0,0-0.1,0-0.2,0.1c-0.1,0.1-0.1,0.3-0.1,0.4c0,0.1,0.2,0.2,0.3,0.2
				C586.4,429.2,586.4,428.8,586.3,428.6z"/>
			<path class="st25" d="M582.2,420.8c0,0-0.1,0-0.1,0c0,0-0.1,0-0.1,0c-0.3,0.1-0.1,0.5,0,0.7c0.1,0.1,0.2,0.2,0.3,0.2
				c0.1,0,0.3-0.1,0.3-0.2C582.6,421.2,582.5,420.9,582.2,420.8z"/>
			<path class="st25" d="M572.5,419.7c0-0.1-0.2-0.2-0.3-0.3c-0.1,0-0.2,0.1-0.2,0.1c0,0,0,0,0,0c-0.1,0.1-0.2,0.3-0.1,0.4
				c0,0.1,0.1,0.2,0.2,0.2c0,0,0.1,0,0.1,0c0,0,0,0,0,0c0.1,0.1,0.2,0.1,0.3,0c0.1-0.1,0.2-0.2,0.2-0.3
				C572.6,419.8,572.5,419.8,572.5,419.7z"/>
			<path class="st25" d="M572.2,447.9c-0.1-0.1-0.1-0.1-0.2-0.1c-0.1-0.1-0.2-0.1-0.3-0.1c-0.4,0.1-0.3,0.6-0.1,0.9
				c0,0,0.1,0.1,0.1,0.1c0,0.1,0.1,0.1,0.1,0.1c0.1,0,0.1,0,0.2,0c0.2,0,0.3-0.1,0.4-0.3C572.4,448.4,572.4,448.1,572.2,447.9z"/>
			<path class="st25" d="M573.7,451c0-0.1-0.1-0.1-0.2-0.2c-0.1-0.1-0.2-0.1-0.3,0c-0.3,0.1-0.2,0.5-0.1,0.7
				c0.1,0.2,0.4,0.4,0.6,0.2C573.9,451.6,573.8,451.3,573.7,451z"/>
			<path class="st25" d="M577,453.8c0-0.2-0.2-0.4-0.3-0.3c-0.2,0.1-0.3,0.5-0.2,0.7c0,0.1,0.1,0.2,0.2,0.2c0.1,0.1,0.2,0,0.3-0.1
				C577.1,454.1,577.1,453.9,577,453.8z"/>
			<path class="st25" d="M585.4,455.9c-0.2-0.2-0.5-0.3-0.8-0.1c-0.6,0.4-0.5,1.3,0,1.7c0.3,0.2,0.7,0.1,0.8-0.2c0,0,0,0,0-0.1
				c0.1-0.1,0.1-0.2,0.1-0.3c0,0,0,0,0,0c0,0,0-0.1,0-0.1c0,0,0.1,0,0.1-0.1C585.8,456.4,585.6,456.1,585.4,455.9z"/>
			<path class="st25" d="M589.3,455.3C589.3,455.3,589.3,455.3,589.3,455.3c0-0.1,0-0.1,0-0.1c0,0,0,0,0,0c-0.1-0.2-0.3-0.3-0.5-0.2
				c-0.2,0.1-0.3,0.4-0.3,0.7c0,0.2,0.1,0.3,0.3,0.3c0.1,0,0.3,0,0.4-0.1C589.3,455.7,589.4,455.5,589.3,455.3z"/>
			<path class="st25" d="M591.4,457.3c-0.2-0.1-0.4-0.4-0.6-0.4c-0.2,0-0.4,0.1-0.5,0.2c-0.3,0.4-0.1,0.8,0.3,1
				c0.5,0.2,0.9-0.2,0.8-0.7C591.4,457.4,591.5,457.3,591.4,457.3z"/>
			<path class="st25" d="M602.2,462.9c-0.1-0.1-0.2-0.4-0.4-0.4c0,0,0,0,0,0c0,0,0,0,0,0c-0.2-0.1-0.4,0.2-0.5,0.4
				c0,0.2,0.1,0.4,0.3,0.5c0.2,0.2,0.5,0.1,0.6-0.1C602.3,463.2,602.3,463.1,602.2,462.9z"/>
			<path class="st25" d="M586.7,468C586.6,468,586.6,467.9,586.7,468c-0.2-0.1-0.3-0.1-0.4,0c-0.1,0.1-0.1,0.3,0,0.5
				c0,0,0,0.1,0.1,0.1c0,0.1,0.1,0.1,0.2,0.2c0.2,0.1,0.4,0,0.4-0.2C586.9,468.3,586.8,468.1,586.7,468z"/>
		</g>
		<g>
			<path class="st25" d="M595.1,416.2c-0.1-0.2-0.4-0.2-0.5-0.1c-0.3,0.1-0.5,0.5-0.4,0.8c0.1,0.3,0.5,0.1,0.7,0
				C595.2,416.7,595.4,416.4,595.1,416.2z"/>
			<path class="st25" d="M601.6,413.7C601.5,413.7,601.5,413.7,601.6,413.7c-0.2,0-0.2,0-0.3,0.1c-0.1,0-0.1,0.1-0.1,0.2
				c-0.1,0.1-0.1,0.2-0.1,0.2c0,0,0,0,0,0c0,0.1,0,0.2,0.1,0.2c0,0,0,0,0,0c0.1,0.1,0.2,0.1,0.3,0.1c0.2-0.1,0.3-0.2,0.3-0.4
				c0,0,0,0,0,0C601.9,414,601.8,413.8,601.6,413.7z"/>
			<path class="st25" d="M609.9,413.6C609.9,413.5,609.9,413.5,609.9,413.6c-0.1-0.1-0.1-0.2-0.2-0.3c0,0,0,0,0,0
				c-0.1-0.1-0.1-0.1-0.2-0.1c-0.1,0-0.2,0.1-0.3,0.2c-0.1,0.2-0.1,0.5,0.1,0.7c0.1,0.1,0.2,0.2,0.3,0.2c0.2,0,0.3-0.1,0.4-0.3
				C610,413.8,610,413.7,609.9,413.6z"/>
			<path class="st25" d="M608.4,415.5c-0.1-0.1-0.2-0.1-0.3,0c0,0,0,0,0,0c-0.1,0.1-0.2,0.2-0.1,0.3c0,0,0,0,0.1,0
				c0,0.1,0.1,0.1,0.2,0.1C608.6,415.9,608.6,415.6,608.4,415.5z"/>
			<path class="st25" d="M614.2,412.4C614.2,412.4,614.2,412.4,614.2,412.4c0-0.1-0.1-0.1-0.1-0.2c-0.1-0.1-0.2-0.2-0.4-0.1
				c-0.1,0.2-0.1,0.4-0.1,0.5c0,0.2,0.2,0.4,0.4,0.3c0,0,0,0,0.1,0c0.1,0,0.2-0.1,0.2-0.2c0,0,0,0,0-0.1
				C614.3,412.6,614.2,412.4,614.2,412.4z"/>
			<path class="st25" d="M621,414C621,414,621,414,621,414c-0.1-0.2-0.2-0.2-0.4-0.1c-0.1,0.1-0.3,0.2-0.3,0.3
				c-0.1,0.5,0.5,1.2,1,0.7C621.6,414.6,621.3,414.2,621,414z"/>
			<path class="st25" d="M624.5,422.7C624.5,422.7,624.5,422.7,624.5,422.7c-0.1-0.2-0.3-1-0.6-0.8c-0.3,0.2-0.2,0.6-0.2,0.9
				c0.1,0.3,0.4,0.7,0.7,0.3C624.6,423,624.6,422.9,624.5,422.7z"/>
			<path class="st25" d="M624.7,425.6c0,0,0.1-0.1,0-0.1c-0.1-0.1-0.2-0.1-0.4-0.1c0,0,0,0-0.1,0c-0.2,0-0.3,0.2-0.4,0.3
				c0,0.1-0.1,0.2,0,0.3c0.1,0.2,0.3,0.4,0.5,0.3C624.7,426.2,624.8,425.9,624.7,425.6C624.7,425.6,624.7,425.6,624.7,425.6z"/>
			<path class="st25" d="M617.2,429.3C617.2,429.3,617.2,429.3,617.2,429.3c0-0.1-0.1-0.1-0.1-0.1c0,0,0,0,0,0
				c-0.1-0.1-0.2-0.1-0.3,0c0,0,0,0-0.1,0c-0.2,0.1-0.3,0.3-0.3,0.6c0,0.2,0.1,0.3,0.3,0.3c0.2,0,0.4-0.2,0.5-0.5
				C617.3,429.5,617.2,429.4,617.2,429.3z"/>
			<path class="st25" d="M612.8,427.9c0-0.2-0.2-0.4-0.4-0.5c-0.3-0.1-0.5,0.2-0.6,0.4c-0.1,0.3,0,0.5,0.3,0.6
				c0.3,0.1,0.6-0.1,0.6-0.4c0,0,0,0,0-0.1C612.8,428,612.8,428,612.8,427.9z"/>
			<path class="st25" d="M629.4,426.5c0-0.1,0-0.3-0.1-0.4c-0.1-0.2-0.3-0.4-0.5-0.4c0,0,0,0,0,0c-0.1-0.1-0.3,0-0.3,0.1
				c-0.3,0.3-0.3,0.9,0,1.2c0.3,0.3,0.9,0.1,1-0.3C629.4,426.7,629.4,426.6,629.4,426.5z"/>
			<path class="st25" d="M629.4,437.7c0,0,0-0.1,0-0.1c-0.1-0.2-0.3-0.2-0.5,0c-0.1,0.2-0.2,0.5-0.1,0.7c0.1,0.2,0.3,0.5,0.5,0.4
				C629.8,438.5,629.6,438,629.4,437.7z"/>
			<path class="st25" d="M632.3,439c-0.1-0.1-0.1-0.1-0.2-0.2c-0.1-0.1-0.2,0-0.3,0.1c-0.2,0.2-0.2,0.4-0.2,0.7
				c0,0.1,0.1,0.2,0.1,0.2c0,0,0.1,0.1,0.1,0.1c0,0,0.1,0,0.1,0c0.1,0,0.1,0,0.2,0c0,0,0.1,0,0.1-0.1c0.1,0.1,0.3-0.1,0.3-0.2
				C632.6,439.3,632.5,439.1,632.3,439z"/>
			<path class="st25" d="M623.4,439.6c-0.1-0.2-0.3-0.4-0.5-0.1c-0.2,0.2-0.2,0.6-0.1,0.9c0.1,0.4,0.5,0.6,0.8,0.2
				C623.8,440.3,623.7,439.8,623.4,439.6z"/>
			<path class="st25" d="M619.7,437.9C619.7,437.9,619.7,437.9,619.7,437.9c0-0.3-0.2-0.7-0.5-0.6c-0.3,0.1-0.3,0.4-0.4,0.7
				c0,0.3,0.1,0.6,0.3,0.8c0.3,0.3,0.7-0.1,0.7-0.4C619.8,438.2,619.8,438.1,619.7,437.9z"/>
			<path class="st25" d="M615.3,441.1c0-0.1-0.1-0.3-0.2-0.3c0,0,0-0.1-0.1-0.1c-0.2-0.3-0.5,0-0.6,0.3c-0.1,0.3,0,0.8,0.5,0.7
				C615.2,441.5,615.4,441.3,615.3,441.1z"/>
			<path class="st25" d="M623.2,455.3c0-0.1-0.1-0.2-0.1-0.2c-0.2-0.2-0.4-0.1-0.5,0.2c0,0.2,0,0.3,0,0.5c0.1,0.1,0.3,0.3,0.4,0.2
				C623.3,455.8,623.3,455.5,623.2,455.3z"/>
			<path class="st25" d="M625.8,457c-0.1,0-0.2,0.1-0.3,0.2c-0.2,0.3-0.2,0.7-0.1,1c0.1,0.2,0.3,0.1,0.5,0c0.2-0.1,0.3-0.3,0.3-0.6
				C626.3,457.4,626.2,456.9,625.8,457z"/>
			<path class="st25" d="M632.3,451.1c-0.3,0.2-0.4,0.5-0.2,0.8c0.2,0.4,0.6,0.2,0.8-0.1c0,0,0,0,0,0c0,0,0,0,0,0
				C633.2,451.3,632.6,450.9,632.3,451.1z"/>
		</g>
		<g>
			<path class="st23" d="M565.6,426.4c-0.2-0.3-0.4-0.7-0.7-1.1c0.1,0.7-0.1,1.3-0.2,2.1c0.4,0.2,1,0.5,1.6,0.9
				C567.3,428.9,566,427.1,565.6,426.4z"/>
			<path class="st23" d="M562.3,438.8c-0.9-0.7-1.5-1.4-1.9-2c-0.1,0.8,0,1.5,0.3,2.2C562.3,439.6,562.7,439,562.3,438.8z"/>
		</g>
		<path class="st10" d="M593.2,358.5c-0.3,0.4-0.7,0.8-1,1.3c-0.2-0.5-0.5-1-0.7-1.5c0,0,0.1-0.1,0.1-0.1c0.1-0.1-0.1-0.2-0.1-0.1
			c0,0,0,0,0,0c-0.1-0.3-0.3-0.6-0.5-0.9c0-0.1-0.2,0.1-0.1,0.1c0.1,0.3,0.3,0.6,0.4,1c-0.3,0.4-0.6,0.8-0.8,1.2
			c-0.1-0.3-0.3-0.6-0.3-1c0-0.1-0.2,0.1-0.2,0.1c0,0.4,0.1,0.8,0.3,1.2c0,0,0,0,0,0c-0.4,0.8-0.7,1.6-1,2.3c0,0.1,0.1,0,0.1,0
			c0.3-0.6,0.5-1.2,0.8-1.9c0.1-0.1,0.1-0.2,0.2-0.3c0.2,0.5,0.5,0.9,0.7,1.4c-0.3,0.5-0.5,1-0.7,1.5c-0.1,0.1,0.1,0.1,0.1,0
			c0.3-0.5,0.5-0.9,0.7-1.4c0.1,0.1,0.1,0.2,0.2,0.3c0.1,0.1,0.3-0.1,0.2-0.2c-0.1-0.1-0.1-0.3-0.2-0.4c0,0,0,0,0,0
			c0.2-0.4,0.4-0.7,0.7-1.1c0.2,0.3,0.3,0.6,0.5,0.9c0.1,0.1,0.2-0.1,0.2-0.2c-0.2-0.3-0.4-0.7-0.5-1c0.4-0.4,0.7-0.9,1-1.4
			C593.4,358.5,593.3,358.4,593.2,358.5z M591.5,360.7c-0.1,0.1-0.2,0.2-0.2,0.4c-0.3-0.4-0.5-0.9-0.7-1.4c0.2-0.4,0.5-0.8,0.8-1.2
			c0.2,0.5,0.5,1,0.7,1.5C591.9,360.2,591.7,360.5,591.5,360.7z"/>
		<g>
			<path class="st19" d="M574,465.6c-0.7-2.1-1.7-5.2-2.6-7.2c-1.1-2.4-1.5-4.8-1.9-7.4c-0.4-2.4-1-4.6-2.2-6.7
				c-1.1-2-2.8-3.8-3.8-5.8c-1.2-2.5,0.1-5.4,2-7.1c1.2-1.1,2.1-2.3,1.8-4c-0.3-2.6-2.5-4.5-0.9-7.3c0.8-1.4,2-2.4,2-4.1
				c0-0.2-0.3,0-0.3,0.2c-0.2,2.1-2.3,3.1-2.8,5.1c-0.6,2.2,0.1,3.9,0.8,6c0.9,2.7-1.7,3.7-2.9,5.6c-0.9,1.5-1.4,3.8-0.9,5.6
				c0.6,2.2,2.4,4,3.5,5.9c1.4,2.3,2,4.8,2.5,7.4c0.4,2.3,0.7,4.5,1.6,6.7c0.9,2.3,2.2,4.6,3.6,6.7
				C573.7,465.6,574.1,465.9,574,465.6z"/>
			<path class="st19" d="M587.5,472.4c-2.4-0.5-4.8-0.8-6.8-2.4c-1.6-1.3-3.5-3.2-5.6-3.8c-0.1,0,0.3,0.3,0.4,0.4
				c1.9,1.1,3,3.3,4.6,4.7c1.9,1.6,4.6,1.9,6.9,1.9C587.3,473.2,587.9,472.5,587.5,472.4z"/>
		</g>
		<g>
			<g>
				<path class="st26" d="M613.3,404.2c0,0-4.4-11.2,0.4-18.8c-2.4,1.3-4.6,8.2-2.1,16.3C612.6,404.4,613.4,404.8,613.3,404.2z"/>
				<path class="st27" d="M613.1,404.1c0,0,0.2-5.1,3.5-6.1C614.6,397.4,610.9,400.5,613.1,404.1z"/>
				<path class="st27" d="M612.4,403.3c0,0-2.7-2.6-5.4-2.8C608.4,399.4,612,401.3,612.4,403.3z"/>
				<path class="st27" d="M611.6,401.7c0,0-1.6-3.4-5.3-6.4C608.5,395.4,611.9,399.9,611.6,401.7z"/>
				<path class="st28" d="M611.8,400c0,0,0.4-3.8,3.7-4.3C613.3,394.9,610.3,396.4,611.8,400z"/>
				<path class="st27" d="M611.3,395.5c0,0,0.9-4.2,5.6-2.9C613.9,390.8,610.4,391.6,611.3,395.5z"/>
				<path class="st27" d="M610.8,397.2c0,0-1.3-2.1-3.8-3.5C608.6,393.3,611.1,396,610.8,397.2z"/>
				<path class="st27" d="M611.1,393.1c0,0,2.1-3.9,6.2-4.8C618.8,388.2,611.7,386.2,611.1,393.1z"/>
				<path class="st28" d="M610.7,394.3c0,0-1.3-3-4.4-4.1C607.6,389.6,611,392.2,610.7,394.3z"/>
				<path class="st27" d="M611,391.7c0,0-2.4-3.5-2.4-6.7c0-0.9-1.7,2.3,2.2,7.3C610.9,392,611,391.7,611,391.7z"/>
				<path class="st28" d="M611.1,391c0,0-0.8-3.3-0.3-5.7C609.4,386.8,609.9,389.6,611.1,391z"/>
			</g>
			<path class="st29" d="M611.8,398.7c0,0,0.8-2.9,3.3-3.1C613.5,395.3,612.1,396.8,611.8,398.7z"/>
			<path class="st29" d="M611.6,391.8c0,0,1.4-3,5.3-3.6C616.9,388.2,612.7,388.3,611.6,391.8z"/>
			<path class="st29" d="M607.4,393.8c0,0,1.7,0.7,3.2,2.9C610.2,395.5,608.6,394.3,607.4,393.8z"/>
		</g>
		<g>
			<g>
				<path class="st30" d="M565.1,472.9c0,0-1-11.4-12.3-12.2C559.6,459.6,566.6,465.4,565.1,472.9z"/>
				<path class="st31" d="M564.2,468.8c0,0-3-2.6-8.3-3.2C559.1,464.7,564.2,466.4,564.2,468.8z"/>
				<path class="st27" d="M564.7,470.6c0,0-3.2-2.2-7.4,0.9C559.9,467.7,564.8,468,564.7,470.6z"/>
				<path class="st28" d="M562.3,465.2c0,0-3.6-1.6-8.4-1.1C555.6,462.7,561.4,463,562.3,465.2z"/>
				<path class="st27" d="M562.7,466c0,0-3.8-7.3-6.5-8.7C559.7,458.3,563.6,464.2,562.7,466z"/>
				<path class="st28" d="M563.9,466.5c0,0,0.1-4.3-2.3-7.5c3.2,2.3,4.2,6,3.3,10C564.3,467.3,563.9,466.5,563.9,466.5z"/>
				<path class="st32" d="M565.1,471.3c0,0,1.6-4.4,3.9-6.9c-2.5-0.2-4.2,5-4.2,5L565.1,471.3z"/>
			</g>
			<path class="st29" d="M564.7,467.3c0,0,0.1-4.4-2.3-7.3C564,460.7,565.3,465.2,564.7,467.3z"/>
			<path class="st29" d="M561.4,464.6c0,0-2.9-1.2-6.7-0.8C556.4,463.2,560,463.6,561.4,464.6z"/>
		</g>
	</g>
</g>
</svg>
