<?xml version="1.0" encoding="utf-8"?>
<!-- Generator: Adobe Illustrator 26.0.1, SVG Export Plug-In . SVG Version: 6.00 Build 0)  -->
<svg version="1.1" id="Layer_1" xmlns="http://www.w3.org/2000/svg" xmlns:xlink="http://www.w3.org/1999/xlink" x="0px" y="0px"
	 viewBox="0 0 1190.6 841.9" style="enable-background:new 0 0 1190.6 841.9;" xml:space="preserve">
<style type="text/css">
	.st0{fill:#F1F0F0;}
	.st1{fill:#235BAA;}
	.st2{fill:#D0D1D1;}
	.st3{fill:#A2D9D2;}
	.st4{fill:#8F8F8F;}
	.st5{fill:#ABABAB;}
	.st6{fill:#787778;}
	.st7{fill:#F7F6C3;}
	.st8{fill:#FDFAD4;}
	.st9{fill:#674732;}
	.st10{fill:#76513D;}
	.st11{fill:#4D3223;}
	.st12{fill:#6FAA43;}
	.st13{fill:#9BCB4F;}
	.st14{fill:#738939;}
	.st15{fill:#C5CE3D;}
	.st16{fill:#F68B4E;}
	.st17{fill:#F36D2B;}
	.st18{fill:#F9A982;}
	.st19{fill:#F26622;}
	.st20{fill:#E76524;}
</style>
<g>
	<path class="st0" d="M693.1,420.9c0,54.2-44,98.2-98.2,98.2c-54.2,0-98.2-44-98.2-98.2c0-54.2,44-98.2,98.2-98.2
		C649.1,322.7,693.1,366.6,693.1,420.9z"/>
	<path class="st1" d="M594.9,329.3c12.4,0,24.3,2.4,35.6,7.2c10.9,4.6,20.7,11.2,29.1,19.6c8.4,8.4,15,18.2,19.6,29.1
		c4.8,11.3,7.2,23.3,7.2,35.6c0,12.4-2.4,24.4-7.2,35.6c-4.6,10.9-11.2,20.7-19.6,29.1c-8.4,8.4-18.2,15-29.1,19.6
		c-11.3,4.8-23.3,7.2-35.6,7.2c-12.4,0-24.3-2.4-35.6-7.2c-10.9-4.6-20.7-11.2-29.1-19.6c-8.4-8.4-15-18.2-19.6-29.1
		c-4.8-11.3-7.2-23.3-7.2-35.6c0-12.4,2.4-24.3,7.2-35.6c4.6-10.9,11.2-20.7,19.6-29.1c8.4-8.4,18.2-15,29.1-19.6
		C570.5,331.8,582.5,329.3,594.9,329.3L594.9,329.3z M594.9,327.1c-51.8,0-93.8,42-93.8,93.8c0,51.8,42,93.8,93.8,93.8
		c51.8,0,93.8-42,93.8-93.8C688.7,369.1,646.7,327.1,594.9,327.1L594.9,327.1z"/>
	<path class="st1" d="M594.9,332.5c11.9,0,23.5,2.3,34.4,6.9c10.5,4.5,20,10.8,28.1,18.9c8.1,8.1,14.5,17.6,18.9,28.1
		c4.6,10.9,6.9,22.5,6.9,34.4c0,11.9-2.3,23.5-6.9,34.4c-4.5,10.5-10.8,20-18.9,28.1c-8.1,8.1-17.6,14.5-28.1,18.9
		c-10.9,4.6-22.5,6.9-34.4,6.9c-11.9,0-23.5-2.3-34.4-6.9c-10.5-4.4-20-10.8-28.1-18.9c-8.1-8.1-14.5-17.6-18.9-28.1
		c-4.6-10.9-6.9-22.5-6.9-34.4c0-11.9,2.3-23.5,6.9-34.4c4.5-10.5,10.8-20,18.9-28.1c8.1-8.1,17.6-14.5,28.1-18.9
		C571.4,334.9,582.9,332.5,594.9,332.5L594.9,332.5z M594.9,331.6c-49.3,0-89.3,40-89.3,89.3c0,49.3,40,89.3,89.3,89.3
		c49.3,0,89.3-40,89.3-89.3C684.1,371.6,644.2,331.6,594.9,331.6L594.9,331.6z"/>
	<path class="st2" d="M662.3,420.9c0,37.3-30.2,67.5-67.5,67.5c-37.3,0-67.5-30.2-67.5-67.5c0-37.3,30.2-67.5,67.5-67.5
		C632.1,353.4,662.3,383.6,662.3,420.9z"/>
	<path class="st0" d="M660.9,420.9c0,36.5-29.6,66-66,66c-36.5,0-66-29.6-66-66c0-36.5,29.6-66,66-66
		C631.3,354.9,660.9,384.4,660.9,420.9z"/>
</g>
<g>
	<g>
		<g>
			
				<ellipse transform="matrix(0.7071 -0.7071 0.7071 0.7071 -128.4243 545.9909)" class="st3" cx="594.9" cy="428" rx="95.4" ry="95.4"/>
			<circle class="st4" cx="594.9" cy="413.8" r="95.4"/>
			<path class="st5" d="M594.9,322.2c52,0,94.3,41.7,95.3,93.5c0-0.6,0-1.3,0-1.9c0-52.7-42.7-95.4-95.4-95.4
				c-52.7,0-95.4,42.7-95.4,95.4c0,0.6,0,1.3,0,1.9C500.6,363.9,542.8,322.2,594.9,322.2z"/>
			<path class="st6" d="M594.9,502.4c-51.5,0-93.5-40.9-95.3-92c0,1.1-0.1,2.3-0.1,3.4c0,52.7,42.7,95.4,95.4,95.4
				c52.7,0,95.4-42.7,95.4-95.4c0-1.1,0-2.3-0.1-3.4C688.4,461.5,646.4,502.4,594.9,502.4z"/>
			
				<ellipse transform="matrix(0.7071 -0.7071 0.7071 0.7071 -118.3561 541.8204)" class="st5" cx="594.9" cy="413.8" rx="88.6" ry="88.6"/>
			<path class="st4" d="M594.9,339.8c-40.9,0-74,33.1-74,74c0,40.9,33.1,74,74,74c40.9,0,74-33.1,74-74
				C668.9,372.9,635.7,339.8,594.9,339.8z M594.9,485.2c-39.4,0-71.4-32-71.4-71.4c0-39.4,32-71.4,71.4-71.4
				c39.4,0,71.4,32,71.4,71.4C666.3,453.2,634.3,485.2,594.9,485.2z"/>
		</g>
	</g>
	<path class="st4" d="M659.1,416.6c0-2.3-1.5-2-2.4-1.7c1-0.5,2.8-1.6,2.5-3.4c-0.5-2.4-3.6-1.7-3.6-1.7s3.3-0.9,2.8-3.8
		c-0.4-2.9-3.6-1.6-3.6-1.6s3.6-1.4,2.3-3.6c-1.2-2.2-4.1-1.2-4.1-1.2s3.3-1.4,2.4-4.2c-0.9-2.7-3.9-0.8-3.9-0.8s3.6-2.3,2.3-4.2
		c-1.3-1.9-4.3-1-4.3-1s2.8-2,1-3.9c-0.3-0.3-0.6-0.5-0.9-0.7c-0.1-0.2-0.1-0.5-0.3-0.8c-1.7-3.5-4.8-2.3-4.8-2.3s1.9-3.6-0.4-5.8
		c-2.3-2.1-6.5,0-6.5,0s3.5-3.2,1.5-5.2c-2-1.9-4.9,0-4.9,0s2.7-2.4,0-4.2c-2.7-1.8-4.6,0-4.6,0s3.1-3.4,0.6-5
		c-2.5-1.6-3.9,0.4-3.9,0.4s1.9-5.6-1.7-5.6c-2.3,0-3,0.2-3.3,0.3c0.4-0.5,1.3-2.4-1.7-3.6c-3.6-1.4-4.7,1-4.7,1s-1-3.5-4.8-3.5
		c-3.8,0-5,3.1-5,3.1s-0.7-3.1-5-3.5c-4.3-0.4-4.2,4.2-4.2,4.2s-1.3-3.5-5.8-3.3c-4.5,0.2-2.3,4-2.3,4s-2.4-3.5-6.5-1.9
		c-2.6,1-2.3,2.4-1.8,3.3c-0.8-0.7-2-1.5-3.6-0.9c-1.8,0.7-1.4,2.1-1,2.9c-0.5-0.7-1.7-1.8-3.6-1.3c-2.8,0.7-1.4,4.4-1.4,4.4
		s-2.3-3.2-5-1.7c-2.7,1.5-0.8,4.6-0.8,4.6s-2.3-2.5-5.5-0.1c-2.1,1.5-1.3,2.9-0.5,3.7c-1-0.7-2.6-1.5-3.7-0.6
		c-1.7,1.3-1.8,3.1-0.4,4.3c0,0-3.9-2.1-6.3,0c-2.4,2.1,0.4,4.2,0.4,4.2s-2.2-1.5-3.6-0.1c-1.4,1.4,0.2,3,0.4,3.1
		c-0.2-0.2-1.8-1.5-3.7,0.5c-2.1,2.2,0.6,3.3,0.6,3.3s-2.7-0.7-3.9,2.1c-0.5,1.2-0.3,1.8,0.1,2.1c-0.8,0-1.7,0.3-1.9,1.6
		c-0.4,2.5,1.8,3.3,1.8,3.3s-3-1.1-3.3,1.5c-0.4,2.6,2,4.2,2,4.2s-4.1,0-4.2,3.2c-0.1,2.4,1.9,2.3,2.8,2.1c-1.1,0.3-3.4,1.1-3.3,2.9
		c0.1,2,2.7,1.8,3.4,1.8c-0.7,0.1-3.3,0.5-3.4,2.3c-0.1,2.1,3.1,2.1,3.1,2.1s-3,0-3.1,3.1c0,2.3,1.5,2,2.5,1.7
		c-1,0.5-2.8,1.6-2.5,3.4c0.5,2.4,3.6,1.7,3.6,1.7s-3.3,0.9-2.8,3.8c0.4,2.9,3.6,1.6,3.6,1.6s-3.6,1.4-2.3,3.6
		c1.2,2.2,4.1,1.2,4.1,1.2s-3.3,1.4-2.4,4.2c0.9,2.7,3.9,0.8,3.9,0.8s-3.6,2.3-2.3,4.2c1.3,1.9,4.3,1,4.3,1s-2.8,2-1,3.9
		c0.3,0.3,0.6,0.5,0.9,0.7c0.1,0.2,0.1,0.5,0.3,0.8c1.7,3.5,4.8,2.3,4.8,2.3s-1.9,3.6,0.4,5.8c2.3,2.1,6.5,0,6.5,0s-3.5,3.2-1.5,5.2
		c2,1.9,4.9,0,4.9,0s-2.7,2.4,0,4.2c2.7,1.8,4.6,0,4.6,0s-3.1,3.4-0.6,5c2.5,1.6,3.9-0.4,3.9-0.4s-1.9,5.6,1.7,5.6
		c2.3,0,3-0.2,3.3-0.3c-0.4,0.5-1.3,2.4,1.7,3.6c3.6,1.4,4.7-1,4.7-1s1,3.5,4.8,3.5c3.8,0,5-3.1,5-3.1s0.7,3.1,5,3.5
		c4.3,0.4,4.2-4.2,4.2-4.2s1.3,3.5,5.8,3.3c4.5-0.2,2.3-4,2.3-4s2.4,3.5,6.5,1.9c2.6-1,2.3-2.4,1.8-3.3c0.8,0.7,2,1.5,3.6,0.9
		c1.8-0.7,1.4-2.1,1-2.9c0.5,0.7,1.7,1.8,3.6,1.3c2.8-0.7,1.4-4.4,1.4-4.4s2.3,3.2,5,1.7c2.7-1.5,0.8-4.6,0.8-4.6s2.3,2.5,5.5,0.1
		c2.1-1.5,1.3-2.9,0.5-3.7c1,0.7,2.6,1.5,3.7,0.6c1.7-1.3,1.8-3.1,0.4-4.3c0,0,3.9,2.1,6.3,0c2.4-2.1-0.4-4.2-0.4-4.2
		s2.2,1.5,3.6,0.1c1.4-1.4-0.2-3-0.4-3.1c0.2,0.2,1.8,1.5,3.7-0.5c2.1-2.2-0.6-3.3-0.6-3.3s2.7,0.7,3.9-2.1c0.5-1.2,0.3-1.8-0.1-2.1
		c0.8,0,1.7-0.3,1.9-1.6c0.4-2.5-1.8-3.3-1.8-3.3s3,1.1,3.3-1.5c0.4-2.6-2-4.2-2-4.2s4.1,0,4.2-3.2c0.1-2.4-1.9-2.3-2.8-2.1
		c1.1-0.3,3.4-1.1,3.3-2.9c-0.1-2-2.7-1.8-3.4-1.8c0.7-0.1,3.3-0.5,3.4-2.3c0.1-2.1-3.1-2.1-3.1-2.1S659,419.8,659.1,416.6z"/>
	<path class="st7" d="M659.1,413.9c0-2.3-1.5-2-2.4-1.7c1-0.5,2.8-1.6,2.5-3.4c-0.5-2.4-3.6-1.7-3.6-1.7s3.3-0.9,2.8-3.8
		c-0.4-2.9-3.6-1.6-3.6-1.6s3.6-1.4,2.3-3.6c-1.2-2.2-4.1-1.2-4.1-1.2s3.3-1.4,2.4-4.2c-0.9-2.7-3.9-0.8-3.9-0.8s3.6-2.3,2.3-4.2
		c-1.3-1.9-4.3-1-4.3-1s2.8-2,1-3.9c-0.3-0.3-0.6-0.5-0.9-0.7c-0.1-0.2-0.1-0.5-0.3-0.8c-1.7-3.5-4.8-2.3-4.8-2.3s1.9-3.6-0.4-5.8
		c-2.3-2.1-6.5,0-6.5,0s3.5-3.2,1.5-5.2c-2-1.9-4.9,0-4.9,0s2.7-2.4,0-4.2c-2.7-1.8-4.6,0-4.6,0s3.1-3.4,0.6-5
		c-2.5-1.6-3.9,0.4-3.9,0.4s1.9-5.6-1.7-5.6c-2.3,0-3,0.2-3.3,0.3c0.4-0.5,1.3-2.4-1.7-3.6c-3.6-1.4-4.7,1-4.7,1s-1-3.5-4.8-3.5
		c-3.8,0-5,3.1-5,3.1s-0.7-3.1-5-3.5c-4.3-0.4-4.2,4.2-4.2,4.2s-1.3-3.5-5.8-3.3c-4.5,0.2-2.3,4-2.3,4s-2.4-3.5-6.5-1.9
		c-2.6,1-2.3,2.4-1.8,3.3c-0.8-0.7-2-1.5-3.6-0.9c-1.8,0.7-1.4,2.1-1,2.9c-0.5-0.7-1.7-1.8-3.6-1.3c-2.8,0.7-1.4,4.4-1.4,4.4
		s-2.3-3.2-5-1.7c-2.7,1.5-0.8,4.6-0.8,4.6s-2.3-2.5-5.5-0.1c-2.1,1.5-1.3,2.9-0.5,3.7c-1-0.7-2.6-1.5-3.7-0.6
		c-1.7,1.3-1.8,3.1-0.4,4.3c0,0-3.9-2.1-6.3,0c-2.4,2.1,0.4,4.2,0.4,4.2s-2.2-1.5-3.6-0.1c-1.4,1.4,0.2,3,0.4,3.1
		c-0.2-0.2-1.8-1.5-3.7,0.5c-2.1,2.2,0.6,3.3,0.6,3.3s-2.7-0.7-3.9,2.1c-0.5,1.2-0.3,1.8,0.1,2.1c-0.8,0-1.7,0.3-1.9,1.6
		c-0.4,2.5,1.8,3.3,1.8,3.3s-3-1.1-3.3,1.5c-0.4,2.6,2,4.2,2,4.2s-4.1,0-4.2,3.2c-0.1,2.4,1.9,2.3,2.8,2.1c-1.1,0.3-3.4,1.1-3.3,2.9
		c0.1,2,2.7,1.8,3.4,1.8c-0.7,0.1-3.3,0.5-3.4,2.3c-0.1,2.1,3.1,2.1,3.1,2.1s-3,0-3.1,3.1c0,2.3,1.5,2,2.5,1.7
		c-1,0.5-2.8,1.6-2.5,3.4c0.5,2.4,3.6,1.7,3.6,1.7s-3.3,0.9-2.8,3.8c0.4,2.9,3.6,1.6,3.6,1.6s-3.6,1.4-2.3,3.6
		c1.2,2.2,4.1,1.2,4.1,1.2s-3.3,1.4-2.4,4.2c0.9,2.7,3.9,0.8,3.9,0.8s-3.6,2.3-2.3,4.2c1.3,1.9,4.3,1,4.3,1s-2.8,2-1,3.9
		c0.3,0.3,0.6,0.5,0.9,0.7c0.1,0.2,0.1,0.5,0.3,0.8c1.7,3.5,4.8,2.3,4.8,2.3s-1.9,3.6,0.4,5.8c2.3,2.1,6.5,0,6.5,0s-3.5,3.2-1.5,5.2
		c2,1.9,4.9,0,4.9,0s-2.7,2.4,0,4.2c2.7,1.8,4.6,0,4.6,0s-3.1,3.4-0.6,5c2.5,1.6,3.9-0.4,3.9-0.4s-1.9,5.6,1.7,5.6
		c2.3,0,3-0.2,3.3-0.3c-0.4,0.5-1.3,2.4,1.7,3.6c3.6,1.4,4.7-1,4.7-1s1,3.5,4.8,3.5c3.8,0,5-3.1,5-3.1s0.7,3.1,5,3.5
		c4.3,0.4,4.2-4.2,4.2-4.2s1.3,3.5,5.8,3.3c4.5-0.2,2.3-4,2.3-4s2.4,3.5,6.5,1.9c2.6-1,2.3-2.4,1.8-3.3c0.8,0.7,2,1.5,3.6,0.9
		c1.8-0.7,1.4-2.1,1-2.9c0.5,0.7,1.7,1.8,3.6,1.3c2.8-0.7,1.4-4.4,1.4-4.4s2.3,3.2,5,1.7c2.7-1.5,0.8-4.6,0.8-4.6s2.3,2.5,5.5,0.1
		c2.1-1.5,1.3-2.9,0.5-3.7c1,0.7,2.6,1.5,3.7,0.6c1.7-1.3,1.8-3.1,0.4-4.3c0,0,3.9,2.1,6.3,0c2.4-2.1-0.4-4.2-0.4-4.2
		s2.2,1.5,3.6,0.1c1.4-1.4-0.2-3-0.4-3.1c0.2,0.2,1.8,1.5,3.7-0.5c2.1-2.2-0.6-3.3-0.6-3.3s2.7,0.7,3.9-2.1c0.5-1.2,0.3-1.8-0.1-2.1
		c0.8,0,1.7-0.3,1.9-1.6c0.4-2.5-1.8-3.3-1.8-3.3s3,1.1,3.3-1.5c0.4-2.6-2-4.2-2-4.2s4.1,0,4.2-3.2c0.1-2.4-1.9-2.3-2.8-2.1
		c1.1-0.3,3.4-1.1,3.3-2.9c-0.1-2-2.7-1.8-3.4-1.8c0.7-0.1,3.3-0.5,3.4-2.3c0.1-2.1-3.1-2.1-3.1-2.1S659,417,659.1,413.9z"/>
	<path class="st8" d="M646.2,413.7c0-1.8-1.2-1.6-2-1.4c0.8-0.4,2.3-1.3,2-2.7c-0.4-1.9-2.8-1.4-2.8-1.4s2.6-0.7,2.3-3
		c-0.3-2.3-2.9-1.3-2.9-1.3s2.8-1.1,1.9-2.9c-1-1.8-3.2-1-3.2-1s2.7-1.1,1.9-3.3c-0.8-2.2-3.1-0.6-3.1-0.6s2.9-1.9,1.9-3.4
		c-1-1.5-3.4-0.8-3.4-0.8s2.3-1.6,0.8-3.1c-0.2-0.3-0.5-0.4-0.7-0.5c0-0.2-0.1-0.4-0.2-0.6c-1.4-2.8-3.9-1.8-3.9-1.8
		s1.5-2.9-0.3-4.6c-1.8-1.7-5.1,0-5.1,0s2.8-2.6,1.2-4.1c-1.6-1.5-3.9,0-3.9,0s2.1-1.9,0-3.4c-2.1-1.4-3.6,0-3.6,0s2.5-2.7,0.5-4
		c-2-1.3-3.1,0.3-3.1,0.3s1.5-4.4-1.4-4.5c-1.8,0-2.4,0.1-2.6,0.3c0.3-0.4,1.1-1.9-1.4-2.9c-2.9-1.1-3.8,0.8-3.8,0.8
		s-0.8-2.8-3.8-2.8c-3,0-4,2.5-4,2.5s-0.6-2.5-4-2.8c-3.4-0.3-3.3,3.3-3.3,3.3s-1-2.8-4.6-2.6c-3.6,0.2-1.8,3.2-1.8,3.2
		s-1.9-2.8-5.2-1.5c-2.1,0.8-1.9,1.9-1.4,2.7c-0.6-0.6-1.6-1.2-2.9-0.7c-1.4,0.6-1.1,1.7-0.8,2.3c-0.4-0.6-1.3-1.4-2.8-1
		c-2.2,0.5-1.1,3.5-1.1,3.5s-1.9-2.6-4-1.4c-2.1,1.2-0.6,3.6-0.6,3.6s-1.9-2-4.4-0.1c-1.7,1.2-1,2.3-0.4,2.9c-0.8-0.5-2.1-1.2-3-0.5
		c-1.3,1-1.4,2.5-0.3,3.5c0,0-3.1-1.7-5,0c-1.9,1.7,0.3,3.3,0.3,3.3s-1.7-1.2-2.9-0.1c-1.1,1.1,0.2,2.4,0.3,2.5
		c-0.2-0.2-1.4-1.2-3,0.4c-1.7,1.8,0.5,2.6,0.5,2.6s-2.1-0.5-3.1,1.7c-0.4,1-0.2,1.4,0.1,1.7c-0.6,0-1.4,0.3-1.5,1.3
		c-0.3,2,1.4,2.6,1.4,2.6s-2.4-0.9-2.7,1.2c-0.3,2.1,1.6,3.3,1.6,3.3s-3.3,0-3.4,2.5c0,1.9,1.5,1.8,2.2,1.7
		c-0.8,0.2-2.7,0.9-2.6,2.3c0.1,1.6,2.1,1.5,2.7,1.4c-0.6,0.1-2.6,0.4-2.7,1.8c-0.1,1.7,2.4,1.7,2.4,1.7s-2.4,0-2.4,2.5
		c0,1.8,1.2,1.6,2,1.4c-0.8,0.4-2.3,1.3-2,2.7c0.4,1.9,2.8,1.4,2.8,1.4s-2.6,0.7-2.3,3c0.3,2.3,2.9,1.3,2.9,1.3s-2.8,1.1-1.9,2.9
		c1,1.8,3.2,1,3.2,1s-2.7,1.1-1.9,3.3c0.8,2.2,3.1,0.6,3.1,0.6s-2.9,1.9-1.9,3.4c1,1.5,3.4,0.8,3.4,0.8s-2.3,1.6-0.8,3.1
		c0.2,0.3,0.5,0.4,0.7,0.5c0,0.2,0.1,0.4,0.2,0.6c1.4,2.8,3.9,1.8,3.9,1.8s-1.5,2.9,0.3,4.6c1.8,1.7,5.1,0,5.1,0s-2.8,2.6-1.2,4.1
		c1.6,1.5,3.9,0,3.9,0s-2.1,1.9,0,3.4c2.1,1.4,3.6,0,3.6,0s-2.5,2.7-0.5,4c2,1.3,3.1-0.3,3.1-0.3s-1.5,4.4,1.4,4.5
		c1.8,0,2.4-0.1,2.6-0.3c-0.3,0.4-1.1,1.9,1.4,2.9c2.9,1.1,3.8-0.8,3.8-0.8s0.8,2.8,3.8,2.8c3,0,4-2.5,4-2.5s0.6,2.5,4,2.8
		c3.4,0.3,3.3-3.3,3.3-3.3s1,2.8,4.6,2.6c3.6-0.2,1.8-3.2,1.8-3.2s1.9,2.8,5.2,1.5c2.1-0.8,1.9-1.9,1.4-2.7c0.6,0.6,1.6,1.2,2.9,0.7
		c1.4-0.6,1.1-1.7,0.8-2.3c0.4,0.6,1.3,1.4,2.8,1c2.2-0.5,1.1-3.5,1.1-3.5s1.9,2.6,4,1.4c2.1-1.2,0.6-3.6,0.6-3.6s1.9,2,4.4,0.1
		c1.7-1.2,1-2.3,0.4-2.9c0.8,0.5,2.1,1.2,3,0.5c1.3-1,1.4-2.5,0.3-3.5c0,0,3.1,1.7,5,0c1.9-1.7-0.3-3.3-0.3-3.3s1.7,1.2,2.9,0.1
		c1.1-1.1-0.2-2.4-0.3-2.5c0.2,0.2,1.4,1.2,3-0.4c1.7-1.8-0.5-2.6-0.5-2.6s2.1,0.5,3.1-1.7c0.4-1,0.2-1.4-0.1-1.7
		c0.6,0,1.4-0.3,1.5-1.3c0.3-2-1.4-2.6-1.4-2.6s2.4,0.9,2.7-1.2c0.3-2.1-1.6-3.3-1.6-3.3s3.3,0,3.4-2.5c0-1.9-1.5-1.8-2.2-1.7
		c0.8-0.2,2.7-0.9,2.6-2.3c-0.1-1.6-2.1-1.5-2.7-1.4c0.6-0.1,2.6-0.4,2.7-1.8c0.1-1.7-2.4-1.7-2.4-1.7S646.1,416.2,646.2,413.7z"/>
	<path class="st7" d="M589,383.8c-4.8,2.2-7.5-0.4-12.2,2.4c-4.7,2.8-3.6,9.8-6.7,12.1c-3,2.3-13.7,6.9-7.8,17.1
		c5.8,10.3,2.9,11.5,3,16.6c0.1,5.2,5.3,15.5,10.3,13.8c5-1.7,15.5-8.1,22.4-4c6.8,4.2,6.7,5.7,12.8,3.1c6.2-2.6,3.1-9.9,10.3-14.3
		c7.1-4.4,11.7-5.8,10.8-11.7c-0.9-5.9-8.5-7.8-7.4-14.4c1.1-6.6,2.2-10.7-7.1-11.7c-9.3-1.1-7.8-3.8-12.3-7.6
		C600.5,381.4,593.2,381.8,589,383.8z"/>
	<g>
		<path class="st9" d="M617.5,386.6l-8-5c-2.2-1.7-2.6-4.8-1-7l3.5-4.6c1.7-2.2,4.8-2.6,7-1l7.5,5.7c2.2,1.7,2.6,4.8,1,7l-3,4
			C622.8,387.8,619.7,388.2,617.5,386.6z"/>
		<path class="st10" d="M626.6,374.6l-7.5-5.7c-2.2-1.7-5.3-1.2-7,1l-1.4,1.8c1.7-2.2,4.8-2.6,7-1l7.5,5.7c2.2,1.7,2.6,4.8,1,7
			l1.4-1.8C629.2,379.5,628.7,376.3,626.6,374.6z"/>
		<g>
			<path class="st11" d="M609.3,381.8c-2.4-1.8-2.8-5.1-1-7.5l3.5-4.6c1.8-2.3,5.1-2.8,7.5-1l7.5,5.7c2.3,1.8,2.8,5.1,1,7.5l-3,4
				c-1.8,2.3-5.1,2.8-7.4,1L609.3,381.8C609.3,381.8,609.3,381.8,609.3,381.8z M618.9,369.2c-2.1-1.6-5-1.2-6.6,0.9l-3.5,4.6
				c-1.6,2.1-1.2,5,0.9,6.6l8,5c2.1,1.6,5,1.2,6.6-0.9l3-4c1.6-2.1,1.2-5-0.9-6.6L618.9,369.2z"/>
		</g>
		<g>
			<path class="st11" d="M619.1,368.9c-0.2-0.1-0.4-0.3-0.6-0.4l-9.2,4.9l-0.8,1.1c-0.5,0.7-0.8,1.5-1,2.3l12.8-6.8L619.1,368.9z"/>
			<path class="st11" d="M624.3,372.9l-15.3,8.2c0.2,0.2,0.3,0.3,0.5,0.5l1.4,0.9l15.2-8.1L624.3,372.9z"/>
			<path class="st11" d="M628.5,378.1l-13.3,7.1l2,1.3l10.8-5.8C628.5,379.8,628.6,379,628.5,378.1z"/>
		</g>
	</g>
	<g>
		<path class="st9" d="M561.4,397.2l-3.6,8.7c-1.3,2.4-4.3,3.4-6.8,2.1l-5.2-2.7c-2.4-1.3-3.4-4.3-2.1-6.8l4.4-8.3
			c1.3-2.4,4.3-3.4,6.8-2.1l4.4,2.3C561.8,391.8,562.7,394.8,561.4,397.2z"/>
		<path class="st10" d="M548.2,390.3l-4.4,8.3c-1.3,2.4-0.3,5.5,2.1,6.8l2,1.1c-2.4-1.3-3.4-4.3-2.1-6.8l4.4-8.3
			c1.3-2.4,4.3-3.4,6.8-2.1l-2-1.1C552.5,386.9,549.4,387.8,548.2,390.3z"/>
		<g>
			<path class="st11" d="M558.1,406.1c-1.4,2.6-4.6,3.6-7.2,2.3l-5.2-2.7c-2.6-1.4-3.6-4.6-2.2-7.2l4.4-8.3c1.4-2.6,4.6-3.6,7.2-2.2
				l4.4,2.3c2.6,1.4,3.6,4.6,2.3,7.2L558.1,406.1C558.1,406.1,558.1,406.1,558.1,406.1z M544.1,398.8c-1.2,2.3-0.3,5.1,2,6.3
				l5.2,2.7c2.3,1.2,5.1,0.3,6.3-2l3.6-8.7c1.2-2.3,0.3-5.1-2-6.3l-4.4-2.3c-2.3-1.2-5.1-0.3-6.3,2L544.1,398.8z"/>
		</g>
		<g>
			<path class="st11" d="M543.8,398.6c-0.1,0.2-0.2,0.4-0.3,0.6l6.4,8.2l1.2,0.6c0.8,0.4,1.6,0.6,2.4,0.6l-8.9-11.5L543.8,398.6z"/>
			<path class="st11" d="M546.8,392.8l10.6,13.7c0.1-0.2,0.3-0.4,0.4-0.6l0.6-1.5l-10.6-13.7L546.8,392.8z"/>
			<path class="st11" d="M551.2,387.8l9.2,11.9l0.9-2.2l-7.5-9.7C553,387.5,552.1,387.6,551.2,387.8z"/>
		</g>
	</g>
	<g>
		<path class="st9" d="M586.9,443.3l9.4-0.4c2.7,0.1,4.9,2.5,4.8,5.2l-0.3,5.8c-0.1,2.7-2.5,4.9-5.2,4.8l-9.4-0.4
			c-2.7-0.1-4.9-2.5-4.8-5.2l0.2-5C581.8,445.3,584.2,443.1,586.9,443.3z"/>
		<path class="st11" d="M586.3,458.3l9.4,0.4c2.7,0.1,5.1-2,5.2-4.8l0.1-2.3c-0.1,2.7-2.5,4.9-5.2,4.8l-9.4-0.4
			c-2.7-0.1-4.9-2.5-4.8-5.2l-0.1,2.3C581.4,455.8,583.5,458.1,586.3,458.3z"/>
		<g>
			<path class="st11" d="M596.4,442.5c3,0.1,5.2,2.6,5.1,5.5l-0.3,5.8c-0.1,2.9-2.6,5.2-5.5,5.1l-9.4-0.4c-2.9-0.1-5.2-2.6-5.1-5.5
				l0.2-5c0.1-2.9,2.6-5.2,5.5-5.1L596.4,442.5C596.4,442.5,596.4,442.5,596.4,442.5z M595.7,458.4c2.6,0.1,4.8-1.9,4.9-4.5l0.3-5.8
				c0.1-2.6-1.9-4.8-4.5-4.9l-9.4,0.4c-2.6-0.1-4.8,1.9-4.9,4.5l-0.2,5c-0.1,2.6,1.9,4.8,4.5,4.9L595.7,458.4z"/>
		</g>
		<g>
			<path class="st11" d="M595.7,458.7c0.2,0,0.4,0,0.7,0l4.8-9.2l0.1-1.3c0-0.9-0.1-1.7-0.5-2.4l-6.6,12.9L595.7,458.7z"/>
			<path class="st11" d="M589.1,458.4l7.9-15.4c-0.2,0-0.5-0.1-0.7-0.1l-1.7,0.1l-7.9,15.4L589.1,458.4z"/>
			<path class="st11" d="M582.7,456.5l6.9-13.4l-2.4,0.1l-5.6,10.9C581.7,455.1,582.1,455.9,582.7,456.5z"/>
		</g>
	</g>
	<g>
		<path class="st9" d="M628.1,427.5l6-7.3c1.9-2,5.1-2,7.1-0.1l4.1,4.1c2,1.9,2,5.1,0.1,7.1l-6.6,6.7c-1.9,2-5.1,2-7.1,0.1l-3.6-3.5
			C626.2,432.7,626.2,429.5,628.1,427.5z"/>
		<path class="st11" d="M638.8,438.1l6.6-6.7c1.9-2,1.9-5.1-0.1-7.1l-1.6-1.6c2,1.9,2,5.1,0.1,7.1l-6.6,6.7c-1.9,2-5.1,2-7.1,0.1
			l1.6,1.6C633.7,440,636.8,440,638.8,438.1z"/>
		<g>
			<path class="st11" d="M633.9,420c2.1-2.1,5.5-2.1,7.5-0.1l4.1,4.1c2.1,2.1,2.1,5.4,0.1,7.5l-6.6,6.7c-2.1,2.1-5.4,2.1-7.5,0.1
				l-3.6-3.5c-2.1-2.1-2.1-5.4-0.1-7.5L633.9,420C633.9,420,633.9,420,633.9,420z M645.2,431.1c1.8-1.8,1.8-4.8,0-6.6l-4.1-4.1
				c-1.8-1.8-4.8-1.8-6.6,0l-6,7.3c-1.8,1.8-1.8,4.8,0,6.6l3.6,3.5c1.8,1.8,4.8,1.8,6.6,0L645.2,431.1z"/>
		</g>
		<g>
			<path class="st11" d="M645.4,431.4c0.2-0.2,0.3-0.3,0.4-0.5l-3.7-9.7l-0.9-0.9c-0.6-0.6-1.3-1-2.1-1.2l5.1,13.6L645.4,431.4z"/>
			<path class="st11" d="M640.8,436l-6.1-16.2c-0.2,0.1-0.4,0.3-0.5,0.5l-1.1,1.3l6.1,16.1L640.8,436z"/>
			<path class="st11" d="M635.1,439.5l-5.3-14.1l-1.5,1.9l4.3,11.5C633.4,439.3,634.2,439.5,635.1,439.5z"/>
		</g>
	</g>
	<g>
		<path class="st12" d="M586.7,372.2c-0.4,1.8-2.1,2.9-3.8,2.5c-1.8-0.4-2.9-2.1-2.5-3.8c0.4-1.8,2.1-2.9,3.8-2.5
			C586,368.7,587.1,370.4,586.7,372.2z"/>
		<path class="st13" d="M584.9,370.6c-0.2,0.9-1,1.4-1.9,1.3c-0.9-0.2-1.4-1-1.3-1.9c0.2-0.9,1-1.4,1.9-1.3
			C584.5,368.9,585.1,369.7,584.9,370.6z"/>
	</g>
	<g>
		<path class="st12" d="M638.4,401.1c-0.4,1.8-2.1,2.9-3.8,2.5c-1.8-0.4-2.9-2.1-2.5-3.8c0.4-1.8,2.1-2.9,3.8-2.5
			C637.6,397.6,638.8,399.3,638.4,401.1z"/>
		<path class="st13" d="M636.5,399.5c-0.2,0.9-1,1.4-1.9,1.3c-0.9-0.2-1.4-1-1.3-1.9c0.2-0.9,1-1.4,1.9-1.3
			C636.2,397.7,636.7,398.6,636.5,399.5z"/>
	</g>
	<g>
		<path class="st12" d="M555.8,422c-0.4,1.8-2.1,2.9-3.8,2.5c-1.8-0.4-2.9-2.1-2.5-3.8c0.4-1.8,2.1-2.9,3.8-2.5
			C555,418.5,556.2,420.2,555.8,422z"/>
		<path class="st13" d="M554,420.4c-0.2,0.9-1,1.4-1.9,1.3c-0.9-0.2-1.4-1-1.3-1.9c0.2-0.9,1-1.4,1.9-1.3
			C553.6,418.7,554.1,419.5,554,420.4z"/>
	</g>
	<g>
		<path class="st12" d="M571.5,447.1c-0.4,1.8-2.1,2.9-3.8,2.5c-1.8-0.4-2.9-2.1-2.5-3.8c0.4-1.8,2.1-2.9,3.8-2.5
			C570.8,443.6,571.9,445.3,571.5,447.1z"/>
		<path class="st13" d="M569.7,445.5c-0.2,0.9-1,1.4-1.9,1.3c-0.9-0.2-1.4-1-1.3-1.9c0.2-0.9,1-1.4,1.9-1.3
			C569.3,443.8,569.9,444.6,569.7,445.5z"/>
	</g>
	<g>
		<path class="st12" d="M626,447.4c-0.4,1.8-2.1,2.9-3.8,2.5c-1.8-0.4-2.9-2.1-2.5-3.8c0.4-1.8,2.1-2.9,3.8-2.5
			C625.3,444,626.4,445.7,626,447.4z"/>
		<path class="st13" d="M624.2,445.9c-0.2,0.9-1,1.4-1.9,1.3c-0.9-0.2-1.4-1-1.3-1.9c0.2-0.9,1-1.4,1.9-1.3
			C623.8,444.1,624.4,445,624.2,445.9z"/>
	</g>
	<g>
		<path class="st14" d="M558.6,378.6c-0.5,1.7-1.1,3.3-1.7,5c4.2,1.8,7.7,5.1,9.8,9.2c0.4-0.2,0.8-0.3,1.2-0.5
			c0.8-0.3,1.6-0.6,2.4-0.8C568.3,385.9,564,381.1,558.6,378.6z"/>
		<path class="st15" d="M557.5,382c-0.2,0.5-0.4,1.1-0.6,1.6c4.2,1.8,7.7,5.1,9.8,9.2c0.3-0.1,0.7-0.3,1-0.4
			C565.9,388.4,562.6,384.5,557.5,382z"/>
	</g>
	<g>
		<path class="st14" d="M605.2,464.6c1.3-0.4,2.5-0.7,3.8-1c-0.6-3.3,0-6.8,1.6-9.8c-0.3-0.2-0.5-0.4-0.8-0.6
			c-0.5-0.4-1-0.7-1.5-1.1C605.7,455.6,604.5,460.3,605.2,464.6z"/>
		<path class="st15" d="M607.8,463.9c0.4-0.1,0.8-0.2,1.2-0.3c-0.6-3.3,0-6.8,1.6-9.8c-0.2-0.2-0.4-0.3-0.7-0.5
			C608.2,456.1,607.2,459.8,607.8,463.9z"/>
	</g>
	<g>
		<path class="st14" d="M601.3,364.1c1.2,0.5,2.4,1.1,3.6,1.6c1.7-2.9,4.4-5.3,7.5-6.5c-0.1-0.3-0.2-0.6-0.2-1
			c-0.1-0.6-0.3-1.2-0.4-1.8C607.4,357.5,603.5,360.3,601.3,364.1z"/>
		<path class="st15" d="M603.7,365.2c0.4,0.2,0.8,0.4,1.1,0.5c1.7-2.9,4.4-5.3,7.5-6.5c-0.1-0.3-0.1-0.5-0.2-0.8
			C609,359.5,605.9,361.6,603.7,365.2z"/>
	</g>
	<g>
		<path class="st14" d="M555.2,433.8c-0.9,0.9-1.9,1.8-2.9,2.6c2.1,2.7,3.2,6.1,3.1,9.4c0.3,0,0.6,0.1,1,0.2
			c0.6,0.1,1.2,0.2,1.8,0.3C558.9,442,557.8,437.3,555.2,433.8z"/>
		<path class="st15" d="M553.3,435.6c-0.3,0.3-0.6,0.6-0.9,0.8c2.1,2.7,3.2,6.1,3.1,9.4c0.3,0,0.5,0.1,0.8,0.1
			C556.5,442.7,555.7,439,553.3,435.6z"/>
	</g>
	<g>
		<path class="st14" d="M648.5,407.3c0.9-0.9,1.9-1.8,2.8-2.7c-2.1-2.6-3.3-6-3.2-9.4c-0.3,0-0.6-0.1-1-0.1
			c-0.6-0.1-1.2-0.2-1.9-0.3C644.6,399.2,645.8,403.8,648.5,407.3z"/>
		<path class="st15" d="M650.4,405.4c0.3-0.3,0.6-0.6,0.9-0.9c-2.1-2.6-3.3-6-3.2-9.4c-0.3,0-0.5-0.1-0.8-0.1
			C647.1,398.4,647.9,402.1,650.4,405.4z"/>
	</g>
	<path class="st16" d="M589,381.1c-4.8,2.2-7.5-0.4-12.2,2.4c-4.7,2.8-3.6,9.8-6.7,12.1c-3,2.3-13.7,6.9-7.8,17.1
		c5.8,10.3,2.9,11.5,3,16.6c0.1,5.2,5.3,15.5,10.3,13.8c5-1.7,15.5-8.2,22.4-4c6.8,4.2,6.7,5.7,12.8,3.1c6.2-2.6,3.1-9.9,10.3-14.3
		c7.1-4.4,11.7-5.8,10.8-11.7c-0.9-5.9-8.5-7.8-7.4-14.4c1.1-6.6,2.2-10.7-7.1-11.7c-9.3-1.1-7.8-3.8-12.3-7.6
		C600.5,378.7,593.2,379.1,589,381.1z"/>
	<g>
		<path class="st17" d="M624.4,402.1c0-0.1,0-0.2,0-0.2c0.4-2.6,0.8-4.8,0.7-6.5c-0.1,1.3-0.4,2.8-0.7,4.5
			C624.3,400.6,624.3,401.4,624.4,402.1z"/>
		<path class="st17" d="M562.3,410.7c-1-1.7-1.5-3.3-1.7-4.7c-0.2,1.9,0.2,4.2,1.7,6.8c2.5,4.4,3.4,7.2,3.6,9.3
			C566.1,419.5,565.7,416.6,562.3,410.7z"/>
		<path class="st17" d="M621,425.9c-7.1,4.4-4.1,11.7-10.3,14.3c-6.2,2.6-6,1.1-12.8-3.1c-6.8-4.2-17.3,2.3-22.4,4
			c-4.8,1.6-9.7-7.8-10.2-13.1c0,0.4-0.1,0.8,0,1.3c0.1,5.2,5.3,15.5,10.3,13.8c5-1.7,15.5-8.2,22.4-4c6.8,4.2,6.7,5.7,12.8,3.1
			c6.2-2.6,3.1-9.9,10.3-14.3c7-4.3,11.5-5.7,10.8-11.4C631.3,420.6,627.1,422.2,621,425.9z"/>
	</g>
	<g>
		<path class="st18" d="M574.6,394.2c0,0,1.1-7.6,3.1-8.9c1.9-1.3,4.8-1.3,7.9-1.3c3.1,0,7.8-2.8,10.6-2.7c2.8,0.1,4.6,1.3,3.2,2.7
			c-1.4,1.4-3.8-0.3-7.2,0.6c-3.4,0.9-5.4,1.4-9.7,1.7c-4.3,0.3-4.6,0.4-5.6,3.7C575.7,393.3,574.8,395.5,574.6,394.2z"/>
		<path class="st18" d="M604.7,387.5c-0.6,0.6-1.8,0.4-2.6-0.5c-0.8-0.8-1-2-0.5-2.6c0.6-0.6,1.8-0.4,2.6,0.5
			C605.1,385.7,605.3,386.9,604.7,387.5z"/>
	</g>
	<path class="st18" d="M570.8,397.9c-1.5,0.4-8.9,4.2-8,8.4c0.9,4.3,4.9,5.8,5.4,11.9c0.6,6.1-1.6,7.2-0.8,10.7
		c0.9,3.5,2.7,4.2,2.7,0.9c0-3.3-0.5-6.9,0.3-10.3c0.8-3.4-1-6.7-2.9-10.1c-1.9-3.4-3.4-4.3-1.8-6
		C567.3,401.6,573.9,397.1,570.8,397.9z"/>
	<path class="st19" d="M618,393.2c0,0,5-0.3,4.3,2.4c-0.6,2.7-2.3,7.9,2.3,13.4c4.6,5.5,5.3,6.4,3.6,8.7c-1.7,2.3-11.6,5.7-13,11.4
		c-1.3,5.7-5.2,2.8-3.2-1.6c2-4.4,9.7-7.2,12.2-9.1c2.5-1.8,3.8-2.5-2.1-9.7c-3.6-4.4-0.6-11.9-2.6-13.4
		C617.7,393.9,616.5,393.9,618,393.2z"/>
	<g>
		<path class="st20" d="M621.7,419.5c-0.3-0.2-0.4-0.7-0.2-1c0.2-0.3,0.7-0.4,1-0.2c0.3,0.2,0.4,0.7,0.2,1
			C622.5,419.6,622,419.7,621.7,419.5z"/>
		<path class="st20" d="M590.1,413.5c-0.3-0.2-0.4-0.7-0.2-1c0.2-0.3,0.7-0.4,1-0.2c0.3,0.2,0.4,0.7,0.2,1
			C590.9,413.6,590.4,413.7,590.1,413.5z"/>
		<path class="st20" d="M575.3,436.1c-0.3-0.2-0.4-0.7-0.2-1c0.2-0.3,0.7-0.4,1-0.2c0.3,0.2,0.4,0.7,0.2,1
			C576.1,436.2,575.7,436.3,575.3,436.1z"/>
		<path class="st20" d="M584.8,380.5c-0.3-0.2-0.4-0.7-0.2-1c0.2-0.3,0.7-0.4,1-0.2c0.3,0.2,0.4,0.7,0.2,1
			C585.6,380.6,585.1,380.7,584.8,380.5z"/>
		<path class="st20" d="M610.9,397.6c-0.3-0.2-0.4-0.7-0.2-1c0.2-0.3,0.7-0.4,1-0.2c0.3,0.2,0.4,0.7,0.2,1
			C611.7,397.7,611.3,397.8,610.9,397.6z"/>
		<path class="st20" d="M630.2,391.9c-0.3-0.2-0.4-0.7-0.2-1c0.2-0.3,0.7-0.4,1-0.2c0.3,0.2,0.4,0.7,0.2,1
			C631,392.1,630.5,392.2,630.2,391.9z"/>
		<path class="st20" d="M595.2,372.1c-0.3-0.2-0.4-0.7-0.2-1c0.2-0.3,0.7-0.4,1-0.2c0.3,0.2,0.4,0.7,0.2,1
			C596,372.3,595.5,372.4,595.2,372.1z"/>
		<path class="st20" d="M590.6,431.2c-0.3-0.2-0.4-0.7-0.2-1c0.2-0.3,0.7-0.4,1-0.2c0.3,0.2,0.4,0.7,0.2,1
			C591.4,431.3,590.9,431.4,590.6,431.2z"/>
		<path class="st20" d="M569.3,380.5c-0.3-0.2-0.4-0.7-0.2-1c0.2-0.3,0.7-0.4,1-0.2c0.3,0.2,0.4,0.7,0.2,1
			C570.1,380.6,569.6,380.7,569.3,380.5z"/>
		<path class="st20" d="M605.4,436.8c-0.3-0.2-0.4-0.7-0.2-1c0.2-0.3,0.7-0.4,1-0.2c0.3,0.2,0.4,0.7,0.2,1
			C606.2,437,605.7,437.1,605.4,436.8z"/>
		<path class="st20" d="M574.8,408.9c-0.3-0.2-0.4-0.7-0.2-1c0.2-0.3,0.7-0.4,1-0.2c0.3,0.2,0.4,0.7,0.2,1
			C575.6,409.1,575.1,409.2,574.8,408.9z"/>
		<path class="st20" d="M558.8,428.6c-0.3-0.2-0.4-0.7-0.2-1c0.2-0.3,0.7-0.4,1-0.2c0.3,0.2,0.4,0.7,0.2,1
			C559.6,428.7,559.1,428.8,558.8,428.6z"/>
		<path class="st20" d="M605.4,372.5c-0.3-0.2-0.4-0.7-0.2-1c0.2-0.3,0.7-0.4,1-0.2c0.3,0.2,0.4,0.7,0.2,1
			C606.2,372.6,605.7,372.7,605.4,372.5z"/>
		<path class="st20" d="M623.2,438.3c-0.3-0.2-0.4-0.7-0.2-1c0.2-0.3,0.7-0.4,1-0.2c0.3,0.2,0.4,0.7,0.2,1
			C624,438.4,623.5,438.5,623.2,438.3z"/>
		<path class="st20" d="M610.2,420.7c-0.3-0.2-0.4-0.7-0.2-1c0.2-0.3,0.7-0.4,1-0.2c0.3,0.2,0.4,0.7,0.2,1
			C611,420.8,610.6,420.9,610.2,420.7z"/>
		<path class="st20" d="M579.2,395.2c-0.3-0.2-0.4-0.7-0.2-1c0.2-0.3,0.7-0.4,1-0.2c0.3,0.2,0.4,0.7,0.2,1
			C580,395.3,579.5,395.4,579.2,395.2z"/>
		<path class="st20" d="M600.1,401.4c-0.3-0.2-0.4-0.7-0.2-1c0.2-0.3,0.7-0.4,1-0.2c0.3,0.2,0.4,0.7,0.2,1
			C600.9,401.5,600.5,401.6,600.1,401.4z"/>
		<path class="st20" d="M636.2,410.2c-0.3-0.2-0.4-0.7-0.2-1c0.2-0.3,0.7-0.4,1-0.2c0.3,0.2,0.4,0.7,0.2,1
			C637,410.4,636.5,410.5,636.2,410.2z"/>
		<path class="st20" d="M594.4,441.4c-0.3-0.2-0.4-0.7-0.2-1c0.2-0.3,0.7-0.4,1-0.2c0.3,0.2,0.4,0.7,0.2,1
			C595.2,441.5,594.7,441.6,594.4,441.4z"/>
		<path class="st20" d="M593.7,390.5c-0.3-0.2-0.4-0.7-0.2-1c0.2-0.3,0.7-0.4,1-0.2c0.3,0.2,0.4,0.7,0.2,1
			C594.5,390.6,594,390.7,593.7,390.5z"/>
		<path class="st20" d="M619.2,411c-0.3-0.2-0.4-0.7-0.2-1c0.2-0.3,0.7-0.4,1-0.2c0.3,0.2,0.4,0.7,0.2,1
			C620,411.1,619.5,411.2,619.2,411z"/>
	</g>
</g>
</svg>
