<?xml version="1.0" encoding="utf-8"?>
<!-- Generator: Adobe Illustrator 26.0.1, SVG Export Plug-In . SVG Version: 6.00 Build 0)  -->
<svg version="1.1" id="Layer_1" xmlns="http://www.w3.org/2000/svg" xmlns:xlink="http://www.w3.org/1999/xlink" x="0px" y="0px"
	 viewBox="0 0 1190.6 841.9" style="enable-background:new 0 0 1190.6 841.9;" xml:space="preserve">
<style type="text/css">
	.st0{fill:#F4F4F4;}
	.st1{fill:#216EB7;}
	.st2{fill:#DBDADA;}
	.st3{fill:#EBEAEA;}
	.st4{fill:#589A42;}
	.st5{opacity:0.5;fill:#589A42;}
	.st6{fill:#97C740;}
	.st7{opacity:0.5;fill:#97C740;}
	.st8{fill:#69B445;}
	.st9{fill:#3F9F47;}
	.st10{fill:#E2CDBC;}
	.st11{fill:#EE7E8A;}
	.st12{fill:#F4ACA2;}
	.st13{fill:#F29C9A;}
	.st14{fill:#E83628;}
	.st15{fill:#EE543C;}
	.st16{fill:#C92F27;}
	.st17{fill:#FDBD60;}
	.st18{fill:#FFFFFF;}
	.st19{fill:#F3D038;}
	.st20{fill:#E28F41;}
	.st21{fill:#6D8538;}
	.st22{fill:#FFFCDE;}
</style>
<g>
	<g>
		<path class="st0" d="M693.2,420.9c0,54.3-44,98.4-98.4,98.4c-54.3,0-98.4-44-98.4-98.4c0-54.3,44-98.3,98.4-98.3
			C649.2,322.5,693.2,366.6,693.2,420.9z"/>
		<path class="st1" d="M594.9,329.2c12.4,0,24.4,2.4,35.7,7.2c10.9,4.6,20.7,11.2,29.1,19.7c8.4,8.4,15,18.2,19.6,29.1
			c4.8,11.3,7.2,23.3,7.2,35.7c0,12.4-2.4,24.4-7.2,35.7c-4.6,10.9-11.2,20.7-19.6,29.1c-8.4,8.4-18.2,15-29.1,19.6
			c-11.3,4.8-23.3,7.2-35.7,7.2c-12.4,0-24.4-2.4-35.7-7.2c-10.9-4.6-20.7-11.2-29.1-19.6c-8.4-8.4-15-18.2-19.6-29.1
			c-4.8-11.3-7.2-23.3-7.2-35.7c0-12.4,2.4-24.4,7.2-35.7c4.6-10.9,11.2-20.7,19.6-29.1c8.4-8.4,18.2-15,29.1-19.7
			C570.5,331.7,582.5,329.2,594.9,329.2L594.9,329.2z M594.9,327c-51.9,0-93.9,42.1-93.9,93.9c0,51.9,42.1,93.9,93.9,93.9
			c51.9,0,93.9-42.1,93.9-93.9C688.8,369,646.7,327,594.9,327L594.9,327z"/>
		<path class="st1" d="M594.9,332.4c11.9,0,23.5,2.3,34.4,7c10.5,4.5,20,10.8,28.1,19c8.1,8.1,14.5,17.6,19,28.1
			c4.6,10.9,7,22.5,7,34.4c0,11.9-2.3,23.5-7,34.4c-4.5,10.5-10.8,20-19,28.1c-8.1,8.1-17.6,14.5-28.1,19
			c-10.9,4.6-22.5,6.9-34.4,6.9c-11.9,0-23.5-2.3-34.4-6.9c-10.5-4.5-20-10.8-28.1-19c-8.1-8.1-14.5-17.6-19-28.1
			c-4.6-10.9-7-22.5-7-34.4c0-11.9,2.3-23.5,7-34.4c4.5-10.5,10.8-20,19-28.1c8.1-8.1,17.6-14.5,28.1-19
			C571.3,334.8,582.9,332.4,594.9,332.4L594.9,332.4z M594.9,331.5c-49.4,0-89.4,40-89.4,89.4c0,49.4,40,89.4,89.4,89.4
			c49.4,0,89.4-40,89.4-89.4C684.2,371.5,644.2,331.5,594.9,331.5L594.9,331.5z"/>
		<path class="st2" d="M662.4,420.9c0,37.3-30.2,67.6-67.6,67.6c-37.3,0-67.6-30.2-67.6-67.6c0-37.3,30.3-67.6,67.6-67.6
			C632.2,353.3,662.4,383.6,662.4,420.9z"/>
		<path class="st0" d="M661.3,421.2c0,36.5-29.6,66.1-66.1,66.1c-36.5,0-66.1-29.6-66.1-66.1s29.6-66.1,66.1-66.1
			C631.7,355.1,661.3,384.7,661.3,421.2z"/>
	</g>
	<g>
		<g>
			<path class="st3" d="M656.2,413.9c1,0.8,1.2,2,3.9,0.9c2.7-1.2,2.8-3.6,2-5.8c-0.8-2.2-2-2.1-0.7-4.1c1.3-2,1.4-2.7-0.9-4
				c0-0.1,0.1-0.2,0.1-0.3c0,0,0,0,0-0.1c0-0.1,0-0.2,0-0.3c0,0,0-0.1,0-0.1c0-0.1,0-0.1,0-0.2c0-0.1,0-0.1,0-0.2c0,0,0-0.1,0-0.1
				c0-0.1-0.1-0.3-0.1-0.4l0,0l0,0c-0.5-1.3-1.9-2.7-2.9-2.8c-1.5-0.2-2.5-1.4-2.2-2.4c0.3-1,0.6-3.1-4-2.7c-2.8,0.2-4.4,1-5.8,2.5
				c-0.2-0.3-0.4-0.6-0.7-0.9c-1.3-1.4-1.5-2.5,0.9-3.5c2.4-1,3.2-1.7,3.2-4.3c0-2.5-0.5-4.2-3.2-5.4c-2.6-1.3-2.2-3.2-2.2-4.7
				c0-1.5,0.1-1.7-2.2-3.4c-0.1-0.1-0.3-0.2-0.4-0.2c0,0-0.1,0-0.1-0.1c-0.1-0.1-0.2-0.1-0.3-0.2c0,0-0.1,0-0.1,0
				c-0.1-0.1-0.2-0.1-0.4-0.1c0,0-0.1,0-0.1,0c-0.1,0-0.2-0.1-0.3-0.1c0,0-0.1,0-0.1,0c-0.1,0-0.2,0-0.3-0.1c0,0-0.1,0-0.1,0
				c-0.1,0-0.2,0-0.2,0c-0.1,0-0.1,0-0.2,0c-0.1,0-0.1,0-0.2,0c-0.1,0-0.2,0-0.2,0c-0.1,0-0.1,0-0.2,0c-0.1,0-0.1,0-0.2,0
				c0,0-0.1,0-0.1,0c-0.2,0-0.4,0.1-0.7,0.2c0,0,0,0,0,0c-0.1,0-0.2,0.1-0.2,0.1l0,0l0,0c-0.5,0.2-1,0.5-1.5,0.9
				c-1.5,1.2-2.5-0.7-4.7-2.1c-2.2-1.4-3.4-1-5.1,3.3c-0.8,3.5-0.9,7.9-0.3,11.7c-0.1-0.7-0.2-1.3-0.3-1.9c-0.2-2.1-0.4-2.9-1.5-3.9
				c-1.1-1-0.2-1.7-0.2-3.2c0-1.4-1.7-3.2-4.5-3.3c-2.8-0.2-2.3-2-1.4-3.3c0-0.1,0.1-0.2,0.1-0.2c0,0,0-0.1,0-0.1
				c0-0.1,0.1-0.1,0.1-0.2c0,0,0-0.1,0-0.1c0-0.1,0-0.1,0.1-0.2c0-0.1,0-0.1,0-0.2c0,0,0-0.1,0-0.1c0-0.1,0-0.1,0-0.2
				c0,0,0-0.1,0-0.1c0.2-1.1-0.1-2.3-1.4-3c0,0,0,0,0,0l0,0c-0.4-0.2-0.8-0.4-1.3-0.5c-3.3-0.6-6.4,7.3-6.4,7.3s-0.9-1.4-3.3-2
				c-1.7-0.4-2.9,0.4-3.7,1.5c0.1-1.5-0.9-2.3-1.9-3.2c-1.6-1.4-3.8-1.5-5.8-0.5c-0.1,0-0.2,0.1-0.3,0.2c0,0-0.1,0-0.1,0.1
				c-0.1,0-0.1,0.1-0.2,0.1c0,0-0.1,0-0.1,0.1c-0.1,0-0.2,0.1-0.2,0.1c0,0-0.1,0-0.1,0.1c0,0-0.1,0-0.1,0c0,0-0.1,0-0.1,0.1
				c0,0,0,0-0.1,0c-0.1,0-0.2,0.1-0.3,0.1c0,0,0,0-0.1,0c-0.1,0-0.1,0-0.2,0c0,0,0,0-0.1,0c-0.1,0-0.2,0-0.3,0c0,0,0,0,0,0
				c-0.1,0-0.1,0-0.2,0c0,0,0,0,0,0c-0.2-0.1-0.3-0.1-0.5-0.2c0,0,0,0-0.1,0c-0.1,0-0.1-0.1-0.2-0.1c-0.5-0.3-1-0.9-1.6-1.7
				c-1.4-1.8-4-1.3-5.9,1c-1.8,2.2-3.2,2.6-5.3,2.4c-0.7,0-1.8,0.4-2.6,1.2c-0.4-0.4-1-0.8-1.8-0.7c-1.9,0.1-1.3-1.1-0.5-2.8
				c0-0.1,0.1-0.2,0.1-0.2c0,0,0,0,0,0c0-0.1,0-0.1,0-0.2c0,0,0,0,0,0c0-0.1,0-0.1,0-0.2c0,0,0,0,0,0c0-0.1,0-0.1-0.1-0.2
				c0,0,0,0,0,0c0-0.1-0.1-0.1-0.1-0.2c0,0,0,0,0,0c0-0.1-0.1-0.1-0.2-0.2c0,0,0,0,0,0c-0.1,0-0.1-0.1-0.2-0.1l0,0
				c-0.1,0-0.1-0.1-0.2-0.1c0,0,0,0,0,0c-0.1,0-0.2-0.1-0.3-0.1c0,0,0,0,0,0c-0.2-0.1-0.4-0.1-0.6-0.1c0,0,0,0,0,0
				c-0.5-0.1-1.1,0-1.7,0.2l0,0l0,0c-0.5,0.2-0.9,0.5-1.2,1c-1.7,2.2-0.4,2.7-2.6,3.2c-2.2,0.5-7.2,0.5-5.5,7.8
				c0.1,0.3,0.1,0.7,0.2,1c-1.8-1.7-4.7-1.8-5.7-1.2c-1,0.7-1.3-0.2-3.5-1.4c-0.1,0-0.2-0.1-0.2-0.1c0,0,0,0-0.1,0
				c-0.1,0-0.1,0-0.2-0.1c0,0-0.1,0-0.1,0c0,0-0.1,0-0.1,0c0,0,0,0-0.1,0c-0.1,0-0.1,0-0.2,0c0,0,0,0,0,0c-0.1,0-0.1,0-0.2,0
				c0,0,0,0,0,0c-0.1,0-0.1,0-0.2,0c0,0,0,0-0.1,0c0,0-0.1,0-0.1,0c0,0,0,0-0.1,0c-0.1,0-0.1,0-0.2,0.1c0,0,0,0,0,0
				c-0.1,0-0.1,0.1-0.2,0.1c0,0,0,0,0,0c-0.1,0-0.1,0.1-0.2,0.1c0,0,0,0,0,0c0,0-0.1,0.1-0.1,0.1c0,0,0,0,0,0c0,0-0.1,0.1-0.2,0.1
				c0,0,0,0,0,0c-0.1,0.1-0.2,0.2-0.3,0.3c0,0,0,0,0,0c-0.1,0.1-0.1,0.1-0.2,0.2c0,0,0,0,0,0c-0.6,0.7-1.2,1.6-1.7,2.2
				c-1.3,1.5-3.8,0.1-6.1,2.2c-2.3,2.1-1.2,4.2-1.2,4.2c-8.7,1.8-7.4,9-5.3,9.9c2.1,0.9,2.2,0.3,3,2.6c0.9,2.3,4.7-0.1,4.7,2
				c0,0,0,0,0,0.1c-1.1-0.1-2.3-0.2-3.4-0.1c-4.1,0.3-4.1,1.9-3.6,4.7c0,0.1,0,0.2,0,0.3c0,0,0,0.1,0,0.1c0,0.1,0,0.1,0,0.2
				c0,0,0,0.1,0,0.1c0,0.1,0,0.1,0,0.2c0,0,0,0,0,0.1c0,0.1,0,0.1-0.1,0.2c0,0,0,0,0,0.1c0,0.1-0.1,0.1-0.1,0.1c0,0,0,0,0,0.1
				c0,0-0.1,0.1-0.1,0.1c0,0,0,0,0,0c0,0.1-0.1,0.1-0.2,0.2c0,0,0,0,0,0c0,0-0.1,0.1-0.1,0.1c0,0,0,0-0.1,0c0,0-0.1,0.1-0.1,0.1
				c0,0,0,0-0.1,0c-0.1,0.1-0.3,0.1-0.4,0.2c0,0,0,0-0.1,0c-0.1,0-0.1,0-0.2,0.1c0,0,0,0-0.1,0c-0.1,0-0.1,0-0.2,0.1l0,0
				c-0.1,0-0.2,0-0.2,0.1c0,0,0,0,0,0c-0.1,0-0.1,0-0.2,0c0,0,0,0,0,0c-0.1,0-0.1,0-0.2,0h0c-0.7,0.1-1.2,0-1.2,0
				c-1.2,0-2,0.6-2.4,2.5c-0.4,2,0.7,3.2,2.7,2.8c2.1-0.4,2.1-0.3,1.7,2.3c-0.2,2.1,0.1,3.7,1.4,4.3l0,0c0.1,0,0.1,0.1,0.2,0.1
				c0.1,0,0.2,0.1,0.3,0.1c0.1,0,0.1,0,0.2,0c0.1,0,0.1,0,0.2,0c0,0,0.1,0,0.1,0c-0.7,1.9-1.5,3.8-2.4,3.9c-1.1,0.2-2.3-0.1-4.3,3.7
				c-2,3.8,1.6,5.9,1.2,9.6c-0.3,3.3-1.3,5.7,5.4,11.8c1.4,1.5,2.7,2.8,3.9,3.8c-0.1,0.1-0.1,0.1-0.2,0.2l0,0l0,0
				c-1.3,1.4-3.1,3.8-3.1,6.1c0,3.6,3.6,0.3,3.4,2.4c-0.1,1.1,0.1,2.9,0.8,4.1c0,0,0,0,0,0c0,0,0.1,0.1,0.1,0.1c0,0,0,0,0,0.1
				c0,0,0.1,0.1,0.1,0.1c0,0,0,0,0.1,0.1c0,0,0.1,0.1,0.1,0.1c0,0,0,0,0.1,0.1c0,0,0.1,0.1,0.1,0.1c0,0,0.1,0,0.1,0.1
				c0,0,0.1,0.1,0.1,0.1c0,0,0.1,0,0.1,0.1c0,0,0.1,0,0.1,0.1c0,0,0.1,0,0.1,0.1c0,0,0.1,0,0.1,0.1c0,0,0.1,0,0.1,0c0,0,0.1,0,0.1,0
				c0,0,0.1,0,0.1,0c0,0,0.1,0,0.1,0c0,0,0.1,0,0.1,0c0,0,0.1,0,0.1,0c0,0,0.1,0,0.1,0c0,0,0.1,0,0.1,0c0,0,0.1,0,0.2,0
				c0,0,0.1,0,0.1,0c0.1,0,0.1,0,0.2,0c0,0,0.1,0,0.1,0c0.1,0,0.1,0,0.2,0c0,0,0.1,0,0.1,0c0.1,0,0.2,0,0.3-0.1
				c3.7-0.9,2.8,0.4,4,2.4c1.2,2,3.2,4.5,6.8,3.6c1.6-0.4,2.6-3.6,1.8-4.6c-0.8-1.1-1.1-1.4-0.5-1.9c0.3-0.2,0.5-0.8,0.6-1.5
				c3.6,5.2,9.9,7.7,15.1,5.7c0,0,0,0,0,0c-1.4,3.3,0.7,5.4,2.9,4.6c2.7-1.1,2.9-0.6,3.4,1.8c0.4,2.1,1.9,3.7,4.1,3.8
				c0,0,0.1,0,0.1,0c0.1,0,0.2,0,0.4,0c0.2,0,0.3,0,0.5,0c2.7-0.4,0.7-3.9,3-4.1c2.3-0.2,2.6,2.5,4.3,1.9c1.7-0.6,2.8-1.4,4.2-0.5
				c1,0.6,2-0.3,2.7-1.4c0.4,1.7,1.3,3,3.9,3.1c3.7,0.1,2.9-4.5,5.5-2.4c0.2,0.2,0.4,0.3,0.7,0.5l0,0c0,0,0,0,0,0
				c1.1,0.7,2.1,0.7,2.7,0.4c0,0,0,0,0,0c0.1,0,0.1-0.1,0.2-0.1c0,0,0,0,0,0c0.1,0,0.1-0.1,0.2-0.1c0,0,0,0,0.1,0
				c0,0,0.1-0.1,0.1-0.1c0,0,0,0,0.1-0.1c0,0,0.1-0.1,0.1-0.1c0,0,0-0.1,0.1-0.1c0,0,0.1-0.1,0.1-0.1c0,0,0-0.1,0.1-0.1
				c0,0,0-0.1,0.1-0.1c0,0,0-0.1,0.1-0.1c0,0,0-0.1,0-0.1c0-0.1,0.1-0.2,0.1-0.2c0.2-1.2,0-2.4,2.1-2.4c0.1,0.2,0.1,0.3,0.2,0.5
				c1.8,3.9,5.6,2,7,1.9c1.4-0.1,3.2,1.2,5,2.2c0.4,0.2,0.8,0.3,1.3,0.4l0,0h0c0.4,0,0.8,0,1.2-0.1c0,0,0,0,0,0c0.1,0,0.2,0,0.3-0.1
				c0,0,0,0,0,0c0.3-0.1,0.5-0.2,0.7-0.3c0,0,0.1,0,0.1,0c0.1,0,0.1-0.1,0.2-0.1c0,0,0.1,0,0.1-0.1c0,0,0.1-0.1,0.1-0.1
				c0,0,0.1-0.1,0.1-0.1c0,0,0.1-0.1,0.1-0.1c0.1-0.1,0.2-0.1,0.2-0.2c0,0,0.1-0.1,0.1-0.1c0-0.1,0.1-0.1,0.1-0.2c0,0,0-0.1,0.1-0.1
				c0-0.1,0.1-0.1,0.1-0.2c0,0,0-0.1,0.1-0.1c0.1-0.1,0.1-0.2,0.2-0.3c0.9-1.6,2.7-1.4,4.9-1.4c2.3,0,4.7-0.2,6.8-2.9
				c2.1-2.7,2.1-3.4,1.7-5.5c-0.4-2.2,0.5-2,2.8-4.5c1.7-1.8,1.5-4.5-0.1-6.4c1.7-1.1,2.1-2.4,1.9-3.3c-0.2-1,1-0.8,1.5-2.9
				c0.2-0.7,0.3-1.5,0.2-2.4c0.6-0.1,1.3-0.3,2.3-0.7c3.8-1.5,2.7-2.6,2.9-5.5c0.2-2.9,1.6-3.7,3.8-4.8c0.1-0.1,0.3-0.1,0.4-0.2
				c0.1,0,0.1-0.1,0.2-0.1c0,0,0.1-0.1,0.1-0.1c0.1-0.1,0.1-0.1,0.2-0.2c0,0,0.1,0,0.1-0.1c0.1-0.1,0.1-0.1,0.2-0.2c0,0,0,0,0,0
				c0.1-0.1,0.1-0.2,0.1-0.2c0,0,0,0,0,0c0-0.1,0.1-0.2,0.1-0.3c0,0,0,0,0,0c0-0.1,0.1-0.2,0.1-0.3l0,0c0.2-0.9-0.2-2.1-0.8-3.6
				c-1-2.5-3.5-1.7-2.8-4.4c1-3.3-1.4-4-5.3-4c-0.8,0-1.4-0.1-1.8-0.2c0.1-1.9,0.8-3.9,2.3-5.9c-0.1-0.2-0.3-0.3-0.4-0.4
				c0.7-0.4,1.2-0.7,1.5-1C654.1,414.1,655.2,413.1,656.2,413.9z"/>
			<path class="st3" d="M654.9,419.3c0.3,0,0.6-0.7,0.3-0.7C654.9,418.6,654.6,419.3,654.9,419.3z"/>
			<path class="st3" d="M650.8,421.2c0.1,0.3,0.4,0,0.4-0.2c0-0.1,0.1-0.3,0-0.3c-0.1-0.1-0.3,0.1-0.3,0.2c0,0,0,0,0,0
				C650.8,421,650.7,421.2,650.8,421.2z"/>
		</g>
		<g>
			<g>
				<path class="st4" d="M577.3,452.7c0,0-23.9-3.8-29.5-19c-5.5-15.2,2.4-37.2,6.1-42.3c3.8-5.1,10.9-6.9,21.4-9.5
					c10.5-2.6,22.5-4.7,33.4-1.6c10.9,3.2,25.1,7.7,29.3,17.2c4.2,9.5,5.9,35,8.7,40.5c2.8,5.5,3.1,8.2,2.6,10.3
					c-0.5,2.1-1.7,1.9-1.5,2.9c0.2,1-0.2,2.5-2.3,3.6c-2.1,1.1-31.8,5.8-43.9,3.8C589.6,456.6,577.3,452.7,577.3,452.7z"/>
				<path class="st5" d="M646.7,438.1c-2.8-5.5-4.5-31.1-8.7-40.5c-4.1-9.5-18.4-14-29.3-17.2c-10.9-3.2-22.9-1-33.4,1.6
					c-10.5,2.6-17.6,4.4-21.4,9.5c-3.8,5.1-11.7,27.1-6.1,42.3c5.5,15.2,29.5,19,29.5,19s12.3,4,24.3,5.9c12.1,2,41.8-2.7,43.9-3.8
					c2.1-1.1,2.5-2.6,2.3-3.6c-0.2-1,1-0.8,1.5-2.9C649.8,446.3,649.5,443.6,646.7,438.1z M558.6,425.8c-0.4,1-0.9,2-1.2,3.1
					c-0.2,0.9-0.4,1.8-1,2.5c-0.3,0.4-1.2,0.9-1.6,0.5c-0.3-0.3,0-1.1,0.1-1.4c0.3-0.8,0.7-1.6,1-2.4c0.3-0.7,0.1-1.5-0.1-2.2
					c-0.2-0.6-0.9-1.2-0.9-1.9c0.4,0,0.8,0.2,1.3,0.2c0.7-0.1,2-1.3,2.7-0.6C559.2,424.2,558.9,425.2,558.6,425.8z M563.2,395.2
					c-0.1,0.1-0.1,0.2-0.2,0.2c-0.1,0.1-0.1,0.2-0.2,0.3c0,0-0.1,0.1-0.1,0.1c-0.2,0.3-0.4,0.6-0.6,1c-0.4,0.8-0.4,1.5-0.4,2.4
					c0,0.7-0.2,1.4-0.5,2c0,0-0.1,0.2-0.2,0.1c-1.4-0.9-2.7-2.8-2.7-4.4c-0.1-1.5,0-3.2,0.8-4.5c0.2-0.3,0.7-0.9,1.1-0.7
					c0.4,0.2,0.6,0.7,1.2,0.6c0.4,0,0.9-0.2,1.2-0.1c1.1,0.4,1,1.8,0.6,2.8C563.3,395.1,563.3,395.1,563.2,395.2z M577.5,425.3
					c-1,0-1.9-0.5-2.8-0.6c-1.1-0.1-2.2,0.3-3,1c-1.9,1.4-3.1,3.9-3.5,6.2c-0.5,2.6,0.4,5.6,1.8,7.8c0.8,1.3,2.1,2.9,1.7,4.5
					c0,0.1-0.1,0.2-0.2,0.2c-1-0.4-1.4-1.4-2.2-2c-0.9-0.6-2-1-2.8-1.7c-1.8-1.4-1.5-3.4-1.2-5.4c0.3-1.7,1-3.2,1.5-4.8
					c0.5-1.6,1.1-3.7,0.1-5.2c-0.1-0.1,0.2-0.4,0.3-0.3c0,0,0.1,0.1,0.1,0.1c0-0.1,0-0.2,0.1-0.3c0-0.1,0.1-0.3,0.2-0.2
					c1.4,0.8,2.9,0.8,4.1-0.4c0.9-0.8,1.2-1.7,1.5-2.8c0.3-0.9,0.8-1.7,1.9-1.3c1.4,0.4,3.5,1.5,4,3
					C579.3,424.1,578.6,425.3,577.5,425.3z M590.6,428.6c-2.3,0-3.6-1.5-4.3-3.6c-0.4-1.2-0.8-5.5-2.6-5.4c-0.9,0.1-0.6-0.6-0.2-1.2
					c0.2-0.3,0.5-0.6,0.8-0.8c0.7-0.3,2.4-0.5,2.2-1.6c-0.1-0.8-1-0.8-0.5-1.8c0.4-0.9,1.6-1.3,2.4-1.6c0.1-0.1,0,0.3-0.1,0.3
					c-0.1,0-0.2,0.1-0.3,0.1c0.6-0.1,1.1,0.1,1.4,0.9c0.4,1.3-0.7,2.5-1.2,3.6c-2,3.7,1.7,7.4,2.7,10.8
					C590.9,428.4,590.7,428.6,590.6,428.6z M594.2,444.1c-2.2,0.5-2-3.3-2.2-4.5c-0.2-1.5-1-2.9-1.1-4.5c-0.1-1.2,0.3-2.2,1-3.1
					c0,0,0.1-0.1,0.2-0.1c0,0.1,0.1,0.1,0.2,0.2c0,0,0.1-0.1,0.1,0c0.9,0.9,1.5,2,1.6,3.3c0,0.7,0,1.3-0.1,2
					c-0.1,0.8-0.4,1.5-0.3,2.3c0.1,0.7,0.2,1.3,0.5,2c0.2,0.4,0.5,0.8,0.6,1.3C594.8,443.4,594.7,444,594.2,444.1z M622.5,452.8
					c-0.9-0.3-1.4-1.7-1.7-2.5c-0.4-0.8-0.8-1.5-1.6-2c-0.3-0.2-0.5-0.3-0.6-0.6c-0.1-0.6,0.7-1.6,1.1-1.9c0.6-0.6,1.4-1.2,1.9-2
					c0.4-0.6,0.6-1.2,0.9-1.9c0,0,0,0,0-0.1c0-0.1,0.1-0.2,0.1-0.2c0,0,0,0,0,0c0.1-0.2,0.3-0.2,0.2,0c0,0,0,0.1-0.1,0.1
					c0,2-0.2,4.1,0.3,6c0.2,0.7,0.2,1.4,0.2,2.1C623.4,450.3,623.5,453.1,622.5,452.8z M626,418.4c-0.9,0.3-1.7-1.5-2-2.1
					c-0.7-1.4-1.8-2.8-3.5-2.4c-1.3,0.3-2.4,0.8-3.6,0.1c0,0,0-0.1,0-0.1c0.5-1.4,1.8-1.4,2.9-2.1c0.8-0.5,0.2-1.6-0.4-2
					c-0.3-0.2-0.7-0.3-0.9-0.6c-0.2-0.2-0.4-0.6-0.2-0.9c0.3-0.3,0.6-0.6,0.9-1c0.6-0.7,0.6-1.6,0.4-2.5c-0.3-1-0.8-2-0.7-3.1
					c0.1-1.7,1.7-3,2.9-4.2c0-0.1,0.1-0.1,0.1-0.2c0.1-0.1,0.3-0.4,0.5-0.3c0.1,0.1,0.1,0.3,0,0.4c0,0.1,0,0.1-0.1,0.2
					c0,0.1,0,0.1-0.1,0.2c0,0,0,0,0,0c0,0.1-0.1,0.1-0.1,0.2c0,0.1-0.1,0.2-0.1,0.3c0,0-0.1,0.2-0.1,0.1c0,0.1-0.1,0.2-0.2,0.2
					c0,0,0,0,0,0c-0.8,1.6-0.9,3.5-0.9,5.2c0,1.8,0.1,3.8,0.6,5.5c0.3,1,0.8,2.1,1.5,2.8c0.6,0.6,1.3,1.1,2,1.6
					c0.9,0.8,1.5,1.9,1.8,3.1C626.8,417.4,626.7,418.1,626,418.4z M648,448.4c-0.2,0.6-0.6,0.5-1.2,0.5c-1.3-0.1,0,1.6,0.1,2.1
					c0,0.3-0.1,0.7-0.4,0.9c-1.5,1-3.2-0.1-4.3-1.2c-1-1-2.1-2.5-1.8-4c0-0.1,0.1-0.3,0.2-0.3c0.6,0,1.4,0.4,2,0.1
					c0.8-0.4,0.7-0.7,1.2-1.2c0.4-0.5,0.8-0.5,1.4-0.4c1.1,0.3,1.2,1.8,1.9,2.5c0.2,0.1,0.5,0.2,0.7,0.3c0,0,0.1,0,0.1,0
					c0,0,0,0,0,0.1C648.1,448,648.1,448.2,648,448.4z"/>
				<path class="st6" d="M598.1,451c0,0,13.6-3.2,17.9-2.4c3.7,0.9,3.7,2.4,4,3.7c0.3,1.3,2.5,1.5,2.6,4.1c0.1,2.6-4,15.6-9.8,15.8
					c-2.6-0.3-2.4,1.1-2.6,2.4c-0.3,1.3-2,2.8-4.6,0.7c-2.6-2.1-1.8,2.5-5.5,2.4c-3.7-0.1-3.8-2.6-4.4-5.4c-0.5-2.8-2-12.9-5.7-16
					C586.4,453.3,588.3,452.6,598.1,451z"/>
				<path class="st7" d="M622.7,456.4c-0.1-2.6-2.4-2.8-2.6-4.1c-0.3-1.3-0.3-2.8-4-3.7c-4.4-0.8-17.9,2.4-17.9,2.4
					c-3.5,0.6-6.1,1-7.6,1.5c0.6,0.6,1.2,1.1,1.7,1.5c1.9,1.4,3.9,2.5,6.3,2.8c2.5,0.2,5-0.1,7.4,0.3c1.1,0.2,2.2,0.5,3.1,1.2
					c0.6,0.4,1.6,1,1.7,1.8c0.1,0.5-0.1,0.9-0.4,1.3c-0.6,0.9-1.2,1.8-1.3,2.9c-0.1,1.4,0.2,2.7,0,4.1c-0.2,1.3-0.5,2.5-0.8,3.7
					c-0.4,1.4-1.1,2.6-2,3.6c2.3,1.4,3.7,0.1,4-1.1c0.3-1.3,0-2.6,2.6-2.4C618.7,472,622.8,459.1,622.7,456.4z"/>
				<path class="st7" d="M592.6,454.4c2.4,0,4.7-0.7,7.1-1.4c1.6-0.5,3.3-0.7,5-1c1.8-0.3,3.4-0.8,5.1-1.4c2.2-0.9,4.6-1.2,6.8-1.8
					c-0.2-0.1-0.4-0.1-0.6-0.2c-4.4-0.8-17.9,2.4-17.9,2.4c-3.5,0.6-6.1,1-7.6,1.5c0.6,0.6,1.2,1.1,1.7,1.5
					C592.4,454.2,592.5,454.3,592.6,454.4z"/>
				<g>
					<path class="st8" d="M597,473.2c-0.6,1.3-2.1,3.7-3.5,2.8c-1.4-0.9-2.5-0.1-4.2,0.5c-1.7,0.6-2-2.1-4.3-1.9
						c-2.3,0.2-0.3,3.7-3,4.1c-2.7,0.4-4.5-1.4-5-3.8c-0.5-2.4-0.7-2.9-3.4-1.8c-2.7,1.1-5.3-2.4-1.3-7c5.5-6.2,2.9-13.6,2.1-17.4
						c-0.8-3.9,5.2-1.1,5.2-1.1c9,4.1,10.9,4.9,12.4,7.5c1.5,2.6,2.3,0.2,3.8,1.9c1.5,1.7,0.7,3.3-0.1,5.3c-0.8,2.1-1.2,6,0.1,7.3
						C597.2,470.9,597.8,471.4,597,473.2z"/>
					<path class="st9" d="M595.9,469.6c-1.3-1.3-0.9-5.2-0.1-7.3c0.8-2.1,1.6-3.7,0.1-5.3c-1.5-1.7-2.3,0.7-3.8-1.9
						c-1.5-2.6-3.4-3.5-12.4-7.5c0,0-3.9-1.8-5-0.5c0.7,0.7,1.4,1.3,2,2c0.9,1,1.8,2.1,2.3,3.3c0.6,1.4,0.9,2.8,1.3,4.2
						c0.4,1.4,0.8,2.7,1.6,3.9c0.5,0.9,1.4,2,1.5,3c0.1,1.2-0.4,2.7,0.2,3.8c0.4,0.8,1.3,1.1,2,1.3c1.3,0.4,2.8,0.9,2.4,2.5
						c-0.3,1.2-1.8,1.2-2.8,1.2c-1,0-2.4-0.1-3.1,0.7c-1,0.9-0.6,3-1,4.2c-0.2,0.5-0.4,0.9-0.7,1.3c0.5,0.1,1.1,0.2,1.7,0.1
						c2.7-0.4,0.7-3.9,3-4.1c2.3-0.2,2.6,2.5,4.3,1.9c1.7-0.6,2.8-1.4,4.2-0.5c1.4,0.9,2.9-1.5,3.5-2.8
						C597.8,471.4,597.2,470.9,595.9,469.6z"/>
					<g>
						<path class="st8" d="M576.4,447.8c0,0,0.2,0.2,0.5,0.6c0.3,0.4,0.8,1,1.2,1.8c0.2,0.4,0.5,0.8,0.7,1.3
							c0.3,0.5,0.5,0.9,0.8,1.4c0.3,0.5,0.5,1,0.7,1.6c0.2,0.5,0.5,1.1,0.7,1.7c0.2,0.6,0.4,1.1,0.6,1.7c0.2,0.6,0.3,1.1,0.5,1.7
							c0.1,0.5,0.3,1.1,0.4,1.6c0.1,0.5,0.2,1,0.3,1.4c0.1,0.4,0.2,0.9,0.2,1.2c0,0.4,0.1,0.7,0.1,0.9c0.1,0.5,0.1,0.8,0.1,0.8
							s-0.1-0.3-0.2-0.8c-0.1-0.3-0.1-0.6-0.2-0.9c-0.1-0.4-0.2-0.8-0.3-1.2c-0.1-0.4-0.2-0.9-0.3-1.4c-0.1-0.5-0.3-1-0.4-1.6
							c-0.2-0.5-0.3-1.1-0.5-1.6c-0.2-0.6-0.4-1.1-0.6-1.7c-0.2-0.6-0.4-1.1-0.7-1.7c-0.2-0.5-0.5-1.1-0.7-1.6
							c-0.2-0.5-0.5-1-0.7-1.5c-0.2-0.5-0.5-0.9-0.7-1.3c-0.4-0.8-0.8-1.4-1.1-1.9C576.6,448.1,576.4,447.8,576.4,447.8z"/>
						<path class="st8" d="M579.8,453.5c0,0,0.1,0,0.4,0.1c0.2,0.1,0.5,0.2,0.9,0.4c0.4,0.2,0.8,0.4,1.2,0.6
							c0.2,0.1,0.4,0.3,0.6,0.4c0.2,0.2,0.4,0.3,0.6,0.5c0.2,0.2,0.4,0.4,0.6,0.5c0.2,0.2,0.4,0.4,0.5,0.6c0.2,0.2,0.3,0.4,0.5,0.6
							c0.1,0.2,0.3,0.4,0.4,0.5c0.1,0.2,0.2,0.3,0.3,0.5c0.1,0.1,0.1,0.3,0.2,0.4c0.1,0.2,0.2,0.3,0.2,0.3s-0.1-0.1-0.2-0.3
							c-0.1-0.1-0.1-0.2-0.2-0.3c-0.1-0.1-0.2-0.3-0.3-0.4c-0.1-0.2-0.3-0.3-0.4-0.5c-0.1-0.2-0.3-0.4-0.5-0.5
							c-0.2-0.2-0.4-0.4-0.5-0.5c-0.2-0.2-0.4-0.3-0.6-0.5c-0.4-0.3-0.8-0.7-1.2-0.9c-0.2-0.1-0.4-0.3-0.6-0.4
							c-0.2-0.1-0.4-0.2-0.5-0.3c-0.3-0.2-0.6-0.4-0.8-0.5C579.9,453.5,579.8,453.5,579.8,453.5z"/>
					</g>
				</g>
				<path class="st6" d="M616.1,417.8c0,0-2.9-3.2-0.3-4.5c2.7-1.3,2.7-3.3,1.7-4.8c-0.9-1.5-0.7-0.9,0.7-2.4
					c1.3-1.5-0.5-3.3-1.6-5.5c-1.1-2.1-5.9-10.3-11.6-8.7c-3.9,1.7-5.2,2.1-5.2,5.9c0,3.7-0.8,8.4-3.1,11c-2.3,2.5,0.5,5.6,3.7,8.7
					C603.6,420.5,618.6,425.2,616.1,417.8z"/>
				<path class="st7" d="M618.2,406.1c1.3-1.5-0.5-3.3-1.6-5.5c-1.1-2.1-5.9-10.3-11.6-8.7c-1.9,0.8-3.1,1.4-4,2.1
					c0.1,0.2,0.3,0.5,0.4,0.7c0.6,1.4,0.8,2.8,1.1,4.2c0.3,1.7,0.6,3.5,1.4,5.1c1,1.9,2.5,3.2,4.1,4.6c2.9,2.6,5.3,6,5.8,10
					c0.1,1.1,0.1,2.1,0,3.1c2-0.3,3.2-1.4,2.3-3.9c0,0-2.9-3.2-0.3-4.5c2.7-1.3,2.7-3.3,1.7-4.8C616.6,407,616.9,407.5,618.2,406.1z
					"/>
				<path class="st7" d="M603,395.1c-0.1,1.4-0.4,3.1,0.7,4.2c0.9,1,2.2,1.5,3.2,2.4c1.1,1,1.5,2,2.1,3.4c0.5,1.2,1.2,2.8,2.5,3.3
					c2.3,0.8,3.5-1.5,4.6-3.1c0.6-0.8,1.3-1.6,2-2.3c-0.4-0.8-1-1.6-1.4-2.5c-1.1-2.1-5.9-10.3-11.6-8.7c-1,0.5-1.9,0.8-2.5,1.2
					C602.8,393.6,603,394.3,603,395.1z"/>
				<g>
					<path class="st8" d="M575.7,370.5c0,0-0.6-1.9-2.5-1.8c-1.9,0.1-1.3-1.1-0.5-2.8c0.8-1.7-2.9-2.8-4.5-0.6
						c-1.7,2.2-0.4,2.7-2.6,3.2c-2.2,0.5-7.2,0.5-5.5,7.8c1.4,6.1,0.8,7.4-0.8,10.4c-1.6,3,1.5,5.1,3.3,4.7c1.8-0.4,2,0.1,2.7,2
						c0.7,1.9,4.7,0.8,9.5-5.1C579.6,382.4,577.2,373.7,575.7,370.5z"/>
					<path class="st9" d="M561.1,390.6c0.6-2,1.6-3.9,1.8-6c0.2-2.1,0.5-4.5-0.6-6.4c-0.6-1-1.4-1.8-2.3-2.5c0,0.2,0.1,0.4,0.1,0.6
						c1.4,6.1,0.8,7.4-0.8,10.4c-1.2,2.2,0.2,3.9,1.7,4.5C561,391.1,561.1,390.8,561.1,390.6z"/>
					<path class="st9" d="M575.7,370.5c0,0-0.6-1.9-2.5-1.8c-1.9,0.1-1.3-1.1-0.5-2.8c0.6-1.3-1.5-2.3-3.3-1.5
						c-0.7,1.3-1.2,2.7-1.3,4.2c-0.2,1.8,0.1,3.7,0.4,5.5c0.3,2,0.7,4,0.8,6c0.1,1.6,0,3.1-0.9,4.5c-0.9,1.5-2.2,2.5-3.5,3.6
						c-1.3,1.1-2.5,2.3-3.9,3.1c0.5,0.2,1.1,0.3,1.6,0.2c1.8-0.4,2,0.1,2.7,2c0.7,1.9,4.7,0.8,9.5-5.1
						C579.6,382.4,577.2,373.7,575.7,370.5z"/>
					<path class="st8" d="M568.6,375.5c0,0,0,0.2,0,0.5c0,0.3,0,0.8,0,1.3c0,0.5,0.1,1.2,0.2,1.8c0,0.3,0.1,0.7,0.1,1
						c0,0.3,0.1,0.7,0.2,1c0.1,0.3,0.2,0.7,0.2,1c0.1,0.3,0.2,0.7,0.3,1c0.1,0.3,0.2,0.6,0.3,0.9c0.1,0.3,0.2,0.6,0.3,0.8
						c0.1,0.2,0.2,0.5,0.2,0.7c0.1,0.2,0.2,0.4,0.2,0.5c0.1,0.3,0.2,0.5,0.2,0.5s-0.1-0.2-0.2-0.4c-0.1-0.1-0.2-0.3-0.3-0.5
						c-0.1-0.2-0.2-0.4-0.3-0.7c-0.1-0.2-0.2-0.5-0.3-0.8c-0.1-0.3-0.2-0.6-0.3-0.9c-0.1-0.3-0.2-0.7-0.3-1
						c-0.1-0.3-0.2-0.7-0.2-1.1c-0.1-0.7-0.2-1.4-0.3-2.1c0-0.3,0-0.7,0-1c0-0.3,0-0.6,0-0.9c0-0.5,0.1-1,0.1-1.3
						C568.6,375.7,568.6,375.5,568.6,375.5z"/>
				</g>
				<g>
					<path class="st6" d="M577,386.4c0,0,2.6-3.1-1.6-8.8c-4.2-5.8,0.1-9.5,2.2-9.4c2.1,0.1,3.5-0.2,5.3-2.4c1.8-2.2,4.5-2.8,5.9-1
						c2.2,2.8,2.9,2.5,4.9,1.5c2-1,4.2-0.9,5.8,0.5c1.6,1.4,2.9,2.4,1,5.8c-1.9,3.4,0.3,4.9-2.5,7.4c-2.8,2.5-1.6,1.9-2.6,3.7
						c-1,1.8-1.8,1.5-4,2.6c-2.2,1.1-2.8,2.4-3.7,4.7c-0.9,2.4,3.3,18-0.4,20c-3.7,2-5.1,2.2-3.7,4.1c1.5,1.8,0.1,2.1-1.6,2.5
						c-1.7,0.4-2.4,2-1.5,3.4c0.9,1.5,1.1,1.8-3.3-1.4C573.1,416.2,561.4,406.1,577,386.4z"/>
					<path class="st7" d="M599.5,366.8c-1.6-1.4-3.8-1.5-5.8-0.5c-1.4,0.7-2.2,1.1-3.3,0.3c-0.4,1-0.8,1.9-1.4,2.7
						c-0.7,1.1-1.6,2.1-2.1,3.3c-0.8,1.7-0.6,3.6-0.9,5.4c-0.2,1.1-0.4,2.5-1.4,3.2c-0.9,0.6-1.9,0.4-2.7-0.2
						c-2.4-2-4.5-4.6-6.4-7.1c-0.7-1-1.3-2.1-1.4-3.3c-0.9,1.6-1,4.1,1.2,7c4.2,5.8,1.6,8.8,1.6,8.8c-15.6,19.7-3.9,29.8,0.4,33.1
						c4.4,3.3,4.2,2.9,3.3,1.4c-0.9-1.4-0.3-3,1.5-3.4c1.7-0.4,3-0.7,1.6-2.5c-1.5-1.8,0-2.1,3.7-4.1c3.7-2-0.5-17.6,0.4-20
						c0.9-2.4,1.5-3.7,3.7-4.7c2.2-1.1,3-0.8,4-2.6c1-1.8-0.2-1.2,2.6-3.7c2.8-2.5,0.6-4.1,2.5-7.4
						C602.4,369.2,601.1,368.2,599.5,366.8z"/>
					<path class="st6" d="M589,370.6c0,0-0.1,0-0.3,0.1c-0.2,0.1-0.5,0.3-0.7,0.7c-0.3,0.3-0.5,0.8-0.7,1.4c-0.2,0.6-0.4,1.2-0.5,2
						c-0.1,0.7-0.3,1.5-0.3,2.4c-0.1,0.9-0.1,1.8-0.2,2.7c-0.1,0.9-0.1,1.9-0.3,2.9c-0.1,0.5-0.2,1-0.3,1.5c-0.1,0.5-0.3,1-0.6,1.4
						c-0.6,0.9-1.4,1.5-2.2,2.1c-0.8,0.6-1.6,1.1-2.2,1.8c-0.7,0.7-1.2,1.4-1.6,2.1c-0.4,0.7-0.7,1.5-0.9,2.2
						c-0.1,0.4-0.2,0.7-0.2,1c-0.1,0.3-0.1,0.7-0.1,1c0,0.3-0.1,0.6-0.1,0.8c0,0.3,0,0.5,0,0.7c0,0.4,0,0.8,0,1c0,0.2,0,0.4,0,0.4
						s0-0.1,0-0.4c0-0.2-0.1-0.6-0.1-1c0-0.2,0-0.5,0-0.7c0-0.3,0-0.6,0-0.9c0-0.3,0.1-0.6,0.1-1c0.1-0.3,0.1-0.7,0.2-1.1
						c0.2-0.7,0.5-1.5,0.9-2.3c0.4-0.8,1-1.5,1.6-2.2c0.7-0.7,1.5-1.3,2.3-1.9c0.8-0.6,1.6-1.2,2.1-2c0.3-0.4,0.4-0.9,0.6-1.3
						c0.1-0.5,0.2-0.9,0.3-1.4c0.1-1,0.2-1.9,0.3-2.9c0.1-0.9,0.1-1.8,0.2-2.7c0.1-0.9,0.2-1.7,0.4-2.4c0.2-0.7,0.4-1.4,0.6-2
						c0.2-0.6,0.5-1,0.8-1.4c0.3-0.3,0.6-0.5,0.8-0.7C588.9,370.6,589,370.6,589,370.6z"/>
				</g>
				<g>
					<path class="st8" d="M540,449.8c0,0-4.5,3.9-4.5,7.4c0,3.6,3.6,0.3,3.4,2.4c-0.2,2.1,0.5,6.2,4.2,5.3c3.7-0.9,2.8,0.4,4,2.4
						c1.2,2,3.2,4.5,6.8,3.6c1.6-0.4,2.6-3.6,1.8-4.6c-0.8-1.1-1.1-1.4-0.5-1.9c0.6-0.5,0.9-2.6,0.6-5c-0.3-2.4,2-11.8,4.6-16
						c2.7-4.3,0.8-4.7-0.4-5.9c-1.2-1.3-0.9-5.5-5.1-4.4c-4.3,1.2-6.4,3.1-6.1,7.8C549,445.7,544.6,445.9,540,449.8z"/>
					<path class="st9" d="M540.2,453c1.3,1.7,3.2,3.1,5.4,3.2c0.6,0,1.3,0,1.9-0.2c1.2-0.6,1.6-1.8,1.1-2.9c-0.4-0.9-0.8-1.8-1-2.8
						c-0.3-1.2,0.2-2.5,1-3.4c1.4-1.5,3.7-2.3,4.3-4.4c0.7-2.4-0.5-4.7,0-7c0.2-0.8,0.5-1.4,1-2c-3.7,1.2-5.5,3.1-5.3,7.6
						c0.3,4.7-4.1,4.9-8.7,8.9c0,0-0.6,0.5-1.3,1.3C539.3,451.7,539.8,452.4,540.2,453z"/>
					<path class="st9" d="M560,437.5c-0.9-1-0.9-3.8-2.9-4.4c0.1,0.4,0.1,0.7,0.1,1.1c-0.1,3.7-2.9,6.8-5,9.6
						c-1.4,1.8-2.9,3.6-3.6,5.8c-0.9,3.1-0.8,6.3-0.8,9.5c0,0.9,0.3,2.2-0.6,2.8c-0.7,0.4-1.5,0.6-2.3,0.8c-1.1,0.3-2.2,0.5-3.2,0.7
						c-0.6,0.1-1.3,0.2-1.9,0.2c0.6,1.1,1.7,1.8,3.4,1.4c3.7-0.9,2.8,0.4,4,2.4c1.2,2,3.2,4.5,6.8,3.6c1.6-0.4,2.6-3.6,1.8-4.6
						c-0.8-1.1-1.1-1.4-0.5-1.9c0.6-0.5,0.9-2.6,0.6-5c-0.3-2.4,2-11.8,4.6-16C563.1,439.1,561.2,438.7,560,437.5z"/>
					<path class="st8" d="M548.5,458.3c0,0,0-0.3,0-0.9c0-0.3,0-0.7,0-1.1c0-0.2,0-0.4,0-0.7c0-0.2,0-0.5,0.1-0.7
						c0-0.5,0.1-1.1,0.2-1.6c0.1-0.6,0.2-1.2,0.4-1.8c0.1-0.3,0.2-0.6,0.2-0.9c0.1-0.3,0.2-0.6,0.3-1c0.2-0.6,0.4-1.3,0.7-1.9
						c0.2-0.6,0.5-1.2,0.8-1.9c0.3-0.6,0.6-1.2,0.9-1.8c0.3-0.6,0.6-1.1,0.9-1.6c0.3-0.5,0.6-0.9,0.9-1.4c0.3-0.4,0.5-0.8,0.8-1.1
						c0.3-0.3,0.5-0.6,0.7-0.8c0.4-0.5,0.6-0.7,0.6-0.7s-0.2,0.3-0.5,0.8c-0.2,0.2-0.4,0.5-0.6,0.9c-0.1,0.2-0.2,0.3-0.4,0.6
						c-0.1,0.2-0.3,0.4-0.4,0.6c-0.3,0.4-0.6,0.9-0.9,1.4c-0.3,0.5-0.6,1-0.9,1.6c-0.3,0.6-0.6,1.1-0.9,1.7
						c-0.2,0.6-0.5,1.2-0.8,1.9c-0.2,0.6-0.5,1.3-0.7,1.9c-0.1,0.3-0.2,0.6-0.3,0.9c-0.1,0.3-0.2,0.6-0.2,0.9
						c-0.2,0.6-0.3,1.2-0.4,1.8c-0.1,0.6-0.2,1.1-0.3,1.6c-0.1,0.5-0.1,1-0.2,1.4c0,0.4-0.1,0.8-0.1,1.1
						C548.5,458,548.5,458.3,548.5,458.3z"/>
				</g>
				<g>
					<path class="st8" d="M530.8,405.9c0,0,4.3,0.3,3.8-2.5c-0.5-2.8-0.5-4.4,3.6-4.7c4.1-0.3,8.4,0.9,10.6,3.9
						c2.2,3,4.4-2.7,9.2-2.1c4.8,0.6,4,5.5,8.8,12.1c4.8,6.7,4.9,8.9,3.9,10.7c-1,1.8-3.5,0.5-7.4-0.6c-3.9-1.1-4.6-0.4-6.9,0.5
						c-2.3,0.9-4.2,0.5-7.5-2c-3.3-2.4-7.8-4-11.5-3.1c-3.7,0.9-4.9-1.1-4.5-4.4c0.4-2.6,0.4-2.7-1.7-2.3c-2.1,0.4-3.1-0.9-2.7-2.8
						C528.7,406.5,529.6,405.9,530.8,405.9z"/>
					<path class="st9" d="M548.6,421c0.5-0.6,0.8-1.4,0.8-2.2c0-0.4,0-1.4-0.5-1.6c-0.9-0.3-1.9,0.1-2.6-0.7
						c-0.7-0.8-0.8-2.1-1.6-2.8c-1.1-0.9-3-1.3-4.4-1.2c-2.3,0.3-3.8,1.5-4.9,3.5c-0.4,0.7-0.7,1.3-1.2,1.9c0.7,0.4,1.7,0.4,3.1,0.1
						C540.9,417.2,545.3,418.7,548.6,421z"/>
					<path class="st9" d="M566.8,412.5c-4.8-6.7-4-11.5-8.8-12.1c-4.8-0.6-7,5.2-9.2,2.1c-2.2-3-6.5-4.2-10.6-3.9
						c-4.1,0.3-4.1,1.9-3.6,4.7c0.3,1.8-1.4,2.4-2.6,2.5c0,0,0.1,0,0.1,0c3.6,1.1,6.7,3.3,10.1,5c1.8,0.9,3.6,1.6,5.7,1.7
						c3,0.2,6.1-0.5,9.1,0.3c4.1,1.2,7.8,3.4,10,7.1c0.8,1.3,1.3,2.6,1.7,4c0.9,0.1,1.6-0.1,2-0.8
						C571.6,421.4,571.5,419.2,566.8,412.5z"/>
					<path class="st8" d="M540.8,409.8c0,0,0.4,0,1.1,0.1c0.7,0.1,1.7,0.2,2.9,0.5c0.6,0.2,1.2,0.3,1.9,0.6c0.6,0.2,1.3,0.6,2,0.9
						c0.6,0.3,1.4,0.4,2.2,0.4c0.8,0,1.6-0.1,2.4-0.1c1.6-0.1,3.3,0,4.7,0.4c0.7,0.2,1.4,0.4,2.1,0.7c0.6,0.3,1.2,0.7,1.7,1
						c0.5,0.4,0.9,0.7,1.3,1c0.4,0.3,0.7,0.6,0.9,0.9c0.2,0.3,0.4,0.5,0.5,0.6c0.1,0.1,0.2,0.2,0.2,0.2s-0.1-0.1-0.2-0.2
						c-0.1-0.1-0.3-0.3-0.6-0.6c-0.2-0.2-0.6-0.5-0.9-0.8c-0.4-0.3-0.8-0.6-1.3-1c-0.5-0.3-1.1-0.7-1.7-0.9c-0.6-0.3-1.3-0.5-2-0.7
						c-1.4-0.4-3-0.4-4.6-0.3c-0.8,0-1.6,0.1-2.4,0.1c-0.8,0-1.6,0-2.3-0.4c-0.7-0.4-1.3-0.7-1.9-1c-0.6-0.3-1.3-0.4-1.8-0.6
						c-1.2-0.3-2.1-0.5-2.8-0.7C541.2,409.9,540.8,409.8,540.8,409.8z"/>
				</g>
				<g>
					<path class="st6" d="M620.8,423.3c0,0,3.6-4,9.8-4.3c2.6-0.1,3-1.6,7.7-3.4c4.7-1.9,9.8-2.8,10.1,0.6c0.3,3.4-1.4,5.1,2.6,5.1
						c4,0,6.4,0.6,5.3,4c-0.7,2.7,1.8,1.9,2.8,4.4c1,2.5,1.5,4.2-0.7,5.3c-2.2,1.1-3.5,1.9-3.8,4.8c-0.2,2.9,0.8,4.1-2.9,5.5
						c-3.8,1.5-3.9,0.4-5.4-0.9c-1.6-1.4-1.9-0.7-4,0.4c-2.1,1.1-4.7,0.6-5-1.3c-0.3-1.9-0.2-2.9-2-2.5c-1.8,0.4-3.3,0-5.3-2.5
						c-1.5-1.6-2.9-1.2-3.3-3.4c-0.4-2.2-1.4-3.2-3.4-3.9C621.2,430.6,616.8,427.5,620.8,423.3z"/>
					<path class="st7" d="M652.9,435.4c-4.7,0-8.3-2.7-11.9-5.3c-2.2-1.6-4.4-2.7-7-3.7c-2.3-0.9-4.6-1.8-6.8-2.9
						c-1.4-0.7-2.7-1.5-3.9-2.3c-1.6,1-2.5,2-2.5,2c-4,4.2,0.4,7.3,2.5,7.9c2.1,0.6,3,1.7,3.4,3.9c0.4,2.2,1.9,1.9,3.3,3.4
						c2,2.5,3.5,2.9,5.3,2.5c1.8-0.4,1.7,0.6,2,2.5c0.3,1.9,2.9,2.4,5,1.3c2.1-1.1,2.4-1.8,4-0.4c1.6,1.3,1.7,2.4,5.4,0.9
						c3.8-1.5,2.7-2.6,2.9-5.5c0.2-2.9,1.6-3.7,3.8-4.8c1.1-0.6,1.5-1.2,1.6-2.1C658,434.5,655.5,435.4,652.9,435.4z"/>
					<g>
						<path class="st6" d="M627.7,424.3c0,0,1.3,0.3,3.3,1c0.5,0.2,1,0.4,1.6,0.6c0.6,0.2,1.1,0.4,1.7,0.7c0.6,0.2,1.2,0.5,1.8,0.8
							c0.6,0.3,1.2,0.6,1.8,0.9c0.6,0.3,1.2,0.7,1.8,1c0.6,0.4,1.2,0.7,1.7,1.1c0.5,0.4,1.1,0.7,1.5,1.1c0.5,0.4,0.9,0.7,1.3,1.1
							c0.4,0.3,0.7,0.7,1,1c0.3,0.3,0.5,0.6,0.7,0.8c0.4,0.4,0.6,0.7,0.6,0.7s-0.3-0.2-0.7-0.7c-0.2-0.2-0.5-0.5-0.8-0.7
							c-0.3-0.3-0.7-0.6-1.1-0.9c-0.4-0.3-0.9-0.6-1.3-1c-0.5-0.4-1-0.7-1.5-1c-0.5-0.4-1.1-0.7-1.7-1c-0.6-0.3-1.2-0.7-1.8-1
							c-0.6-0.3-1.2-0.6-1.8-0.9c-0.6-0.3-1.2-0.6-1.8-0.8c-0.6-0.3-1.2-0.5-1.7-0.7c-0.5-0.2-1.1-0.4-1.5-0.6
							c-1-0.4-1.8-0.7-2.3-0.9C628.1,424.4,627.7,424.3,627.7,424.3z"/>
						<path class="st6" d="M640.3,429.7c0,0,0.1-0.1,0.3-0.1c0.2-0.1,0.4-0.2,0.8-0.3c0.3-0.1,0.7-0.2,1.1-0.3
							c0.2,0,0.4-0.1,0.6-0.1c0.2,0,0.4,0,0.7,0c0.2,0,0.5,0,0.7,0c0.2,0,0.4,0.1,0.6,0.1c0.2,0,0.4,0.1,0.6,0.1
							c0.2,0,0.4,0.1,0.5,0.2c0.3,0.1,0.6,0.2,0.7,0.3c0.2,0.1,0.3,0.1,0.3,0.1s-0.1,0-0.3-0.1c-0.1,0-0.2-0.1-0.3-0.1
							c-0.1,0-0.3-0.1-0.4-0.1c-0.2,0-0.3-0.1-0.5-0.1c-0.2,0-0.4-0.1-0.6-0.1c-0.2,0-0.4,0-0.6,0c-0.2,0-0.4,0-0.7,0
							c-0.4,0-0.9,0-1.3,0c-0.2,0-0.4,0-0.6,0.1c-0.2,0-0.4,0-0.5,0.1c-0.3,0.1-0.6,0.1-0.8,0.1
							C640.4,429.6,640.3,429.7,640.3,429.7z"/>
					</g>
				</g>
				<g>
					<path class="st8" d="M627.7,420.1c0,0-0.5-5.3,3-10.9c3.5-5.6,8.9-8.1,11.5-12.5c2.6-4.4,4-6.3,8.6-6.7c4.6-0.4,4.3,1.6,4,2.7
						c-0.3,1,0.7,2.2,2.2,2.4c1.5,0.2,3.6,2.8,3,4.5c2.3,1.3,2.2,2,0.9,4c-1.3,2-0.1,1.9,0.7,4.1c0.8,2.2,0.7,4.6-2,5.8
						c-2.7,1.2-2.9-0.1-3.9-0.9c-1-0.8-2.1,0.2-3,1.1c-0.9,0.9-3.8,2.5-7.1,2.6c-3.2,0.1-2.6,2.4-5.3,0.5c-1.9-1.3-2.8-0.6-4.4,0.6
						c-1.6,1.3-4.1,4.2-5.8,4.2C628.4,421.6,627.8,420.9,627.7,420.1z"/>
					<path class="st9" d="M629.1,413.5c0.6-0.6,1.2-1.3,1.9-1.7c0.8-0.5,1.6-0.7,2.4-1c2.1-0.6,4-1.4,5.7-2.9c2-1.7,3.4-3.6,3.8-6.2
						c0.2-1.3,0.1-2.6,1.2-3.5c1-0.8,3.2-1.1,2.6-2.9c-0.4-1.2-1.3-2.1-1.2-3.3c-1.2,1.1-2.2,2.6-3.4,4.7
						c-2.6,4.4-7.9,6.8-11.5,12.5c-1,1.7-1.7,3.3-2.2,4.8C628.7,413.8,628.9,413.6,629.1,413.5z"/>
					<path class="st9" d="M660.8,403.6c1.3-2,1.4-2.7-0.9-4c0.2-0.5,0.1-1.1-0.1-1.6c-0.8,0-1.7,0.1-2.5,0.2
						c-2.7,0.4-5.2,1.4-7.5,2.9c-2.1,1.4-4.1,3-6.1,4.5c-2,1.4-4,2.9-5.7,4.7c-1.9,1.9-3.7,3.9-5.6,5.9c-1.3,1.4-2.6,2.7-4.2,3.7
						c-0.2,0.1-0.3,0.2-0.5,0.3c0.1,0.9,0.6,1.5,2.4,1.5c1.7,0,4.2-2.9,5.8-4.2c1.6-1.3,2.5-2,4.4-0.6c2.7,1.9,2-0.5,5.3-0.5
						c3.2-0.1,6.2-1.7,7.1-2.6c0.9-0.9,2-1.9,3-1.1c1,0.8,1.2,2,3.9,0.9c2.7-1.2,2.8-3.6,2-5.8C660.7,405.5,659.5,405.6,660.8,403.6
						z"/>
					<g>
						<path class="st8" d="M630.3,418c0,0,0.2-0.3,0.7-0.8c0.4-0.5,1.1-1.2,1.9-2.1c0.4-0.4,0.8-0.9,1.3-1.3c0.5-0.5,1-1,1.5-1.4
							c0.5-0.5,1.1-1,1.7-1.5c0.6-0.5,1.2-1,1.8-1.5c0.6-0.5,1.2-1,1.8-1.4c0.3-0.2,0.6-0.4,0.9-0.7c0.3-0.2,0.6-0.4,0.9-0.6
							c0.3-0.2,0.6-0.4,0.9-0.6c0.3-0.2,0.6-0.4,0.9-0.5c0.6-0.3,1.1-0.7,1.6-1c0.5-0.3,1-0.5,1.4-0.8c0.4-0.2,0.8-0.4,1.1-0.5
							c0.6-0.3,1-0.5,1-0.5s-0.3,0.2-0.9,0.5c-0.3,0.2-0.7,0.4-1.1,0.6c-0.4,0.2-0.8,0.5-1.3,0.8c-0.5,0.3-1,0.6-1.6,1
							c-0.3,0.2-0.6,0.4-0.8,0.6c-0.3,0.2-0.6,0.4-0.9,0.6c-0.3,0.2-0.6,0.4-0.9,0.6c-0.3,0.2-0.6,0.4-0.9,0.7
							c-0.6,0.4-1.2,0.9-1.8,1.4c-0.6,0.5-1.2,1-1.8,1.4c-0.6,0.5-1.1,1-1.7,1.5c-0.5,0.5-1.1,0.9-1.5,1.4c-0.5,0.4-0.9,0.9-1.4,1.3
							c-0.8,0.8-1.5,1.5-2,2C630.6,417.7,630.3,418,630.3,418z"/>
						<path class="st8" d="M638.4,410.2c0,0,0.4-0.3,1.2-0.6c0.2-0.1,0.4-0.2,0.6-0.2c0.2-0.1,0.4-0.2,0.7-0.2
							c0.5-0.1,0.9-0.3,1.5-0.4c0.3,0,0.5-0.1,0.8-0.1c0.2-0.1,0.5-0.1,0.7-0.1c0.2,0,0.5,0,0.7-0.1c0.2,0,0.4,0,0.6,0
							c0.4,0,0.7,0,0.9,0c0.2,0,0.3,0,0.3,0s-0.1,0-0.3,0.1c-0.2,0-0.5,0.1-0.9,0.1c-0.4,0-0.8,0.1-1.3,0.2c-0.5,0.1-1,0.2-1.4,0.3
							c-0.2,0-0.5,0.1-0.7,0.2c-0.2,0.1-0.5,0.1-0.7,0.2c-0.5,0.1-0.9,0.2-1.3,0.3c-0.4,0.1-0.7,0.2-0.9,0.2
							C638.5,410.1,638.4,410.2,638.4,410.2z"/>
						<path class="st8" d="M643.2,406.7c0,0,0-0.3,0.2-0.8c0.1-0.2,0.2-0.5,0.3-0.8c0.1-0.3,0.3-0.6,0.4-0.9
							c0.1-0.1,0.2-0.3,0.3-0.4c0.1-0.1,0.2-0.3,0.3-0.4c0.1-0.1,0.2-0.2,0.3-0.4c0.1-0.1,0.2-0.2,0.3-0.3c0.4-0.3,0.7-0.5,0.7-0.5
							s-0.2,0.3-0.5,0.7c-0.1,0.1-0.1,0.2-0.2,0.3c-0.1,0.1-0.2,0.3-0.2,0.4c-0.1,0.1-0.2,0.3-0.2,0.4c-0.1,0.1-0.2,0.3-0.3,0.4
							c-0.1,0.2-0.2,0.3-0.2,0.4c-0.1,0.1-0.2,0.3-0.2,0.4c-0.2,0.3-0.3,0.5-0.4,0.8C643.3,406.4,643.2,406.7,643.2,406.7z"/>
					</g>
				</g>
				<g>
					<path class="st6" d="M633,401.6c0,0-3-7.4-5.6-10.9c-2.6-3.5-3.5-12.7-2.1-18.9c1.6-4.3,2.9-4.6,5.1-3.3
						c2.2,1.4,3.2,3.3,4.7,2.1c1.5-1.2,3.5-2,5.8-0.4c2.3,1.6,2.2,1.8,2.2,3.4c0,1.5-0.5,3.4,2.2,4.7c2.6,1.3,3.2,2.9,3.2,5.4
						c0,2.5-0.8,3.3-3.2,4.3c-2.4,1-2.2,2.1-0.9,3.5c1.3,1.5,2.1,3.5,0.8,4.4c-1.3,0.8-1.5,0-1.9,2C642.9,400,639.1,409.3,633,401.6
						z"/>
					<path class="st7" d="M645.3,388.1c2.4-1,3.2-1.7,3.2-4.3c0-2.5-0.5-4.2-3.2-5.4c-2.6-1.3-2.2-3.2-2.2-4.7
						c0-1.5,0.1-1.7-2.2-3.4c-1.6-1.2-3.1-1.1-4.3-0.5c-1.7,3.8-3.2,7.9-3.4,12c-0.1,1.2-0.1,2.6,0.3,3.8c0.4,0.9,0.5,4.2,1.2,4.9
						c0.7,0.8,1.8-1,2.2-0.1c0.4,0.9,0.6,1.9,0.8,2.9c0.5,3.6,0.2,7.3-1.5,10.6c-0.1,0.1-0.1,0.2-0.2,0.4c4.3,1.9,6.9-4.6,7.2-6.2
						c0.4-2,0.6-1.2,1.9-2c1.3-0.8,0.5-2.9-0.8-4.4C643.1,390.2,642.9,389.1,645.3,388.1z"/>
					<g>
						<path class="st6" d="M634.1,377.7c0,0-0.2,0.8-0.4,2c-0.1,0.6-0.2,1.3-0.2,2.1c0,0.4,0,0.8,0,1.2c0,0.2,0,0.4,0,0.6l0,0.6
							c0,0.4,0,0.8,0.1,1.2c0,0.4,0.1,0.8,0.1,1.2c0,0.4,0.1,0.7,0.2,1.1c0,0.4,0.1,0.7,0.2,1c0.1,0.3,0.1,0.6,0.2,0.8
							c0.1,0.2,0.1,0.5,0.2,0.6c0.1,0.4,0.1,0.6,0.1,0.6s-0.1-0.2-0.2-0.5c-0.1-0.2-0.1-0.4-0.2-0.6c-0.1-0.2-0.2-0.5-0.3-0.8
							c-0.1-0.3-0.2-0.6-0.2-1c-0.1-0.3-0.2-0.7-0.2-1.1c0-0.4-0.1-0.8-0.1-1.2c0-0.4-0.1-0.8-0.1-1.2l0-0.6c0-0.2,0-0.4,0-0.6
							c0-0.4,0.1-0.8,0.1-1.2c0-0.4,0.1-0.8,0.1-1.1c0.1-0.3,0.1-0.7,0.2-1c0.1-0.6,0.3-1.1,0.4-1.5
							C634,377.9,634.1,377.7,634.1,377.7z"/>
						<path class="st6" d="M631,379.9c0,0,0.2,0.3,0.4,0.8c0.2,0.5,0.5,1.1,0.8,1.7c0.1,0.2,0.1,0.3,0.2,0.4
							c0.1,0.1,0.1,0.3,0.2,0.4c0.1,0.1,0.1,0.3,0.2,0.4c0.1,0.1,0.1,0.3,0.2,0.4c0.2,0.4,0.4,0.7,0.4,0.7s-0.2-0.2-0.6-0.6
							c-0.1-0.1-0.2-0.2-0.2-0.3c-0.1-0.1-0.2-0.3-0.2-0.4c-0.2-0.3-0.3-0.6-0.5-0.9c-0.1-0.3-0.3-0.6-0.4-0.9
							c-0.1-0.3-0.2-0.6-0.2-0.8C631,380.3,631,379.9,631,379.9z"/>
						<path class="st6" d="M634.9,384.8c0,0-0.1,0.2-0.2,0.5c-0.1,0.1-0.2,0.3-0.2,0.5c-0.1,0.1-0.1,0.2-0.1,0.3
							c0,0.1-0.1,0.2-0.1,0.3c0,0.1-0.1,0.2-0.1,0.3c0,0.1-0.1,0.2-0.1,0.3c0,0.1-0.1,0.2-0.1,0.3c0,0.1-0.1,0.2-0.1,0.2
							c-0.1,0.3-0.1,0.5-0.1,0.5s-0.1-0.2-0.1-0.6c0-0.2,0-0.4,0.1-0.6c0-0.2,0.1-0.4,0.2-0.6c0-0.1,0.1-0.2,0.2-0.3
							c0.1-0.1,0.1-0.2,0.2-0.3c0.1-0.2,0.2-0.3,0.4-0.4C634.7,384.9,634.9,384.8,634.9,384.8z"/>
					</g>
				</g>
				<g>
					<path class="st8" d="M603.8,397.3c0,0,2-4.1-1.1-5.2c-3.1-1-4.5-2.3-3.5-6.9c0.7-4.1,0.1-4.9-0.6-8.3c-0.7-3.3,1-4,2-5.6
						c1-1.7,2.2-3.3,4.6-2.8c2.4,0.6,3.3,2,3.3,2s3.1-8,6.4-7.3c3.3,0.6,3.1,3.5,2.2,4.8c-0.9,1.3-1.4,3.1,1.4,3.3
						c2.8,0.2,4.5,1.9,4.5,3.3c0,1.4-1,2.1,0.2,3.2c1.1,1,1.3,1.8,1.5,3.9c0.2,2.1,0.6,4.7,1.4,6.1c0.8,1.4,0.4,1.5-1.7,2.5
						c-2.1,1-1.7,1.5-1.5,3.1c0.2,1.6-1.1,2.5-3.1,4.1c-2,1.5-2.9,2.9-3.3,5.9c-0.3,3-1.4,4.3-4.1,4.5c-2.7,0.2-3.2-2.1-3.7-4.5
						c-0.6-2.3-2.1-3.2-3.6-3.7C603.8,399.2,603.4,398.5,603.8,397.3z"/>
					<path class="st9" d="M626.1,387.7c-0.8-1.4-1.2-4.1-1.4-6.1c-0.2-2.1-0.4-2.9-1.5-3.9c-1.1-1-0.2-1.8-0.2-3.2
						c0-1.4-1.7-3.2-4.5-3.3c-2.8-0.2-2.3-2-1.4-3.3c0.7-1.1,1-3.3-0.9-4.3c-0.5,2.4-2.2,4.7-3.6,6.7c-1.1,1.6-2.9,3.9-1.7,5.8
						c0.6,0.9,1.2,1.7,1.6,2.7c0.3,0.7,0.8,1.6,0.7,2.4c-0.1,0.7-0.3,1.2-0.9,1.7c-0.5,0.4-1,0.5-1.2,1.2c-0.2,0.7-0.4,1.5-0.4,2.2
						c0.1,2.2,1.4,3.5,3.4,4.1c1.1,0.4,2.9,0.6,3.7,1.6c0.6,0.8-0.6,1.7-1.1,2c-0.6,0.4-1.4,0.7-2.1,0.7c-0.5,0-1-0.1-1.5-0.1
						c-1,0-1.1,1.4-1.2,2.1c-0.1,1.1-0.2,2.2-0.3,3.3c-0.1,2.4,0,4.7,0.4,7.1c0,0.2,0.1,0.5,0.1,0.7c0.1,0,0.2,0,0.4,0
						c2.7-0.2,3.7-1.4,4.1-4.5c0.3-3,1.3-4.4,3.3-5.9c2-1.5,3.3-2.5,3.1-4.1c-0.2-1.6-0.6-2.1,1.5-3.1
						C626.5,389.3,626.9,389.2,626.1,387.7z"/>
					<g>
						<path class="st8" d="M606.3,386.9c0,0,0.2,0.2,0.5,0.6c0.3,0.4,0.8,1,1.4,1.7c0.3,0.4,0.6,0.7,0.9,1.1c0.3,0.4,0.6,0.8,1,1.3
							c0.2,0.2,0.3,0.5,0.5,0.7c0.2,0.2,0.3,0.5,0.5,0.7c0.3,0.5,0.5,1.1,0.6,1.7c0.1,0.3,0.1,0.6,0.1,0.9c0,0.3,0,0.6,0,0.9
							c0,0.6-0.1,1.2-0.1,1.7c0,1.1,0,2.1,0.1,3c0.1,0.9,0.2,1.6,0.3,2.1c0.1,0.2,0.1,0.4,0.2,0.6c0,0.1,0.1,0.2,0.1,0.2
							c0,0,0,0-0.1,0c0,0-0.1-0.1-0.1-0.1c-0.1-0.1-0.1-0.3-0.2-0.6c-0.1-0.5-0.3-1.2-0.5-2.1c-0.1-0.9-0.3-1.9-0.3-3
							c0-0.6,0-1.1,0.1-1.7c0-0.3,0-0.6,0-0.9c0-0.3,0-0.6-0.1-0.9c-0.1-0.6-0.3-1.1-0.6-1.6c-0.1-0.2-0.3-0.5-0.4-0.7
							c-0.2-0.2-0.3-0.5-0.5-0.7c-0.6-0.9-1.2-1.7-1.7-2.5c-0.3-0.4-0.5-0.7-0.7-1c-0.2-0.3-0.4-0.5-0.5-0.8
							C606.5,387.2,606.3,386.9,606.3,386.9z"/>
						<path class="st8" d="M611,384.3c0,0,0,0.2,0,0.5c0,0.3,0,0.8,0,1.3c0,0.3,0,0.6,0,0.9c0,0.3,0,0.6,0.1,1c0,0.3,0.1,0.7,0.1,1
							c0.1,0.4,0.1,0.7,0.2,1.1c0.1,0.4,0.1,0.7,0.1,1.1c0,0.4,0,0.7,0.1,1.1c0,0.3,0,0.7,0,1c0,0.3,0,0.6,0,0.9c0,0.5,0,1-0.1,1.3
							c0,0.3,0,0.5,0,0.5s0-0.7-0.1-1.8c0-0.6-0.1-1.2-0.1-1.9c0-0.3,0-0.7-0.1-1c0-0.4-0.1-0.7-0.1-1.1c-0.1-0.4-0.1-0.7-0.2-1.1
							c-0.1-0.4-0.1-0.7-0.1-1.1c0-0.3,0-0.7,0-1c0-0.3,0-0.6,0-0.9c0-0.6,0.1-1,0.2-1.3C611,384.4,611,384.3,611,384.3z"/>
						<path class="st8" d="M617,385.2c0,0,0,0-0.1,0.1c0,0.1-0.1,0.2-0.2,0.3c-0.1,0.1-0.2,0.3-0.3,0.4c-0.1,0.2-0.3,0.4-0.4,0.6
							c-0.2,0.2-0.3,0.4-0.5,0.6c-0.2,0.2-0.4,0.4-0.6,0.7c-0.4,0.5-0.9,0.9-1.3,1.4c-0.2,0.3-0.4,0.5-0.6,0.8
							c-0.2,0.3-0.4,0.5-0.5,0.8c-0.1,0.1-0.1,0.3-0.2,0.4c0,0.1-0.1,0.3-0.2,0.4c-0.1,0.3-0.2,0.5-0.2,0.8
							c-0.1,0.2-0.1,0.5-0.1,0.7c0,0.2-0.1,0.4-0.1,0.5c0,0.3-0.1,0.5-0.1,0.5s0-0.2,0-0.5c0-0.1,0-0.3,0-0.5c0-0.2,0-0.4,0.1-0.7
							c0-0.2,0.1-0.5,0.2-0.8c0-0.1,0.1-0.3,0.1-0.4c0-0.2,0.1-0.3,0.2-0.4c0.1-0.3,0.3-0.6,0.5-0.9c0.2-0.3,0.4-0.5,0.6-0.8
							c0.2-0.2,0.5-0.5,0.7-0.7c0.2-0.2,0.5-0.5,0.7-0.7c0.2-0.2,0.4-0.4,0.6-0.6c0.2-0.2,0.4-0.4,0.6-0.6c0.2-0.2,0.3-0.3,0.5-0.5
							c0.1-0.2,0.3-0.3,0.3-0.4C616.9,385.4,617,385.2,617,385.2z"/>
					</g>
				</g>
				<g>
					<path class="st6" d="M601.2,450.8c0,0-6.8,7.2-22.9-2.7c-7.9-5.7-10.5-14.3-7.2-19.9c2.6-3.5,5.2-3.2,5.9-0.8
						c2.4-2.2,4.8,0.6,9.1,1.7c3.6,0.8,5.1,4,3.3,6.5c-1.1,1.2,0.7,1.2,1.4,2.8c0.7,1.6-1.6,4.5-1.6,4.5s2.4-0.4,2.7,2.5
						C595,444.7,598.3,448.6,601.2,450.8z"/>
					<path class="st7" d="M591.9,445.3c-0.3-2.9-2.7-2.5-2.7-2.5s2.3-3,1.6-4.5c-0.7-1.6-2.5-1.6-1.4-2.8c1.8-2.6,0.3-5.7-3.3-6.5
						c-4.3-1.1-6.7-3.9-9.1-1.7c-0.5-1.7-2-2.4-3.7-1.3c0.1,0.1,0.2,0.2,0.4,0.3c1.6,1.7,1.2,4.6,1.1,6.7c0,1.3-0.1,2.7,0.3,4
						c0.4,1.1,1,2.2,1.6,3.2c1.2,1.9,2.7,3.6,4.6,4.9c0.9,0.7,1.9,1.3,2.9,1.9c1.2,0.7,2.3,1.5,3.4,2.2c1.1,0.6,2.1,1.1,3.3,1.3
						c0.9,0.2,1.8,0.4,2.6,0.8c0.8,0.4,1.4,1.1,1.6,1.9c4.1-0.5,6-2.4,6-2.4C598.3,448.6,595,444.7,591.9,445.3z"/>
					<g>
						<path class="st6" d="M592.9,451.3c0,0-0.4-0.1-1-0.3c-0.6-0.2-1.6-0.5-2.6-1c-1.1-0.5-2.3-1-3.6-1.8c-0.6-0.4-1.3-0.8-1.9-1.2
							c-0.6-0.4-1.3-0.9-1.9-1.4c-0.6-0.5-1.2-1-1.7-1.6l-0.4-0.4c-0.1-0.1-0.3-0.3-0.4-0.4c-0.3-0.3-0.5-0.6-0.7-0.9
							c-0.5-0.6-0.9-1.2-1.2-1.7c-0.2-0.3-0.3-0.6-0.5-0.9c-0.2-0.3-0.3-0.5-0.4-0.8c-0.3-0.5-0.4-1-0.6-1.5
							c-0.1-0.5-0.3-0.9-0.4-1.2c-0.1-0.7-0.2-1-0.2-1s0.1,0.4,0.3,1c0.1,0.3,0.3,0.7,0.4,1.1c0.2,0.4,0.4,0.9,0.7,1.4
							c0.1,0.3,0.3,0.5,0.4,0.8c0.2,0.3,0.3,0.6,0.5,0.8c0.4,0.6,0.8,1.1,1.2,1.7c0.2,0.3,0.5,0.6,0.7,0.8c0.1,0.1,0.2,0.3,0.4,0.4
							l0.4,0.4c0.5,0.5,1.1,1,1.7,1.5c0.6,0.5,1.2,1,1.8,1.4c0.6,0.4,1.3,0.8,1.9,1.2c0.6,0.4,1.2,0.7,1.8,1
							c0.6,0.3,1.2,0.6,1.7,0.8c1.1,0.5,1.9,0.9,2.6,1.1C592.5,451.2,592.9,451.3,592.9,451.3z"/>
						<path class="st6" d="M584.9,447.5c0,0-0.3-0.2-0.6-0.7c-0.2-0.2-0.3-0.5-0.4-0.8c-0.1-0.2-0.1-0.3-0.2-0.5
							c-0.1-0.2-0.1-0.3-0.2-0.5c-0.1-0.4-0.1-0.7-0.2-1.1c0-0.2,0-0.3,0-0.5c0-0.2,0-0.3,0-0.4c0-0.3,0.1-0.5,0.1-0.6
							c0-0.2,0.1-0.2,0.1-0.2s0,0.1,0,0.3c0,0.1,0,0.2,0,0.3c0,0.1,0,0.2,0,0.4c0,0.3,0,0.6,0.1,0.9c0,0.2,0.1,0.3,0.1,0.5
							c0,0.2,0.1,0.3,0.1,0.5c0.1,0.3,0.2,0.7,0.3,1c0.1,0.1,0.1,0.3,0.2,0.4c0.1,0.1,0.1,0.3,0.2,0.4
							C584.7,447.2,584.9,447.5,584.9,447.5z"/>
						<path class="st6" d="M577.2,443.3c0,0,0.1,0,0.2,0.1c0.1,0,0.3,0.1,0.5,0.2c0.2,0.1,0.4,0.2,0.6,0.3c0.2,0.1,0.5,0.2,0.7,0.3
							c0.1,0.1,0.2,0.1,0.4,0.2c0.1,0.1,0.2,0.1,0.4,0.2c0.2,0.1,0.4,0.2,0.6,0.3c0.4,0.2,0.6,0.3,0.6,0.3s-0.3,0-0.7-0.1
							c-0.2,0-0.4-0.1-0.7-0.2c-0.1,0-0.3-0.1-0.4-0.1c-0.1-0.1-0.2-0.1-0.4-0.2c-0.2-0.1-0.5-0.2-0.7-0.3c-0.2-0.1-0.4-0.3-0.6-0.4
							c-0.2-0.1-0.3-0.2-0.4-0.3C577.2,443.3,577.2,443.3,577.2,443.3z"/>
					</g>
				</g>
				<g>
					<path class="st8" d="M607.9,413.6c-1.7,0-2.4,0.1-2.1-1.1c0.4-1.2,0.4-2.8-2.5-3.3c-3-0.5-4.5,1.2-5.6,3.1
						c-1,1.8-2.6,3.5-3.7,2.9c-1-0.6-4.3,0-4.8,4.1c-0.5,4.1,1.2,7.9,2.8,10.4c1.6,2.4,3.8,4,3,9c-1.2,6,3,6.1,3,6.1h0.3
						c11.2-5.3,12.4-21,12.5-24.6C610.8,416.5,609.6,413.6,607.9,413.6z"/>
					<path class="st9" d="M607.9,413.6c-1.7,0-2.4,0.1-2.1-1.1c0.4-1.2,0.4-2.8-2.5-3.3c-0.4-0.1-0.8-0.1-1.1-0.1
						c2.1,2.9,3.6,6.3,3.5,9.9c0,2.3-0.6,4.6-1.8,6.6c-1.2,2.2-2.9,4.2-4,6.5c-1.5,3.2-1.8,6.9-3.7,9.9c-0.2,0.3-0.4,0.6-0.6,0.9
						c0.9,1.2,2.4,1.1,2.4,1.1h0.3c11.2-4.5,12.4-20.7,12.5-24.2C610.8,416.2,609.6,413.6,607.9,413.6z"/>
					<g>
						<path class="st8" d="M602.9,420.1c0,0,0,0.3,0,0.8c0,0.5,0,1.3-0.1,2.2c0,0.5-0.1,0.9-0.2,1.5c-0.1,0.5-0.1,1.1-0.2,1.6
							c-0.1,0.6-0.2,1.1-0.3,1.7c-0.1,0.6-0.2,1.2-0.4,1.8c-0.1,0.6-0.3,1.2-0.5,1.8c-0.2,0.6-0.4,1.1-0.5,1.7
							c-0.2,0.5-0.4,1.1-0.6,1.6c-0.2,0.5-0.4,1-0.6,1.4c-0.2,0.4-0.3,0.8-0.5,1.1c-0.2,0.3-0.3,0.6-0.4,0.9
							c-0.2,0.5-0.4,0.8-0.4,0.8s0.1-0.3,0.3-0.8c0.1-0.2,0.2-0.5,0.4-0.9c0.1-0.3,0.3-0.7,0.4-1.2c0.2-0.4,0.3-0.9,0.5-1.4
							c0.2-0.5,0.3-1,0.5-1.6c0.2-0.5,0.4-1.1,0.5-1.7c0.2-0.6,0.3-1.2,0.4-1.8c0.1-0.6,0.3-1.2,0.4-1.8c0.1-0.6,0.2-1.2,0.3-1.7
							c0.1-0.6,0.2-1.1,0.3-1.6c0.1-0.5,0.2-1,0.2-1.5c0.1-0.9,0.2-1.7,0.3-2.2C602.9,420.4,602.9,420.1,602.9,420.1z"/>
						<path class="st8" d="M599,421.8c0,0,0.1,0.1,0.2,0.3c0.1,0.2,0.3,0.5,0.5,0.8c0.2,0.3,0.4,0.7,0.6,1.2
							c0.2,0.4,0.4,0.9,0.6,1.4c0.1,0.2,0.2,0.5,0.2,0.7c0.1,0.3,0.1,0.5,0.2,0.7c0,0.2,0.1,0.5,0.1,0.7c0,0.2,0,0.4,0.1,0.6
							c0,0.2,0,0.4,0,0.5c0,0.2,0,0.3,0,0.4c0,0.2-0.1,0.4-0.1,0.4s0-0.1,0-0.4c0-0.1,0-0.3,0-0.4c0-0.2,0-0.3-0.1-0.5
							c0-0.2-0.1-0.4-0.1-0.6c-0.1-0.2-0.1-0.4-0.2-0.7c-0.1-0.5-0.3-1-0.5-1.4c-0.1-0.2-0.2-0.5-0.3-0.7c-0.1-0.2-0.2-0.5-0.3-0.7
							c-0.2-0.4-0.4-0.9-0.5-1.2c-0.2-0.4-0.3-0.7-0.4-0.9C599,422,599,421.8,599,421.8z"/>
						<path class="st8" d="M604.2,428.8c0,0-0.2,0.4-0.5,1c-0.3,0.6-0.7,1.4-1.2,2.1c-0.3,0.4-0.5,0.7-0.8,1
							c-0.3,0.3-0.5,0.6-0.8,0.8c-0.2,0.2-0.4,0.4-0.6,0.6c-0.1,0.1-0.2,0.2-0.2,0.2s0.1-0.1,0.2-0.3c0.1-0.2,0.3-0.4,0.5-0.6
							c0.1-0.1,0.2-0.3,0.3-0.4c0.1-0.2,0.2-0.3,0.3-0.5c0.1-0.2,0.2-0.3,0.4-0.5c0.1-0.2,0.3-0.4,0.4-0.5c0.1-0.2,0.2-0.4,0.4-0.5
							c0.1-0.2,0.2-0.4,0.4-0.5c0.2-0.3,0.5-0.6,0.6-0.9c0.2-0.3,0.4-0.5,0.5-0.7C604.1,428.9,604.2,428.8,604.2,428.8z"/>
					</g>
				</g>
				<g>
					<path class="st6" d="M546.6,455.9c0,0-3.7-0.4-11.6-8.7c-6.7-6-5.7-8.5-5.4-11.8c0.4-3.7-3.2-5.8-1.2-9.6
						c2-3.8,3.2-3.4,4.3-3.6c1.1-0.2,2.1-3.1,2.9-5.3c0.8-2.2,3.3-4.3,6.2-3.5c2.9,0.7,3.7,3.1,4,4.2c0.3,1,0.9,0.8,1.7,0.5
						c0.8-0.3,1.5,0.4,1.8,2.1c0.4,1.7,2,2.1,3.6,3.6c1.6,1.5,3,3.4,1.8,5.3c-1.2,2-0.4,3.2-2.2,4.6c-1.8,1.4-2,2.2-1.4,5.1
						c0.6,2.9,1.3,4.2-1.2,6c-2.5,1.8-4.2,2.8-3.3,5.5c0.9,2.7,1.8,4.4,1.6,5C548,455.9,547.2,456.1,546.6,455.9z"/>
					<path class="st7" d="M552.9,423.7c-1.6-1.5-3.2-1.9-3.6-3.6c-0.4-1.7-1.1-2.4-1.8-2.1c-0.8,0.3-1.4,0.5-1.7-0.5
						c-0.3-1-1.1-3.3-3.8-4.1c0,0.4,0,0.9,0,1.3c-0.2,3-1,5.9-2,8.7c-0.9,2.7-2.4,5.4-2.7,8.2c-0.3,2.8,0.6,5.6,1.6,8.1
						c0.5,1.4,0.9,2.9,1.3,4.3c0.4,1.4,1,2.6,1.6,3.9c0.9,2.1,1.6,4.3,1.8,6.6c2,1.2,3,1.3,3,1.3c0.6,0.3,1.5,0.1,1.7-0.6
						c0.3-0.7-0.7-2.3-1.6-5c-0.9-2.7,0.8-3.7,3.3-5.5c2.5-1.8,1.8-3.1,1.2-6c-0.6-2.9-0.4-3.7,1.4-5.1c1.8-1.4,1-2.6,2.2-4.6
						C555.9,427.1,554.5,425.3,552.9,423.7z"/>
					<g>
						<path class="st6" d="M545.7,454.6c0,0-0.3-0.4-0.8-1.1c-0.3-0.4-0.5-0.8-0.9-1.4c-0.3-0.5-0.7-1.1-1-1.8
							c-0.4-0.7-0.7-1.4-1.1-2.2c-0.4-0.8-0.7-1.7-1-2.6c-0.3-0.9-0.6-1.8-0.9-2.8c-0.1-0.5-0.3-1-0.4-1.4c-0.1-0.5-0.3-1-0.4-1.5
							c-0.1-0.5-0.2-1-0.4-1.5c-0.1-0.5-0.2-1-0.3-1.5c-0.1-0.5-0.1-1-0.2-1.5c0-0.5-0.1-1-0.1-1.4c0-0.5-0.1-0.9-0.1-1.4
							c0-0.5,0-0.9,0-1.4c0-0.4,0-0.9,0-1.3c0-0.4,0.1-0.8,0.1-1.2c0-0.4,0.1-0.7,0.1-1.1c0.1-0.3,0.1-0.7,0.2-1
							c0.1-0.6,0.2-1.1,0.3-1.6c0.2-0.9,0.4-1.4,0.4-1.4l0,0c0,0-0.1,0.5-0.2,1.4c-0.1,0.4-0.1,1-0.2,1.6c0,0.3-0.1,0.6-0.1,1
							c0,0.3-0.1,0.7-0.1,1.1c0,0.4-0.1,0.8-0.1,1.2c0,0.4,0,0.8,0,1.3c0,0.4,0,0.9,0,1.3c0,0.5,0,0.9,0.1,1.4c0,0.5,0.1,1,0.1,1.4
							c0.1,0.5,0.1,1,0.2,1.5c0.1,1,0.3,2,0.5,3c0.4,2,1,3.9,1.7,5.7c0.4,0.9,0.7,1.7,1.1,2.5c0.4,0.8,0.7,1.5,1,2.2
							c0.3,0.7,0.7,1.3,1,1.8c0.3,0.5,0.6,1,0.8,1.4C545.4,454.2,545.7,454.6,545.7,454.6L545.7,454.6z"/>
						<path class="st6" d="M540.9,443.9c0,0,0,0-0.1-0.1c0-0.1-0.1-0.2-0.2-0.4c-0.1-0.2-0.1-0.4-0.2-0.6c0-0.1-0.1-0.3-0.1-0.4
							c0-0.1,0-0.3-0.1-0.5c0-0.3-0.1-0.7-0.1-1c0-0.4,0.1-0.7,0.1-1.1c0-0.2,0-0.4,0.1-0.6c0-0.2,0.1-0.4,0.1-0.6
							c0.1-0.4,0.1-0.8,0.1-1.2c0-0.4,0.1-0.8,0.2-1.2c0.1-0.4,0.2-0.8,0.2-1.2c0.1-0.4,0.2-0.8,0.3-1.1c0.1-0.3,0.2-0.7,0.3-0.9
							c0.2-0.6,0.4-1.1,0.6-1.4c0.1-0.3,0.2-0.5,0.2-0.5l0,0c0,0,0,0.2-0.1,0.6c-0.1,0.4-0.2,0.9-0.4,1.5c-0.1,0.3-0.2,0.6-0.3,1
							c-0.1,0.3-0.2,0.7-0.3,1.1c-0.1,0.4-0.2,0.8-0.3,1.2c-0.1,0.2-0.1,0.4-0.2,0.6c-0.1,0.2-0.1,0.4-0.1,0.6
							c-0.1,0.4-0.2,0.8-0.2,1.2c0,0.2-0.1,0.4-0.1,0.6c0,0.2,0,0.4,0,0.6c0,0.4,0,0.8,0,1.1c0,0.4,0,0.7,0.1,1c0,0.2,0,0.3,0,0.4
							c0,0.1,0,0.3,0.1,0.4c0,0.2,0,0.5,0.1,0.6C540.9,443.7,540.9,443.9,540.9,443.9L540.9,443.9z"/>
						<path class="st6" d="M534.8,425.3c0,0,0,0.1,0.1,0.4c0.1,0.3,0.2,0.6,0.3,1.1c0.1,0.2,0.1,0.5,0.2,0.7c0,0.3,0.1,0.5,0.2,0.8
							c0.1,0.6,0.3,1.1,0.6,1.7c0.1,0.3,0.3,0.5,0.4,0.8c0.1,0.3,0.3,0.5,0.4,0.8c0.1,0.2,0.3,0.5,0.4,0.7c0.1,0.2,0.2,0.4,0.4,0.6
							c0.1,0.2,0.2,0.4,0.3,0.5c0.1,0.2,0.2,0.3,0.3,0.4c0.1,0.2,0.2,0.4,0.2,0.4l0,0c0,0-0.1-0.1-0.3-0.3c-0.1-0.1-0.2-0.2-0.3-0.3
							c-0.1-0.1-0.3-0.3-0.4-0.5c-0.1-0.2-0.3-0.4-0.4-0.6c-0.1-0.2-0.3-0.5-0.4-0.7c-0.1-0.3-0.2-0.5-0.4-0.8
							c-0.1-0.3-0.2-0.6-0.3-0.9c-0.1-0.3-0.2-0.6-0.3-0.9c-0.1-0.3-0.2-0.6-0.3-0.8c-0.1-0.3-0.2-0.5-0.3-0.8
							c-0.1-0.3-0.1-0.5-0.2-0.7C534.7,425.9,534.8,425.3,534.8,425.3L534.8,425.3z"/>
					</g>
				</g>
				<g>
					<path class="st6" d="M539.1,384.2c0,0-1.2-2.1,1.2-4.2c2.3-2.1,4.8-0.7,6.1-2.2c1.3-1.5,2.6-4.3,4.8-3.1
						c2.2,1.2,2.5,2.1,3.5,1.4c1-0.7,4-0.5,5.8,1.3c1.8,1.8,3.2,7.6-0.8,13.3c-4,5.7-1.8,10.8-0.5,13.7c1.4,2.9,1.1,7.4-5.9,6.8
						c-7-0.6-7-7.1-7-8.7c0-1.6-1.2-1.8-2.2-1.6c-1.1,0.2-2.4-0.1-2.4-2.2c0-2.1-3.8,0.3-4.7-2c-0.9-2.3-0.9-1.7-3-2.6
						C531.8,393.2,530.4,385.9,539.1,384.2z"/>
					<path class="st7" d="M559.6,390.7c4-5.7,2.6-11.6,0.8-13.3c-1.8-1.8-4.8-1.9-5.8-1.3c-1,0.7-1.3-0.2-3.5-1.4
						c-1.3-0.7-2.4,0.1-3.2,1.1c0.4,0.4,0.8,1,1.1,1.5c1.6,2.9,2.1,6.5,2.1,9.8c0,5.1-2.1,10.9,0.2,15.7c1.4,2.8,3.3,5.4,4.5,8.3
						c4.5-0.6,4.5-4.3,3.3-6.8C557.7,401.5,555.6,396.5,559.6,390.7z"/>
					<g>
						<path class="st6" d="M549.2,381.9c0,0,0,0.4,0,1.1c0,0.7,0,1.8,0.1,3c0,0.6,0.1,1.3,0.2,2c0.1,0.7,0.2,1.4,0.3,2.2
							c0.1,0.8,0.2,1.6,0.4,2.4c0.1,0.4,0.1,0.8,0.2,1.2c0.1,0.4,0.2,0.8,0.3,1.2c0.2,0.8,0.4,1.6,0.6,2.4c0.2,0.8,0.5,1.5,0.7,2.3
							c0.2,0.7,0.5,1.4,0.7,2.1c0.1,0.3,0.2,0.7,0.4,1c0.1,0.3,0.3,0.6,0.4,0.9c0.2,0.6,0.4,1.1,0.7,1.6c0.2,0.5,0.4,0.8,0.6,1.2
							c0.3,0.7,0.5,1,0.5,1s-0.2-0.4-0.6-1c-0.2-0.3-0.4-0.7-0.6-1.1c-0.2-0.4-0.5-1-0.7-1.5c-0.1-0.3-0.3-0.6-0.4-0.9
							c-0.1-0.3-0.3-0.6-0.4-1c-0.3-0.7-0.6-1.4-0.8-2.1c-0.2-0.7-0.5-1.5-0.7-2.3c-0.2-0.8-0.4-1.6-0.6-2.4
							c-0.1-0.4-0.2-0.8-0.3-1.2c-0.1-0.4-0.1-0.8-0.2-1.2c-0.2-0.8-0.2-1.6-0.4-2.4c-0.1-0.8-0.2-1.5-0.2-2.2c0-0.7-0.1-1.4-0.1-2
							c0-0.6,0-1.2,0-1.7c0-0.5,0-0.9,0-1.3C549.1,382.3,549.2,381.9,549.2,381.9z"/>
						<path class="st6" d="M552.8,394.7c0,0,0,0.1-0.1,0.3c0,0.2-0.1,0.4-0.2,0.7c0,0.1,0,0.3-0.1,0.5c0,0.2-0.1,0.3-0.1,0.5
							c0,0.2,0,0.4-0.1,0.6c0,0.2,0,0.4-0.1,0.6c0,0.2,0,0.4,0,0.6c0,0.2,0,0.4,0,0.6c0,0.2,0,0.4,0,0.5c0,0.2,0,0.3,0,0.5
							c0,0.3,0,0.6,0,0.7c0,0.2,0,0.3,0,0.3s0-0.1-0.1-0.3c0-0.2-0.1-0.4-0.2-0.7c0-0.1-0.1-0.3-0.1-0.5c0-0.2,0-0.4,0-0.6
							c0-0.2,0-0.4,0-0.6c0-0.2,0-0.4,0-0.6c0-0.2,0-0.4,0.1-0.6c0-0.2,0.1-0.4,0.1-0.6c0-0.2,0.1-0.4,0.1-0.5
							c0-0.2,0.1-0.3,0.2-0.5c0.1-0.3,0.2-0.5,0.3-0.7C552.7,394.8,552.8,394.7,552.8,394.7z"/>
						<path class="st6" d="M544.4,388c0,0,0.1,0.1,0.2,0.2c0.2,0.1,0.4,0.4,0.6,0.6c0.3,0.2,0.6,0.5,0.9,0.9c0.3,0.3,0.7,0.7,1,1
							c0.3,0.3,0.7,0.7,1,1c0.3,0.3,0.6,0.6,0.9,0.9c0.3,0.2,0.5,0.4,0.7,0.6c0.2,0.1,0.2,0.2,0.2,0.2s-0.4-0.2-1-0.6
							c-0.3-0.2-0.6-0.5-1-0.8c-0.3-0.3-0.7-0.6-1.1-1c-0.3-0.3-0.7-0.7-1-1c-0.3-0.3-0.6-0.7-0.8-1
							C544.7,388.4,544.4,388,544.4,388z"/>
					</g>
				</g>
				<g>
					<path class="st10" d="M601.2,401c-1-6.7-6.2-11.7-11.6-11.1c-5.4,0.6-8.9,6.5-7.8,13.2c1,6.7,6.2,11.7,11.6,11.1
						C598.7,413.7,602.2,407.7,601.2,401z"/>
					<path class="st10" d="M559.3,444.2c-5.9,2.3-8,9.7-4.8,16.4c3.2,6.7,10.5,10.3,16.4,7.9c5.9-2.3,8-9.7,4.8-16.4
						C572.5,445.4,565.1,441.9,559.3,444.2z"/>
					<path class="st10" d="M637.7,391.7c-4.9-2.7-11.4,0.3-14.5,6.7c-3.1,6.4-1.6,13.7,3.3,16.4c4.9,2.7,11.4-0.3,14.5-6.7
						C644.1,401.7,642.7,394.4,637.7,391.7z"/>
					<path class="st10" d="M610.3,418.6c0,0,2.8,15.1-11.5,20.9l-1.6,3.2l2,9.8c0,0,0.1,0,0.1,0c1.7,0.2,18.7,2.1,24.2-12.4
						c0.4-1.2,0.8-2.3,1.1-3.4c3.6-13.1-2.4-20.2-2.4-20.2L610.3,418.6z"/>
					<path class="st10" d="M585.9,386.5c-3-2.3-11.3-4.3-11.3-4.3s-3.7,2.9-8.6,10.8c-0.5,1-0.9,1.9-1.2,2.8
						c-6.2,16.4,6.6,25.3,6.6,25.3l10.2-5c0,0,0.1-0.5,0.2-2.8C572.8,394.8,585.9,386.5,585.9,386.5z M564,400.3c0,0.1,0,0.1,0,0.2
						C564,400.5,564,400.4,564,400.3z M564.6,396.2c-0.1,0.5-0.2,1-0.3,1.6C564.3,397.3,564.5,396.7,564.6,396.2z M564.2,398
						c0,0.1,0,0.2,0,0.4C564.2,398.2,564.2,398.1,564.2,398z M564.2,398.5c0,0.1,0,0.2,0,0.4C564.1,398.7,564.1,398.6,564.2,398.5z
						 M564.1,399.1c0,0.1,0,0.2,0,0.3C564.1,399.3,564.1,399.2,564.1,399.1z M564.1,399.9c0,0,0,0.1,0,0.1
						C564.1,399.9,564.1,399.9,564.1,399.9z M564.6,405.2C564.6,405.2,564.6,405.2,564.6,405.2C564.6,405.2,564.6,405.2,564.6,405.2
						z M564.1,402.4C564.1,402.4,564.1,402.4,564.1,402.4C564.1,402.4,564.1,402.4,564.1,402.4z M564.1,401.1
						C564.1,401.1,564.1,401.1,564.1,401.1C564.1,401.1,564.1,401.1,564.1,401.1z"/>
				</g>
				<g>
					<polygon class="st10" points="586.1,431.8 584.6,423.5 581,423.7 579.7,427.5 581.5,435.7 584.7,435.4 					"/>
					<path class="st10" d="M561.5,422.6c-4.5,5.5-4.6,14.8-4.6,14.8l1.7,2.7l4.1-0.6l0.1,0l2.7-13.4l-0.8-2.6L561.5,422.6z"/>
					<path class="st10" d="M598,385.3c0,0,0.4,0.5,1.6,1c0,0,0.1,0,0.1,0.1c7.7-4.2,16,0.1,16,0.1l1.7-3.6l-0.1-0.9
						c0,0-1.4-3.9-9.3-4.3c-7.9-0.3-10,4.6-10,4.6v0.2L598,385.3z"/>
					<path class="st10" d="M605.5,457.2l0.1,3l2.5,2l8.1-2.2l0.5-2.1l-1-3.9C615.7,453.9,609.2,454.2,605.5,457.2z"/>
					<path class="st10" d="M596,461.7c-8.1-3.7-13.1,1.4-13.1,1.4l0,3.3c0,0,0.1,0.1,1,2.2c10.2-3.9,16.9,5.2,16.9,5.2l2-1.6
						l1.8-3.6C604.5,468.5,604.2,465.4,596,461.7z"/>
					<polygon class="st10" points="611.3,390.9 610.5,394.4 611.6,396.7 619.6,397.3 620.5,394.4 619.8,392.3 					"/>
					<path class="st10" d="M543.4,404.6c-0.2,1.7-0.1,2.6-0.1,2.6l1.4,2.2c0,0,5.4,0.6,6.1,5.2c0,0.1,0,0.1,0,0.2
						c0.5,4.4-0.6,7.7-4.8,10.6l0.1,3.1l1.8,1.1c0,0,5.8-1.5,6.7-9.3c0.2-2.1,0.1-4.1-0.4-6.1C552.9,408.9,549,404.6,543.4,404.6z"
						/>
					<path class="st10" d="M632.7,422.1c-2.4,4.9-2,11.8-2,11.8l1.6,2.7l3.5-0.4l2-9.2l-1.4-3.1L632.7,422.1z"/>
					<path class="st10" d="M651.5,415.2c-0.5-0.6-1-1.1-1.4-1.5c-0.8-0.8-1.2-1.2-1.2-1.2s-4.9,2.7-4.7,9.7
						c0.1,6.9,6.5,10.1,6.5,10.1l1.4-0.9l1-0.6C653.1,430.7,645.5,423.4,651.5,415.2z"/>
				</g>
				<g>
					<path class="st8" d="M625.5,439.5c0,0-2.7,0.8-1.9,4.9c0.8,4.1,1.8,8.1-1.9,11c-3.7,3-3,3.2-2.3,4.8c0.7,1.7-0.1,3.3-3.2,4.6
						c-3.1,1.4-5.4,4.1-3.7,7.9c1.8,3.9,5.6,2,7,1.9c1.4-0.1,3.2,1.2,5,2.2c1.9,1,4.2,0,5.1-1.6c0.9-1.6,2.7-1.4,4.9-1.4
						c2.3,0,4.7-0.2,6.8-2.9c2.1-2.7,2.1-3.4,1.7-5.5c-0.4-2.2,0.5-2,2.8-4.4c2.3-2.5,1.1-6.5-2.2-8c-3.3-1.5-3.8-3-4.4-4.9
						c-0.6-2-1.4-2.1-3.3-2.3c-1.9-0.2-2.5-1.4-3.6-3.4C631.6,440.4,626.4,438.1,625.5,439.5z"/>
					<path class="st9" d="M643.9,453c-3.3-1.5-3.8-3-4.4-4.9c-0.6-2-1.4-2.1-3.3-2.3c-1.9-0.2-2.5-1.4-3.6-3.4
						c-0.8-1.5-4-3.2-5.9-3.3c0.5,0.8,1,1.6,1.6,2.4c1.5,1.8,3.3,3.6,4.3,5.7c0.5,1,0.9,2.2,0.6,3.4c-0.2,1.2-0.8,2.1-1.3,3.2
						c-0.5,1.3-0.7,2.7-0.2,4c0.4,1,0.9,1.8,1.3,2.8c0.5,1.3,0.4,2.9-1,3.7c-1.4,0.7-3.3-0.8-4.7,0.1c-0.8,0.5-0.9,1.6-0.1,2.1
						c0.3,0.2,0.6,0.3,0.9,0.5c0.6,0.4,0.8,1.2,0.9,1.9c0,0.2,0,0.5-0.3,0.6c-0.9,0.2-1.3,1.6-1.6,2.5c-0.3,0.8-0.6,1.5-0.5,2.4
						c0,0.4,0.1,0.8,0,1.2c-0.1,0.6-0.4,1.1-0.8,1.6c1.6,0.2,3.2-0.7,3.9-2c0.9-1.6,2.7-1.4,4.9-1.4c2.3,0,4.7-0.2,6.8-2.9
						c2.1-2.7,2.1-3.4,1.7-5.5c-0.4-2.2,0.5-2,2.8-4.4C648.3,458.5,647.1,454.5,643.9,453z"/>
					<g>
						<path class="st8" d="M625.5,439.5c0,0,0,0,0,0.1c0,0.1,0.1,0.2,0.2,0.4c0.1,0.2,0.2,0.4,0.3,0.6c0.1,0.1,0.2,0.2,0.2,0.3
							c0.1,0.1,0.2,0.3,0.3,0.4c0.4,0.5,1,1.1,1.8,1.6c0.8,0.6,1.6,1.3,2.4,2.1c0.8,0.8,1.6,1.8,2.4,3c0.4,0.6,0.7,1.2,0.9,1.9
							c0.2,0.7,0.4,1.4,0.3,2.2c-0.1,0.4-0.2,0.8-0.4,1.1c-0.1,0.2-0.2,0.3-0.3,0.5l-0.2,0.2l-0.2,0.2c-0.1,0.1-0.3,0.3-0.4,0.4
							l-0.3,0.4c-0.1,0.1-0.2,0.3-0.3,0.5c-0.1,0.2-0.2,0.3-0.2,0.5c-0.3,0.7-0.2,1.4,0,2.1c0.2,0.7,0.6,1.4,1,2.1
							c0.1,0.2,0.2,0.4,0.2,0.5l0.1,0.3l0.1,0.3c0.1,0.2,0.1,0.4,0.1,0.6c0,0.2,0,0.4,0,0.6c0,0.4-0.2,0.8-0.5,1.1
							c-0.3,0.3-0.7,0.5-1.1,0.6c-0.7,0.3-1.5,0.4-2.3,0.5c-0.4,0-0.7,0.1-1.1,0.2c-0.3,0.1-0.7,0.2-1,0.3c-0.3,0.2-0.6,0.4-0.8,0.6
							c-0.2,0.3-0.3,0.6-0.2,0.9c0,0.2,0.1,0.3,0.1,0.5c0.1,0.2,0.1,0.3,0.2,0.4c0.2,0.3,0.4,0.5,0.7,0.7c0.5,0.4,1.1,0.8,1.4,1.4
							c0.2,0.3,0.3,0.6,0.2,1v0.1v0l0,0l0,0l0,0.1c0,0.1,0,0.1,0,0.2l-0.1,0.2c0,0.1-0.1,0.1-0.1,0.2c-0.3,0.5-0.8,0.9-1.2,1.2
							c-0.2,0.2-0.4,0.3-0.6,0.5c-0.1,0.2-0.2,0.4-0.1,0.6c0.2,0.4,0.5,0.8,0.6,1.2c0.1,0.2,0.1,0.4,0,0.6c0,0.2-0.1,0.4-0.2,0.5
							c-0.2,0.3-0.5,0.4-0.7,0.6c-0.2,0.1-0.4,0.2-0.6,0.3c-0.3,0.1-0.5,0.2-0.5,0.2s0.2-0.1,0.5-0.2c0.2-0.1,0.4-0.2,0.6-0.3
							c0.2-0.1,0.5-0.3,0.7-0.6c0.1-0.1,0.2-0.3,0.2-0.5c0-0.2,0-0.4-0.1-0.6c-0.1-0.4-0.4-0.7-0.6-1.2c-0.1-0.1-0.1-0.2-0.1-0.4
							c0-0.1,0.1-0.3,0.1-0.4c0.2-0.2,0.4-0.4,0.6-0.6c0.4-0.3,0.9-0.7,1.1-1.1c0-0.1,0.1-0.1,0.1-0.2l0.1-0.2c0-0.1,0-0.1,0-0.2
							l0-0.1l0,0c0,0,0,0,0,0v0l0-0.1c0-0.3-0.1-0.6-0.2-0.8c-0.3-0.5-0.9-0.9-1.4-1.3c-0.3-0.2-0.5-0.4-0.8-0.7
							c-0.1-0.2-0.2-0.3-0.3-0.5c-0.1-0.2-0.1-0.4-0.1-0.5c-0.1-0.4,0-0.8,0.3-1.1c0.2-0.3,0.6-0.6,0.9-0.7c0.7-0.3,1.5-0.5,2.2-0.6
							c0.7-0.1,1.5-0.2,2.2-0.4c0.3-0.1,0.7-0.3,0.9-0.5c0.2-0.2,0.4-0.6,0.4-0.9c0-0.2,0-0.4,0-0.5c0-0.2-0.1-0.3-0.1-0.5l-0.1-0.3
							l-0.1-0.3c-0.1-0.2-0.1-0.4-0.2-0.5c-0.3-0.7-0.7-1.4-1-2.1c-0.3-0.8-0.3-1.6,0-2.4c0.3-0.7,0.8-1.4,1.3-1.9
							c0.3-0.3,0.5-0.5,0.7-0.8c0.2-0.3,0.3-0.6,0.3-1c0.1-0.7,0-1.4-0.3-2c-0.2-0.6-0.5-1.3-0.9-1.8c-0.7-1.1-1.5-2.1-2.3-3
							c-0.8-0.8-1.6-1.6-2.3-2.1c-0.8-0.6-1.4-1.1-1.8-1.7c-0.4-0.5-0.7-1-0.8-1.4c-0.1-0.2-0.1-0.3-0.1-0.4
							C625.5,439.5,625.5,439.5,625.5,439.5z"/>
						<path class="st8" d="M627.2,442.3c0,0,0.2,0.3,0.4,0.9c0.1,0.3,0.3,0.6,0.4,1.1c0.1,0.2,0.1,0.4,0.2,0.7
							c0.1,0.2,0.1,0.5,0.2,0.7c0.2,0.5,0.2,1.1,0.4,1.7c0,0.3,0.1,0.6,0.1,0.9c0.1,0.3,0.1,0.6,0.1,1c0,0.3,0.1,0.7,0.1,1
							c0,0.3,0,0.7,0,1c0,0.7,0,1.4-0.1,2.1c0,0.4-0.1,0.7-0.1,1.1c-0.1,0.4-0.1,0.7-0.1,1.1c-0.1,0.7-0.3,1.4-0.4,2
							c-0.2,0.7-0.4,1.3-0.6,1.8c-0.2,0.6-0.4,1.1-0.6,1.6c-0.2,0.5-0.4,1-0.6,1.3c-0.2,0.4-0.4,0.7-0.5,1c-0.3,0.5-0.5,0.9-0.5,0.9
							s0.1-0.3,0.4-0.9c0.1-0.3,0.3-0.6,0.5-1c0.1-0.2,0.2-0.4,0.3-0.6c0.1-0.2,0.2-0.5,0.3-0.7c0.2-0.5,0.4-1,0.6-1.6
							c0.1-0.3,0.2-0.6,0.3-0.9c0.1-0.3,0.2-0.6,0.3-0.9c0.1-0.7,0.3-1.3,0.4-2c0-0.3,0.1-0.7,0.1-1l0.1-0.5c0-0.2,0-0.4,0-0.5
							c0-0.7,0.1-1.4,0.1-2.1c0-0.3,0-0.7,0-1c0-0.3,0-0.7-0.1-1c0-0.3-0.1-0.7-0.1-1c0-0.3-0.1-0.6-0.1-0.9
							c-0.1-0.6-0.2-1.2-0.3-1.7c-0.1-0.5-0.2-1-0.3-1.4c-0.1-0.4-0.2-0.8-0.3-1.1c-0.1-0.3-0.2-0.5-0.2-0.7
							C627.3,442.3,627.2,442.3,627.2,442.3z"/>
						<path class="st8" d="M623.8,460.4c0,0,0.4-0.3,0.9-0.8c0.3-0.2,0.6-0.5,0.9-0.9c0.3-0.3,0.7-0.7,1-1c0.2-0.2,0.3-0.3,0.5-0.5
							c0.2-0.2,0.3-0.3,0.5-0.5c0.1-0.2,0.3-0.3,0.4-0.5c0.1-0.2,0.2-0.3,0.3-0.5c0.1-0.2,0.2-0.3,0.3-0.4c0.1-0.1,0.1-0.2,0.2-0.3
							c0.1-0.2,0.1-0.3,0.1-0.3s0,0.1-0.1,0.3c0,0.1-0.1,0.2-0.1,0.4c-0.1,0.1-0.1,0.3-0.2,0.5c-0.1,0.2-0.2,0.4-0.3,0.5
							c-0.1,0.2-0.2,0.4-0.4,0.6c-0.3,0.4-0.6,0.8-0.9,1.1c-0.7,0.7-1.4,1.4-2,1.8c-0.3,0.2-0.6,0.4-0.7,0.5
							C623.9,460.4,623.8,460.4,623.8,460.4z"/>
						<path class="st8" d="M625.9,439.6c0,0,0.4,0.2,1,0.5c0.6,0.3,1.5,0.8,2.5,1.6c0.5,0.4,1,0.8,1.6,1.2c0.5,0.4,1.1,0.9,1.6,1.5
							c0.3,0.3,0.5,0.6,0.8,0.9c0.1,0.1,0.3,0.3,0.4,0.4c0.1,0.2,0.3,0.3,0.4,0.5l0.4,0.5l0.3,0.5l0.4,0.5l0.3,0.5
							c0.1,0.2,0.2,0.3,0.3,0.5l0.3,0.6c0.1,0.2,0.2,0.4,0.3,0.5c0.1,0.2,0.2,0.4,0.2,0.6c0.2,0.4,0.3,0.7,0.4,1.1
							c0.1,0.4,0.3,0.7,0.4,1.1c0.1,0.4,0.2,0.7,0.3,1.1c0.1,0.4,0.2,0.7,0.3,1c0.1,0.3,0.2,0.7,0.2,1c0.1,0.3,0.1,0.6,0.2,0.9
							c0.1,0.6,0.2,1.2,0.2,1.7c0.1,0.5,0.1,0.9,0.1,1.3c0.1,0.7,0.1,1.1,0.1,1.1s0-0.4-0.1-1.1c0-0.3-0.1-0.8-0.2-1.3
							c-0.1-0.5-0.2-1-0.3-1.6c-0.1-0.3-0.1-0.6-0.2-0.9c-0.1-0.3-0.2-0.6-0.3-1c-0.1-0.3-0.2-0.7-0.3-1c-0.1-0.4-0.2-0.7-0.3-1.1
							c-0.1-0.4-0.2-0.7-0.4-1.1c-0.1-0.4-0.3-0.7-0.5-1.1l-0.2-0.5c-0.1-0.2-0.2-0.4-0.3-0.5l-0.3-0.5c-0.1-0.2-0.2-0.3-0.3-0.5
							l-0.3-0.5l-0.3-0.5l-0.3-0.5l-0.4-0.5c-0.1-0.2-0.2-0.3-0.4-0.5c-0.1-0.1-0.3-0.3-0.4-0.4c-0.2-0.3-0.5-0.6-0.8-0.9
							c-0.3-0.3-0.5-0.5-0.8-0.8c-0.3-0.3-0.5-0.5-0.8-0.7c-0.5-0.5-1-0.9-1.5-1.2c-1-0.7-1.8-1.3-2.4-1.7
							C626.3,439.8,625.9,439.6,625.9,439.6z"/>
						<path class="st8" d="M637.5,452.8c0,0,0.5,0.4,1.2,1.1c0.3,0.4,0.7,0.8,1.1,1.2c0.4,0.5,0.8,1,1.2,1.5
							c0.2,0.3,0.4,0.5,0.5,0.8c0.2,0.3,0.3,0.5,0.5,0.8c0.2,0.3,0.3,0.5,0.4,0.8c0.1,0.3,0.2,0.5,0.3,0.7c0.1,0.2,0.2,0.4,0.2,0.6
							c0.1,0.2,0.1,0.4,0.1,0.5c0.1,0.3,0.1,0.4,0.1,0.4s-0.1-0.1-0.2-0.4c-0.1-0.1-0.1-0.3-0.2-0.5c-0.1-0.2-0.2-0.4-0.3-0.6
							c-0.1-0.2-0.2-0.4-0.4-0.7c-0.1-0.2-0.3-0.5-0.5-0.7c-0.3-0.5-0.7-1-1.1-1.5c-0.4-0.5-0.8-1-1.1-1.5c-0.4-0.5-0.7-0.9-1-1.3
							C637.9,453.4,637.5,452.8,637.5,452.8z"/>
					</g>
				</g>
				<path class="st8" d="M625.5,447.3c-0.4-1.9-0.5-3.6-0.4-5.5c0-0.3-0.3,0-0.3,0.2c-0.3,1.7-0.5,2.6-0.4,4.3c0.2,2,0.7,3.9,0.5,6
					c-0.2,1.3-0.8,3-2,3.8c-0.6,0.4-1.4,0.5-2,0.9c-0.9,0.6-1.4,1.3-1.6,2.4c-0.2,1.3,0.7,2.8,0.8,4.1c0.1,1-3.6,2.5-4.2,3
					c-2.2,1.8-3.5,3.8-2.6,6.6c0.2,0.6,0.8-0.4,0.8-0.7c-0.6-3.3,1.8-5.1,4.3-6.5c0.8-0.5,1.6-0.8,2.2-1.6c0.4-0.6,0.5-1.4,0.4-2.1
					c-0.1-0.8-0.3-1.5-0.6-2.2c-0.7-2,1.1-2.2,2.1-2.7c2.2-1.1,3.1-3.6,3.4-6C625.9,450,625.7,448.6,625.5,447.3z"/>
				<g>
					<path class="st8" d="M594.8,431.3c-1.1-2.4-2.2-4.8-3.4-7.1c-1.4-2.8-1.8-6.1,0.8-8.2c0.1-0.1,0.3-0.7,0-0.5
						c-2.5,1.4-2.7,3.6-2.6,6.3c0.1,1.6,1,3.1,1.6,4.6c0.9,2,1.6,4.1,2.8,5.9C594.4,432.7,594.9,431.6,594.8,431.3z"/>
					<path class="st8" d="M595.6,433.7c-0.2-0.2-0.5,0.3-0.4,0.5c0.8,1.3,0.3,2.9,0.3,4.3c0,0.6,0.6-0.1,0.7-0.4
						C596.2,436.7,596.5,435,595.6,433.7z"/>
				</g>
				<g>
					<path class="st6" d="M576.6,443.7c-4-4.1-6.4-9.2-4.9-15c0.1-0.4-0.3-0.2-0.4,0.1c-2,5.3-0.2,12.6,4.7,15.9
						C576.3,445,576.9,444,576.6,443.7z"/>
					<path class="st6" d="M578.2,445.5c-0.2-0.2-0.4-0.4-0.7-0.6c-0.2-0.1-0.6,0.4-0.3,0.6c0.2,0.1,0.5,0.3,0.7,0.5
						C578,446.2,578.3,445.7,578.2,445.5z"/>
				</g>
				<g>
					<path class="st6" d="M536.5,416.9c-0.1-0.3-0.4,0.2-0.4,0.3c0,1-0.8,4.1-1.5,4.9c-1,1-2.7,0.9-3.9,1.5
						c-1.7,0.8-2.5,2.8-2.6,4.6c-0.1,2.9,2.7,5.2,2.2,8c-0.4,2.6-0.5,4.7,1.7,6.6c0.3,0.3,0.8-0.7,0.6-0.9c-0.9-1.9-1.9-3.2-1.4-5.5
						c0.2-0.9,0.3-1.6,0.2-2.5c-0.1-1-0.9-2.1-1.4-2.9c-1.1-2.2-1.8-4.7,0.6-6.5c1.5-1.1,3.5-0.6,4.6-2.3c0.4-0.7,0.6-1.4,0.7-2.3
						C536.2,418.8,536.7,418,536.5,416.9z"/>
					<path class="st6" d="M535.7,444.6c-0.7-0.6-1.3-1.2-1.9-2c-0.2-0.3-0.6,0.3-0.4,0.6c0.5,0.8,1.1,1.6,1.9,2.1
						C535.5,445.4,535.9,444.7,535.7,444.6z"/>
				</g>
				<g>
					<path class="st6" d="M628.1,386.9c-2-5.7-3.3-12.3-0.2-17.8c0.2-0.3,0-0.6-0.3-0.3c-1.8,2.3-2.5,5.2-2.6,8.1
						c0,2,0.3,3.8,0.7,5.8c0.3,1.7,0.6,3.5,1.5,5.1C627.6,388.2,628.2,387.2,628.1,386.9z"/>
					<path class="st6" d="M628.7,389.2c-0.1-0.1-0.2-0.2-0.2-0.4c-0.1-0.2-0.2-0.3-0.3-0.5c-0.1-0.2-0.3,0-0.4,0.1
						c-0.1,0.1-0.2,0.3-0.1,0.5c0.2,0.3,0.3,0.7,0.6,0.9C628.5,390,628.8,389.4,628.7,389.2z"/>
				</g>
				<g>
					<g>
						<polygon class="st11" points="580.8,422.4 579.5,426.1 581.3,434.3 582.5,430.9 						"/>
						<g>
							<polygon class="st12" points="581.3,434.3 584.5,434 585.9,430.5 582.5,430.9 							"/>
							<polygon class="st13" points="580.8,422.4 582.5,430.9 585.9,430.5 584.4,422.2 							"/>
						</g>
					</g>
					<g>
						<path class="st11" d="M562.6,438.1L562.6,438.1l2.8-13.4l-0.8-2.6c0,0-3.7,6.2-3.8,13.9C561.9,437.3,562.4,437.9,562.6,438.1z
							"/>
						<g>
							<path class="st13" d="M564.6,422.1l-3.3-0.8c-4.5,5.5-4.6,14.8-4.6,14.8l4.1-0.1C560.9,428.3,564.6,422.1,564.6,422.1z"/>
							<path class="st12" d="M556.7,436.1l1.7,2.7l4.1-0.6c-0.2-0.2-0.6-0.8-1.7-2.1L556.7,436.1z"/>
						</g>
					</g>
					<g>
						<path class="st13" d="M615.3,383.4c1.5-2.6,1.8-2.8,1.8-2.8s-1.4-3.9-9.3-4.3c-7.9-0.3-10,4.6-10,4.6v0.2l1.6,2.1
							C599.5,383.1,607.5,378.4,615.3,383.4z"/>
						<path class="st12" d="M617.1,380.6c0,0-0.3,0.3-1.8,2.8l0.3,1.7l1.7-3.6L617.1,380.6z"/>
						<g>
							<path class="st12" d="M597.8,381l0,2.9c0,0,0.4,0.5,1.6,1v-1.8L597.8,381z"/>
							<path class="st11" d="M615.6,385.1l-0.3-1.7c-7.8-5-15.8-0.3-15.8-0.3v1.8c0,0,0.1,0,0.1,0.1
								C607.3,380.8,615.6,385.1,615.6,385.1z"/>
						</g>
					</g>
					<g>
						<path class="st13" d="M605.3,455.8l2.8,3c0,0,3.9-1.8,8.3-2.3l-1-3.9C615.5,452.5,609,452.8,605.3,455.8z"/>
						<g>
							<polygon class="st12" points="605.3,455.8 605.4,458.8 607.9,460.8 608.1,458.8 							"/>
							<path class="st11" d="M608.1,458.8l-0.3,2l8.1-2.2l0.5-2.1C612.1,457,608.1,458.8,608.1,458.8z"/>
						</g>
					</g>
					<g>
						<path class="st13" d="M595.9,460.4c-8.1-3.7-13.1,1.4-13.1,1.4l1.2,3c0,0,4.2-3,10.2-0.1c6,2.8,6.9,6,6.9,6l3.3-3.5
							C604.3,467.1,604,464,595.9,460.4z"/>
						<g>
							<path class="st11" d="M594.1,464.6c-6-2.8-10.2,0.1-10.2,0.1l-0.2,2.5c10.2-3.9,16.9,5.2,16.9,5.2l0.5-1.8
								C601.1,470.6,600.1,467.4,594.1,464.6z"/>
							<path class="st12" d="M582.8,461.7l0,3.3c0,0,0.1,0.1,1,2.2l0.2-2.5L582.8,461.7z"/>
							<polygon class="st12" points="601.1,470.6 600.6,472.4 602.6,470.8 604.3,467.1 							"/>
						</g>
					</g>
					<g>
						<polygon class="st13" points="619.6,390.9 611.1,389.5 610.4,393 619.1,394.1 						"/>
						<g>
							<polygon class="st11" points="610.4,393 611.4,395.3 619.5,396 619.1,394.1 							"/>
							<polygon class="st12" points="619.6,390.9 619.1,394.1 619.5,396 620.3,393 							"/>
						</g>
					</g>
					<g>
						<path class="st11" d="M543,405.9l1.4,2.2c0,0,5.4,0.6,6.1,5.2c0,0,0,0,0,0C550,405.6,543,405.9,543,405.9z"/>
						<polygon class="st12" points="545.8,424 545.9,427.1 547.7,428.3 547.6,426.2 						"/>
						<g>
							<path class="st13" d="M543.2,403.2c-0.2,1.7-0.1,2.6-0.1,2.6s6.9-0.3,7.6,7.4c0,0,0,0,0,0c0,0.1,0,0.1,0,0.2
								c0.5,4.4-0.6,7.7-4.8,10.6l1.8,2.2c0,0,7.6-5.7,6.4-13.3C552.7,407.5,548.8,403.2,543.2,403.2z"/>
							<path class="st11" d="M547.6,426.2l0.1,2.1c0,0,5.8-1.5,6.7-9.3c0.2-2.1,0.1-4.1-0.4-6.1
								C555.2,420.5,547.6,426.2,547.6,426.2z"/>
						</g>
					</g>
					<g>
						<polygon class="st12" points="630.6,432.5 632.2,435.3 635.7,434.9 634.8,432.7 						"/>
						<g>
							<path class="st11" d="M635.7,434.9l2-9.2l-1.4-3.1c-1.2,3.2-1.5,10.1-1.5,10.1L635.7,434.9z"/>
							<path class="st13" d="M630.6,432.5l4.2,0.1c0,0,0.4-6.8,1.5-10.1l-3.7-1.9C630.2,425.6,630.6,432.5,630.6,432.5z"/>
						</g>
					</g>
					<g>
						<path class="st11" d="M651.3,413.8c-0.5-0.6-1-1.1-1.4-1.5c-1.4,2.1-5.5,9.8,2,17.7l1-0.6C652.9,429.3,645.3,422,651.3,413.8z
							"/>
						<path class="st13" d="M650,412.2c-0.8-0.8-1.2-1.2-1.2-1.2s-4.9,2.7-4.7,9.7c0.1,6.9,6.5,10.1,6.5,10.1l1.4-0.9
							C644.4,422.1,648.6,414.4,650,412.2z"/>
					</g>
				</g>
				<g>
					<g>
						<path class="st14" d="M601,399.4c1,6.7-2.5,12.7-7.8,13.2c-5.4,0.6-10.5-4.4-11.6-11.1c-1-6.7,2.5-12.7,7.8-13.2
							C594.7,387.7,599.9,392.7,601,399.4z"/>
						<path class="st15" d="M599.7,399.5c1,6.2-2.1,11.6-6.7,12.2c-4.7,0.5-9.3-4.1-10.2-10.3c-1-6.2,2.1-11.6,6.8-12.2
							C594.2,388.7,598.8,393.3,599.7,399.5z"/>
						<path class="st16" d="M591.4,396.1c0,0,0.5-4.8,1.3-4.8c0.8-0.1,5.1,4.1,5.2,9.8c0.2,5.7-2.4,8.7-3.5,9
							c-1,0.3-2.1-3.8-2.1-3.8s-0.2,4-1.1,4c-0.9,0-7.7-2.9-7.3-12C584.3,393.1,590.5,385.3,591.4,396.1z"/>
						<g>
							<path class="st17" d="M590,405.6c0,0-0.6,0.9-1,0.8C588.6,406.2,590.5,404.7,590,405.6z"/>
							<path class="st17" d="M595.1,404.6c0,0,0.8,0.4,0.7,0.8C595.6,405.7,594.4,404.3,595.1,404.6z"/>
							<path class="st17" d="M594.3,402c0,0,1,0.2,1,0.6C595.3,403,593.4,401.9,594.3,402z"/>
							<path class="st17" d="M594.4,399.2c0,0,1,0.2,1,0.6C595.4,400.2,593.5,399.1,594.4,399.2z"/>
							<path class="st17" d="M594.1,396.3c0,0,0.5-0.8,0.9-0.7C595.4,395.8,593.8,397,594.1,396.3z"/>
							<path class="st17" d="M588.5,400.9c0,0-1.1-0.2-1.1-0.7C587.4,399.8,589.5,401,588.5,400.9z"/>
							<path class="st17" d="M588.4,398.4c0,0-1.4-0.5-1.3-1C587.2,396.8,589.6,398.8,588.4,398.4z"/>
							<path class="st17" d="M589,396.2c0,0-1.7-1.1-1.5-1.7C587.6,393.9,590.4,397.1,589,396.2z"/>
							<path class="st17" d="M589.3,403.5c0,0-1,0.5-1.3,0.2C587.6,403.3,590.1,403,589.3,403.5z"/>
						</g>
					</g>
					<g>
						<path class="st18" d="M582.7,398.9c0.3-3.2,1.5-6.5,4.2-8.6c0.2-0.2-0.1-0.3-0.2-0.1c-2.9,2-4.6,5.8-4.6,9
							C582.1,399.4,582.7,399.1,582.7,398.9z"/>
						<path class="st18" d="M582.9,400.7c-0.1-0.2-0.1-0.4-0.1-0.6c-0.1-0.2-0.5,0-0.5,0.2c0.1,0.2,0.1,0.4,0.2,0.7
							C582.5,401.1,582.9,400.8,582.9,400.7z"/>
					</g>
				</g>
				<g>
					<g>
						<path class="st14" d="M575.5,450.6c3.2,6.7,1,14-4.8,16.4c-5.9,2.3-13.2-1.2-16.4-7.9c-3.2-6.7-1-14,4.8-16.4
							C564.9,440.3,572.3,443.8,575.5,450.6z"/>
						<path class="st15" d="M574.1,451c2.9,6.2,1.2,12.9-4,14.9c-5.1,2.1-11.6-1.3-14.6-7.5c-2.9-6.2-1.2-12.9,4-14.9
							C564.6,441.5,571.2,444.9,574.1,451z"/>
						<path class="st16" d="M563.6,450.1c0,0-0.9-5.1,0-5.5c0.9-0.4,6.9,2.7,8.8,8.6c1.9,5.9-0.1,9.9-1.2,10.6
							c-1.1,0.7-3.5-3.4-3.5-3.4s1,4.3-0.1,4.6c-1,0.3-9.5-0.6-11.8-10.2C554.9,449.3,559.4,439.2,563.6,450.1z"/>
						<g>
							<path class="st17" d="M565,460.5c0,0-0.4,1.2-0.9,1.1C563.5,461.6,565.2,459.5,565,460.5z"/>
							<path class="st17" d="M570.4,457.9c0,0,1,0.2,1,0.6C571.3,458.8,569.5,457.7,570.4,457.9z"/>
							<path class="st17" d="M568.8,455.4c0,0,1.2-0.1,1.3,0.3C570.2,456.1,567.7,455.5,568.8,455.4z"/>
							<path class="st17" d="M568,452.4c0,0,1.2-0.1,1.3,0.3C569.4,453.1,566.9,452.6,568,452.4z"/>
							<path class="st17" d="M566.8,449.5c0,0,0.3-1,0.8-1C568.1,448.5,566.6,450.4,566.8,449.5z"/>
							<path class="st17" d="M561.9,456.1c0,0-1.3,0.1-1.4-0.3C560.3,455.3,563,455.9,561.9,456.1z"/>
							<path class="st17" d="M561,453.5c0,0-1.7-0.1-1.8-0.7C559.2,452.2,562.5,453.5,561,453.5z"/>
							<path class="st17" d="M561,451.1c0,0-2.2-0.6-2.2-1.3C558.8,449.1,562.9,451.5,561,451.1z"/>
							<path class="st17" d="M563.5,458.6c0,0-1,0.9-1.4,0.6C561.6,458.9,564.3,457.8,563.5,458.6z"/>
						</g>
					</g>
					<g>
						<path class="st18" d="M554.8,455.9c-0.6-3.5-0.3-7.3,2.2-10.4c0.2-0.3-0.1-0.2-0.3-0.1c-2.6,3-3.4,7.5-2.5,10.9
							C554.2,456.6,554.8,456.1,554.8,455.9z"/>
						<path class="st18" d="M555.5,457.7c-0.2-0.2-0.2-0.4-0.3-0.6c-0.1-0.2-0.6,0.2-0.5,0.3c0.1,0.2,0.2,0.4,0.4,0.6
							C555.2,458.2,555.6,457.8,555.5,457.7z"/>
					</g>
				</g>
				<g>
					<g>
						<path class="st14" d="M640.8,406.5c-3.1,6.4-9.6,9.4-14.5,6.7c-4.9-2.7-6.4-10-3.3-16.4c3.1-6.4,9.6-9.4,14.5-6.7
							C642.5,392.8,643.9,400.2,640.8,406.5z"/>
						<path class="st15" d="M639.7,405.9c-2.9,5.9-8.7,8.7-13,6.4c-4.3-2.3-5.5-9-2.6-14.9c2.9-5.9,8.7-8.7,13-6.4
							C641.4,393.3,642.6,400,639.7,405.9z"/>
						<path class="st16" d="M634.6,397.9c0,0,3.2-3.8,4-3.4c0.8,0.4,1.9,6.5-1.4,11.5c-3.2,5-7.3,6-8.3,5.7
							c-1.1-0.3,0.5-4.5,0.5-4.5s-2.5,3.3-3.4,2.8c-0.8-0.5-4.8-7.1,0.9-14.5C630.3,391.3,640.2,388.2,634.6,397.9z"/>
						<g>
							<path class="st17" d="M627.9,405.3c0,0-1.1,0.5-1.3,0.1C626.2,404.9,628.7,404.8,627.9,405.3z"/>
							<path class="st17" d="M632.7,407.5c0,0,0.4,0.9,0.1,1C632.6,408.7,632.3,406.7,632.7,407.5z"/>
							<path class="st17" d="M633.6,404.8c0,0,0.8,0.8,0.5,1.1C633.9,406.2,632.9,404.1,633.6,404.8z"/>
							<path class="st17" d="M635.3,402.4c0,0,0.8,0.8,0.5,1.1C635.6,403.8,634.7,401.8,635.3,402.4z"/>
							<path class="st17" d="M636.8,399.8c0,0,0.9-0.4,1.2,0C638.3,400.1,636.1,400.2,636.8,399.8z"/>
							<path class="st17" d="M629.3,400.4c0,0-0.8-0.9-0.6-1.2C629,398.8,630.1,401.1,629.3,400.4z"/>
							<path class="st17" d="M630.7,398.2c0,0-0.9-1.3-0.5-1.7C630.6,396.2,631.5,399.3,630.7,398.2z"/>
							<path class="st17" d="M632.5,396.7c0,0-0.8-1.9-0.3-2.4C632.7,393.9,633.2,398.3,632.5,396.7z"/>
							<path class="st17" d="M628.4,403.1c0,0-1.2-0.2-1.2-0.6C627.1,402,629.4,403.2,628.4,403.1z"/>
						</g>
					</g>
					<g>
						<path class="st18" d="M625.6,395.2c2.2-2.6,5.1-4.7,8.7-4.9c0.3,0,0.1-0.3-0.1-0.3c-3.6,0-7.3,2.2-9.3,5
							C624.7,395.3,625.4,395.4,625.6,395.2z"/>
						<path class="st18" d="M624.6,396.8c0-0.2,0.2-0.4,0.3-0.6c0.1-0.2-0.5-0.3-0.5-0.1c-0.1,0.2-0.2,0.4-0.2,0.7
							C624.1,397,624.6,397,624.6,396.8z"/>
					</g>
				</g>
				<g>
					<g>
						<path class="st19" d="M622,414.9l-11.9,2.2c0,0,2.8,15.1-11.5,20.9l2.6,9.6c0,0,18.4,1.9,23.2-12.4
							C628,421.9,622,414.9,622,414.9z"/>
						<g>
							<path class="st20" d="M598.5,437.9l-1.6,3.2l2,9.8c0,0,0.1,0,0.1,0l2.1-3.4L598.5,437.9z"/>
							<path class="st21" d="M601.2,447.5l-2.1,3.4c1.7,0.2,18.7,2.1,24.2-12.4c0.4-1.2,0.8-2.3,1.1-3.4
								C619.6,449.4,601.2,447.5,601.2,447.5z"/>
						</g>
					</g>
					<g>
						<path class="st19" d="M624.1,422.5c-0.2-2.2-0.8-4.6-2.6-6.2c-0.3-0.3-0.9,0.7-0.7,1c2.5,3.7,2.6,9,1.8,13.3
							c-0.8,4.3-3.3,7.5-6.1,10.8c-0.4,0.5-0.4,1.6,0.4,1c3.7-2.9,6-7.7,7-12.2C624.5,427.7,624.4,425.1,624.1,422.5z"/>
						<path class="st19" d="M614.9,443.3c-0.5,0.1-0.9,0.6-1.5,0.7c-0.3,0-0.7,0.9-0.3,0.9c0.7,0.1,1.3-0.4,1.7-0.8
							C615.1,444,615.4,443.2,614.9,443.3z"/>
					</g>
				</g>
				<g>
					<g>
						<path class="st19" d="M585.7,384.9c-3-2.3-11.3-4.3-11.3-4.3s-3.7,2.9-8.6,10.8c-0.5,1-0.9,1.9-1.2,2.8
							c-1.1,3.7-1.9,11.9,6.9,22.8c8.6-4.5,10.1-5.3,10.1-5.3C572.6,393.3,585.7,384.9,585.7,384.9z"/>
						<g>
							<path class="st21" d="M564.5,394.2c-6.2,16.4,6.6,25.3,6.6,25.3l0.3-2.5C562.6,406.1,563.4,397.9,564.5,394.2z"/>
							<path class="st20" d="M581.5,411.6c0,0-1.5,0.8-10.1,5.3c0,0,0,0,0,0l-0.3,2.5l10.2-5C581.3,414.4,581.4,413.9,581.5,411.6z"
								/>
						</g>
					</g>
					<g>
						<path class="st19" d="M574,382.2c-0.7,1-1.6,1.9-2.5,2.8c-1,1.1-1.7,2.4-2.5,3.6c-1.3,2.2-2.5,4.7-3,7.2
							c-1,4.7-0.6,11,2.4,14.9c0.5,0.7,1.5-1,1.2-1.5c-2.2-4.4-3-9-2.1-13.9c0.4-2.3,1.8-4.7,2.9-6.8c1.2-2.1,3-3.8,4.1-5.9
							C574.7,382.2,574.3,381.6,574,382.2z"/>
						<path class="st19" d="M571.1,412.2c-0.2-0.3-0.5-0.7-0.8-0.9c-0.2-0.2-0.5,0.1-0.6,0.3c-0.2,0.2-0.4,0.6-0.2,0.9
							c0.1,0.2,0.2,0.3,0.3,0.5c0.1,0.2,0.2,0.4,0.4,0.5c0.2,0.2,0.5-0.1,0.6-0.3C571.1,413,571.3,412.5,571.1,412.2z"/>
					</g>
				</g>
			</g>
			<g>
				<path class="st22" d="M627.8,390.1c-0.1,0-0.3,0.4-0.1,0.4C627.8,390.5,628,390.1,627.8,390.1z"/>
				<path class="st22" d="M557.6,384.3c-0.1-0.1-0.2-0.2-0.3-0.1c0,0-0.1,0-0.1,0.1c0,0-0.1,0-0.1,0.1c-0.1,0.1-0.3,0.5-0.1,0.7l0,0
					c0,0.1,0.1,0.2,0.2,0.2c0.2,0,0.3-0.2,0.4-0.3c0,0,0,0,0,0c0,0,0-0.1,0-0.1C557.7,384.6,557.7,384.4,557.6,384.3z"/>
				<path class="st22" d="M581.1,374.2c-0.1-0.1-0.2-0.2-0.3-0.1c0,0-0.1,0-0.1,0.1c0,0-0.1,0-0.1,0.1c-0.1,0.1-0.3,0.5-0.1,0.7l0,0
					c0,0.1,0.1,0.2,0.2,0.2c0.2,0,0.3-0.2,0.4-0.3v0c0,0,0-0.1,0.1-0.1C581.2,374.5,581.2,374.3,581.1,374.2z"/>
				<path class="st22" d="M590.9,381.4c-0.1-0.1-0.2-0.2-0.3-0.1c0,0-0.1,0-0.1,0.1c0,0-0.1,0-0.1,0.1c-0.1,0.1-0.3,0.5-0.1,0.7l0,0
					c0,0.1,0.1,0.2,0.2,0.2c0.2,0,0.3-0.2,0.4-0.3c0,0,0,0,0,0c0,0,0-0.1,0.1-0.1C590.9,381.6,590.9,381.5,590.9,381.4z"/>
				<path class="st22" d="M594.2,373.7c-0.1-0.1-0.2-0.2-0.3-0.1c0,0-0.1,0-0.1,0.1c0,0-0.1,0-0.1,0.1c-0.1,0.2-0.3,0.5-0.1,0.7l0,0
					c0,0.1,0.1,0.2,0.2,0.2c0.2,0,0.3-0.2,0.4-0.3c0,0,0,0,0,0c0,0,0-0.1,0-0.1C594.2,374,594.3,373.8,594.2,373.7z"/>
				<path class="st22" d="M581.7,376.4c-0.2,0-0.5,0.6-0.2,0.6C581.7,377,582,376.4,581.7,376.4z"/>
				<path class="st22" d="M571.8,378.6c-0.2,0-0.3,0.4-0.2,0.4C571.8,379,572,378.6,571.8,378.6z"/>
				<path class="st22" d="M574.3,397.1c0-0.1-0.1-0.1-0.2-0.1c-0.1,0-0.1,0-0.2,0.1c0,0,0,0,0,0c-0.2,0.2-0.4,0.6-0.3,0.9
					c0.2,0.3,0.6,0.2,0.8-0.1C574.5,397.7,574.6,397.3,574.3,397.1z"/>
				<path class="st22" d="M605.2,391.5C605.2,391.5,605.2,391.5,605.2,391.5C605.2,391.5,605.2,391.5,605.2,391.5
					C605.2,391.4,605.2,391.4,605.2,391.5c0-0.1,0-0.2-0.1-0.2c0,0-0.1-0.1-0.1-0.1c-0.2-0.1-0.4,0.2-0.4,0.4c0,0.2,0,0.3,0.1,0.5
					c0.2,0.3,0.5-0.3,0.5-0.5C605.2,391.6,605.2,391.6,605.2,391.5z"/>
				<path class="st22" d="M609.1,379.2C609.1,379.1,609.1,379.1,609.1,379.2c-0.1-0.1-0.1-0.2-0.1-0.2c-0.2-0.1-0.4,0-0.5,0.1
					c-0.1,0.2-0.2,0.5-0.1,0.6c0.1,0.1,0.3,0.1,0.4,0.1C609.1,379.7,609.3,379.3,609.1,379.2z"/>
				<path class="st22" d="M628.2,380.7c0,0-0.1,0-0.1,0c0,0,0,0,0,0c-0.2,0-0.3,0.3-0.3,0.4c0,0.1,0,0.2,0,0.3c0,0.1,0,0.2,0.1,0.2
					c0.2,0.1,0.4,0,0.5-0.3C628.3,381.1,628.4,380.8,628.2,380.7z"/>
				<path class="st22" d="M630.4,375c-0.3-0.2-0.6,0.1-0.7,0.3c-0.1,0.2,0,0.6,0.3,0.6c0.1,0,0.2-0.1,0.2-0.1
					C630.5,375.6,630.7,375.2,630.4,375z"/>
				<path class="st22" d="M641.5,383.7C641.5,383.7,641.4,383.7,641.5,383.7c0-0.1,0-0.1,0-0.1c0-0.1-0.2-0.1-0.2-0.1
					c0,0,0,0-0.1,0.1c-0.2,0.1-0.4,0.6-0.1,0.7c0.2,0.1,0.4-0.2,0.4-0.3C641.5,383.9,641.5,383.8,641.5,383.7z"/>
				<path class="st22" d="M638.8,387.6c-0.1,0.1-0.4,0.5-0.2,0.6c0,0,0,0,0,0c0.1,0.2,0.3-0.1,0.3-0.2c0,0,0,0,0,0
					C639,387.8,639,387.5,638.8,387.6z"/>
				<path class="st22" d="M654.3,406.6C654.3,406.6,654.3,406.5,654.3,406.6c0-0.2,0-0.3-0.1-0.3c-0.1-0.1-0.2-0.1-0.3-0.1
					c-0.1,0-0.1,0-0.2,0.1c0,0-0.1,0-0.1,0c0,0,0,0,0,0c0,0-0.1,0-0.1,0.1c0,0,0,0,0,0c0,0,0,0,0,0c-0.2,0.2-0.2,0.4-0.2,0.6
					c0,0.2,0.1,0.3,0.2,0.4c0.1,0.1,0.1,0.1,0.2,0.1c0.2,0.1,0.4-0.2,0.4-0.3C654.3,407,654.3,406.8,654.3,406.6
					C654.3,406.6,654.3,406.6,654.3,406.6z"/>
				<path class="st22" d="M640.1,413.1c-0.1-0.1-0.2-0.1-0.3-0.1c-0.1,0-0.1,0-0.2,0c-0.2,0-0.3,0.2-0.3,0.3c-0.1,0.3,0,0.5,0.2,0.5
					c0,0,0,0,0,0c0.2,0,0.4,0,0.5-0.2C640.2,413.5,640.3,413.2,640.1,413.1z"/>
				<path class="st22" d="M654.5,417.4c-0.3,0-0.6,0.7-0.3,0.7C654.5,418,654.8,417.4,654.5,417.4z"/>
				<path class="st22" d="M650.6,419.5c-0.1-0.1-0.3,0.1-0.3,0.2c0,0,0,0,0,0c-0.1,0.1-0.2,0.3-0.1,0.3c0.1,0.3,0.4,0,0.4-0.2
					C650.6,419.7,650.7,419.5,650.6,419.5z"/>
				<path class="st22" d="M611.2,409.7c0.2-0.2,0.2-0.5,0.1-0.7c0-0.1,0-0.1-0.1-0.1c0,0,0,0,0,0c-0.1-0.1-0.1-0.1-0.2-0.2
					c0,0-0.1,0-0.1,0c-0.1,0-0.2,0-0.3,0.1c-0.3,0.2-0.5,0.7-0.3,0.9c0,0,0,0,0,0c0.1,0.2,0.3,0.3,0.5,0.3c0.1,0,0.2-0.1,0.2-0.1
					C611.1,409.9,611.2,409.8,611.2,409.7z"/>
				<path class="st22" d="M604.4,416.5C604.4,416.5,604.4,416.5,604.4,416.5c0,0,0-0.1,0-0.1c-0.1-0.1-0.2-0.1-0.3-0.1
					c0,0-0.1,0-0.1,0c-0.3,0-0.6,0.4-0.6,0.7c0,0.1,0,0.2,0.1,0.3c0,0.1,0,0.2,0.1,0.2c0.1,0.1,0.3,0.1,0.4,0.1
					C604.4,417.5,604.6,416.8,604.4,416.5z"/>
				<path class="st22" d="M598.6,417.5c-0.2-0.5-0.8-0.6-1.1-0.1c-0.2,0.2-0.3,0.5-0.2,0.7c0,0.1,0.1,0.2,0.1,0.2
					c0,0.1,0.1,0.1,0.2,0.1c0.1,0.1,0.3,0.2,0.4,0.2C598.4,418.6,598.7,417.9,598.6,417.5z"/>
				<path class="st22" d="M617.9,424.4c-0.5-0.1-0.8,0.5-0.8,0.9c0,0.3,0.3,0.7,0.6,0.7c0.2,0,0.4-0.1,0.5-0.3c0,0,0-0.1,0.1-0.1
					c0,0.1,0,0,0-0.1c0-0.1,0.1-0.1,0.1-0.2c0-0.1,0-0.2,0-0.3C618.5,424.7,618.2,424.5,617.9,424.4z"/>
				<path class="st22" d="M618.5,432.2c-0.1,0-0.1,0-0.2,0c0,0-0.1,0-0.1,0c-0.2,0-0.4,0.3-0.4,0.5c0,0,0,0.1,0,0.1c0,0,0,0.1,0,0.1
					c0,0.1,0,0.1,0,0.2c0,0.2,0.2,0.4,0.4,0.3c0.2-0.1,0.5-0.4,0.5-0.6C618.7,432.5,618.6,432.3,618.5,432.2z"/>
				<path class="st22" d="M604.9,440.9c0-0.1,0-0.1,0-0.2c0-0.1-0.1-0.2-0.1-0.2c0-0.1-0.1-0.1-0.1-0.1c-0.1,0-0.2,0-0.3,0.1
					c-0.1,0.1-0.2,0.2-0.2,0.4c0,0.2,0,0.4,0.2,0.5c0,0,0,0,0.1,0c0,0,0.1,0.1,0.1,0.1c0,0,0.1,0,0.1,0c0.1,0,0.1,0,0.2-0.1
					C604.8,441.3,604.9,441.1,604.9,440.9z"/>
				<path class="st22" d="M652.2,434.5c0,0-0.1-0.1-0.1-0.1c0-0.1,0-0.2-0.1-0.3c-0.1-0.2-0.4-0.3-0.6-0.3c-0.6-0.1-1.3,0.6-1.1,1.2
					c0,0,0,0.1,0,0.1c0,0.2,0.2,0.4,0.4,0.5c0.4,0.2,0.9-0.1,1.1-0.5C652.1,435.1,652.3,434.7,652.2,434.5z"/>
				<path class="st22" d="M642.1,439L642.1,439c0-0.1,0-0.2-0.1-0.2c-0.1,0-0.1,0-0.1,0c0,0-0.1,0-0.1,0c-0.1,0.1-0.2,0.2-0.3,0.3
					c0,0.1-0.1,0.3,0,0.3c0.1,0,0.1,0,0.2,0C642,439.5,642.2,439.2,642.1,439z"/>
				<path class="st22" d="M554.6,402.7L554.6,402.7C554.6,402.6,554.6,402.6,554.6,402.7c0-0.1,0-0.1,0-0.1c0-0.2-0.1-0.3-0.2-0.4
					c-0.1,0-0.1,0-0.2,0c-0.2,0-0.3,0.1-0.4,0.2c-0.1,0.2-0.3,0.5-0.2,0.7c0.1,0.2,0.2,0.3,0.4,0.3c0.1,0,0.2,0,0.3-0.1
					c0.1,0,0.1-0.1,0.2-0.1C554.5,403.1,554.6,402.9,554.6,402.7z"/>
				<path class="st22" d="M576.7,411.9c-0.1-0.1-0.3-0.2-0.4-0.1c0,0,0,0-0.1,0c-0.1,0-0.3,0.1-0.3,0.2c-0.1,0.2-0.2,0.5,0,0.6
					c0.2,0.2,0.4,0.1,0.6,0C576.7,412.4,576.9,412.1,576.7,411.9z"/>
				<path class="st22" d="M544.7,421c-0.2-0.1-0.3,0-0.5,0.1c0,0-0.1,0-0.1,0c-0.2,0-0.4,0.3-0.5,0.5c-0.1,0.3-0.1,0.6,0.1,0.8
					c0.1,0.1,0.2,0.2,0.4,0.2c0.2,0.1,0.4,0,0.5-0.2c0.1-0.1,0.2-0.2,0.2-0.3C545.2,421.9,545.2,421.1,544.7,421z"/>
				<path class="st22" d="M544.5,430.2c-0.1-0.1-0.1-0.1-0.2-0.1c-0.1,0-0.2-0.1-0.3,0.1c-0.1,0.1-0.2,0.3-0.3,0.5
					c0,0.1,0,0.3,0.1,0.4c0.1,0.1,0.3,0,0.4,0C544.5,431,544.8,430.4,544.5,430.2z"/>
				<path class="st22" d="M550.8,436.5c-0.2-0.3-0.6-0.3-0.8,0c-0.2,0.2-0.4,0.6-0.2,0.8c0,0,0,0,0,0.1c0,0.2,0.1,0.3,0.2,0.4
					c0.3,0.2,0.6,0,0.8-0.3C551,437.1,551,436.8,550.8,436.5z"/>
				<path class="st22" d="M544.5,444.5c-0.2-0.1-0.5,0.2-0.6,0.3c0,0.1-0.1,0.1-0.1,0.2c-0.1,0.1-0.2,0.2-0.2,0.3
					c-0.2,0.5,0.1,1,0.6,1.1c0.6,0.1,1-0.5,1.1-0.9C545.3,445.2,544.9,444.6,544.5,444.5z"/>
				<path class="st22" d="M551.5,458.2C551.5,458.2,551.5,458.2,551.5,458.2c-0.5-0.2-1.1,0.3-1,0.8c0,0.2,0.2,0.4,0.4,0.4
					c0.3,0.1,0.6-0.1,0.7-0.4C551.8,458.8,551.8,458.3,551.5,458.2z"/>
				<path class="st22" d="M550.4,463.7c-0.1-0.1-0.3,0-0.4,0.2c-0.1,0-0.1,0.1-0.2,0.1c-0.1,0.2-0.3,0.6,0,0.7
					c0.3,0.1,0.5-0.1,0.6-0.3C550.7,464.1,550.6,463.9,550.4,463.7z"/>
				<path class="st22" d="M552.1,468.8c-0.2,0-0.3,0.4-0.2,0.4C552.1,469.2,552.3,468.8,552.1,468.8z"/>
				<path class="st22" d="M579.4,470.4c-0.1-0.1-0.2-0.2-0.3-0.2c0,0,0,0,0,0c-0.2-0.2-0.4-0.2-0.6-0.1c-0.1,0-0.1,0-0.1,0
					c-0.6,0-0.8,0.8-0.6,1.3c0.2,0.4,0.8,0.5,1.2,0.3C579.3,471.4,579.6,470.8,579.4,470.4z"/>
				<path class="st22" d="M586.6,471.3c0-0.1,0-0.1-0.1-0.2c0,0-0.1,0-0.1,0c-0.2,0-0.4,0.3-0.4,0.5c0,0,0,0,0,0c0,0,0,0.1,0,0.1
					c0,0.1,0,0.1,0,0.1c0,0.2,0.1,0.4,0.4,0.4c0.2,0,0.4-0.3,0.4-0.5C586.7,471.6,586.7,471.4,586.6,471.3z"/>
				<path class="st22" d="M618.1,470.7c-0.2-0.3-0.5-0.5-0.8-0.3c-0.1,0-0.1,0.1-0.2,0.2c-0.1,0.1-0.2,0.2-0.3,0.3
					c-0.1,0.2-0.1,0.5-0.1,0.7c0.1,0.2,0.2,0.3,0.4,0.3c0.1,0.1,0.3,0.2,0.5,0c0.1-0.1,0.2-0.2,0.3-0.4c0,0,0.1-0.1,0.1-0.1
					C618.2,471.1,618.2,470.9,618.1,470.7z"/>
				<path class="st22" d="M622.3,465.4c-0.1-0.1-0.2-0.1-0.3,0c0,0-0.1,0-0.1,0c-0.2,0-0.4,0.3-0.4,0.5c0,0,0,0.1,0,0.1
					c0,0.1-0.1,0.2-0.1,0.3c0,0.2,0.2,0.5,0.4,0.5c0,0,0.1,0,0.1,0c0.2,0.1,0.4-0.2,0.4-0.4c0.1-0.1,0.1-0.2,0.1-0.2
					C622.5,465.8,622.5,465.6,622.3,465.4z"/>
				<path class="st22" d="M636.5,463c-0.2,0-0.4,0-0.5,0.1c-0.1,0.1-0.2,0.1-0.2,0.2c0,0,0,0,0,0c0,0,0,0,0,0
					c-0.1,0-0.1,0.1-0.2,0.2c-0.1,0.1-0.2,0.3-0.2,0.4c-0.1,0.1-0.1,0.3-0.1,0.5c0,0.1,0,0.1,0.1,0.1c0.1,0.3,0.3,0.6,0.7,0.7
					c0.5,0.1,0.9-0.6,1-1C637.1,463.8,637,463.1,636.5,463z"/>
				<path class="st22" d="M567.4,438.7c0,0-0.1,0-0.1-0.1c0.1-0.1,0.2-0.3,0.1-0.4c-0.3-0.2-0.6,0.2-0.7,0.5
					c-0.1,0.3,0.1,0.7,0.5,0.6C567.3,439.3,567.6,438.9,567.4,438.7z"/>
				<path class="st22" d="M575,432.8c-0.3,0-0.6,0.7-0.3,0.7C575,433.5,575.3,432.8,575,432.8z"/>
			</g>
		</g>
	</g>
</g>
</svg>
