<?xml version="1.0" encoding="utf-8"?>
<!-- Generator: Adobe Illustrator 26.0.1, SVG Export Plug-In . SVG Version: 6.00 Build 0)  -->
<svg version="1.1" id="Layer_1" xmlns="http://www.w3.org/2000/svg" xmlns:xlink="http://www.w3.org/1999/xlink" x="0px" y="0px"
	 viewBox="0 0 1190.6 841.9" style="enable-background:new 0 0 1190.6 841.9;" xml:space="preserve">
<style type="text/css">
	.st0{fill:#F2F2F2;}
	.st1{opacity:0.5;fill:#FFFFFF;}
	.st2{fill:#E6E7E7;}
	.st3{opacity:0.4;fill:#E6E7E7;}
	.st4{fill:#8DC641;}
	.st5{fill:#FBB03C;}
	.st6{fill:#DD1F26;}
	.st7{fill:none;stroke:#333333;stroke-width:0.4393;stroke-linecap:round;stroke-linejoin:round;stroke-miterlimit:10;}
	.st8{fill:#F6CF27;}
	.st9{fill:#8CBC59;}
	.st10{fill:#F69CAA;}
	.st11{fill:#931B51;}
	.st12{fill:#2E9746;}
	.st13{fill:#686B74;}
	.st14{fill:#FEF2F7;}
	.st15{fill:#F26344;}
	.st16{clip-path:url(#SVGID_00000016061417477604849440000017244846575691212459_);}
	.st17{fill:#FCEE23;}
	.st18{fill:#FEF6A4;}
	.st19{fill:#FDE5A3;}
	.st20{fill:#FEDA43;}
	.st21{fill:#FDD800;}
	.st22{fill:none;stroke:#333333;stroke-width:0.5669;stroke-linecap:round;stroke-linejoin:round;stroke-miterlimit:10;}
</style>
<g>
	<g>
		<g>
			
				<ellipse transform="matrix(0.7071 -0.7071 0.7071 0.7071 -123.5105 543.6151)" class="st0" cx="594.4" cy="420.9" rx="95.4" ry="95.4"/>
			<path class="st1" d="M592,328.5c52.7,0,95.4,42.7,95.4,95.4c0,22.1-7.5,42.4-20.1,58.5c14-16.6,22.5-38.1,22.5-61.5
				c0-52.7-42.7-95.4-95.4-95.4c-30.6,0-57.9,14.4-75.3,36.9C536.6,341.6,562.8,328.5,592,328.5z"/>
			
				<ellipse transform="matrix(0.9585 -0.2849 0.2849 0.9585 -95.2857 186.8227)" class="st2" cx="594.4" cy="420.9" rx="66.2" ry="66.2"/>
			<path class="st3" d="M600.1,482.8c-36.6,0-66.2-29.6-66.2-66.2c0-20.4,9.2-38.6,23.7-50.8c-17.7,11.9-29.4,32.1-29.4,55.1
				c0,36.6,29.6,66.2,66.2,66.2c16.2,0,31-5.8,42.5-15.4C626.4,478.7,613.7,482.8,600.1,482.8z"/>
		</g>
		<polygon class="st4" points="589.1,347.7 594.4,338.4 599.8,347.7 		"/>
		<polygon class="st4" points="599.8,494.1 594.4,503.4 589.1,494.1 		"/>
		<polygon class="st4" points="576.5,349.8 580.1,339.7 587,347.9 		"/>
		<polygon class="st4" points="612.4,492 608.8,502.1 601.9,493.9 		"/>
		<g>
			<polygon class="st4" points="564.4,354 566.2,343.4 574.5,350.3 			"/>
			<polygon class="st4" points="624.5,487.8 622.7,498.4 614.4,491.5 			"/>
		</g>
		<g>
			<polygon class="st4" points="553.2,360.2 553.2,349.5 562.5,354.8 			"/>
			<polygon class="st4" points="635.7,481.6 635.7,492.3 626.4,487 			"/>
		</g>
		<g>
			<polygon class="st4" points="543.3,368.3 541.4,357.7 551.5,361.4 			"/>
			<polygon class="st4" points="645.6,473.5 647.5,484.1 637.4,480.4 			"/>
		</g>
		<g>
			<polygon class="st4" points="534.9,378 531.3,367.9 541.8,369.8 			"/>
			<polygon class="st4" points="654,463.8 657.6,473.9 647.1,472 			"/>
		</g>
		<g>
			<polygon class="st4" points="528.4,389 523,379.7 533.8,379.7 			"/>
			<polygon class="st4" points="660.5,452.8 665.9,462.1 655.1,462.1 			"/>
		</g>
		<g>
			<polygon class="st4" points="523.8,400.9 517,392.7 527.5,390.8 			"/>
			<polygon class="st4" points="665,440.9 671.9,449.1 661.4,451 			"/>
		</g>
		<g>
			<polygon class="st4" points="521.4,413.5 513.2,406.6 523.3,402.9 			"/>
			<polygon class="st4" points="667.4,428.3 675.7,435.2 665.6,438.9 			"/>
		</g>
		<g>
			<polygon class="st4" points="521.3,426.3 512,420.9 521.3,415.5 			"/>
			<polygon class="st4" points="667.6,415.5 676.9,420.9 667.6,426.3 			"/>
		</g>
		<g>
			<polygon class="st4" points="523.3,438.9 513.2,435.2 521.5,428.3 			"/>
			<polygon class="st4" points="665.6,402.9 675.7,406.6 667.4,413.5 			"/>
		</g>
		<g>
			<polygon class="st4" points="527.5,451 517,449.1 523.8,440.9 			"/>
			<polygon class="st4" points="661.4,390.8 671.9,392.7 665,400.9 			"/>
		</g>
		<g>
			<polygon class="st4" points="533.8,462.1 523,462.1 528.4,452.8 			"/>
			<polygon class="st4" points="655.1,379.7 665.9,379.7 660.5,389 			"/>
		</g>
		<g>
			<polygon class="st4" points="541.8,472 531.3,473.9 534.9,463.8 			"/>
			<polygon class="st4" points="647.1,369.8 657.6,367.9 654,378 			"/>
		</g>
		<g>
			<polygon class="st4" points="551.5,480.4 541.4,484.1 543.3,473.5 			"/>
			<polygon class="st4" points="637.4,361.4 647.5,357.7 645.6,368.3 			"/>
		</g>
		<g>
			<polygon class="st4" points="562.5,487 553.2,492.3 553.2,481.6 			"/>
			<polygon class="st4" points="626.4,354.8 635.7,349.5 635.7,360.2 			"/>
		</g>
		<g>
			<polygon class="st4" points="574.5,491.5 566.2,498.4 564.4,487.8 			"/>
			<polygon class="st4" points="614.4,350.3 622.7,343.4 624.5,354 			"/>
		</g>
		<g>
			<polygon class="st4" points="587,493.9 580.1,502.1 576.5,492 			"/>
			<polygon class="st4" points="601.9,347.9 608.8,339.7 612.4,349.8 			"/>
		</g>
		<g>
			<polygon class="st5" points="591.7,338.1 587.9,346.1 582.8,338.7 			"/>
			<polygon class="st5" points="597.4,504 601.1,495.9 606.3,503.2 			"/>
		</g>
		<g>
			<polygon class="st5" points="577.4,339.8 575,348.4 568.7,342 			"/>
			<polygon class="st5" points="611.8,502.3 614,493.7 620.4,499.9 			"/>
		</g>
		<g>
			<polygon class="st5" points="563.5,344 562.6,352.9 555.4,347.7 			"/>
			<polygon class="st5" points="625.6,498.1 626.3,489.2 633.7,494.3 			"/>
		</g>
		<g>
			<polygon class="st5" points="550.6,350.6 551.3,359.5 543.3,355.6 			"/>
			<polygon class="st5" points="638.5,491.5 637.7,482.6 645.8,486.4 			"/>
		</g>
		<g>
			<polygon class="st5" points="539.1,359.3 541.3,367.9 532.7,365.5 			"/>
			<polygon class="st5" points="650.1,482.8 647.7,474.2 656.4,476.5 			"/>
		</g>
		<g>
			<polygon class="st5" points="529.2,369.9 532.8,378 524,377.1 			"/>
			<polygon class="st5" points="660,472.2 656.1,464.2 665,464.9 			"/>
		</g>
		<g>
			<polygon class="st5" points="521.3,382 526.3,389.4 517.4,390 			"/>
			<polygon class="st5" points="667.9,460.1 662.7,452.8 671.6,452 			"/>
		</g>
		<g>
			<polygon class="st5" points="515.6,395.3 521.8,401.7 513.2,403.9 			"/>
			<polygon class="st5" points="673.5,446.8 667.2,440.5 675.8,438.1 			"/>
		</g>
		<g>
			<polygon class="st5" points="512.3,409.4 519.6,414.6 511.5,418.3 			"/>
			<polygon class="st5" points="676.8,432.7 669.4,427.6 677.5,423.8 			"/>
		</g>
		<g>
			<polygon class="st5" points="511.6,423.9 519.6,427.7 512.2,432.8 			"/>
			<polygon class="st5" points="677.6,418.2 669.4,414.5 676.7,409.3 			"/>
		</g>
		<g>
			<polygon class="st5" points="513.3,438.2 521.9,440.6 515.5,446.9 			"/>
			<polygon class="st5" points="675.8,403.8 667.2,401.6 673.5,395.2 			"/>
		</g>
		<g>
			<polygon class="st5" points="517.5,452.1 526.4,453 521.2,460.2 			"/>
			<polygon class="st5" points="671.6,390 662.7,389.3 667.8,381.9 			"/>
		</g>
		<g>
			<polygon class="st5" points="524.1,465 533,464.3 529.1,472.4 			"/>
			<polygon class="st5" points="665,377.1 656.1,377.9 659.9,369.8 			"/>
		</g>
		<g>
			<polygon class="st5" points="532.8,476.5 541.4,474.3 539,482.9 			"/>
			<polygon class="st5" points="656.3,365.5 647.7,367.9 650,359.3 			"/>
		</g>
		<g>
			<polygon class="st5" points="543.4,486.4 551.5,482.8 550.6,491.6 			"/>
			<polygon class="st5" points="645.7,355.6 637.7,359.5 638.4,350.6 			"/>
		</g>
		<g>
			<polygon class="st5" points="555.5,494.3 562.9,489.3 563.5,498.2 			"/>
			<polygon class="st5" points="633.6,347.8 626.3,352.9 625.5,344 			"/>
		</g>
		<g>
			<polygon class="st5" points="568.8,500 575.2,493.8 577.4,502.4 			"/>
			<polygon class="st5" points="620.3,342.1 614,348.4 611.7,339.8 			"/>
		</g>
		<g>
			<polygon class="st5" points="582.9,503.3 588.1,496 591.8,504.2 			"/>
			<polygon class="st5" points="606.2,338.8 601.1,346.2 597.3,338.1 			"/>
		</g>
	</g>
	<g>
		<g>
			
				<ellipse transform="matrix(0.917 -0.3989 0.3989 0.917 -137.657 288.6953)" class="st6" cx="624.8" cy="475.1" rx="24.8" ry="24.8"/>
			
				<ellipse transform="matrix(0.6999 -0.7142 0.7142 0.6999 -151.832 588.8105)" class="st7" cx="624.8" cy="475.1" rx="22.3" ry="22.3"/>
			<path class="st7" d="M625.8,481.3c-0.3,2.2,3.8,7.1-1.2,7.5c-6.8,0.6,1.6-7.5-4.1-8.3s-14.7,12.5,3.4,12.7
				c18.1,0.2,13.9-5.6,10.9-9.6C631.9,479.5,626.3,477.6,625.8,481.3z"/>
			<path class="st7" d="M619.4,471.1c-1.6-1.5-7.9-1-5.5-5.3c3.4-5.9,5.2,5.6,9.1,1.5c4-4.1-1.6-19.2-12.3-4.6
				c-10.6,14.6-3.5,14.6,1.5,14.5C617.3,477.2,622.1,473.7,619.4,471.1z"/>
			<path class="st7" d="M630.9,470.9c2.1-0.7,4.4-6.7,7.2-2.5c3.8,5.7-7.3,2.1-5.4,7.5c1.9,5.4,18,7,9.6-9
				c-8.4-16-11.5-9.6-13.6-5.1C626.4,466.3,627.4,472.1,630.9,470.9z"/>
		</g>
		<g>
			
				<ellipse transform="matrix(0.9919 -0.127 0.127 0.9919 -48.3765 86.1702)" class="st6" cx="651.3" cy="422.3" rx="24.1" ry="24.1"/>
			
				<ellipse transform="matrix(0.8761 -0.4821 0.4821 0.8761 -122.913 366.3247)" class="st7" cx="651.3" cy="422.3" rx="21.8" ry="21.8"/>
			<path class="st7" d="M649.2,428c-1.3,1.7-0.1,7.8-4.5,5.9c-6.1-2.7,4.9-5.6,0.5-9c-4.4-3.4-18.5,3.7-3.1,12.4
				c15.4,8.7,14.5,1.8,13.9-3C655.3,429.4,651.4,425.2,649.2,428z"/>
			<path class="st7" d="M648.6,416.4c-0.6-2-6.3-4.6-2.1-7.1c5.7-3.4,1.7,7.2,7.1,5.6c5.3-1.6,7.7-17.2-8.3-9.7
				c-16,7.5-9.9,10.7-5.6,13C643.9,420.5,649.6,419.8,648.6,416.4z"/>
			<path class="st7" d="M658.5,421.6c2.1,0.4,6.9-3.6,7.3,1.2c0.5,6.6-7.3-1.6-8.2,3.9c-0.9,5.5,12,14.5,12.4-3.2
				c0.4-17.6-5.3-13.6-9.2-10.8C656.8,415.5,654.9,421,658.5,421.6z"/>
		</g>
		<path class="st8" d="M642,459.5l-4.6,0.2c0,0-2,6.9-7.6,7.1s-7.5-4.3-7.5-4.3l-5.2,0.8c0,0,4,9.5,14.3,7.5
			C641.6,468.8,642,462.6,642,459.5z"/>
		<path class="st8" d="M595,454.5l-4.6,0.2c0,0-2,6.9-7.6,7.1s-7.5-4.3-7.5-4.3l-5.2,0.8c0,0,4,9.5,14.3,7.5
			C594.6,463.8,595,457.6,595,454.5z"/>
		<path class="st8" d="M601.4,460.9l1.5-4.4c0,0-5.7-4.4-3.9-9.6c1.8-5.3,6.7-5.4,6.7-5.4l1.1-5.2c0,0-10.2,0.3-12.1,10.7
			C592.8,457.3,598.5,459.8,601.4,460.9z"/>
		<path class="st8" d="M600.8,405.5l2.7,3.3c0,0,6.2-2.3,9.5,1.7s0.9,7.9,0.9,7.9l3.5,3.4c0,0,4.8-8.2-2.4-14.7
			C607.8,400.7,603.1,403.8,600.8,405.5z"/>
		<path class="st9" d="M664.6,423.7c-2.5,10.5-7.1,12.3-10.7,11.6c-3.6-0.7-9.4-3.8-7.3-15.6c-2.6-0.5-3.4-0.7-3.4-0.7
			s-5.3,15.6,9.4,20.4c12.9,4.2,17.3-14.9,17.3-14.9L664.6,423.7z"/>
		<g>
			<path class="st10" d="M633.7,449.5c-11.7-4.1-25.5-10.4-19.7-27.1c3.1-8.6,16.2-14.5,16.2-14.5l-0.7-0.8c0,0-18.2,0.9-20,21.8
				c-1.7,20.9,23.2,21.5,23.2,21.5L633.7,449.5z"/>
			<path class="st11" d="M633.7,449.5c-11.7-4.1-26.7-10.4-20.9-27.1c3.1-8.6,17.4-14.5,17.4-14.5l-0.7-0.8c0,0-18.2,0.9-20,21.8
				c-1.7,20.9,23.2,21.5,23.2,21.5L633.7,449.5z"/>
		</g>
		<g>
			<path class="st10" d="M615.9,450c11.2-3.6,25.3-6.9,30.5,9.1c2.6,8.3-3.9,20.3-3.9,20.3l1,0.2c0,0,13.2-11.2,2.5-28
				c-10.7-16.8-29.9-2.9-29.9-2.9L615.9,450z"/>
			<path class="st11" d="M615.9,450c11.2-3.6,26.2-7.5,31.4,8.5c2.6,8.3-4.8,21-4.8,21l1,0.2c0,0,13.2-11.2,2.5-28
				c-10.7-16.8-29.9-2.9-29.9-2.9L615.9,450z"/>
		</g>
		<g>
			<path class="st10" d="M642.8,400.4c12.3,0.6,27.2,2.6,26.4,20.1c-0.5,9-11.2,18.4-11.2,18.4l0.9,0.6c0,0,17-6.1,12.7-26.4
				c-4.3-20.3-28.1-13.8-28.1-13.8L642.8,400.4z"/>
			<path class="st11" d="M642.8,400.4c12.3,0.6,28.3,2.3,27.5,19.8c-0.5,9-12.4,18.7-12.4,18.7l0.9,0.6c0,0,17-6.1,12.7-26.4
				c-4.3-20.3-28.1-13.8-28.1-13.8L642.8,400.4z"/>
		</g>
		<path class="st9" d="M651.5,446.6c-0.4,11-4.6,13.8-8.4,13.8c-3.8,0-10.2-1.9-10.5-14.2c-2.7,0-3.5,0-3.5,0s-2.1,16.7,13.5,18.5
			c13.8,1.6,14.3-18.4,14.3-18.4L651.5,446.6z"/>
		<path class="st9" d="M620.7,437.1c-10.2,1.9-13.7-1.4-14.5-4.9c-0.8-3.5-0.3-9.9,10.9-12.6c-0.5-2.5-0.7-3.3-0.7-3.3
			s-15.9,1.5-14.3,16.4c1.4,13.1,20,9.5,20,9.5L620.7,437.1z"/>
		<path class="st9" d="M607.3,472.5c-10.5-2.1-12.5-6.6-12-10.2c0.6-3.6,3.5-9.5,15.3-7.8c0.4-2.6,0.6-3.4,0.6-3.4
			s-15.8-4.7-20,10.1c-3.7,13,15.4,16.7,15.4,16.7L607.3,472.5z"/>
		<g>
			<path class="st12" d="M604.8,430.4c-0.5,2.6-4.3,4-8.4,3.2c-4.1-0.9-6.9-3.6-6.4-6.2c0.5-2.6,4.3-4,8.4-3.2
				C602.4,425,605.3,427.8,604.8,430.4z"/>
			<path class="st7" d="M593.1,425.5c0,0,0.7,2.8-1.1,3.3"/>
		</g>
		<g>
			<path class="st12" d="M638.5,482.1c-0.5,2.6-4.3,4-8.4,3.2c-4.1-0.9-6.9-3.6-6.4-6.2c0.5-2.6,4.3-4,8.4-3.2
				C636.2,476.7,639.1,479.5,638.5,482.1z"/>
			<path class="st7" d="M626.9,477.3c0,0,0.7,2.8-1.1,3.3"/>
		</g>
		<path class="st8" d="M625,422.4l5.5,0.3c0,0,3.2-7.8,9.8-7.5c6.6,0.4,8.2,6,8.2,6l6.2-0.4c0,0-3.5-11.6-15.8-10.5
			C626.6,411.5,625.4,418.7,625,422.4z"/>
		<path class="st8" d="M625,393.4l5.5,0.3c0,0,3.2-7.8,9.8-7.5c6.6,0.4,8.2,6,8.2,6l6.2-0.4c0,0-3.5-11.6-15.8-10.5
			C626.6,382.5,625.4,389.7,625,393.4z"/>
		<path class="st8" d="M672.8,425.6l-2.3,5c0,0,6.2,5.8,3.5,11.8c-2.7,6-8.5,5.5-8.5,5.5l-1.9,5.9c0,0,12,0.9,15.4-11
			C682.4,430.9,676,427.2,672.8,425.6z"/>
		<path class="st8" d="M666.8,490.5l-2.8-4.2c0,0-7.6,2-10.9-3.1c-3.3-5.1-0.1-9.4-0.1-9.4l-3.7-4.4c0,0-6.6,9,1,17.5
			C657.9,495.4,663.9,492.2,666.8,490.5z"/>
		<path class="st8" d="M579.8,477.5l-2.8-4.2c0,0-7.6,2-10.9-3.1c-3.3-5.1-0.1-9.4-0.1-9.4l-3.7-4.4c0,0-6.6,9,1,17.5
			C570.9,482.4,576.9,479.2,579.8,477.5z"/>
		<path class="st9" d="M594.2,461.6c4.2-11.9,9.8-13.6,14-12.3c4.2,1.3,10.6,5.6,6.6,19.2c2.9,0.9,3.9,1.2,3.9,1.2
			s8.1-17.7-8.5-25.1c-14.7-6.5-22.1,15.3-22.1,15.3L594.2,461.6z"/>
		<path class="st9" d="M566.2,449.6c4.2-11.9,9.8-13.6,14-12.3c4.2,1.3,10.6,5.6,6.6,19.2c2.9,0.9,3.9,1.2,3.9,1.2
			s8.1-17.7-8.5-25.1c-14.7-6.5-22.1,15.3-22.1,15.3L566.2,449.6z"/>
		<g>
			<path class="st10" d="M633.5,435.1c13.2,6.3,28.7,15.2,19.8,34.1c-4.7,9.7-20.8,15.1-20.8,15.1l0.7,1c0,0,21.5,1.1,26-23.1
				c4.6-24.3-24.5-28.1-24.5-28.1L633.5,435.1z"/>
			<path class="st11" d="M633.5,435.1c13.2,6.3,30,15.4,21.1,34.3c-4.7,9.7-22.1,14.9-22.1,14.9l0.7,1c0,0,21.5,1.1,26-23.1
				c4.6-24.3-24.5-28.1-24.5-28.1L633.5,435.1z"/>
		</g>
		<g>
			<path class="st10" d="M654.4,436.7c-13.6,2.9-30.4,5-34.6-14.3c-2-10,7-23.4,7-23.4l-1.1-0.4c0,0-16.9,11.5-6.3,32.5
				c10.5,20.9,34.7,7,34.7,7L654.4,436.7z"/>
			<path class="st11" d="M654.4,436.7c-13.6,2.9-31.6,5.6-35.7-13.7c-2-10,8.1-24,8.1-24l-1.1-0.4c0,0-16.9,11.5-6.3,32.5
				c10.5,20.9,34.7,7,34.7,7L654.4,436.7z"/>
		</g>
		<g>
			<path class="st10" d="M616.9,491.4c-14.3-2.2-31.5-6.3-28.5-26.7c1.7-10.5,15.4-20.2,15.4-20.2l-0.9-0.8c0,0-20.7,5.1-18.1,29.4
				c2.6,24.3,31.3,19.6,31.3,19.6L616.9,491.4z"/>
			<path class="st11" d="M616.9,491.4c-14.3-2.2-32.9-6.1-29.8-26.5c1.7-10.5,16.7-20.4,16.7-20.4l-0.9-0.8c0,0-20.7,5.1-18.1,29.4
				c2.6,24.3,31.3,19.6,31.3,19.6L616.9,491.4z"/>
		</g>
		<path class="st9" d="M612.3,436.3c1.8-12.8,7.1-15.6,11.5-15.1c4.4,0.4,11.7,3.5,10.5,17.9c3.1,0.3,4.2,0.4,4.2,0.4
			s4.5-19.3-13.6-23.3c-16-3.5-19,19.8-19,19.8L612.3,436.3z"/>
		<path class="st9" d="M647.3,451.1c12.2-1,15.9,3.3,16.4,7.5s-0.8,11.6-14.4,13.5c0.3,3,0.5,3.9,0.5,3.9s18.8,0.1,18.8-17.5
			c0-15.5-22.3-13.5-22.3-13.5L647.3,451.1z"/>
		<path class="st9" d="M667.3,411.3c12,3.8,13.9,9.3,12.8,13.4c-1.1,4.2-5.2,10.8-18.9,7.3c-0.8,3-1.1,3.9-1.1,3.9
			s17.9,7.4,24.6-9.4c5.9-14.8-16.1-21.4-16.1-21.4L667.3,411.3z"/>
		<path class="st9" d="M622.3,375.3c12,3.8,13.9,9.3,12.8,13.4c-1.1,4.2-5.2,10.8-18.9,7.3c-0.8,3-1.1,3.9-1.1,3.9
			s17.9,7.4,24.6-9.4c5.9-14.8-16.1-21.4-16.1-21.4L622.3,375.3z"/>
		<g>
			<path class="st12" d="M595.7,468.5c2.2,2.2,1.2,6.8-2.3,10.3c-3.5,3.5-8.1,4.5-10.3,2.2c-2.2-2.2-1.2-6.8,2.3-10.3
				C588.9,467.3,593.5,466.3,595.7,468.5z"/>
			<path class="st7" d="M583.4,476.8c0,0,3.2,1.1,2.5,3.2"/>
		</g>
		<g>
			<path class="st12" d="M580.7,443.5c2.2,2.2,1.2,6.8-2.3,10.3c-3.5,3.5-8.1,4.5-10.3,2.2c-2.2-2.2-1.2-6.8,2.3-10.3
				C573.9,442.3,578.5,441.3,580.7,443.5z"/>
			<path class="st7" d="M568.4,451.8c0,0,3.2,1.1,2.5,3.2"/>
		</g>
		<g>
			<path class="st12" d="M647.1,374.7c-2.1,2.3-6.8,1.5-10.4-1.9c-3.6-3.3-4.8-7.9-2.7-10.2c2.1-2.3,6.8-1.5,10.4,1.9
				C648,367.8,649.2,372.4,647.1,374.7z"/>
			<path class="st7" d="M638.3,362.8c0,0-1,3.2-3.1,2.7"/>
		</g>
		<g>
			<path class="st12" d="M631.8,396.2c0.9-3,5.5-4.2,10.2-2.7c4.7,1.5,7.7,5.1,6.7,8.1c-1,3-5.5,4.2-10.2,2.7
				C633.9,402.8,630.9,399.2,631.8,396.2z"/>
			<path class="st7" d="M644.8,403.3c0,0-0.5-3.3,1.7-3.7"/>
		</g>
		<g>
			<path class="st12" d="M642.1,450.2c1.1,2.9-1.6,6.7-6.2,8.5c-4.6,1.8-9.2,0.9-10.3-2c-1.1-2.9,1.6-6.7,6.2-8.5
				C636.3,446.4,640.9,447.3,642.1,450.2z"/>
			<path class="st7" d="M627.5,453c0,0,2.5,2.3,1.1,4"/>
		</g>
		<g>
			<path class="st12" d="M625.2,437.4c-1.2-2.4,0.8-5.8,4.5-7.7c3.7-1.9,7.7-1.6,8.9,0.8c1.2,2.4-0.8,5.8-4.5,7.7
				C630.4,440.1,626.4,439.8,625.2,437.4z"/>
			<path class="st7" d="M637.2,433.8c0,0-2.3-1.7-1.3-3.3"/>
		</g>
		<g>
			<path class="st12" d="M662.7,417.9c-2-1.7-1.6-5.7,1.1-8.9c2.6-3.2,6.4-4.5,8.5-2.8c2,1.7,1.6,5.7-1.1,8.9
				C668.6,418.3,664.8,419.6,662.7,417.9z"/>
			<path class="st7" d="M672.4,409.9c0,0-2.8-0.7-2.4-2.5"/>
		</g>
		<g>
			<path class="st13" d="M594.7,435.7c-0.7,0.1-1.4,0.2-2,0.2c-5.5-0.1-12.5-9.6-22.6-24.1c-3.3-4.7-7.5-10.8-9.8-13
				c-1.1,3-2.4,10.3-3.5,15.9c-3.2,17.4-5.6,28.9-10.6,31.3c-0.6,0.3-1.2,0.5-1.9,0.7c-5.6,1.2-14.6-7-21.4-13.4
				c-5.9-5.6-13.9-16.1-17.9-34.6c-2.5-11.5,0.2-25,7.3-37.1c6.6-11.3,16.2-19.4,24.9-21.3c3.7-0.8,7.3-0.5,10.5,0.9
				c2.3-2.6,5.4-4.4,9.2-5.2c8.7-1.9,20.8,1.6,31.5,9.1c11.5,8.1,19.6,19.3,22.1,30.7c4,18.5,1.2,31.3-1.9,38.9
				C605.1,423.3,600.3,434.5,594.7,435.7C594.7,435.7,594.7,435.7,594.7,435.7z"/>
			<path class="st14" d="M548.2,343.3c-17.3-10.5-47.5,24.1-41.4,51.8c7.1,32.5,28.9,42,36.2,38.6c7.5-3.5,10.6-45.4,14.8-46.3
				c4.2-0.9,24.5,35.9,32.7,36c8,0.1,24-17.7,16.9-50.1C601.4,345.4,559.5,326.5,548.2,343.3z"/>
			<path class="st15" d="M591.1,419.3c-0.3,0.1-0.6,0.1-0.9,0.1c-0.3,0-2.2-0.3-7.4-6.3c-3.5-4.1-7.5-9.6-11-14.5
				c-8.5-11.8-11.6-15.8-14.9-15.1c-3.3,0.7-4.4,5.7-7.3,19.9c-1.2,5.9-2.5,12.6-4,17.8c-2.2,7.6-3.8,8.7-4.1,8.8
				c-0.2,0.1-0.5,0.2-0.8,0.3c-3.2,0.7-9.6-1.1-15.8-6.8c-5.3-4.8-12.5-14-16-30.4c-2.1-9.7,0.4-21.4,7-32
				c6-9.8,14.4-16.8,21.9-18.4c3.3-0.7,6.3-0.3,8.8,1.2l2,1.2l1.3-2c1.7-2.4,4.2-4,7.5-4.8c7.4-1.6,18,1.3,27.6,7.7
				c10.4,6.9,17.5,16.5,19.7,26.2c3.6,16.4,0.9,27.7-2,34.3C599.4,414.3,594.4,418.6,591.1,419.3L591.1,419.3z"/>
			<g>
				<defs>
					<path id="SVGID_1_" d="M591.1,419.3c-0.3,0.1-0.6,0.1-0.9,0.1c-0.3,0-2.2-0.3-7.4-6.3c-3.5-4.1-7.5-9.6-11-14.5
						c-8.5-11.8-11.6-15.8-14.9-15.1c-3.3,0.7-4.4,5.7-7.3,19.9c-1.2,5.9-2.5,12.6-4,17.8c-2.2,7.6-3.8,8.7-4.1,8.8
						c-0.2,0.1-0.5,0.2-0.8,0.3c-3.2,0.7-9.6-1.1-15.8-6.8c-5.3-4.8-12.5-14-16-30.4c-2.1-9.7,0.4-21.4,7-32
						c6-9.8,14.4-16.8,21.9-18.4c3.3-0.7,6.3-0.3,8.8,1.2l2,1.2l1.3-2c1.7-2.4,4.2-4,7.5-4.8c7.4-1.6,18,1.3,27.6,7.7
						c10.4,6.9,17.5,16.5,19.7,26.2c3.6,16.4,0.9,27.7-2,34.3C599.4,414.3,594.4,418.6,591.1,419.3L591.1,419.3z"/>
				</defs>
				<clipPath id="SVGID_00000086685719956616586370000000228058242789366690_">
					<use xlink:href="#SVGID_1_"  style="overflow:visible;"/>
				</clipPath>
				<g style="clip-path:url(#SVGID_00000086685719956616586370000000228058242789366690_);">
					<path class="st7" d="M553.1,366c1.8-1.1,2.8-26.1,22.2-33.7"/>
					<path class="st7" d="M556,369.8c0,0,19.2-35.1,38.5-27.8"/>
					<path class="st7" d="M557.6,370.7c0,0,36.8-20.1,51-3.1"/>
					<path class="st7" d="M555.5,373.7c0,0,42.3-11.8,61.4,16.4"/>
					<path class="st7" d="M565.6,402.7c0,0,28.9-12.7,44.3,13.7"/>
					<path class="st7" d="M569.5,409c0,0,27.2-10.3,37.7,10.7"/>
					<path class="st7" d="M570.7,414.7c0,0,27.2-10.3,37.7,10.7"/>
					<path class="st7" d="M553.1,366c-2.1-0.2-13.4-22.6-34.2-21.5"/>
					<path class="st7" d="M552.1,370.6c0,0-32.1-24-46.6-9.3"/>
					<path class="st7" d="M551.1,372.1c0,0-41.8-3-47.7,18.4"/>
					<path class="st7" d="M554.2,373.9c0,0-43.4,6.9-49,40.4"/>
					<path class="st7" d="M509.2,423.7c6.5-27.9,46.5-45.6,46.5-45.6s43.8-0.5,61.3,22.2"/>
					<path class="st7" d="M516.9,433.2c4.7-29.9,40-49.7,40-49.7s40.3,3.4,57.1,28.6"/>
					<path class="st7" d="M557.1,404.6c0,0-31.5,0.4-34.6,30.8"/>
					<path class="st7" d="M556.2,411.9c0,0-29,1.9-29.8,25.4"/>
					<path class="st7" d="M557.4,417.6c0,0-29,1.9-29.8,25.4"/>
				</g>
			</g>
			<path class="st14" d="M561.3,367.6c0.9,4.1-1.7,8.2-5.8,9.1c-4.1,0.9-8.2-1.7-9.1-5.8c-0.9-4.1,1.7-8.2,5.8-9.1
				C556.4,360.9,560.4,363.5,561.3,367.6z"/>
		</g>
		<g>
			<g>
				<path class="st17" d="M588.2,361.8c1.6-11.7,12.4-19.8,24-18.2c11.7,1.6,19.8,12.4,18.2,24"/>
				<path class="st18" d="M590.5,362.1c1.4-10.4,11-17.6,21.4-16.2c10.4,1.4,17.6,11,16.2,21.4"/>
				<path class="st19" d="M626.8,367.1c0.7-4.8-0.7-9.5-3.4-13.1c-2.7-3.6-6.8-6.2-11.7-6.8c-4.8-0.7-9.5,0.7-13.1,3.4
					c-3.6,2.7-6.2,6.8-6.8,11.7"/>
				<polygon class="st20" points="609.3,364.7 609.3,364.7 609.3,364.7 				"/>
				<path class="st21" d="M609.3,364.7L609.3,364.7L609.3,364.7z"/>
				<path class="st22" d="M606.1,361.7c0.8,1.1,0.4,1.8-1,1.7l-10-1.4c-1.4-0.2-2.1-1.4-1.6-2.7l3.3-5.7c0.9-1,2.3-1,3.1,0.1
					L606.1,361.7z"/>
				<path class="st22" d="M609.1,360.3c-0.2,1.4-1,1.6-1.9,0.5l-6.1-8c-0.8-1.1-0.5-2.5,0.8-3l6.4-1.7c1.4-0.1,2.3,0.9,2.1,2.3
					L609.1,360.3z"/>
				<path class="st22" d="M612,350.6c0.2-1.4,1.4-2.1,2.7-1.6l5.7,3.3c1,0.9,1,2.3-0.1,3.1l-8,6.1c-1.1,0.8-1.8,0.4-1.7-1L612,350.6
					z"/>
				<path class="st22" d="M621.2,356.6c1.1-0.8,2.5-0.5,3,0.8l1.7,6.4c0.1,1.4-0.9,2.3-2.3,2.1l-10-1.4c-1.4-0.2-1.6-1-0.5-1.9
					L621.2,356.6z"/>
			</g>
		</g>
	</g>
</g>
</svg>
