<?xml version="1.0" encoding="utf-8"?>
<!-- Generator: Adobe Illustrator 26.0.1, SVG Export Plug-In . SVG Version: 6.00 Build 0)  -->
<svg version="1.1" id="Layer_1" xmlns="http://www.w3.org/2000/svg" xmlns:xlink="http://www.w3.org/1999/xlink" x="0px" y="0px"
	 viewBox="0 0 1190.6 841.9" style="enable-background:new 0 0 1190.6 841.9;" xml:space="preserve">
<style type="text/css">
	.st0{fill:#F1F0F0;}
	.st1{fill:#235BAA;}
	.st2{fill:#D0D1D1;}
	.st3{fill:#DDC3B1;}
	.st4{opacity:0.6;fill:#F5C388;}
	.st5{opacity:0.5;fill:#FED196;}
	.st6{opacity:0.9;fill:#EAD0BD;}
	.st7{opacity:0.8;fill:#F5C388;}
	.st8{fill:#E6CDBE;}
	.st9{opacity:0.4;fill:#EAD0BD;}
	.st10{opacity:0.9;fill:#E3D5CC;}
	.st11{fill:#8A664B;}
	.st12{fill:#EAD0BD;}
	.st13{opacity:0.7;fill:#EAD0BD;}
	.st14{opacity:0.8;fill:#D3B28E;}
	.st15{fill:#3B9043;}
	.st16{fill:#68B044;}
	.st17{opacity:0.8;fill:#90B03D;}
	.st18{opacity:0.6;fill:#3B9043;}
	.st19{fill:#574234;}
</style>
<g>
	<g>
		<g>
			<path class="st0" d="M693.1,420.9c0,54.2-44,98.2-98.2,98.2c-54.2,0-98.2-44-98.2-98.2c0-54.2,44-98.2,98.2-98.2
				C649.1,322.7,693.1,366.6,693.1,420.9z"/>
			<path class="st1" d="M594.9,329.3c12.4,0,24.3,2.4,35.6,7.2c10.9,4.6,20.7,11.2,29.1,19.6c8.4,8.4,15,18.2,19.6,29.1
				c4.8,11.3,7.2,23.3,7.2,35.6c0,12.4-2.4,24.4-7.2,35.6c-4.6,10.9-11.2,20.7-19.6,29.1c-8.4,8.4-18.2,15-29.1,19.6
				c-11.3,4.8-23.3,7.2-35.6,7.2c-12.4,0-24.3-2.4-35.6-7.2c-10.9-4.6-20.7-11.2-29.1-19.6c-8.4-8.4-15-18.2-19.6-29.1
				c-4.8-11.3-7.2-23.3-7.2-35.6c0-12.4,2.4-24.3,7.2-35.6c4.6-10.9,11.2-20.7,19.6-29.1c8.4-8.4,18.2-15,29.1-19.6
				C570.5,331.8,582.5,329.3,594.9,329.3L594.9,329.3z M594.9,327.1c-51.8,0-93.8,42-93.8,93.8c0,51.8,42,93.8,93.8,93.8
				c51.8,0,93.8-42,93.8-93.8C688.7,369.1,646.7,327.1,594.9,327.1L594.9,327.1z"/>
			<path class="st1" d="M594.9,332.5c11.9,0,23.5,2.3,34.4,6.9c10.5,4.5,20,10.8,28.1,18.9c8.1,8.1,14.5,17.6,18.9,28.1
				c4.6,10.9,6.9,22.5,6.9,34.4c0,11.9-2.3,23.5-6.9,34.4c-4.5,10.5-10.8,20-18.9,28.1c-8.1,8.1-17.6,14.5-28.1,18.9
				c-10.9,4.6-22.5,6.9-34.4,6.9c-11.9,0-23.5-2.3-34.4-6.9c-10.5-4.4-20-10.8-28.1-18.9c-8.1-8.1-14.5-17.6-18.9-28.1
				c-4.6-10.9-6.9-22.5-6.9-34.4c0-11.9,2.3-23.5,6.9-34.4c4.5-10.5,10.8-20,18.9-28.1c8.1-8.1,17.6-14.5,28.1-18.9
				C571.4,334.9,582.9,332.5,594.9,332.5L594.9,332.5z M594.9,331.6c-49.3,0-89.3,40-89.3,89.3c0,49.3,40,89.3,89.3,89.3
				c49.3,0,89.3-40,89.3-89.3C684.1,371.6,644.2,331.6,594.9,331.6L594.9,331.6z"/>
			<circle class="st2" cx="594.9" cy="420.9" r="67.5"/>
			<path class="st0" d="M660.9,420.9c0,36.5-29.6,66-66,66c-36.5,0-66-29.6-66-66c0-36.5,29.6-66,66-66
				C631.3,354.9,660.9,384.4,660.9,420.9z"/>
		</g>
		<g>
			
				<ellipse transform="matrix(1.380109e-02 -0.9999 0.9999 1.380109e-02 165.7911 1009.8886)" class="st3" cx="594.9" cy="420.9" rx="71.6" ry="71.6"/>
			<path class="st4" d="M638.7,364.3c15.1,13.1,24.7,32.5,24.7,54.1c0,39.5-32.1,71.6-71.6,71.6c-16.5,0-31.7-5.6-43.8-15
				c12.6,10.9,29,17.5,46.9,17.5c39.5,0,71.6-32.1,71.6-71.6C666.5,397.9,655.6,377.4,638.7,364.3z"/>
			<path class="st5" d="M536.2,422.4c0-34.1,27.6-61.7,61.7-61.7c15.5,0,29.6,5.7,40.5,15.1c-11.3-13-28-21.3-46.6-21.3
				c-34.1,0-61.7,27.6-61.7,61.7c0,18.6,8.2,35.3,21.3,46.6C541.9,452.1,536.2,437.9,536.2,422.4z"/>
			<path class="st6" d="M594.9,349.1c-39.5,0-71.6,32.1-71.6,71.6c0,39.5,32.1,71.6,71.6,71.6c39.5,0,71.6-32.1,71.6-71.6
				C666.5,381.2,634.4,349.1,594.9,349.1z M590.6,477.5c-34.7,0-62.8-28.1-62.8-62.8c0-34.7,28.1-62.8,62.8-62.8
				c34.7,0,62.8,28.1,62.8,62.8C653.3,449.4,625.2,477.5,590.6,477.5z"/>
			<g>
				<path class="st7" d="M557.9,374.1c-1.5,1.7-0.3,4.6,1.9,3.1C562,375.6,559.8,372,557.9,374.1z"/>
				<path class="st7" d="M590.6,362.5c-2.2,0.5-1.8,2.9,0.4,2.8C593.3,365.3,592.9,362,590.6,362.5z"/>
				<path class="st6" d="M633.1,389.8c-3-0.4-2.6,3.8,0,3.6C635.7,393.2,634.7,390,633.1,389.8z"/>
				<path class="st7" d="M620.9,403.5c-2.1-0.5-2.5,3.6,0,3.3C623.4,406.5,622.9,403.9,620.9,403.5z"/>
				<path class="st7" d="M646.4,418.8c-3.4,0.4-1.9,3.2-0.2,3.1C647.9,421.8,648.9,418.4,646.4,418.8z"/>
				<path class="st7" d="M642.8,437.2c-1.7,0.5-1.6,3.4,0.7,2.9C645.8,439.6,644.7,436.7,642.8,437.2z"/>
				<path class="st7" d="M558.6,460.4c-1.7,0.5-1.6,3.4,0.7,2.9C561.6,462.7,560.4,459.8,558.6,460.4z"/>
				<path class="st7" d="M603.8,454.9c-1.7,0.1-2.4,3.3,0,2.9C606.2,457.5,606.6,454.7,603.8,454.9z"/>
				<path class="st7" d="M587.9,475.9c-2.4-0.5-2.2,3.7,0,3.1C590.1,478.3,590,476.3,587.9,475.9z"/>
				<path class="st7" d="M569.8,442c-1.4-0.7-3.2,2.4-0.8,2.8C571.3,445.3,572.2,443.2,569.8,442z"/>
				<path class="st7" d="M629.5,460.4c-1.4-0.7-3.2,2.4-0.8,2.8C631,463.7,632,461.6,629.5,460.4z"/>
				<path class="st7" d="M626.1,376.2c-1.4-0.7-3.2,2.4-0.8,2.8C627.6,379.5,628.6,377.4,626.1,376.2z"/>
				<path class="st7" d="M541.7,432.9c-2.3-0.5-2.9,3.2-0.8,3.6C543,436.9,544,433.4,541.7,432.9z"/>
				<path class="st7" d="M537.2,403.2c-2.4-0.2-2.5,3.7,0,3.3C539.7,406.1,539.5,403.3,537.2,403.2z"/>
			</g>
			<g>
				<g>
					<path class="st8" d="M557.3,373.5c-1.5,1.7-0.3,4.6,1.9,3.1C561.4,375,559.2,371.4,557.3,373.5z"/>
					<path class="st9" d="M557.3,373.5c-1.5,1.7-0.3,4.6,1.9,3.1C561.4,375,559.2,371.4,557.3,373.5z M558.6,375.7
						c-1.5,1.1-2.3-0.9-1.3-2C558.6,372.3,560,374.7,558.6,375.7z"/>
				</g>
				<g>
					<path class="st8" d="M590,361.9c-2.2,0.5-1.8,2.9,0.4,2.8C592.6,364.6,592.2,361.4,590,361.9z"/>
					<path class="st9" d="M590,361.9c-2.2,0.5-1.8,2.9,0.4,2.8C592.6,364.6,592.2,361.4,590,361.9z M590.1,364.1
						c-1.5,0.1-1.9-1.6-0.3-2C591.4,361.7,591.7,364,590.1,364.1z"/>
				</g>
				<g>
					<path class="st8" d="M632.4,389.2c-3-0.4-2.6,3.8,0,3.6C635.1,392.5,634,389.4,632.4,389.2z"/>
					<path class="st9" d="M632.4,389.2c-3-0.4-2.6,3.8,0,3.6C635.1,392.5,634,389.4,632.4,389.2z M632.4,391.9
						c-1.9,0.2-2.2-2.9,0-2.6C633.5,389.5,634.3,391.8,632.4,391.9z"/>
				</g>
				<g>
					<path class="st8" d="M620.3,402.8c-2.1-0.5-2.5,3.6,0,3.3C622.8,405.9,622.3,403.3,620.3,402.8z"/>
					<path class="st9" d="M620.3,402.8c-2.1-0.5-2.5,3.6,0,3.3C622.8,405.9,622.3,403.3,620.3,402.8z M620,405.3
						c-1.7,0.2-1.4-2.6,0-2.2C621.4,403.4,621.7,405.1,620,405.3z"/>
				</g>
				<g>
					<path class="st8" d="M645.8,418.1c-3.4,0.4-1.9,3.2-0.2,3.1C647.3,421.2,648.2,417.8,645.8,418.1z"/>
					<path class="st9" d="M645.8,418.1c-3.4,0.4-1.9,3.2-0.2,3.1C647.3,421.2,648.2,417.8,645.8,418.1z M645.4,420.5
						c-1.2,0.1-2.2-1.8,0.1-2.1C647.2,418.1,646.6,420.4,645.4,420.5z"/>
				</g>
				<g>
					<path class="st8" d="M642.1,436.6c-1.7,0.5-1.6,3.4,0.7,2.9C645.2,439,644,436,642.1,436.6z"/>
					<path class="st9" d="M642.1,436.6c-1.7,0.5-1.6,3.4,0.7,2.9C645.2,439,644,436,642.1,436.6z M642.5,438.9
						c-1.5,0.3-1.6-1.5-0.5-1.8C643.2,436.7,644,438.5,642.5,438.9z"/>
				</g>
				<g>
					<path class="st8" d="M557.9,459.7c-1.7,0.5-1.6,3.4,0.7,2.9C561,462.1,559.8,459.2,557.9,459.7z"/>
					<path class="st9" d="M557.9,459.7c-1.7,0.5-1.6,3.4,0.7,2.9C561,462.1,559.8,459.2,557.9,459.7z M558.4,461.9
						c-1.7,0.4-1.8-1.7-0.5-2.1C559.2,459.4,560,461.5,558.4,461.9z"/>
				</g>
				<g>
					<path class="st8" d="M603.2,454.2c-1.7,0.1-2.4,3.3,0,2.9C605.6,456.9,606,454,603.2,454.2z"/>
					<path class="st9" d="M603.2,454.2c-1.7,0.1-2.4,3.3,0,2.9C605.6,456.9,606,454,603.2,454.2z M603,456.4c-1.5,0.2-1.1-1.8,0-1.9
						C604.8,454.5,604.5,456.2,603,456.4z"/>
				</g>
				<g>
					<path class="st8" d="M587.3,475.3c-2.4-0.5-2.2,3.7,0,3.1C589.5,477.7,589.4,475.7,587.3,475.3z"/>
					<path class="st9" d="M587.3,475.3c-2.4-0.5-2.2,3.7,0,3.1C589.5,477.7,589.4,475.7,587.3,475.3z M587,477.5
						c-1.4,0.4-1.5-2.2,0-1.9C588.3,475.9,588.3,477.1,587,477.5z"/>
				</g>
				<g>
					<path class="st8" d="M569.1,441.4c-1.4-0.7-3.2,2.4-0.8,2.8C570.6,444.7,571.6,442.5,569.1,441.4z"/>
					<path class="st9" d="M569.1,441.4c-1.4-0.7-3.2,2.4-0.8,2.8C570.6,444.7,571.6,442.5,569.1,441.4z M568.3,443.4
						c-1.6-0.3-0.4-2.4,0.6-1.9C570.4,442.3,569.8,443.7,568.3,443.4z"/>
				</g>
				<g>
					<path class="st8" d="M628.9,459.8c-1.4-0.7-3.2,2.4-0.8,2.8C630.4,463.1,631.3,460.9,628.9,459.8z"/>
					<path class="st9" d="M628.9,459.8c-1.4-0.7-3.2,2.4-0.8,2.8C630.4,463.1,631.3,460.9,628.9,459.8z M627.9,462
						c-1.7-0.3-0.4-2.6,0.6-2.1C630.3,460.8,629.6,462.3,627.9,462z"/>
				</g>
				<g>
					<path class="st8" d="M625.5,375.6c-1.4-0.7-3.2,2.4-0.8,2.8C627,378.9,627.9,376.7,625.5,375.6z"/>
					<path class="st9" d="M625.5,375.6c-1.4-0.7-3.2,2.4-0.8,2.8C627,378.9,627.9,376.7,625.5,375.6z M624.8,377.7
						c-1.7-0.3-0.4-2.5,0.6-2C627.2,376.5,626.5,378,624.8,377.7z"/>
				</g>
				<g>
					<path class="st8" d="M541.1,432.2c-2.3-0.5-2.9,3.2-0.8,3.6C542.3,436.2,543.4,432.8,541.1,432.2z"/>
					<path class="st9" d="M541.1,432.2c-2.3-0.5-2.9,3.2-0.8,3.6C542.3,436.2,543.4,432.8,541.1,432.2z M540,434.9
						c-1.5-0.3-1-2.9,0.6-2.5C542.2,432.8,541.5,435.2,540,434.9z"/>
				</g>
				<g>
					<path class="st8" d="M536.5,402.6c-2.4-0.2-2.5,3.7,0,3.3C539,405.4,538.9,402.7,536.5,402.6z"/>
					<path class="st9" d="M536.5,402.6c-2.4-0.2-2.5,3.7,0,3.3C539,405.4,538.9,402.7,536.5,402.6z M536.1,405.1
						c-1.8,0.3-1.7-2.5,0-2.4C537.8,402.9,537.9,404.8,536.1,405.1z"/>
				</g>
			</g>
			<g>
				<path class="st10" d="M583.4,431.1c-1-0.9,1.9-1.3,3.3,1.5c0.5,1,1.1,1.7,1.8,1.9c0.8,0.1,1.8-0.5,3.2-2.2
					c2.5-3,2-10.7-8.5-12.2c-10.5-1.5-22.8,3.8-27.1,12.8c-4.3,9,4.8,14.7,10.8,12.8c0.8-0.2,1.2-0.5,1.4-0.7c0.5-0.5-0.4-1-1.5-1.7
					c-3.5-2.2,0.7-5.9,1.2-4.8c0,0,3,8.6,6.1,14.1c0,0,8.8-0.6,19.5-8.3C593.7,444.4,586.9,434.3,583.4,431.1z"/>
				<path class="st10" d="M627.6,416.9c-7.8-6.9-21.1-8.1-29.8-1.5c-8.8,6.6-4.6,17,1.5,18.2c0.8,0.2,1.3,0.2,1.6,0.1
					c0.8-0.3,0.2-1.2-0.2-2.4c-1.6-3.9,2.9-5.3,2.6-3.9c0,0-1.3,5.4-1.9,12.4c0,0,7.6,3,20.9,1c0,0,0.2-8.2-0.8-13
					c-0.3-1.4,2.3-0.3,1.9,3.2c-0.2,1.3-0.1,2.3,0.4,2.8c0.6,0.5,1.7,0.5,3.9-0.5C631.5,431.6,635.4,423.7,627.6,416.9z"/>
				<path class="st10" d="M581,414.9c3.8-3.4,7.7-6.1,9.5-10.7c0.7-1.7,0.4-2.8,0.9-3c0.6-0.2,1.2,0.3,1.5,1.5
					c0.6,2.3-0.8,3.1-1.7,4.5c-0.3,0.4,0,1.1,0.6,1.7c1.4,1.4,4.8,2.6,9.1,1.4c6.2-1.8,8.4-16.1-3.4-24.5
					c-12.2-8.7-24.4-3.8-24.6,3.8c-0.1,3.7,1.7,5.5,2.5,5.5c0.1,0,0.2,0,0.2-0.1c2.9-2.9,6.3-3.1,6.4-1.9c0,0.3-0.2,0.5-0.5,0.6
					c-0.7,0.2-1.7,0.8-3.4,1.9c-8.1,5.5-10.9,8.3-10.9,8.3C572.7,410,581,414.9,581,414.9z"/>
			</g>
			<g>
				<g>
					<g>
						<path class="st11" d="M564.5,437.6c-2.2,1.4-3.1,5.1,0.5,5.4c3.5,0.3,3.4,1.2,3.4,1.2c0.5-0.5-0.4-1-1.4-1.6
							c-3.3-2.1,0.7-5.6,1.1-4.5C567.6,436.8,566.8,436.2,564.5,437.6z"/>
						<path class="st12" d="M582.5,420.7c-9.9-1.4-21.5,3.6-25.6,12.1c-4.1,8.5,4.5,13.9,10.2,12.1c0.7-0.2,1.1-0.4,1.3-0.6
							c0,0,0.2-0.9-3.4-1.2c-3.5-0.3-2.7-4-0.5-5.4c2.2-1.4,3.1-0.8,3.6,0.5c0,0,2.8,8.1,5.8,13.3c0,0,8.3-0.6,18.4-7.8
							c0,0-6.4-9.6-9.7-12.5c0,0-0.9-0.8-1.4-1.3c-0.5-0.6,1.4-2.1,3.6-1c2.6,1.3,1.1,5,2.6,5.5c0.7,0.1,1.7-0.4,3-2
							C592.9,429.3,592.4,422.1,582.5,420.7z"/>
						<path class="st11" d="M584.9,428.7c-2.2-1.1-4.1,0.5-3.6,1c0.5,0.5,1.4,1.3,1.4,1.3c-0.9-0.8,1.8-1.3,3.1,1.4
							c0.5,1,1,1.6,1.7,1.8C586,433.7,587.5,430,584.9,428.7z"/>
					</g>
					<path class="st6" d="M564.5,437.6c2.2-1.4,3.1-0.8,3.6,0.5c0,0,2.8,8.1,5.8,13.3c0,0,8.3-0.6,18.4-7.8c0,0-6.4-9.6-9.7-12.5
						c0,0-0.9-0.8-1.4-1.3c-0.5-0.6,1.4-2.1,3.6-1c2.6,1.3,1.1,5,2.6,5.5c0.7,0.1,1.7-0.4,3-2c2.4-2.8,1.8-10.1-8-11.5
						c-9.9-1.4-21.5,3.6-25.6,12.1c-4.1,8.5,4.5,13.9,10.2,12.1c0.7-0.2,1.1-0.4,1.3-0.6c0,0,0.2-0.9-3.4-1.2
						C561.5,442.7,562.3,439,564.5,437.6z M562.3,441c1.1,3.4-2.1,3-4.1,0.6c-2-2.4-1.9-5.9-0.5-9.1c1.9-4.4,9.4-10.4,16.8-11.4
						c7.5-1,12.7,0.2,14.6,3.3c2.6,4.2-1.2,7.7-2.4,4.9c-1.7-4-7.8-1.4-5.7,0.7c1.6,1.6,13.5,12.2,3.1,17
						c-10.4,4.9-12.9-2.2-15.5-10.1C567.1,432.8,561.2,437.6,562.3,441z"/>
					<path class="st13" d="M558.1,433.6c0,0,1.2-4.9,7.5-8.7c8.4-5.1,17.3-2.8,17.3-2.8s-8.7-0.8-16.3,3.7
						C561,429,558.1,433.6,558.1,433.6z"/>
				</g>
				<g>
					<g>
						<path class="st11" d="M601,424.5c-2.6,0.2-4.4,3.3-1.7,5.4c2.7,2.1,2.1,2.9,2.1,2.9c0.7-0.2,0.2-1.2-0.2-2.3
							c-1.5-3.7,2.8-5,2.5-3.7C604,425.3,603.6,424.3,601,424.5z"/>
						<path class="st12" d="M626.4,417.1c-7.3-6.4-19.7-7.6-27.9-1.4c-8.2,6.2-4.3,15.9,1.4,17.1c0.7,0.1,1.2,0.2,1.5,0.1
							c0,0,0.6-0.8-2.1-2.9c-2.7-2.1-0.9-5.1,1.7-5.4c2.6-0.2,3,0.8,2.7,2.3c0,0-1.2,5.1-1.8,11.7c0,0,7.1,2.8,19.6,1
							c0,0,0.2-7.7-0.8-12.2c0,0-0.3-1.2-0.4-1.9c-0.1-0.8,2.4-1.3,3.6,0.9c1.4,2.6-2,5.4-1,6.7c0.5,0.5,1.6,0.4,3.6-0.4
							C630,430.9,633.8,423.5,626.4,417.1z"/>
						<path class="st11" d="M623.8,426.2c-1.1-2.2-3.7-1.7-3.6-0.9c0.1,0.7,0.4,1.9,0.4,1.9c-0.3-1.3,2.2-0.3,1.8,3
							c-0.2,1.2-0.1,2.1,0.4,2.6C621.8,431.6,625.2,428.8,623.8,426.2z"/>
					</g>
					<path class="st6" d="M626.4,417.1c-7.3-6.4-19.7-7.6-27.9-1.4c-8.2,6.2-4.3,15.9,1.4,17.1c0.7,0.1,1.2,0.2,1.5,0.1
						c0,0,0.6-0.8-2.1-2.9c-2.7-2.1-0.9-5.1,1.7-5.4c2.6-0.2,3,0.8,2.7,2.3c0,0-1.2,5.1-1.8,11.7c0,0,7.1,2.8,19.6,1
						c0,0,0.2-7.7-0.8-12.2c0,0-0.3-1.2-0.4-1.9c-0.1-0.8,2.4-1.3,3.6,0.9c1.4,2.6-2,5.4-1,6.7c0.5,0.5,1.6,0.4,3.6-0.4
						C630,430.9,633.8,423.5,626.4,417.1z M624.9,427.9c1.3-3.3-3-5.8-5-4.9c-1.9,0.9-0.3,3.4-0.1,5.7c0.7,7.7-3,10.3-8.5,10
						c-5.5-0.3-8.6-3.4-7.4-9.7c1-5.4,1-5.7,0-6.4c-2.7-1.8-6.9,1.1-6.7,3.7c0.2,2.6-3.2,0.8-2.2-4.5c1.3-7.4,10.4-9.9,16.9-9.9
						c6,0,15.1,4.4,16.8,9.1C631.3,428.8,623.6,431.2,624.9,427.9z"/>
					<path class="st13" d="M596,420.3c0,0,1.9-4.6,9.4-6.9c9.1-2.8,16,1.9,16,1.9s-7.3-3.1-15.5-0.8
						C599.3,416.4,596,420.3,596,420.3z"/>
				</g>
				<g>
					<path class="st11" d="M580.3,390c-2.5-0.8-4.9,1-4.5,3.2c0.2,1.4-0.1,1.5-0.2,1.5c0.1,0,0.2,0,0.2-0.1c2.8-2.8,6.1-3,6.1-1.9
						c0,0.3-0.2,0.5-0.5,0.6l0,0C583.1,393,582.9,390.8,580.3,390z"/>
					<g>
						<path class="st12" d="M596.8,385.9c-11.7-8.3-23.4-3.6-23.6,3.6c-0.1,3.5,1.6,5.2,2.4,5.3c0,0,0.4-0.2,0.2-1.5
							c-0.4-2.2,2-4,4.5-3.2c2.6,0.8,2.8,3,1.2,3.4l0,0c-0.7,0.2-1.6,0.7-3.3,1.8c-7.8,5.2-10.4,8-10.4,8
							c5.2,5.9,13.2,10.6,13.2,10.6c3.7-3.2,7.3-5.8,9.1-10.3c0.6-1.6,0.4-2.7,0.9-2.9l0,0c0,0,1-0.7,2.3,0.4
							c1.3,1.1,0.7,3.7-0.2,4.6c-1,0.9-2.3,1.4-1.6,2.3c1.3,1.3,4.6,2.5,8.7,1.4C606.1,407.6,608.1,393.9,596.8,385.9z"/>
						<path class="st11" d="M593.1,405.6c1-0.9,1.5-3.5,0.2-4.6c-1.3-1.1-2.3-0.4-2.3-0.4l0,0c0.5-0.2,1.1,0.3,1.4,1.4
							c0.6,2.2-0.7,3-1.6,4.3c-0.3,0.4,0,1,0.6,1.6C590.8,407,592.1,406.5,593.1,405.6z"/>
					</g>
					<path class="st6" d="M596.8,385.9c-11.7-8.3-23.4-3.6-23.6,3.6c-0.1,3.5,1.6,5.2,2.4,5.3c0,0,0.4-0.2,0.2-1.5
						c-0.4-2.2,2-4,4.5-3.2c2.6,0.8,2.8,3,1.2,3.4l0,0c-0.7,0.2-1.6,0.7-3.3,1.8c-7.8,5.2-10.4,8-10.4,8
						c5.2,5.9,13.2,10.6,13.2,10.6c3.7-3.2,7.3-5.8,9.1-10.3c0.6-1.6,0.4-2.7,0.9-2.9l0,0c0,0,1-0.7,2.3,0.4
						c1.3,1.1,0.7,3.7-0.2,4.6c-1,0.9-2.3,1.4-1.6,2.3c1.3,1.3,4.6,2.5,8.7,1.4C606.1,407.6,608.1,393.9,596.8,385.9z M598.6,408
						c-4.8,1.4-5.2-1.1-3.7-3.8c2.4-4.3-3.8-7.7-5.3-3.8c-1,2.6-1.1,4-4.1,7.5c-2.7,3.1-7.6,3.1-11.5,0.4c-3.8-2.7-3.4-6.4,0-9.2
						c4.6-3.8,8.8-4.7,9.2-6.9c0.6-3.1-5.7-4.6-7.3-2.5c-1.7,2.1-2.2-2.8,0.8-5.3c6.1-5,19-1.7,24.1,6.2
						C605.9,398.5,603.6,406.6,598.6,408z"/>
					<path class="st13" d="M575.7,385.9c0,0,3.6-3.5,11-2.9c9,0.7,13,7.4,13,7.4s-5-5.4-13-6.1C580.2,383.6,575.7,385.9,575.7,385.9
						z"/>
				</g>
			</g>
			<g>
				<path class="st14" d="M603.4,414.6c0,0-1.8-0.7-3.3,0.1c0,0,0.4-0.4,0.6-1.3c0,0-1.5-0.1-2.4,1.1c0,0,0.2-0.6,0.2-1.4
					c-1.3,0.6-2.9,2.8-2.9,2.8c1.1-1.5,1.3-2.8,1.3-2.8c-0.6,0.1-0.9,0.5-0.9,0.5c0.4-0.6,0.5-1.6,0.5-1.6c-1,0-2.4,1.3-2.7,2.2
					c0,0,0.1-0.4,0-0.9c0.4-0.2,0.8-0.5,1.2-0.8c1.2-1,1.5-2.3,1.5-2.3c-0.7,0-1.6,0.5-1.6,0.5c0.7-0.5,0.9-1.5,0.9-1.5
					c-1.3,0.1-2.8,0.9-2.8,0.9c2-1.6,2.1-3.5,2.1-3.5c-0.8,0.1-1.2,0.7-1.2,0.7c0.5-1.7,0.1-2.8,0.1-2.8c-0.6,0.4-1.1,1.5-1.1,1.5
					c0.5-3.2-0.3-3.7-0.3-3.7c-1.4,1.4-1.5,3.5-1.5,3.5c-0.2-1-0.8-1.5-0.8-1.5c-0.5,1.3-0.3,2.2-0.3,2.2c-0.4-1-1-1.1-1-1.1
					c-0.5,2.4,0.2,3.8,0.2,3.8c-1-1.7-1.9-1.5-1.9-1.5c-0.2,0.9,0.2,1.6,0.2,1.6c-0.4-0.8-1.2-0.9-1.2-0.9c0,0.8,0.2,1.5,0.2,1.5
					c-0.5-0.9-1.3-1-1.3-1c-0.1,0.8,0.2,1.3,0.2,1.3c-0.7,0.9-0.5,1.7-0.5,1.7c-1.3-2.4-2.9-2.7-2.9-2.7c-0.3,0.6,0.2,1.8,0.2,1.8
					c-1.1-1.3-3.6-0.9-3.6-0.9c0.5,1.5,2.3,2.2,2.3,2.2c-0.9,0.2-1.8,1-1.8,1c0.6,0.7,2.5,0.7,2.5,0.7c-0.4,0-1.3,0.7-1,0.8
					c1.5,0.3,3.1-0.2,3.1-0.2c-1.2,0.5-1.6,1.2-1.6,1.2c0.7,0.1,1.7-0.1,1.7-0.1c-1.3,0.3-2,1.2-2,1.2c1.7,0.3,2.9-0.3,2.9-0.3
					c-0.9,0.6-1.3,1.3-1.3,1.3s0.9,0.4,2.4-0.1c0.7-0.2,1.9-1.2,1.9-1.2s0.1,0,0.1-0.1c-0.1,0.1-0.1,0.1-0.1,0.1s0.7,1,0.1,2.1
					c-0.5,0.9-1.9,2-1.9,2s0.2,0.6,0.9,0.7c0,0,0.6-0.9,1.5-1.8c0.9-1,1.1-1,1.8-1.2c0.7-0.1,1.8-0.2,2.2-0.1c0,0,0.1,0.7,0.5,1.7
					c0.6,1.7,1.8,3.5,4.1,3.8c0,0,0.1-0.7-0.1-1.3c0,0,0.7,0.4,1.4,0.6c0,0-0.2-1.2-1.1-1.9c0,0,0.6,0.4,1.5,0.2
					c0,0-0.2-0.8-1.5-1.6c0,0,2,0.8,4.3-0.9c0,0-0.5-0.4-1.2-0.6c0,0,1.2,0,2.3-1.1c0,0-0.4-0.6-1.7-0.6
					C600.9,416.3,602.5,416,603.4,414.6z M586.1,411.7c0-0.1,0-0.3-0.1-0.4c0,0.1,0.1,0.1,0.1,0.2
					C586.1,411.6,586.1,411.7,586.1,411.7z M588.1,415.6c0,0,0.3-0.7,0.4-1.7c0.3,0.2,0.7,0.5,1.1,0.7c0.1,0.1,0.2,0.1,0.3,0.1h0
					c0,0-0.4,1.6-1.1,2.5C588.9,417.1,588.6,416,588.1,415.6z M592.2,416.7c0,0-1.3,0.1-2.6,0.4c0,0,0.6-1.2,0.9-2.5h0
					c0.1,0,0.1,0,0.2,0c0.4-0.1,1-0.2,1.7-0.5C592.2,414.8,592.1,415.6,592.2,416.7z"/>
				<g>
					<path class="st15" d="M592.4,416.4c0,0-1.3,0.1-2.6,0.4c0,0,0.6-1.2,0.9-2.5l-0.6,0c0,0-0.4,1.6-1.1,2.5c0,0-0.3-1.1-0.8-1.5
						c-0.2,0.4-0.5,0.6-0.5,0.6s0.7,1,0.1,2.1c-0.5,0.9-1.9,2-1.9,2s0.2,0.6,0.9,0.7c0,0,0.6-0.9,1.5-1.8c0.9-1,1.1-1,1.8-1.2
						c0.7-0.1,1.8-0.2,2.2-0.1C592.4,416.9,592.4,416.4,592.4,416.4z"/>
					<g>
						<path class="st15" d="M592.6,417.6c0,0,0.1,0.7,0.5,1.7c0.6,1.7,1.8,3.5,4.1,3.8c0,0,0.1-0.7-0.1-1.3c0,0,0.7,0.4,1.4,0.6
							c0,0-0.2-1.2-1.1-1.9c0,0,0.6,0.4,1.5,0.2c0,0-0.2-0.8-1.5-1.6c0,0,2,0.8,4.3-0.9c0,0-0.5-0.4-1.2-0.6c0,0,1.2,0,2.3-1.1
							c0,0-0.4-0.6-1.7-0.6c0,0,1.6-0.3,2.5-1.7c-4.8,2.6-9.1,3-11.1,3C592.5,417.4,592.5,417.5,592.6,417.6z"/>
						<path class="st16" d="M600.3,414.4c0,0,0.4-0.4,0.6-1.3c0,0-1.5-0.1-2.4,1.1c0,0,0.2-0.6,0.2-1.4c-1.3,0.6-2.9,2.8-2.9,2.8
							c1.1-1.5,1.3-2.8,1.3-2.8c-0.6,0.1-0.9,0.5-0.9,0.5c0.4-0.6,0.5-1.6,0.5-1.6c-1,0-2.4,1.3-2.7,2.2c0,0,0.3-1.1-0.3-1.7
							c0,0-1.7,1.1-1.3,4.2c0,0,0,0.4,0.1,0.9c2,0,6.4-0.4,11.1-3C603.6,414.3,601.8,413.6,600.3,414.4z"/>
					</g>
					<g>
						<path class="st16" d="M592.7,402.1c-1.3,1.4-1.5,3.5-1.5,3.5c-0.2-1-0.8-1.5-0.8-1.5c-0.5,1.3-0.3,2.2-0.3,2.2
							c-0.4-1-1-1.1-1-1.1c-0.4,2.4,0.2,3.8,0.2,3.8c-1-1.7-1.9-1.5-1.9-1.5c-0.2,0.9,0.2,1.6,0.2,1.6c-0.4-0.8-1.2-0.9-1.2-0.9
							c0,0.8,0.2,1.5,0.2,1.5c-0.5-0.9-1.3-1-1.3-1c-0.1,0.8,0.2,1.3,0.2,1.3s0.8,2.5,4.3,4.5c0.1,0.1,0.3,0.1,0.5,0.2
							C592.8,405.6,592.7,402.1,592.7,402.1z"/>
						<path class="st15" d="M595.1,410.5c0.7-0.5,0.9-1.5,0.9-1.5c-1.3,0.1-2.8,0.9-2.8,0.9c2-1.6,2.1-3.5,2.1-3.5
							c-0.8,0.1-1.2,0.7-1.2,0.7c0.5-1.7,0.1-2.8,0.1-2.8c-0.6,0.4-1.1,1.5-1.1,1.5c0.5-3.2-0.3-3.7-0.3-3.7s0,3.5-2.4,12.3
							c0.2,0,0.4,0,0.6,0c0.9-0.2,2.5-0.6,4.3-2.1c1.2-1,1.5-2.3,1.5-2.3C595.9,410,595.1,410.5,595.1,410.5z"/>
					</g>
					<g>
						<path class="st15" d="M588.3,415.3c0,0,0.9-2.3,0.3-4.3c-0.7,0.1-1.1,1.2-1.1,1.2c0.3-1.3-0.4-2.2-0.4-2.2
							c-0.6,0.3-0.8,1.3-0.8,1.3c-0.1-1-0.8-1.7-0.8-1.7c-0.7,0.9-0.5,1.7-0.5,1.7c-1.3-2.4-2.9-2.7-2.9-2.7
							c-0.3,0.6,0.2,1.8,0.2,1.8c-1.1-1.3-3.6-0.9-3.6-0.9s4.7,1,9.3,6.3C588,415.7,588.2,415.5,588.3,415.3z"/>
						<path class="st16" d="M578.6,409.5c0.5,1.5,2.3,2.2,2.3,2.2c-0.9,0.2-1.8,1-1.8,1c0.6,0.7,2.5,0.7,2.5,0.7
							c-0.4,0-1.3,0.7-1,0.8c1.5,0.3,3.1-0.2,3.1-0.2c-1.2,0.5-1.6,1.2-1.6,1.2c0.7,0.1,1.7-0.1,1.7-0.1c-1.3,0.3-2,1.2-2,1.2
							c1.7,0.3,2.9-0.3,2.9-0.3c-0.9,0.6-1.3,1.3-1.3,1.3s0.9,0.4,2.4-0.1c0.7-0.2,1.9-1.2,1.9-1.2s0.1,0,0.1-0.1
							C583.3,410.5,578.6,409.5,578.6,409.5z"/>
					</g>
				</g>
				<path class="st17" d="M579.3,412.7c0,0,1,0.7,2.7,0.5c0,0-1.6,0-2.3-0.7L579.3,412.7z"/>
				<path class="st17" d="M581,413.8c0,0-0.1,0.1-0.2,0.2c0,0,1.2,0.3,3.1-0.1C583.8,413.9,581.6,414.1,581,413.8z"/>
				<path class="st17" d="M578.7,409.6c0,0,0.8,1.6,2.4,2.1c0,0-1.4-0.5-2.1-2L578.7,409.6z"/>
				<path class="st17" d="M590.5,404.1c0,0-0.6,1.2-0.1,2.6c0,0-0.1-1.5,0.4-2.3L590.5,404.1z"/>
				<path class="st17" d="M589.4,405.3c0,0-0.1-0.1-0.3-0.1c0,0-0.3,1.8,0.1,3.2C589.2,408.4,588.9,406.5,589.4,405.3z"/>
				<path class="st17" d="M592.7,402.2c0,0-1.3,1.5-1.4,3.4c0,0,0.3-1.8,1.3-3L592.7,402.2z"/>
				<path class="st17" d="M600.8,413.2c0,0-1.4,0-2.3,1.1c0,0,1.1-1,2.1-0.8L600.8,413.2z"/>
				<path class="st17" d="M598.7,413.2c0,0,0-0.2,0-0.3c0,0-1.1,0.4-2.8,2.7C595.9,415.5,597.6,413.6,598.7,413.2z"/>
				<path class="st17" d="M603.5,414.3c0,0-1.5-0.6-3.2,0.2c0,0,1.3-0.5,2.9-0.1L603.5,414.3z"/>
				<path class="st18" d="M591,417.2c-1.3,0-1.8,0.3-2.8,1.4c-0.6,0.6-1.3,1.4-1.7,1.9c0.1,0.1,0.3,0.2,0.5,0.2c0,0,0.6-0.9,1.5-1.8
					c0.9-1,1.1-1,1.8-1.2c0.7-0.1,1.8-0.2,2.2-0.1c0-0.1-0.1-0.3-0.1-0.4C592.1,417.2,591.6,417.2,591,417.2z"/>
				<path class="st18" d="M589.8,416.9c0,0,0.6-1.2,0.9-2.5l-0.3,0c-0.2,0.7-0.5,2.1-1.1,2.8C589.4,417.2,589.5,417,589.8,416.9z"/>
			</g>
		</g>
	</g>
	<g>
		<path class="st19" d="M564.9,416.8c-0.9,0-0.6-1.2,0-0.9C565.5,416.2,565.7,416.8,564.9,416.8z"/>
		<path class="st19" d="M576.3,435.8c-0.9,0-0.6-1.2,0-0.9C576.9,435.2,577.1,435.8,576.3,435.8z"/>
		<path class="st19" d="M599.9,385.5c-0.6,0-0.4-0.9,0-0.6C600.4,385.1,600.5,385.5,599.9,385.5z"/>
		<path class="st19" d="M605.3,409.3c-0.6,0-0.4-0.9,0-0.6C605.8,408.9,605.9,409.3,605.3,409.3z"/>
		<path class="st19" d="M613.1,435.6c-0.6,0-0.4-0.9,0-0.6C613.6,435.2,613.7,435.6,613.1,435.6z"/>
		<path class="st19" d="M608.2,391.1c-0.9,0-0.6-1.2,0-0.9C608.8,390.5,609,391.1,608.2,391.1z"/>
		<path class="st19" d="M604.4,463.4c-0.9,0-0.6-1.2,0-0.9C605,462.8,605.2,463.4,604.4,463.4z"/>
		<path class="st19" d="M553.2,424.4c-0.9,0-0.6-1.2,0-0.9C553.8,423.8,554,424.4,553.2,424.4z"/>
		<path class="st19" d="M595.7,459.9c-0.9,0-0.6-1.2,0-0.9C596.3,459.3,596.5,459.9,595.7,459.9z"/>
		<path class="st19" d="M550.3,390.6c-0.9,0-0.6-1.2,0-0.9C550.9,390.1,551.1,390.6,550.3,390.6z"/>
		<path class="st19" d="M574.7,399.3c-0.6,0-0.4-0.8,0-0.6C575.1,398.9,575.2,399.3,574.7,399.3z"/>
		<path class="st19" d="M619.2,416.1c-0.6,0-0.4-0.8,0-0.6C619.5,415.7,619.7,416.1,619.2,416.1z"/>
		<path class="st19" d="M549.7,407.4c-0.6,0-0.4-0.8,0-0.6C550.1,407,550.2,407.4,549.7,407.4z"/>
		<path class="st19" d="M629.6,458.6c-0.9,0-0.6-1.2,0-0.9C630.2,458,630.4,458.6,629.6,458.6z"/>
		<path class="st19" d="M621.4,451.8c-0.9,0-0.6-1.2,0-0.9C622,451.2,622.2,451.8,621.4,451.8z"/>
		<path class="st19" d="M635.9,437.5c-0.6,0-0.4-0.8,0-0.6C636.3,437.1,636.4,437.5,635.9,437.5z"/>
		<path class="st19" d="M620.8,468.5c-0.6,0-0.4-0.8,0-0.6S621.3,468.5,620.8,468.5z"/>
		<path class="st19" d="M562.4,431.7c-0.6,0-0.4-0.9,0-0.6C562.8,431.3,562.9,431.7,562.4,431.7z"/>
		<path class="st19" d="M584.9,389.1c-0.9,0-0.6-1.2,0-0.9C585.5,388.5,585.7,389.1,584.9,389.1z"/>
		<path class="st19" d="M594.1,396.4c-0.6,0-0.4-0.9,0-0.6C594.5,396,594.6,396.4,594.1,396.4z"/>
		<path class="st19" d="M579.1,456.1c-0.6,0-0.4-0.9,0-0.6C579.6,455.7,579.7,456.1,579.1,456.1z"/>
		<path class="st19" d="M573.6,446.3c-0.6,0-0.4-0.8,0-0.6C574,446,574.1,446.3,573.6,446.3z"/>
		<path class="st19" d="M566,459c-0.9,0-0.6-1.2,0-0.9C566.6,458.5,566.7,459,566,459z"/>
		<path class="st19" d="M590.3,467.7c-0.6,0-0.4-0.8,0-0.6C590.7,467.3,590.8,467.7,590.3,467.7z"/>
		<path class="st19" d="M565.4,475.8c-0.6,0-0.4-0.8,0-0.6C565.8,475.4,565.9,475.8,565.4,475.8z"/>
		<path class="st19" d="M629.6,391.1c0,0.2-0.2,0.4-0.5,0.4s-0.5-0.2-0.5-0.4c0-0.2,0.2-0.4,0.5-0.4S629.6,390.9,629.6,391.1z"/>
		<path class="st19" d="M534,433.2c-0.9,0-0.6-1.2,0-0.9C534.6,432.6,534.7,433.2,534,433.2z"/>
		<path class="st19" d="M555,414.8c-0.6,0-0.4-0.9,0-0.6C555.4,414.4,555.6,414.8,555,414.8z"/>
		<path class="st19" d="M555.3,404.4c-0.9,0-0.6-1.2,0-0.9C555.9,403.8,556.1,404.4,555.3,404.4z"/>
		<path class="st19" d="M538.8,415.1c-0.6,0-0.4-0.8,0-0.6C539.2,414.8,539.3,415.1,538.8,415.1z"/>
		<path class="st19" d="M566.2,429.4c-0.6,0-0.4-0.8,0-0.6C566.6,429.1,566.7,429.4,566.2,429.4z"/>
		<path class="st19" d="M608.9,452.9c-0.9,0-0.6-1.2,0-0.9C609.5,452.3,609.7,452.9,608.9,452.9z"/>
		<path class="st19" d="M618,460.3c-0.6,0-0.4-0.9,0-0.6C618.4,459.9,618.6,460.3,618,460.3z"/>
		<path class="st19" d="M621.9,458c-0.6,0-0.4-0.8,0-0.6C622.3,457.6,622.4,458,621.9,458z"/>
		<path class="st19" d="M576.6,404.4c0,0.2-0.2,0.4-0.5,0.4c-0.3,0-0.5-0.2-0.5-0.4c0-0.2,0.2-0.4,0.5-0.4
			C576.4,404,576.6,404.2,576.6,404.4z"/>
		<path class="st19" d="M552.7,452.4c-0.9,0-0.6-1.2,0-0.9C553.3,451.8,553.5,452.4,552.7,452.4z"/>
		<path class="st19" d="M599.6,446.5c-0.9,0-0.6-1.2,0-0.9C600.2,446,600.4,446.5,599.6,446.5z"/>
		<path class="st19" d="M541,460c-0.9,0-0.6-1.2,0-0.9C541.6,459.4,541.8,460,541,460z"/>
		<path class="st19" d="M537.5,443c-0.6,0-0.4-0.8,0-0.6C537.9,442.7,538,443,537.5,443z"/>
		<path class="st19" d="M542.8,450.5c-0.6,0-0.4-0.9,0-0.6C543.3,450.1,543.4,450.5,542.8,450.5z"/>
		<path class="st19" d="M543.1,440.1c-0.9,0-0.6-1.2,0-0.9C543.7,439.5,543.9,440.1,543.1,440.1z"/>
		<path class="st19" d="M613.1,397c-0.9,0-0.6-1.2,0-0.9C613.7,396.5,613.9,397,613.1,397z"/>
		<path class="st19" d="M616.7,406.8c-0.6,0-0.4-0.8,0-0.6C617.1,406.5,617.2,406.8,616.7,406.8z"/>
		<path class="st19" d="M622.3,403.9c-0.9,0-0.6-1.2,0-0.9C622.9,403.3,623.1,403.9,622.3,403.9z"/>
		<path class="st19" d="M554,465.1c-0.6,0-0.4-0.8,0-0.6C554.4,464.7,554.5,465.1,554,465.1z"/>
		<path class="st19" d="M603.7,426.7c-0.9,0-0.6-1.2,0-0.9C604.3,426.2,604.5,426.7,603.7,426.7z"/>
		<path class="st19" d="M590.5,420.1c-0.9,0-0.6-1.2,0-0.9C591.1,419.6,591.3,420.1,590.5,420.1z"/>
		<path class="st19" d="M591.8,432.8c-0.6,0-0.4-0.8,0-0.6C592.2,432.4,592.3,432.8,591.8,432.8z"/>
		<path class="st19" d="M564.4,440c0,0.2-0.2,0.4-0.5,0.4c-0.3,0-0.5-0.2-0.5-0.4c0-0.2,0.2-0.4,0.5-0.4
			C564.2,439.6,564.4,439.8,564.4,440z"/>
		<path class="st19" d="M653,388.4c-0.9,0-0.6-1.2,0-0.9C653.6,387.8,653.8,388.4,653,388.4z"/>
		<path class="st19" d="M639,384.4c-0.6,0-0.4-0.9,0-0.6C639.5,383.9,639.6,384.4,639,384.4z"/>
		<path class="st19" d="M655.8,408.7c-0.6,0-0.4-0.9,0-0.6C656.2,408.3,656.4,408.7,655.8,408.7z"/>
		<path class="st19" d="M650.3,399c-0.6,0-0.4-0.8,0-0.6S650.8,399,650.3,399z"/>
		<path class="st19" d="M642,403c-0.9,0-0.6-1.2,0-0.9C642.6,402.4,642.8,403,642,403z"/>
		<path class="st19" d="M641.1,392.7c0,0.2-0.2,0.4-0.5,0.4c-0.3,0-0.5-0.2-0.5-0.4c0-0.2,0.2-0.4,0.5-0.4
			C640.9,392.3,641.1,392.5,641.1,392.7z"/>
		<path class="st19" d="M647.4,448.7c-0.9,0-0.6-1.2,0-0.9C648,448.1,648.2,448.7,647.4,448.7z"/>
		<path class="st19" d="M633.5,444.7c-0.6,0-0.4-0.9,0-0.6C633.9,444.3,634,444.7,633.5,444.7z"/>
		<path class="st19" d="M644.7,459.3c-0.6,0-0.4-0.8,0-0.6C645.1,458.9,645.2,459.3,644.7,459.3z"/>
		<path class="st19" d="M637.4,442.4c-0.6,0-0.4-0.8,0-0.6C637.7,442,637.9,442.4,637.4,442.4z"/>
		<path class="st19" d="M541,396c-0.6,0-0.4-0.8,0-0.6C541.4,395.6,541.5,396,541,396z"/>
		<path class="st19" d="M538.5,403.2c-0.6,0-0.4-0.9,0-0.6C539,402.8,539.1,403.2,538.5,403.2z"/>
		<path class="st19" d="M542.4,400.9c-0.6,0-0.4-0.8,0-0.6C542.8,400.5,542.9,400.9,542.4,400.9z"/>
		<path class="st19" d="M654.1,428.5c-0.6,0-0.4-0.8,0-0.6C654.5,428.1,654.6,428.5,654.1,428.5z"/>
		<path class="st19" d="M659.4,435.9c-0.6,0-0.4-0.9,0-0.6C659.8,435.5,660,435.9,659.4,435.9z"/>
		<path class="st19" d="M659.7,425.5c-0.9,0-0.6-1.2,0-0.9C660.3,425,660.5,425.5,659.7,425.5z"/>
		<path class="st19" d="M643.2,436.2c-0.6,0-0.4-0.8,0-0.6C643.6,435.9,643.7,436.2,643.2,436.2z"/>
		<path class="st19" d="M532.6,419.6c-0.6,0-0.4-0.8,0-0.6C533,419.3,533.1,419.6,532.6,419.6z"/>
		<path class="st19" d="M544.1,430.9c-0.9,0-0.6-1.2,0-0.9C544.7,430.3,544.9,430.9,544.1,430.9z"/>
		<path class="st19" d="M530.1,426.9c-0.6,0-0.4-0.9,0-0.6C530.6,426.5,530.7,426.9,530.1,426.9z"/>
		<path class="st19" d="M574,418.7c-0.6,0-0.4-0.8,0-0.6C574.4,418.4,574.5,418.7,574,418.7z"/>
		<path class="st19" d="M539.9,418.4c-0.6,0-0.4-0.8,0-0.6C540.2,418.1,540.4,418.4,539.9,418.4z"/>
		<path class="st19" d="M630.8,430.9c-0.9,0-0.6-1.2,0-0.9C631.4,430.3,631.6,430.9,630.8,430.9z"/>
		<path class="st19" d="M632.6,421.4c-0.6,0-0.4-0.9,0-0.6C633,421,633.1,421.4,632.6,421.4z"/>
		<path class="st19" d="M616.4,421.7c-0.6,0-0.4-0.8,0-0.6C616.7,421.3,616.9,421.7,616.4,421.7z"/>
		<path class="st19" d="M610.2,426.2c-0.6,0-0.4-0.8,0-0.6C610.5,425.8,610.7,426.2,610.2,426.2z"/>
		<path class="st19" d="M617.4,425c-0.6,0-0.4-0.8,0-0.6C617.8,424.6,617.9,425,617.4,425z"/>
		<path class="st19" d="M642.9,424.3c-0.6,0-0.4-0.9,0-0.6C643.3,423.9,643.5,424.3,642.9,424.3z"/>
		<path class="st19" d="M646.8,422c-0.6,0-0.4-0.8,0-0.6C647.2,421.6,647.3,422,646.8,422z"/>
		<path class="st19" d="M635.6,453c0,0.2-0.2,0.4-0.5,0.4c-0.3,0-0.5-0.2-0.5-0.4c0-0.2,0.2-0.4,0.5-0.4
			C635.3,452.6,635.6,452.8,635.6,453z"/>
		<path class="st19" d="M558.1,391.2c-0.9,0-0.6-1.2,0-0.9C558.7,390.6,558.9,391.2,558.1,391.2z"/>
		<path class="st19" d="M549.9,384.4c-0.9,0-0.6-1.2,0-0.9C550.5,383.8,550.7,384.4,549.9,384.4z"/>
		<path class="st19" d="M562,377.3c-0.6,0-0.4-0.9,0-0.6C562.5,376.9,562.6,377.3,562,377.3z"/>
		<path class="st19" d="M564.1,385.6c0,0.2-0.2,0.4-0.5,0.4c-0.3,0-0.5-0.2-0.5-0.4c0-0.2,0.2-0.4,0.5-0.4
			C563.9,385.2,564.1,385.4,564.1,385.6z"/>
		<path class="st19" d="M580.4,362.8c-0.9,0-0.6-1.2,0-0.9C581,362.2,581.2,362.8,580.4,362.8z"/>
		<path class="st19" d="M633,376.5c-0.9,0-0.6-1.2,0-0.9C633.6,375.9,633.8,376.5,633,376.5z"/>
		<path class="st19" d="M615.3,378c-0.9,0-0.6-1.2,0-0.9C615.9,377.4,616.1,378,615.3,378z"/>
		<path class="st19" d="M596.2,364.6c-0.6,0-0.4-0.8,0-0.6C596.6,364.3,596.7,364.6,596.2,364.6z"/>
		<path class="st19" d="M603.6,374.6c-0.6,0-0.4-0.9,0-0.6C604,374.2,604.2,374.6,603.6,374.6z"/>
		<path class="st19" d="M610.5,362.8c-0.9,0-0.6-1.2,0-0.9C611.1,362.2,611.3,362.8,610.5,362.8z"/>
		<path class="st19" d="M622.9,370.2c-0.6,0-0.4-0.8,0-0.6C623.3,369.8,623.4,370.2,622.9,370.2z"/>
		<path class="st19" d="M621.7,385.6c0,0.2-0.2,0.4-0.5,0.4s-0.5-0.2-0.5-0.4c0-0.2,0.2-0.4,0.5-0.4S621.7,385.4,621.7,385.6z"/>
		<path class="st19" d="M604.1,454.7c0,0.2-0.2,0.4-0.5,0.4c-0.3,0-0.5-0.2-0.5-0.4c0-0.2,0.2-0.4,0.5-0.4
			C603.9,454.3,604.1,454.4,604.1,454.7z"/>
		<path class="st19" d="M591.3,375.5c-0.9,0-0.6-1.2,0-0.9C591.9,375,592.1,375.5,591.3,375.5z"/>
		<path class="st19" d="M582.6,372.1c-0.9,0-0.6-1.2,0-0.9C583.2,371.5,583.4,372.1,582.6,372.1z"/>
		<path class="st19" d="M566,368.3c-0.6,0-0.4-0.9,0-0.6C566.5,367.9,566.6,368.3,566,368.3z"/>
		<path class="st19" d="M577.3,379.9c-0.6,0-0.4-0.8,0-0.6C577.6,379.5,577.8,379.9,577.3,379.9z"/>
		<path class="st19" d="M591,366.8c0,0.2-0.2,0.4-0.5,0.4c-0.3,0-0.5-0.2-0.5-0.4c0-0.2,0.2-0.4,0.5-0.4
			C590.8,366.4,591,366.6,591,366.8z"/>
		<path class="st19" d="M638.7,413.1c-0.9,0-0.6-1.2,0-0.9C639.3,412.5,639.5,413.1,638.7,413.1z"/>
		<path class="st19" d="M656.9,417.7c-0.9,0-0.6-1.2,0-0.9C657.5,417.1,657.7,417.7,656.9,417.7z"/>
		<path class="st19" d="M576.1,482.7c-0.6,0-0.4-0.8,0-0.6C576.5,482.3,576.7,482.7,576.1,482.7z"/>
		<path class="st19" d="M594.3,473.7c-0.6,0-0.4-0.8,0-0.6C594.7,473.4,594.8,473.7,594.3,473.7z"/>
		<path class="st19" d="M584.9,476.9c-0.6,0-0.4-0.8,0-0.6C585.3,476.6,585.4,476.9,584.9,476.9z"/>
		<path class="st19" d="M574.4,474.2c-0.9,0-0.6-1.2,0-0.9C575,473.6,575.2,474.2,574.4,474.2z"/>
		<path class="st19" d="M572.8,466.6c-0.6,0-0.4-0.9,0-0.6C573.2,466.2,573.3,466.6,572.8,466.6z"/>
		<path class="st19" d="M583.1,469.6c-0.6,0-0.4-0.9,0-0.6C583.6,469.2,583.7,469.6,583.1,469.6z"/>
		<path class="st19" d="M585.6,462.7c-0.6,0-0.4-0.8,0-0.6C585.9,462.3,586.1,462.7,585.6,462.7z"/>
		<path class="st19" d="M600.3,468.1c-0.9,0-0.6-1.2,0-0.9C600.9,467.6,601.1,468.1,600.3,468.1z"/>
		<path class="st19" d="M628.6,406.7c-0.6,0-0.4-0.8,0-0.6C629,406.4,629.1,406.7,628.6,406.7z"/>
		<path class="st19" d="M656.6,409c0,0.2-0.2,0.4-0.5,0.4c-0.3,0-0.5-0.2-0.5-0.4s0.2-0.4,0.5-0.4
			C656.4,408.6,656.6,408.8,656.6,409z"/>
	</g>
</g>
</svg>
