<?xml version="1.0" encoding="iso-8859-1"?>
<!-- Uploaded to: SVG Repo, www.svgrepo.com, Generator: SVG Repo Mixer Tools -->
<svg fill="#000000" height="800px" width="800px" version="1.1" id="Layer_1" xmlns="http://www.w3.org/2000/svg" xmlns:xlink="http://www.w3.org/1999/xlink" 
	 viewBox="0 0 512 512" xml:space="preserve">
<g>
	<g>
		<path d="M419.403,3.037C417.606,1.102,415.083,0,412.444,0H99.556c-2.639,0-5.162,1.102-6.958,3.037
			c-1.792,1.944-2.699,4.537-2.496,7.176l37.926,493.037c0.38,4.935,4.5,8.75,9.454,8.75h237.037c4.954,0,9.074-3.815,9.454-8.75
			l37.926-493.037C422.102,7.574,421.194,4.982,419.403,3.037z M365.736,493.037H146.264L124.8,214.009
			c11.174,5.889,29.219,13.166,50.288,13.166c4.843,0,9.847-0.389,14.958-1.259c26.801-4.593,50.051-21.417,69.102-49.991
			c14.125-21.185,31.264-33.232,50.94-35.796c39.028-5.018,76.732,27.824,77.107,28.148c1.014,0.898,2.168,1.518,3.377,1.907
			L365.736,493.037z M392.267,148.137c-14.464-10.688-47.963-31.509-84.513-26.822c-25.398,3.268-47.06,18.102-64.384,44.093
			c-16.005,24.009-34.968,38.065-56.357,41.787c-33.259,5.75-62.278-15.287-62.82-15.676c-0.36-0.269-0.785-0.343-1.168-0.556
			l-13.23-172h292.407L392.267,148.137z"/>
	</g>
</g>
</svg>