<?xml version="1.0" encoding="iso-8859-1"?>
<!-- Uploaded to: SVG Repo, www.svgrepo.com, Generator: SVG Repo Mixer Tools -->
<svg height="800px" width="800px" version="1.1" id="Layer_1" xmlns="http://www.w3.org/2000/svg" xmlns:xlink="http://www.w3.org/1999/xlink" 
	 viewBox="0 0 512 512" xml:space="preserve">
<path style="fill:#FFBCAB;" d="M387.339,7.686c0,49.697-30.406,48.042-30.406,132.437c0,83.785,69.933,142.231,69.933,229.394
	s-51.69,134.795-51.69,134.795H133.451c0,0-51.69-47.632-51.69-134.795s69.933-145.61,69.933-229.394
	c0-84.395-30.406-82.74-30.406-132.437C121.289,7.686,387.339,7.686,387.339,7.686z"/>
<g>
	<path style="fill:#9CE0B8;" d="M7.601,166.983h51.261c2.476,0,4.483-2.007,4.483-4.483v-18.14c0-3.994,4.829-5.994,7.653-3.17
		l31.491,32.505c1.75,1.75,1.75,4.589,0,6.341l-29.548,29.548c-2.825,2.825-7.653,0.824-7.653-3.17v-11.636
		c0-2.476-2.007-4.483-4.483-4.483H7.601V166.983z"/>
	<path style="fill:#9CE0B8;" d="M504.399,183.79h-51.261c-2.476,0-4.483,2.007-4.483,4.483v18.14c0,3.994-4.829,5.994-7.653,3.17
		l-31.491-32.505c-1.75-1.75-1.75-4.589,0-6.341l29.548-29.548c2.825-2.825,7.653-0.824,7.653,3.17v11.636
		c0,2.476,2.007,4.483,4.483,4.483h53.203v23.311H504.399z"/>
</g>
<path style="fill:#F29E91;" d="M405.498,276.807L289.291,402.428c-18.775,18.775-49.211,18.779-67.98,0.008L103.092,276.844
	L405.498,276.807z"/>
<path style="fill:#52A2E7;" d="M399.782,271.091L287.998,381.646c-18.06,18.06-47.342,18.06-65.402,0l-113.75-110.554H399.782z"/>
<path d="M375.177,511.915H133.451c-1.908,0-3.747-0.718-5.152-2.012c-2.211-2.037-54.14-50.919-54.14-140.386
	c0-45.762,18.428-83.682,36.25-120.353c17.322-35.645,33.684-69.312,33.684-109.041c0-46.016-9.262-65.24-17.434-82.2
	C119.988,44.079,113.687,31,113.687,7.686c0-4.198,3.403-7.601,7.601-7.601h266.051c4.199,0,7.601,3.403,7.601,7.601
	c0,23.313-6.301,36.392-12.972,50.237c-8.172,16.96-17.434,36.184-17.434,82.2c0,39.729,16.362,73.397,33.684,109.041
	c17.821,36.671,36.25,74.591,36.25,120.353c0,89.466-51.929,138.348-54.141,140.386
	C378.924,511.198,377.085,511.915,375.177,511.915z M136.603,496.712h235.42c3.999-4.194,13.403-14.876,22.697-31.408
	c11.198-19.919,24.547-52.706,24.547-95.786c0-42.263-17.651-78.584-34.72-113.708c-17.312-35.623-35.213-72.459-35.213-115.687
	c0-49.487,10.502-71.284,18.941-88.799c5.536-11.488,10.066-20.891,11.194-36.037H129.161c1.129,15.146,5.659,24.549,11.194,36.037
	c8.439,17.514,18.941,39.312,18.941,88.799c0,43.228-17.901,80.064-35.213,115.687c-17.07,35.125-34.72,71.444-34.72,113.708
	C89.363,442.696,127.37,487.028,136.603,496.712z"/>
<path d="M65.286,224.838c-0.979,0-1.967-0.19-2.908-0.579c-2.841-1.177-4.693-3.949-4.693-7.023v-19.341H7.601
	c-4.198,0-7.601-3.403-7.601-7.601v-23.311c0-4.198,3.403-7.601,7.601-7.601H54.73v-25.845c0-3.075,1.852-5.846,4.693-7.023
	c2.841-1.176,6.111-0.526,8.284,1.648l43.328,43.328c2.969,2.969,2.969,7.782,0,10.749l-40.372,40.372
	C69.209,224.066,67.265,224.838,65.286,224.838z M15.203,182.692h50.085c4.198,0,7.601,3.403,7.601,7.601v8.592l22.021-22.021
	l-24.977-24.976v15.095c0,4.198-3.403,7.601-7.601,7.601H15.203V182.692z"/>
<path d="M449.67,224.669c-1.978,0-3.922-0.772-5.378-2.227l-43.328-43.328c-2.969-2.969-2.969-7.782,0-10.749l40.372-40.372
	c2.175-2.174,5.443-2.826,8.285-1.648c2.841,1.177,4.693,3.949,4.693,7.023v19.341h50.085c4.199,0,7.601,3.403,7.601,7.601v23.311
	c0,4.198-3.402,7.601-7.601,7.601H457.27v25.845c0,3.075-1.852,5.846-4.693,7.023C451.636,224.48,450.649,224.669,449.67,224.669z
	 M417.089,173.739l24.977,24.977v-15.095c0-4.198,3.402-7.601,7.601-7.601h47.129v-8.108h-50.085c-4.199,0-7.601-3.403-7.601-7.601
	v-8.592L417.089,173.739z"/>
<path d="M255.831,402.767c-13.791,0-27.577-5.247-38.076-15.746L107.201,276.466c-2.174-2.174-2.825-5.444-1.648-8.284
	c1.177-2.841,3.949-4.693,7.023-4.693h286.512c3.074,0,5.847,1.852,7.023,4.693c1.177,2.841,0.527,6.11-1.647,8.284L293.907,387.021
	C283.411,397.517,269.619,402.767,255.831,402.767z M130.927,278.693l97.578,97.577c15.067,15.067,39.584,15.068,54.651,0
	l97.578-97.577H130.927z"/>
<path d="M255.831,511.915c-4.198,0-7.601-3.403-7.601-7.601V397.855c0-4.198,3.403-7.601,7.601-7.601
	c4.199,0,7.601,3.403,7.601,7.601v106.459C263.433,508.513,260.03,511.915,255.831,511.915z"/>
<path d="M256.088,206.214c-4.198,0-7.601-3.403-7.601-7.601v-16.076c0-4.198,3.403-7.601,7.601-7.601
	c4.199,0,7.601,3.403,7.601,7.601v16.076C263.689,202.811,260.287,206.214,256.088,206.214z"/>
</svg>