<?xml version="1.0" encoding="iso-8859-1"?>
<!-- Uploaded to: SVG Repo, www.svgrepo.com, Generator: SVG Repo Mixer Tools -->
<svg version="1.1" id="Layer_1" xmlns="http://www.w3.org/2000/svg" xmlns:xlink="http://www.w3.org/1999/xlink" 
	 viewBox="0 0 512 512" xml:space="preserve">
<path style="fill:#FFD23E;" d="M509.121,217.514C490.556,94.388,384.304,0,256,0C114.615,0,0,114.615,0,256
	c0,110.537,70.058,204.71,168.194,240.542L509.121,217.514z"/>
<path style="fill:#FDA409;" d="M512,256c0-13.082-0.986-25.932-2.879-38.486L374.005,82.399l-232.982,268.21l25.539,25.539
	l-55.257,18.983l22.261,22.261l-22.261,22.261l56.89,56.89C195.581,506.542,225.153,512,256,512C397.384,512,512,397.384,512,256z"
	/>
<path style="fill:#FFF3AD;" d="M422.957,200.348L194.783,244.87L256,33.391C348.204,33.391,422.957,108.143,422.957,200.348z"/>
<path style="fill:#FFE376;" d="M400.696,200.348L194.783,244.87L256,55.652C335.91,55.652,400.696,120.437,400.696,200.348z"/>
<path style="fill:#FFF3AD;" d="M378.435,200.348L194.783,244.87L256,77.913C323.616,77.913,378.435,132.73,378.435,200.348z"/>
<path style="fill:#FFE376;" d="M356.174,200.348L194.783,244.87L256,100.174C311.323,100.174,356.174,145.025,356.174,200.348z"/>
<path style="fill:#FFF3AD;" d="M333.913,200.348l-139.13,44.522L256,122.435C299.028,122.435,333.913,157.319,333.913,200.348z"/>
<path style="fill:#FFE376;" d="M311.652,200.348l-116.87,44.522L256,144.696C286.734,144.696,311.652,169.612,311.652,200.348z"/>
<path style="fill:#FFF3AD;" d="M289.391,200.348l-94.609,44.522L256,166.957C274.441,166.957,289.391,181.907,289.391,200.348z"/>
<path style="fill:#FFFFFF;" d="M89.043,200.348L256,256V33.391C163.794,33.391,89.043,108.143,89.043,200.348z"/>
<path style="fill:#FFF3AD;" d="M111.304,200.348L256,256V55.652C176.089,55.652,111.304,120.437,111.304,200.348z"/>
<path style="fill:#FFFFFF;" d="M133.565,200.348L256,256V77.913C188.383,77.913,133.565,132.732,133.565,200.348z"/>
<path style="fill:#FFF3AD;" d="M155.826,200.348L256,256V100.174C200.676,100.174,155.826,145.025,155.826,200.348z"/>
<path style="fill:#FFFFFF;" d="M178.087,200.348L256,256V122.435C212.971,122.435,178.087,157.319,178.087,200.348z"/>
<path style="fill:#FFF3AD;" d="M200.348,200.348L256,256V144.696C225.264,144.696,200.348,169.612,200.348,200.348z"/>
<path style="fill:#FFFFFF;" d="M222.609,200.348L256,256v-89.043C237.559,166.957,222.609,181.907,222.609,200.348z"/>
<polygon style="fill:#813115;" points="400.696,372.87 400.696,395.13 256,395.13 245.003,384 256,372.87 "/>
<rect x="111.304" y="372.87" style="fill:#F72E12;" width="144.696" height="22.261"/>
<polygon style="fill:#813115;" points="400.696,417.391 400.696,439.652 256,439.652 245.003,428.522 256,417.391 "/>
<rect x="111.304" y="417.391" style="fill:#F72E12;" width="144.696" height="22.261"/>
<path style="fill:#692811;" d="M256,200.348h189.217c0,61.251-29.106,115.679-74.24,150.261H256l-33.391-75.13L256,200.348z"/>
<path style="fill:#813115;" d="M256,200.348v150.261H141.023c-45.134-34.582-74.24-89.01-74.24-150.261h66.781l11.13,11.13
	l11.13-11.13h22.261l11.13,11.13l11.13-11.13H256z"/>
<g>
	<rect x="366.414" y="244.87" style="fill:#3A160A;" width="23.151" height="23.151"/>
	<rect x="321.892" y="289.391" style="fill:#3A160A;" width="23.151" height="23.151"/>
</g>
<g>
	<rect x="178.087" y="200.348" style="fill:#FFF3AD;" width="22.261" height="128"/>
	<rect x="133.565" y="200.348" style="fill:#FFF3AD;" width="22.261" height="72.348"/>
</g>
</svg>